<?xml version="1.0" encoding="UTF-8" standalone="no"?>
<!-- Created with Inkscape (http://www.inkscape.org/) -->

<svg
   xmlns:dc="http://purl.org/dc/elements/1.1/"
   xmlns:cc="http://creativecommons.org/ns#"
   xmlns:rdf="http://www.w3.org/1999/02/22-rdf-syntax-ns#"
   xmlns:svg="http://www.w3.org/2000/svg"
   xmlns="http://www.w3.org/2000/svg"
   xmlns:sodipodi="http://sodipodi.sourceforge.net/DTD/sodipodi-0.dtd"
   xmlns:inkscape="http://www.inkscape.org/namespaces/inkscape"
   width="16"
   height="16"
   id="svg2"
   version="1.1"
   inkscape:version="0.48+devel r"
   viewBox="0 0 16 16"
   sodipodi:docname="applications-other.svg">
  <defs
     id="defs4" />
  <sodipodi:namedview
     id="base"
     pagecolor="#ffffff"
     bordercolor="#666666"
     borderopacity="1.0"
     inkscape:pageopacity="0.0"
     inkscape:pageshadow="2"
     inkscape:zoom="32.3125"
     inkscape:cx="8"
     inkscape:cy="8"
     inkscape:document-units="px"
     inkscape:current-layer="layer1"
     showgrid="true"
     units="px"
     inkscape:showpageshadow="false"
     inkscape:window-width="1366"
     inkscape:window-height="665"
     inkscape:window-x="-2"
     inkscape:window-y="26"
     inkscape:window-maximized="1">
    <inkscape:grid
       type="xygrid"
       id="grid4137" />
    <sodipodi:guide
       position="0,16.000017"
       orientation="16,0"
       id="guide4143" />
    <sodipodi:guide
       position="0,1.7382813e-05"
       orientation="0,16"
       id="guide4145" />
    <sodipodi:guide
       position="16,1.7382813e-05"
       orientation="-16,0"
       id="guide4147" />
    <sodipodi:guide
       position="16,16.000017"
       orientation="0,-16"
       id="guide4149" />
    <sodipodi:guide
       position="1.9999987,14.000017"
       orientation="12,0"
       id="guide4151" />
    <sodipodi:guide
       position="1.9999987,2.0000174"
       orientation="0,12.000002"
       id="guide4153" />
    <sodipodi:guide
       position="14.000001,2.0000174"
       orientation="-12,0"
       id="guide4155" />
    <sodipodi:guide
       position="14.000001,14.000017"
       orientation="0,-12.000002"
       id="guide4157" />
  </sodipodi:namedview>
  <metadata
     id="metadata7">
    <rdf:RDF>
      <cc:Work
         rdf:about="">
        <dc:format>image/svg+xml</dc:format>
        <dc:type
           rdf:resource="http://purl.org/dc/dcmitype/StillImage" />
        <dc:title></dc:title>
      </cc:Work>
    </rdf:RDF>
  </metadata>
  <g
     inkscape:label="Capa 1"
     inkscape:groupmode="layer"
     id="layer1"
     transform="translate(0,-1036.3622)">
    <path
       style="opacity:1;fill:#424854;fill-opacity:1;stroke:#ffffff;stroke-width:0;stroke-miterlimit:4;stroke-dasharray:none;stroke-opacity:0.2751323"
       d="M 2 2 L 2 7 L 4 7 L 4 9 L 2 9 L 2 14 L 7 14 L 7 12 L 9 12 L 9 14 L 14 14 L 14 9 L 12 9 L 12 7 L 14 7 L 14 2 L 9 2 L 9 4 L 7 4 L 7 2 L 2 2 z M 3 3 L 6 3 L 6 6 L 3 6 L 3 3 z M 10 3 L 13 3 L 13 6 L 10 6 L 10 3 z M 7 5 L 9 5 L 9 7 L 11 7 L 11 9 L 9 9 L 9 11 L 7 11 L 7 9 L 5 9 L 5 7 L 7 7 L 7 5 z M 3 10 L 6 10 L 6 13 L 3 13 L 3 10 z M 10 10 L 13 10 L 13 13 L 10 13 L 10 10 z "
       transform="translate(0,1036.3622)"
       id="rect4159" />
  </g>
</svg>
