<?xml version="1.0" encoding="UTF-8" standalone="no"?>
<!-- Created with Inkscape (http://www.inkscape.org/) -->

<svg
   xmlns:dc="http://purl.org/dc/elements/1.1/"
   xmlns:cc="http://creativecommons.org/ns#"
   xmlns:rdf="http://www.w3.org/1999/02/22-rdf-syntax-ns#"
   xmlns:svg="http://www.w3.org/2000/svg"
   xmlns="http://www.w3.org/2000/svg"
   xmlns:xlink="http://www.w3.org/1999/xlink"
   xmlns:sodipodi="http://sodipodi.sourceforge.net/DTD/sodipodi-0.dtd"
   xmlns:inkscape="http://www.inkscape.org/namespaces/inkscape"
   width="48"
   height="48"
   id="svg2"
   version="1.1"
   inkscape:version="0.91+devel r"
   sodipodi:docname="acestreamplayer.svg"
   viewBox="0 0 48 48">
  <defs
     id="defs4">
    <linearGradient
       id="linearGradient1414">
      <stop
         id="stop1416"
         offset="0"
         style="stop-color:#2c3e50;stop-opacity:1" />
      <stop
         style="stop-color:#3d5670;stop-opacity:1"
         offset="1"
         id="stop1418" />
    </linearGradient>
    <linearGradient
       gradientTransform="translate(-52.721087,-8.3501062)"
       gradientUnits="userSpaceOnUse"
       y2="-995.98181"
       x2="76.279137"
       y1="-1044.0126"
       x1="76.279137"
       id="linearGradient1398"
       xlink:href="#linearGradient1414"
       inkscape:collect="always" />
    <linearGradient
       inkscape:collect="always"
       xlink:href="#linearGradient2881"
       id="linearGradient4201"
       x1="24"
       y1="15"
       x2="24"
       y2="8"
       gradientUnits="userSpaceOnUse" />
    <linearGradient
       inkscape:collect="always"
       xlink:href="#linearGradient6589"
       id="linearGradient4209"
       x1="24"
       y1="40"
       x2="24"
       y2="34"
       gradientUnits="userSpaceOnUse" />
    <linearGradient
       inkscape:collect="always"
       xlink:href="#linearGradient859"
       id="linearGradient4217"
       x1="15"
       y1="25"
       x2="8"
       y2="25"
       gradientUnits="userSpaceOnUse" />
    <linearGradient
       inkscape:collect="always"
       xlink:href="#linearGradient839"
       id="linearGradient4225"
       x1="33"
       y1="25"
       x2="40"
       y2="25"
       gradientUnits="userSpaceOnUse" />
    <linearGradient
       inkscape:collect="always"
       id="linearGradient2881">
      <stop
         style="stop-color:#e58721;stop-opacity:1"
         offset="0"
         id="stop2883" />
      <stop
         style="stop-color:#e6b32a;stop-opacity:1"
         offset="1"
         id="stop2885" />
    </linearGradient>
    <defs
       id="defs4922">
      <filter
         height="73.013"
         width="5.8829999"
         y="4.6750002"
         x="3.7850001"
         filterUnits="userSpaceOnUse"
         id="Adobe_OpacityMaskFilter"
         color-interpolation-filters="sRGB">
        <feColorMatrix
           id="feColorMatrix4925"
           values="1 0 0 0 0  0 1 0 0 0  0 0 1 0 0  0 0 0 1 0"
           type="matrix" />
      </filter>
    </defs>
    <mask
       id="SVGID_2_"
       height="73.013"
       width="5.883"
       y="4.675"
       x="3.785"
       maskUnits="userSpaceOnUse">
      <g
         id="g4928"
         style="filter:url(#Adobe_OpacityMaskFilter)">
        <linearGradient
           y2="41.181198"
           x2="9.6680002"
           y1="41.181198"
           x1="3.7852001"
           gradientUnits="userSpaceOnUse"
           id="SVGID_3_">
          <stop
             id="stop4931"
             style="stop-color:#FFFFFF"
             offset="0" />
          <stop
             id="stop4933"
             style="stop-color:#FAFBFB"
             offset="0.0029" />
          <stop
             id="stop4935"
             style="stop-color:#BBBDBF"
             offset="0.0756" />
          <stop
             id="stop4937"
             style="stop-color:#898B8E"
             offset="0.1438" />
          <stop
             id="stop4939"
             style="stop-color:#646567"
             offset="0.2053" />
          <stop
             id="stop4941"
             style="stop-color:#444446"
             offset="0.259" />
          <stop
             id="stop4943"
             style="stop-color:#1D1C1D"
             offset="0.3028" />
          <stop
             id="stop4945"
             style="stop-color:#000000"
             offset="0.3313" />
        </linearGradient>
        <rect
           id="rect4947"
           height="73.013"
           width="5.8829999"
           y="4.6750002"
           x="3.7850001"
           style="fill:url(#SVGID_3_)" />
      </g>
    </mask>
    <linearGradient
       inkscape:collect="always"
       id="linearGradient859">
      <stop
         style="stop-color:#ffae00;stop-opacity:1"
         offset="0"
         id="stop861" />
      <stop
         style="stop-color:#fcdb00;stop-opacity:1"
         offset="1"
         id="stop863" />
    </linearGradient>
    <linearGradient
       id="linearGradient839">
      <stop
         style="stop-color:#871e82;stop-opacity:1"
         offset="0"
         id="stop841" />
      <stop
         style="stop-color:#d535d9;stop-opacity:1"
         offset="1"
         id="stop843" />
    </linearGradient>
    <linearGradient
       id="linearGradient1126"
       inkscape:collect="always">
      <stop
         id="stop1128"
         offset="0"
         style="stop-color:#058dfa;stop-opacity:1" />
      <stop
         id="stop1130"
         offset="1"
         style="stop-color:#05ccfb;stop-opacity:1" />
    </linearGradient>
    <linearGradient
       inkscape:collect="always"
       xlink:href="#linearGradient1126"
       id="linearGradient4571"
       x1="24"
       y1="1036.3622"
       x2="24"
       y2="1020.3622"
       gradientUnits="userSpaceOnUse" />
    <linearGradient
       id="linearGradient6589"
       inkscape:collect="always">
      <stop
         id="stop6591"
         offset="0"
         style="stop-color:#88c425;stop-opacity:1" />
      <stop
         id="stop6593"
         offset="1"
         style="stop-color:#bef202;stop-opacity:1" />
    </linearGradient>
  </defs>
  <sodipodi:namedview
     id="base"
     pagecolor="#ffffff"
     bordercolor="#666666"
     borderopacity="1.0"
     inkscape:pageopacity="0.0"
     inkscape:pageshadow="2"
     inkscape:zoom="11.313709"
     inkscape:cx="0.19991422"
     inkscape:cy="34.098561"
     inkscape:document-units="px"
     inkscape:current-layer="layer1"
     showgrid="true"
     inkscape:window-width="2560"
     inkscape:window-height="957"
     inkscape:window-x="-4"
     inkscape:window-y="29"
     inkscape:window-maximized="1">
    <inkscape:grid
       type="xygrid"
       id="grid3043" />
  </sodipodi:namedview>
  <metadata
     id="metadata7">
    <rdf:RDF>
      <cc:Work
         rdf:about="">
        <dc:format>image/svg+xml</dc:format>
        <dc:type
           rdf:resource="http://purl.org/dc/dcmitype/StillImage" />
        <dc:title />
      </cc:Work>
    </rdf:RDF>
  </metadata>
  <g
     inkscape:label="Capa 1"
     inkscape:groupmode="layer"
     id="layer1"
     transform="translate(0,-1004.3622)">
    <rect
       style="fill:url(#linearGradient1398);fill-opacity:1;stroke:none"
       id="rect2991-1"
       width="48"
       height="48"
       x="-3.1518556e-07"
       y="-1052.3622"
       ry="1.9445436"
       transform="scale(1,-1)" />
    <path
       style="opacity:1;fill:#000000;fill-opacity:0.05882353;stroke:none;stroke-width:0.09546665;stroke-linecap:square;stroke-linejoin:miter;stroke-miterlimit:4;stroke-dasharray:none;stroke-dashoffset:0;stroke-opacity:1"
       d="m 23.999609,1014.1622 a 15.399609,15.3996 0 0 0 -10.882536,4.5175 15.399609,15.3996 0 0 0 -4.5174636,10.8825 15.399609,15.3996 0 0 0 4.6170706,10.9899 15.399609,15.3996 0 0 0 10.782929,4.4101 15.399609,15.3996 0 0 0 10.775118,-4.4179 15.399609,15.3996 0 0 0 4.624882,-10.9821 15.399609,15.3996 0 0 0 -4.517464,-10.8825 15.399609,15.3996 0 0 0 -10.882536,-4.5175 z m 0,1.9999 a 13.39966,13.399652 0 0 1 9.470463,3.9296 13.39966,13.399652 0 0 1 3.929588,9.4705 13.39966,13.399652 0 0 1 -4.031148,9.576 13.39966,13.399652 0 0 1 -9.368903,3.8241 13.39966,13.399652 0 0 1 -9.363043,-3.83 13.39966,13.399652 0 0 1 -4.037008,-9.5701 13.39966,13.399652 0 0 1 3.929589,-9.4705 13.39966,13.399652 0 0 1 9.470462,-3.9296 z m -4.999873,5.4003 0,6.9998 0,8.9998 9.999746,-7.9998 -9.999746,-7.9998 z"
       id="path4638"
       inkscape:connector-curvature="0" />
    <path
       inkscape:connector-curvature="0"
       id="path4636"
       d="m 23.999609,1013.7622 a 15.399609,15.3996 0 0 0 -10.882536,4.5175 15.399609,15.3996 0 0 0 -4.5174636,10.8825 15.399609,15.3996 0 0 0 4.6170706,10.9899 15.399609,15.3996 0 0 0 10.782929,4.4101 15.399609,15.3996 0 0 0 10.775118,-4.4179 15.399609,15.3996 0 0 0 4.624882,-10.9821 15.399609,15.3996 0 0 0 -4.517464,-10.8825 15.399609,15.3996 0 0 0 -10.882536,-4.5175 z m 0,1.9999 a 13.39966,13.399652 0 0 1 9.470463,3.9296 13.39966,13.399652 0 0 1 3.929588,9.4705 13.39966,13.399652 0 0 1 -4.031148,9.576 13.39966,13.399652 0 0 1 -9.368903,3.8241 13.39966,13.399652 0 0 1 -9.363043,-3.83 13.39966,13.399652 0 0 1 -4.037008,-9.5701 13.39966,13.399652 0 0 1 3.929589,-9.4705 13.39966,13.399652 0 0 1 9.470462,-3.9296 z m -4.999873,5.4003 0,6.9998 0,8.9998 9.999746,-7.9998 -9.999746,-7.9998 z"
       style="opacity:1;fill:#000000;fill-opacity:0.11764706;stroke:none;stroke-width:0.09546665;stroke-linecap:square;stroke-linejoin:miter;stroke-miterlimit:4;stroke-dasharray:none;stroke-dashoffset:0;stroke-opacity:1" />
    <path
       style="opacity:1;fill:#000000;fill-opacity:0.23529412;stroke:none;stroke-width:0.09546665;stroke-linecap:square;stroke-linejoin:miter;stroke-miterlimit:4;stroke-dasharray:none;stroke-dashoffset:0;stroke-opacity:1"
       d="m 23.999609,1013.3622 a 15.399609,15.3996 0 0 0 -10.882536,4.5175 15.399609,15.3996 0 0 0 -4.5174636,10.8825 15.399609,15.3996 0 0 0 4.6170706,10.9899 15.399609,15.3996 0 0 0 10.782929,4.4101 15.399609,15.3996 0 0 0 10.775118,-4.4179 15.399609,15.3996 0 0 0 4.624882,-10.9821 15.399609,15.3996 0 0 0 -4.517464,-10.8825 15.399609,15.3996 0 0 0 -10.882536,-4.5175 z m 0,1.9999 a 13.39966,13.399652 0 0 1 9.470463,3.9296 13.39966,13.399652 0 0 1 3.929588,9.4705 13.39966,13.399652 0 0 1 -4.031148,9.576 13.39966,13.399652 0 0 1 -9.368903,3.8241 13.39966,13.399652 0 0 1 -9.363043,-3.83 13.39966,13.399652 0 0 1 -4.037008,-9.5701 13.39966,13.399652 0 0 1 3.929589,-9.4705 13.39966,13.399652 0 0 1 9.470462,-3.9296 z m -4.999873,5.4003 0,6.9998 0,8.9998 9.999746,-7.9998 -9.999746,-7.9998 z"
       id="path4623"
       inkscape:connector-curvature="0" />
    <path
       inkscape:connector-curvature="0"
       style="fill:#000000;fill-opacity:1;stroke:none"
       d="m -1.5e-6,1049.3622 0,1.0625 c 0,1.0773 0.860223,1.9375 1.9375,1.9375 l 44.1250025,0 c 1.07727,0 1.9375,-0.8602 1.9375,-1.9375 l 0,-1.0625 c 0,1.0773 -0.86023,1.9375 -1.9375,1.9375 l -44.1250025,0 c -1.077277,0 -1.9375,-0.8602 -1.9375,-1.9375 z"
       id="rect846" />
    <path
       inkscape:connector-curvature="0"
       style="fill:#ffffff;fill-opacity:0.5372549;stroke:none"
       d="m 2.5312485,1005.0185 c -0.917088,0 -1.671147,0.6395 -1.84375,1.5 0.335612,-0.2799 0.774512,-0.4375 1.25,-0.4375 l 44.1250025,0 c 0.47549,0 0.91439,0.1576 1.25,0.4375 -0.17261,-0.8605 -0.92667,-1.5 -1.84375,-1.5 l -42.9375025,0 z"
       id="path7515" />
    <path
       inkscape:connector-curvature="0"
       style="fill:#000000;fill-opacity:0.39215686;stroke:none"
       d="m 1.9374985,1004.3622 c -1.077277,0 -1.9375,0.8602 -1.9375,1.9375 l 0,43.0625 c 0,0.7934 0.480024,1.449 1.15625,1.75 -0.309342,-0.3333 -0.5,-0.7824 -0.5,-1.2812 l 0,-42.9375 c 0,-1.0482 0.826899,-1.875 1.875,-1.875 l 42.9375025,0 c 1.048101,0 1.875,0.8268 1.875,1.875 l 0,42.9375 c 0,0.4988 -0.190659,0.9479 -0.5,1.2812 0.67622,-0.301 1.15625,-0.9566 1.15625,-1.75 l 0,-43.0625 c 0,-1.0773 -0.86023,-1.9375 -1.9375,-1.9375 l -44.1250025,0 z"
       id="rect4280-0" />
    <path
       style="opacity:1;fill:url(#linearGradient4209);fill-opacity:1.0;stroke:none;stroke-width:0.0954691;stroke-linecap:square;stroke-linejoin:miter;stroke-miterlimit:4;stroke-dasharray:none;stroke-dashoffset:0;stroke-opacity:1"
       d="M 34.775391 34.982422 L 33.369141 33.576172 A 13.4 13.4 0 0 1 24 37.400391 A 13.4 13.4 0 0 1 14.636719 33.570312 L 13.216797 34.990234 A 15.4 15.4 0 0 0 24 39.400391 A 15.4 15.4 0 0 0 34.775391 34.982422 z "
       id="path4193"
       transform="translate(0,1004.3622)" />
    <path
       style="opacity:1;fill:url(#linearGradient4225);fill-opacity:1.0;stroke:none;stroke-width:0.0954691;stroke-linecap:square;stroke-linejoin:miter;stroke-miterlimit:4;stroke-dasharray:none;stroke-dashoffset:0;stroke-opacity:1"
       d="M 33.470703 14.529297 A 13.4 13.4 0 0 1 37.400391 24 A 13.4 13.4 0 0 1 33.369141 33.576172 L 34.775391 34.982422 A 15.4 15.4 0 0 0 39.400391 24 A 15.4 15.4 0 0 0 34.882812 13.117188 L 33.470703 14.529297 z "
       id="path4191"
       transform="translate(0,1004.3622)" />
    <path
       style="opacity:1;fill:url(#linearGradient4217);fill-opacity:1.0;stroke:none;stroke-width:0.0954691;stroke-linecap:square;stroke-linejoin:miter;stroke-miterlimit:4;stroke-dasharray:none;stroke-dashoffset:0;stroke-opacity:1"
       d="M 13.117188 13.117188 A 15.4 15.4 0 0 0 8.5996094 24 A 15.4 15.4 0 0 0 13.216797 34.990234 L 14.636719 33.570312 A 13.4 13.4 0 0 1 10.599609 24 A 13.4 13.4 0 0 1 14.529297 14.529297 L 13.117188 13.117188 z "
       id="path4189"
       transform="translate(0,1004.3622)" />
    <path
       style="opacity:1;fill:url(#linearGradient4201);fill-opacity:1.0;stroke:none;stroke-width:0.0954691;stroke-linecap:square;stroke-linejoin:miter;stroke-miterlimit:4;stroke-dasharray:none;stroke-dashoffset:0;stroke-opacity:1"
       d="M 13.117188 13.117188 L 14.529297 14.529297 A 13.4 13.4 0 0 1 24 10.599609 A 13.4 13.4 0 0 1 33.470703 14.529297 L 34.882812 13.117188 A 15.4 15.4 0 0 0 24 8.5996094 A 15.4 15.4 0 0 0 13.117188 13.117188 z "
       id="path4176"
       transform="translate(0,1004.3622)" />
    <path
       style="fill:url(#linearGradient4571);fill-opacity:1;fill-rule:evenodd;stroke:none;stroke-width:1px;stroke-linecap:butt;stroke-linejoin:miter;stroke-opacity:1"
       d="m 19,1027.3622 0,-7 10,8 -10,8 0,-9 c 6.165048,0 6.165048,0 0,0 z"
       id="path4520"
       inkscape:connector-curvature="0"
       sodipodi:nodetypes="cccccc" />
    <path
       style="opacity:1;fill:#1a1a1a;fill-opacity:0.3137255;stroke:none;stroke-width:0.09546667;stroke-linecap:square;stroke-linejoin:miter;stroke-miterlimit:4;stroke-dasharray:none;stroke-dashoffset:0;stroke-opacity:1"
       d="M 24 9.8007812 A 13.39966 13.399652 0 0 0 14.529297 13.730469 A 13.39966 13.399652 0 0 0 10.599609 23.199219 A 13.39966 13.399652 0 0 0 10.619141 23.609375 A 13.39966 13.39966 0 0 1 14.529297 14.529297 A 13.39966 13.39966 0 0 1 24 10.599609 A 13.39966 13.39966 0 0 1 33.470703 14.529297 A 13.39966 13.39966 0 0 1 37.380859 23.572266 A 13.39966 13.399652 0 0 0 37.400391 23.199219 A 13.39966 13.399652 0 0 0 33.470703 13.730469 A 13.39966 13.399652 0 0 0 24 9.8007812 z M 8.6191406 23.568359 A 15.399609 15.399609 0 0 0 8.5996094 24 A 15.399609 15.399609 0 0 0 13.216797 34.990234 A 15.399609 15.399609 0 0 0 24 39.400391 A 15.399609 15.399609 0 0 0 34.775391 34.982422 A 15.399609 15.399609 0 0 0 39.400391 24 A 15.399609 15.399609 0 0 0 39.380859 23.603516 A 15.399609 15.3996 0 0 1 34.775391 34.181641 A 15.399609 15.3996 0 0 1 24 38.599609 A 15.399609 15.3996 0 0 1 13.216797 34.189453 A 15.399609 15.3996 0 0 1 8.6191406 23.568359 z M 28.5 23.599609 L 19 31.199219 L 19 32 L 29 24 L 28.5 23.599609 z "
       transform="translate(0,1004.3622)"
       id="path4640" />
    <path
       style="opacity:1;fill:#ffffff;fill-opacity:0.23529412;stroke:none;stroke-width:0.09546665;stroke-linecap:square;stroke-linejoin:miter;stroke-miterlimit:4;stroke-dasharray:none;stroke-dashoffset:0;stroke-opacity:1"
       d="M 24 8.5996094 A 15.399609 15.3996 0 0 0 13.117188 13.117188 A 15.399609 15.3996 0 0 0 8.5996094 24 A 15.399609 15.3996 0 0 0 8.609375 24.183594 A 15.399609 15.3996 0 0 1 13.117188 13.517578 A 15.399609 15.3996 0 0 1 24 9 A 15.399609 15.3996 0 0 1 34.882812 13.517578 A 15.399609 15.3996 0 0 1 39.390625 24.203125 A 15.399609 15.3996 0 0 0 39.400391 24 A 15.399609 15.3996 0 0 0 34.882812 13.117188 A 15.399609 15.3996 0 0 0 24 8.5996094 z M 19 16 L 19 16.400391 L 28.75 24.199219 L 29 24 L 19 16 z M 37.390625 24.185547 A 13.39966 13.399652 0 0 1 33.369141 33.576172 A 13.39966 13.399652 0 0 1 24 37.400391 A 13.39966 13.399652 0 0 1 14.636719 33.570312 A 13.39966 13.399652 0 0 1 10.609375 24.205078 A 13.39966 13.399652 0 0 0 10.599609 24.400391 A 13.39966 13.399652 0 0 0 14.636719 33.970703 A 13.39966 13.399652 0 0 0 24 37.800781 A 13.39966 13.399652 0 0 0 33.369141 33.976562 A 13.39966 13.399652 0 0 0 37.400391 24.400391 A 13.39966 13.399652 0 0 0 37.390625 24.185547 z "
       transform="translate(0,1004.3622)"
       id="path4656" />
  </g>
</svg>
