<?xml version="1.0" encoding="UTF-8" standalone="no"?>
<!-- Created with Inkscape (http://www.inkscape.org/) -->

<svg
   xmlns:dc="http://purl.org/dc/elements/1.1/"
   xmlns:cc="http://creativecommons.org/ns#"
   xmlns:rdf="http://www.w3.org/1999/02/22-rdf-syntax-ns#"
   xmlns:svg="http://www.w3.org/2000/svg"
   xmlns="http://www.w3.org/2000/svg"
   xmlns:xlink="http://www.w3.org/1999/xlink"
   xmlns:sodipodi="http://sodipodi.sourceforge.net/DTD/sodipodi-0.dtd"
   xmlns:inkscape="http://www.inkscape.org/namespaces/inkscape"
   width="48"
   height="48"
   id="svg5453"
   version="1.1"
   inkscape:version="0.91+devel r"
   sodipodi:docname="desktop-environment-enlightenment.svg"
   viewBox="0 0 48 48">
  <defs
     id="defs5455">
    <linearGradient
       y2="-1004.7695"
       x2="-13.025376"
       y1="-1052.8632"
       x1="-13.025376"
       gradientTransform="translate(432.1173,504.8513)"
       gradientUnits="userSpaceOnUse"
       id="linearGradient4264"
       xlink:href="#linearGradient1373"
       inkscape:collect="always" />
    <linearGradient
       id="linearGradient1373"
       inkscape:collect="always">
      <stop
         id="stop1375"
         offset="0"
         style="stop-color:#282827;stop-opacity:1" />
      <stop
         id="stop1377"
         offset="1"
         style="stop-color:#292929;stop-opacity:1" />
    </linearGradient>
    <linearGradient
       id="linearGradient5161">
      <stop
         id="stop5163"
         offset="0"
         style="stop-color:#dcdcdc;stop-opacity:1" />
      <stop
         id="stop5165"
         offset="1"
         style="stop-color:#fafafa;stop-opacity:1" />
    </linearGradient>
    <linearGradient
       inkscape:collect="always"
       xlink:href="#linearGradient5161"
       id="linearGradient4557"
       x1="408.56616"
       y1="539.16901"
       x2="408.56616"
       y2="508.22229"
       gradientUnits="userSpaceOnUse" />
  </defs>
  <sodipodi:namedview
     id="base"
     pagecolor="#ffffff"
     bordercolor="#666666"
     borderopacity="1.0"
     inkscape:pageopacity="0"
     inkscape:pageshadow="2"
     inkscape:zoom="8"
     inkscape:cx="36.184674"
     inkscape:cy="12.761007"
     inkscape:document-units="px"
     inkscape:current-layer="layer1"
     showgrid="false"
     fit-margin-top="0"
     fit-margin-left="0"
     fit-margin-right="0"
     fit-margin-bottom="0"
     inkscape:window-width="2560"
     inkscape:window-height="957"
     inkscape:window-x="-4"
     inkscape:window-y="29"
     inkscape:window-maximized="1" />
  <metadata
     id="metadata5458">
    <rdf:RDF>
      <cc:Work
         rdf:about="">
        <dc:format>image/svg+xml</dc:format>
        <dc:type
           rdf:resource="http://purl.org/dc/dcmitype/StillImage" />
        <dc:title />
      </cc:Work>
    </rdf:RDF>
  </metadata>
  <g
     inkscape:label="Capa 1"
     inkscape:groupmode="layer"
     id="layer1"
     transform="translate(-384.57143,-499.798)">
    <rect
       transform="scale(1,-1)"
       ry="1.9445436"
       y="-547.79797"
       x="384.57144"
       height="48"
       width="48"
       id="rect4256"
       style="fill:url(#linearGradient4264);fill-opacity:1;stroke:none" />
    <path
       id="path4258"
       d="m 384.57142,544.798 0,1.0625 c 0,1.0773 0.86022,1.9375 1.9375,1.9375 l 44.125,0 c 1.07728,0 1.9375,-0.8602 1.9375,-1.9375 l 0,-1.0625 c 0,1.0773 -0.86022,1.9375 -1.9375,1.9375 l -44.125,0 c -1.07728,0 -1.9375,-0.8602 -1.9375,-1.9375 z"
       style="fill:#000000;fill-opacity:1;stroke:none"
       inkscape:connector-curvature="0" />
    <path
       id="path4260"
       d="m 387.10267,500.4543 c -0.91709,0 -1.67115,0.6395 -1.84375,1.5 0.33561,-0.2799 0.77451,-0.4375 1.25,-0.4375 l 44.125,0 c 0.47549,0 0.91439,0.1576 1.25,0.4375 -0.1726,-0.8605 -0.92666,-1.5 -1.84375,-1.5 l -42.9375,0 z"
       style="fill:#ffffff;fill-opacity:0.5372549;stroke:none"
       inkscape:connector-curvature="0" />
    <path
       id="path4262"
       d="m 386.50892,499.798 c -1.07728,0 -1.9375,0.8602 -1.9375,1.9375 l 0,43.0625 c 0,0.7934 0.48002,1.449 1.15625,1.75 -0.30934,-0.3333 -0.5,-0.7824 -0.5,-1.2812 l 0,-42.9375 c 0,-1.0482 0.8269,-1.875 1.875,-1.875 l 42.9375,0 c 1.0481,0 1.875,0.8268 1.875,1.875 l 0,42.9375 c 0,0.4988 -0.19066,0.9479 -0.5,1.2812 0.67623,-0.301 1.15625,-0.9566 1.15625,-1.75 l 0,-43.0625 c 0,-1.0773 -0.86022,-1.9375 -1.9375,-1.9375 l -44.125,0 z"
       style="fill:#000000;fill-opacity:0.39215686;stroke:none"
       inkscape:connector-curvature="0" />
    <g
       id="g4317"
       transform="translate(329.04895,505.22607)" />
    <path
       inkscape:connector-curvature="0"
       id="path4565"
       d="m 408.55836,540.3715 c 0,-0.034 -0.038,-0.3824 -0.072,-0.656 -0.1875,-1.5181 -0.4571,-2.3661 -0.8882,-2.794 -0.071,-0.071 -0.2343,-0.1922 -0.258,-0.1922 -0.023,0 -0.1627,0.061 -0.2273,0.099 -0.164,0.097 -0.2979,0.2115 -0.4304,0.3696 -0.274,0.3269 -0.5056,0.7468 -0.7726,1.4005 -0.1245,0.3047 -0.3491,0.9338 -0.4711,1.3194 -0.028,0.088 -0.052,0.1575 -0.054,0.1553 0,0 0.01,-0.091 0.016,-0.1973 0.041,-0.401 0.058,-0.6056 0.088,-1.0539 0.016,-0.2392 0.016,-0.9829 3e-4,-1.1603 -0.059,-0.668 -0.2006,-1.0858 -0.4606,-1.3627 l -0.061,-0.065 -0.042,0.01 c -0.5834,0.088 -1.1739,0.6534 -1.9224,1.8393 -0.157,0.2488 -0.3939,0.6465 -0.5539,0.9301 -0.03,0.054 -0.057,0.096 -0.059,0.094 0,0 0.027,-0.099 0.063,-0.2158 0.3024,-0.9544 0.47,-1.6459 0.5373,-2.2158 0.021,-0.1757 0.028,-0.4897 0.015,-0.6488 -0.024,-0.2941 -0.1087,-0.559 -0.2358,-0.7336 l -0.034,-0.046 -0.1537,0 c -0.1577,0 -0.251,0.02 -0.3866,0.065 -0.3111,0.1021 -0.6841,0.3344 -1.0746,0.669 -0.3826,0.3278 -0.8695,0.8218 -1.3976,1.4179 -0.065,0.073 -0.1221,0.1374 -0.1273,0.1426 -0.01,0.01 -0.01,0.01 0.1248,-0.2282 0.2579,-0.4557 0.5639,-1.0459 0.7051,-1.3599 0.2838,-0.6309 0.4215,-1.1063 0.4354,-1.5039 0.01,-0.2228 -0.023,-0.4238 -0.087,-0.5679 -0.022,-0.05 -0.026,-0.053 -0.074,-0.067 -0.1526,-0.043 -0.4056,-0.052 -0.5832,-0.021 -0.6428,0.1129 -1.4399,0.5521 -2.7342,1.5068 -0.081,0.06 -0.1538,0.1135 -0.1616,0.1192 -0.02,0.015 -0.01,0 0.1865,-0.2221 1.0179,-1.1641 1.512,-1.9061 1.6722,-2.5108 0.067,-0.2537 0.07,-0.5311 0.01,-0.7155 -0.01,-0.03 -0.017,-0.055 -0.016,-0.055 0,0 0.069,0.087 0.1489,0.1926 0.5615,0.7414 0.8961,1.0979 1.6635,1.7721 0.4209,0.3698 0.741,0.6175 1.1571,0.8955 0.1933,0.1292 0.7828,0.4735 1.1395,0.6656 0.3979,0.2142 0.9025,0.4367 1.327,0.5852 0.3384,0.1184 1.0395,0.3359 1.2598,0.3908 0.4103,0.1024 0.8639,0.1834 1.3076,0.2335 0.7975,0.09 1.127,0.1105 1.6453,0.102 0.3591,-0.01 0.5011,-0.015 1.0365,-0.069 0.592,-0.059 0.8198,-0.092 1.2268,-0.1765 0.4129,-0.086 0.5959,-0.1344 1.0746,-0.2852 0.6574,-0.207 0.8769,-0.2886 1.4011,-0.5211 0.4151,-0.1841 1.251,-0.6503 1.6903,-0.9426 0.432,-0.2876 0.7389,-0.5277 1.23,-0.9627 0.695,-0.6154 1.0573,-1.0058 1.5794,-1.7021 0.073,-0.098 0.1338,-0.1765 0.1347,-0.1755 0.001,9e-4 -0.01,0.04 -0.021,0.087 -0.1196,0.4453 0.054,1.0093 0.5322,1.726 0.2753,0.4131 0.6893,0.9342 1.2125,1.5265 0.1374,0.1555 0.152,0.173 0.1344,0.1604 -0.01,-0.01 -0.074,-0.055 -0.1474,-0.1086 -0.4489,-0.3318 -1.0172,-0.7208 -1.3266,-0.908 -0.8075,-0.4885 -1.4135,-0.6886 -1.8735,-0.6183 -0.05,0.01 -0.1126,0.021 -0.1397,0.029 l -0.049,0.015 -0.03,0.078 c -0.1364,0.3539 -0.098,0.8278 0.116,1.4435 0.1775,0.5097 0.4624,1.099 0.9495,1.9638 0.056,0.099 0.1072,0.1914 0.1138,0.2044 0.015,0.03 0.018,0.033 -0.1332,-0.1379 -1.2751,-1.4412 -2.1027,-2.079 -2.7682,-2.1332 -0.059,0 -0.1371,-0.01 -0.1723,0 l -0.064,0 -0.033,0.05 c -0.1358,0.2046 -0.2092,0.4474 -0.2319,0.7668 -0.01,0.07 -0.01,0.2052 -2e-4,0.3234 0.024,0.5898 0.1936,1.3517 0.5549,2.494 0.04,0.125 0.071,0.2284 0.069,0.2299 0,0 -0.041,-0.065 -0.087,-0.1465 -1.0255,-1.8033 -1.7187,-2.5878 -2.4012,-2.7175 l -0.09,-0.017 -0.069,0.073 c -0.2606,0.2763 -0.4032,0.7055 -0.4552,1.3709 -0.016,0.2106 -0.019,0.7606 0,1.0414 0.018,0.3439 0.062,0.8903 0.1,1.2354 0.01,0.07 0.013,0.1288 0.011,0.1304 0,0 -0.036,-0.1007 -0.077,-0.2274 -0.3698,-1.1481 -0.7176,-1.9517 -1.0574,-2.4425 -0.2384,-0.3443 -0.5057,-0.5752 -0.7738,-0.6686 l -0.076,-0.027 -0.093,0.062 c -0.5335,0.3551 -0.8514,1.2343 -1.0615,2.9356 -0.034,0.2736 -0.072,0.6219 -0.072,0.656 0,0.016 0,0.029 -0.01,0.029 -0.01,0 -0.01,-0.013 -0.01,-0.029 z m -0.7324,-4.5799 c -1.6632,-0.1046 -3.2521,-0.6147 -4.7863,-1.5367 -1.0763,-0.647 -2.0527,-1.4944 -2.8464,-2.4708 -1.7131,-2.1072 -2.5443,-4.8129 -2.3285,-7.5794 0.1577,-2.0221 0.8853,-3.9899 2.0566,-5.562 1.7743,-2.3816 4.506,-3.9351 7.51,-4.2708 1.6631,-0.1859 3.3401,0.019 4.8976,0.5988 1.253,0.4664 2.446,1.1907 3.462,2.1021 0.3036,0.2723 0.709,0.691 0.9848,1.017 1.045,1.2354 1.797,2.7167 2.1948,4.3231 0.3214,1.2979 0.4019,2.6794 0.2335,4.0076 -0.167,1.3175 -0.5756,2.5936 -1.198,3.7422 -0.1659,0.306 -0.3271,0.5698 -0.564,0.9225 -0.1932,0.2878 -0.2903,0.4198 -0.4055,0.5515 -0.1265,0.1445 -0.4831,0.519 -0.4916,0.5161 -0.018,-0.01 -14.1106,-9.418 -14.1109,-9.424 -10e-5,0 0.039,-0.1085 0.086,-0.233 0.1412,-0.3692 0.1983,-0.4791 0.4487,-0.8635 0.5391,-0.8276 1.05,-1.3953 1.7102,-1.9001 1.524,-1.1651 3.505,-1.5662 5.4053,-1.0943 2.1569,0.5355 3.8858,2.0684 4.6177,4.0943 0.1831,0.507 0.2881,0.983 0.3477,1.5771 0.024,0.2347 0.024,0.8369 10e-5,1.0794 -0.06,0.6174 -0.1724,1.127 -0.3744,1.6959 -0.034,0.097 -0.058,0.1776 -0.054,0.1819 0.023,0.021 1.3486,0.9272 1.3533,0.9251 0.014,-0.01 0.1544,-0.3505 0.2158,-0.5296 0.2146,-0.6264 0.3372,-1.2468 0.3995,-2.0213 0.023,-0.2858 0.023,-0.94 3e-4,-1.2316 -0.1067,-1.362 -0.4707,-2.5412 -1.1169,-3.6184 -0.6449,-1.0752 -1.5946,-2.0179 -2.7061,-2.6861 -1.1067,-0.6653 -2.3278,-1.0684 -3.5868,-1.184 -0.3775,-0.035 -0.917,-0.041 -1.2792,-0.015 -1.8012,0.1296 -3.4357,0.8071 -4.774,1.9788 -0.1657,0.1451 -0.5448,0.5243 -0.6887,0.6889 -0.6086,0.6961 -1.1001,1.4831 -1.4433,2.311 -0.5269,1.2709 -0.7233,2.674 -0.5685,4.0608 0.1566,1.4025 0.675,2.7412 1.5023,3.88 0.5084,0.6997 1.173,1.3565 1.8878,1.8654 0.9418,0.6706 1.8441,1.0693 2.9005,1.2814 0.744,0.1494 1.5544,0.1905 2.3442,0.119 1.2073,-0.1094 2.4306,-0.4649 3.5816,-1.0406 0.153,-0.077 0.2249,-0.108 0.2306,-0.1007 0.03,0.038 1.313,2.253 1.309,2.2595 -0.013,0.021 -0.6387,0.342 -0.9221,0.4728 -1.4548,0.6716 -2.8784,1.0377 -4.337,1.1153 -0.2466,0.013 -0.8495,0.01 -1.0985,-0.01 z m -8.7832,-17.7066 c 0,-0.01 0.015,-0.054 0.025,-0.097 0.1194,-0.501 -0.096,-1.0973 -0.7034,-1.9482 -0.2559,-0.3585 -0.6452,-0.8335 -1.1529,-1.407 -0.052,-0.058 -0.052,-0.059 0.1627,0.1 1.159,0.8549 1.91,1.287 2.5107,1.4443 0.1884,0.049 0.2758,0.061 0.4517,0.062 0.158,4e-4 0.2056,-0.01 0.3301,-0.039 l 0.054,-0.015 0.028,-0.072 c 0.1556,-0.4084 0.089,-0.9566 -0.2074,-1.6987 -0.1843,-0.4621 -0.4967,-1.085 -0.8845,-1.7641 -0.04,-0.071 -0.079,-0.1391 -0.085,-0.1522 l -0.012,-0.024 0.023,0.024 c 0.013,0.013 0.076,0.084 0.1411,0.1569 0.7191,0.812 1.3206,1.3872 1.7873,1.7091 0.2877,0.1985 0.5753,0.3337 0.8178,0.3845 0.057,0.012 0.1247,0.017 0.2278,0.017 l 0.1469,3e-4 0.036,-0.048 c 0.02,-0.026 0.057,-0.09 0.083,-0.1427 0.124,-0.2528 0.1688,-0.5297 0.1525,-0.9429 -0.024,-0.6063 -0.1968,-1.3757 -0.5788,-2.575 -0.027,-0.083 -0.047,-0.1526 -0.045,-0.1543 0,0 0.039,0.06 0.082,0.1371 0.4853,0.8541 0.8875,1.4652 1.25,1.8994 0.1189,0.1423 0.3522,0.3777 0.4716,0.4757 0.229,0.188 0.4697,0.3108 0.6904,0.3521 l 0.082,0.015 0.042,-0.041 c 0.15,-0.1464 0.2833,-0.3892 0.3594,-0.6549 0.098,-0.343 0.1376,-0.7014 0.1378,-1.2597 2e-4,-0.5315 -0.04,-1.1609 -0.1186,-1.8593 0,-0.024 0.057,0.1391 0.1318,0.3614 0.2129,0.63 0.3198,0.9182 0.4725,1.2743 0.2833,0.6606 0.5385,1.0767 0.8352,1.3619 0.1546,0.1486 0.313,0.2516 0.4738,0.3082 l 0.049,0.017 0.084,-0.057 c 0.105,-0.071 0.255,-0.2207 0.3358,-0.3354 0.3685,-0.5233 0.5938,-1.4078 0.7706,-3.0261 0.016,-0.149 0.031,-0.2722 0.032,-0.2737 0,0 0.01,0.028 0.01,0.066 0.026,0.2709 0.084,0.7502 0.1301,1.0678 0.1558,1.0726 0.3742,1.7756 0.6799,2.189 0.1033,0.1396 0.2498,0.2767 0.3684,0.3445 l 0.053,0.03 0.06,-0.02 c 0.2138,-0.072 0.4392,-0.2401 0.6303,-0.4702 0.3983,-0.4798 0.7283,-1.1903 1.1709,-2.5202 0.064,-0.1935 0.1173,-0.3454 0.1175,-0.3376 3e-4,0.01 -0.01,0.117 -0.023,0.2425 -0.1366,1.3373 -0.1318,2.2293 0.015,2.8004 0.055,0.2157 0.1339,0.4093 0.2204,0.5438 0.041,0.064 0.1356,0.1823 0.1765,0.2212 l 0.029,0.028 0.069,-0.011 c 0.1547,-0.025 0.3689,-0.116 0.5287,-0.2235 0.5253,-0.3534 1.0771,-1.0758 1.8477,-2.4193 0.068,-0.1183 0.1261,-0.2175 0.1293,-0.2204 0.01,-0.01 0.01,0 -0.087,0.2944 -0.2783,0.881 -0.4513,1.6008 -0.5141,2.1398 -0.021,0.177 -0.028,0.5094 -0.015,0.6597 0.025,0.2867 0.1123,0.5559 0.2333,0.7202 0.032,0.043 0.033,0.044 0.096,0.049 0.035,0 0.1078,0 0.1621,0 0.3629,-0.029 0.772,-0.231 1.255,-0.6194 0.3977,-0.3198 0.9199,-0.8398 1.5081,-1.5013 0.1252,-0.1409 0.1638,-0.1809 0.1485,-0.154 0,0 -0.038,0.067 -0.08,0.1402 -0.6235,1.0927 -0.9896,1.9052 -1.1193,2.484 -0.091,0.4074 -0.08,0.7954 0.031,1.0204 l 0.026,0.052 0.09,0.023 c 0.079,0.02 0.1138,0.023 0.2758,0.024 0.141,6e-4 0.2071,0 0.2759,-0.016 0.6247,-0.1178 1.3582,-0.5154 2.5534,-1.3839 0.1255,-0.091 0.2536,-0.1853 0.2846,-0.2091 0.072,-0.055 0.064,-0.043 -0.065,0.1032 -0.7536,0.8502 -1.2405,1.4984 -1.5145,2.0162 -0.1156,0.2185 -0.2206,0.4936 -0.2594,0.68 -0.039,0.1891 -0.035,0.4302 0.01,0.5935 0.01,0.034 0.016,0.063 0.015,0.065 0,0 -0.066,-0.082 -0.1444,-0.185 -0.3168,-0.4194 -0.4265,-0.5515 -0.744,-0.8956 -0.2719,-0.2946 -0.685,-0.6802 -1.1589,-1.082 -0.2609,-0.2211 -0.5945,-0.4705 -0.916,-0.6848 -0.3101,-0.2066 -1.1324,-0.6743 -1.4645,-0.8329 -0.1777,-0.085 -0.5263,-0.2371 -0.7085,-0.3094 -0.3446,-0.1367 -1.2414,-0.4227 -1.5882,-0.5064 -0.5441,-0.1313 -0.9202,-0.1922 -1.6119,-0.2611 -0.6344,-0.063 -0.6799,-0.066 -1.184,-0.066 -0.5331,10e-5 -0.6185,0.01 -1.36,0.085 -0.5492,0.058 -0.9713,0.132 -1.4502,0.2523 -0.3746,0.094 -1.2184,0.3658 -1.5743,0.5069 -0.1512,0.06 -0.5034,0.2145 -0.6796,0.2982 -0.2241,0.1065 -0.8723,0.4674 -1.2268,0.683 -0.3616,0.22 -0.7988,0.5362 -1.1346,0.8207 -0.494,0.4186 -0.8955,0.7921 -1.1622,1.0813 -0.3304,0.3583 -0.4277,0.475 -0.7453,0.8939 -0.091,0.1203 -0.1627,0.2102 -0.1588,0.1997 z"
       style="fill:#000000;fill-opacity:0.05882353;stroke-width:0.00950999" />
    <path
       style="fill:#000000;fill-opacity:0.11764706;stroke-width:0.00950999"
       d="m 408.55836,539.9715 c 0,-0.034 -0.038,-0.3824 -0.072,-0.656 -0.1875,-1.5181 -0.4571,-2.3661 -0.8882,-2.794 -0.071,-0.071 -0.2343,-0.1922 -0.258,-0.1922 -0.023,0 -0.1627,0.061 -0.2273,0.099 -0.164,0.097 -0.2979,0.2115 -0.4304,0.3696 -0.274,0.3269 -0.5056,0.7468 -0.7726,1.4005 -0.1245,0.3047 -0.3491,0.9338 -0.4711,1.3194 -0.028,0.088 -0.052,0.1575 -0.054,0.1553 0,0 0.01,-0.091 0.016,-0.1973 0.041,-0.401 0.058,-0.6056 0.088,-1.0539 0.016,-0.2392 0.016,-0.9829 3e-4,-1.1603 -0.059,-0.668 -0.2006,-1.0858 -0.4606,-1.3627 l -0.061,-0.065 -0.042,0.01 c -0.5834,0.088 -1.1739,0.6534 -1.9224,1.8393 -0.157,0.2488 -0.3939,0.6465 -0.5539,0.9301 -0.03,0.054 -0.057,0.096 -0.059,0.094 0,0 0.027,-0.099 0.063,-0.2158 0.3024,-0.9544 0.47,-1.6459 0.5373,-2.2158 0.021,-0.1757 0.028,-0.4897 0.015,-0.6488 -0.024,-0.2941 -0.1087,-0.559 -0.2358,-0.7336 l -0.034,-0.046 -0.1537,0 c -0.1577,0 -0.251,0.02 -0.3866,0.065 -0.3111,0.1021 -0.6841,0.3344 -1.0746,0.669 -0.3826,0.3278 -0.8695,0.8218 -1.3976,1.4179 -0.065,0.073 -0.1221,0.1374 -0.1273,0.1426 -0.01,0.01 -0.01,0.01 0.1248,-0.2282 0.2579,-0.4557 0.5639,-1.0459 0.7051,-1.3599 0.2838,-0.6309 0.4215,-1.1063 0.4354,-1.5039 0.01,-0.2228 -0.023,-0.4238 -0.087,-0.5679 -0.022,-0.05 -0.026,-0.053 -0.074,-0.067 -0.1526,-0.043 -0.4056,-0.052 -0.5832,-0.021 -0.6428,0.1129 -1.4399,0.5521 -2.7342,1.5068 -0.081,0.06 -0.1538,0.1135 -0.1616,0.1192 -0.02,0.015 -0.01,0 0.1865,-0.2221 1.0179,-1.1641 1.512,-1.9061 1.6722,-2.5108 0.067,-0.2537 0.07,-0.5311 0.01,-0.7155 -0.01,-0.03 -0.017,-0.055 -0.016,-0.055 0,0 0.069,0.087 0.1489,0.1926 0.5615,0.7414 0.8961,1.0979 1.6635,1.7721 0.4209,0.3698 0.741,0.6175 1.1571,0.8955 0.1933,0.1292 0.7828,0.4735 1.1395,0.6656 0.3979,0.2142 0.9025,0.4367 1.327,0.5852 0.3384,0.1184 1.0395,0.3359 1.2598,0.3908 0.4103,0.1024 0.8639,0.1834 1.3076,0.2335 0.7975,0.09 1.127,0.1105 1.6453,0.102 0.3591,-0.01 0.5011,-0.015 1.0365,-0.069 0.592,-0.059 0.8198,-0.092 1.2268,-0.1765 0.4129,-0.086 0.5959,-0.1344 1.0746,-0.2852 0.6574,-0.207 0.8769,-0.2886 1.4011,-0.5211 0.4151,-0.1841 1.251,-0.6503 1.6903,-0.9426 0.432,-0.2876 0.7389,-0.5277 1.23,-0.9627 0.695,-0.6154 1.0573,-1.0058 1.5794,-1.7021 0.073,-0.098 0.1338,-0.1765 0.1347,-0.1755 0.001,9e-4 -0.01,0.04 -0.021,0.087 -0.1196,0.4453 0.054,1.0093 0.5322,1.726 0.2753,0.4131 0.6893,0.9342 1.2125,1.5265 0.1374,0.1555 0.152,0.173 0.1344,0.1604 -0.01,-0.01 -0.074,-0.055 -0.1474,-0.1086 -0.4489,-0.3318 -1.0172,-0.7208 -1.3266,-0.908 -0.8075,-0.4885 -1.4135,-0.6886 -1.8735,-0.6183 -0.05,0.01 -0.1126,0.021 -0.1397,0.029 l -0.049,0.015 -0.03,0.078 c -0.1364,0.3539 -0.098,0.8278 0.116,1.4435 0.1775,0.5097 0.4624,1.099 0.9495,1.9638 0.056,0.099 0.1072,0.1914 0.1138,0.2044 0.015,0.03 0.018,0.033 -0.1332,-0.1379 -1.2751,-1.4412 -2.1027,-2.079 -2.7682,-2.1332 -0.059,0 -0.1371,-0.01 -0.1723,0 l -0.064,0 -0.033,0.05 c -0.1358,0.2046 -0.2092,0.4474 -0.2319,0.7668 -0.01,0.07 -0.01,0.2052 -2e-4,0.3234 0.024,0.5898 0.1936,1.3517 0.5549,2.494 0.04,0.125 0.071,0.2284 0.069,0.2299 0,0 -0.041,-0.065 -0.087,-0.1465 -1.0255,-1.8033 -1.7187,-2.5878 -2.4012,-2.7175 l -0.09,-0.017 -0.069,0.073 c -0.2606,0.2763 -0.4032,0.7055 -0.4552,1.3709 -0.016,0.2106 -0.019,0.7606 0,1.0414 0.018,0.3439 0.062,0.8903 0.1,1.2354 0.01,0.07 0.013,0.1288 0.011,0.1304 0,0 -0.036,-0.1007 -0.077,-0.2274 -0.3698,-1.1481 -0.7176,-1.9517 -1.0574,-2.4425 -0.2384,-0.3443 -0.5057,-0.5752 -0.7738,-0.6686 l -0.076,-0.027 -0.093,0.062 c -0.5335,0.3551 -0.8514,1.2343 -1.0615,2.9356 -0.034,0.2736 -0.072,0.6219 -0.072,0.656 0,0.016 0,0.029 -0.01,0.029 -0.01,0 -0.01,-0.013 -0.01,-0.029 z m -0.7324,-4.5799 c -1.6632,-0.1046 -3.2521,-0.6147 -4.7863,-1.5367 -1.0763,-0.647 -2.0527,-1.4944 -2.8464,-2.4708 -1.7131,-2.1072 -2.5443,-4.8129 -2.3285,-7.5794 0.1577,-2.0221 0.8853,-3.9899 2.0566,-5.562 1.7743,-2.3816 4.506,-3.9351 7.51,-4.2708 1.6631,-0.1859 3.3401,0.019 4.8976,0.5988 1.253,0.4664 2.446,1.1907 3.462,2.1021 0.3036,0.2723 0.709,0.691 0.9848,1.017 1.045,1.2354 1.797,2.7167 2.1948,4.3231 0.3214,1.2979 0.4019,2.6794 0.2335,4.0076 -0.167,1.3175 -0.5756,2.5936 -1.198,3.7422 -0.1659,0.306 -0.3271,0.5698 -0.564,0.9225 -0.1932,0.2878 -0.2903,0.4198 -0.4055,0.5515 -0.1265,0.1445 -0.4831,0.519 -0.4916,0.5161 -0.018,-0.01 -14.1106,-9.418 -14.1109,-9.424 -10e-5,0 0.039,-0.1085 0.086,-0.233 0.1412,-0.3692 0.1983,-0.4791 0.4487,-0.8635 0.5391,-0.8276 1.05,-1.3953 1.7102,-1.9001 1.524,-1.1651 3.505,-1.5662 5.4053,-1.0943 2.1569,0.5355 3.8858,2.0684 4.6177,4.0943 0.1831,0.507 0.2881,0.983 0.3477,1.5771 0.024,0.2347 0.024,0.8369 10e-5,1.0794 -0.06,0.6174 -0.1724,1.127 -0.3744,1.6959 -0.034,0.097 -0.058,0.1776 -0.054,0.1819 0.023,0.021 1.3486,0.9272 1.3533,0.9251 0.014,-0.01 0.1544,-0.3505 0.2158,-0.5296 0.2146,-0.6264 0.3372,-1.2468 0.3995,-2.0213 0.023,-0.2858 0.023,-0.94 3e-4,-1.2316 -0.1067,-1.362 -0.4707,-2.5412 -1.1169,-3.6184 -0.6449,-1.0752 -1.5946,-2.0179 -2.7061,-2.6861 -1.1067,-0.6653 -2.3278,-1.0684 -3.5868,-1.184 -0.3775,-0.035 -0.917,-0.041 -1.2792,-0.015 -1.8012,0.1296 -3.4357,0.8071 -4.774,1.9788 -0.1657,0.1451 -0.5448,0.5243 -0.6887,0.6889 -0.6086,0.6961 -1.1001,1.4831 -1.4433,2.311 -0.5269,1.2709 -0.7233,2.674 -0.5685,4.0608 0.1566,1.4025 0.675,2.7412 1.5023,3.88 0.5084,0.6997 1.173,1.3565 1.8878,1.8654 0.9418,0.6706 1.8441,1.0693 2.9005,1.2814 0.744,0.1494 1.5544,0.1905 2.3442,0.119 1.2073,-0.1094 2.4306,-0.4649 3.5816,-1.0406 0.153,-0.077 0.2249,-0.108 0.2306,-0.1007 0.03,0.038 1.313,2.253 1.309,2.2595 -0.013,0.021 -0.6387,0.342 -0.9221,0.4728 -1.4548,0.6716 -2.8784,1.0377 -4.337,1.1153 -0.2466,0.013 -0.8495,0.01 -1.0985,-0.01 z m -8.7832,-17.7066 c 0,-0.01 0.015,-0.054 0.025,-0.097 0.1194,-0.501 -0.096,-1.0973 -0.7034,-1.9482 -0.2559,-0.3585 -0.6452,-0.8335 -1.1529,-1.407 -0.052,-0.058 -0.052,-0.059 0.1627,0.1 1.159,0.8549 1.91,1.287 2.5107,1.4443 0.1884,0.049 0.2758,0.061 0.4517,0.062 0.158,4e-4 0.2056,-0.01 0.3301,-0.039 l 0.054,-0.015 0.028,-0.072 c 0.1556,-0.4084 0.089,-0.9566 -0.2074,-1.6987 -0.1843,-0.4621 -0.4967,-1.085 -0.8845,-1.7641 -0.04,-0.071 -0.079,-0.1391 -0.085,-0.1522 l -0.012,-0.024 0.023,0.024 c 0.013,0.013 0.076,0.084 0.1411,0.1569 0.7191,0.812 1.3206,1.3872 1.7873,1.7091 0.2877,0.1985 0.5753,0.3337 0.8178,0.3845 0.057,0.012 0.1247,0.017 0.2278,0.017 l 0.1469,3e-4 0.036,-0.048 c 0.02,-0.026 0.057,-0.09 0.083,-0.1427 0.124,-0.2528 0.1688,-0.5297 0.1525,-0.9429 -0.024,-0.6063 -0.1968,-1.3757 -0.5788,-2.575 -0.027,-0.083 -0.047,-0.1526 -0.045,-0.1543 0,0 0.039,0.06 0.082,0.1371 0.4853,0.8541 0.8875,1.4652 1.25,1.8994 0.1189,0.1423 0.3522,0.3777 0.4716,0.4757 0.229,0.188 0.4697,0.3108 0.6904,0.3521 l 0.082,0.015 0.042,-0.041 c 0.15,-0.1464 0.2833,-0.3892 0.3594,-0.6549 0.098,-0.343 0.1376,-0.7014 0.1378,-1.2597 2e-4,-0.5315 -0.04,-1.1609 -0.1186,-1.8593 0,-0.024 0.057,0.1391 0.1318,0.3614 0.2129,0.63 0.3198,0.9182 0.4725,1.2743 0.2833,0.6606 0.5385,1.0767 0.8352,1.3619 0.1546,0.1486 0.313,0.2516 0.4738,0.3082 l 0.049,0.017 0.084,-0.057 c 0.105,-0.071 0.255,-0.2207 0.3358,-0.3354 0.3685,-0.5233 0.5938,-1.4078 0.7706,-3.0261 0.016,-0.149 0.031,-0.2722 0.032,-0.2737 0,0 0.01,0.028 0.01,0.066 0.026,0.2709 0.084,0.7502 0.1301,1.0678 0.1558,1.0726 0.3742,1.7756 0.6799,2.189 0.1033,0.1396 0.2498,0.2767 0.3684,0.3445 l 0.053,0.03 0.06,-0.02 c 0.2138,-0.072 0.4392,-0.2401 0.6303,-0.4702 0.3983,-0.4798 0.7283,-1.1903 1.1709,-2.5202 0.064,-0.1935 0.1173,-0.3454 0.1175,-0.3376 3e-4,0.01 -0.01,0.117 -0.023,0.2425 -0.1366,1.3373 -0.1318,2.2293 0.015,2.8004 0.055,0.2157 0.1339,0.4093 0.2204,0.5438 0.041,0.064 0.1356,0.1823 0.1765,0.2212 l 0.029,0.028 0.069,-0.011 c 0.1547,-0.025 0.3689,-0.116 0.5287,-0.2235 0.5253,-0.3534 1.0771,-1.0758 1.8477,-2.4193 0.068,-0.1183 0.1261,-0.2175 0.1293,-0.2204 0.01,-0.01 0.01,0 -0.087,0.2944 -0.2783,0.881 -0.4513,1.6008 -0.5141,2.1398 -0.021,0.177 -0.028,0.5094 -0.015,0.6597 0.025,0.2867 0.1123,0.5559 0.2333,0.7202 0.032,0.043 0.033,0.044 0.096,0.049 0.035,0 0.1078,0 0.1621,0 0.3629,-0.029 0.772,-0.231 1.255,-0.6194 0.3977,-0.3198 0.9199,-0.8398 1.5081,-1.5013 0.1252,-0.1409 0.1638,-0.1809 0.1485,-0.154 0,0 -0.038,0.067 -0.08,0.1402 -0.6235,1.0927 -0.9896,1.9052 -1.1193,2.484 -0.091,0.4074 -0.08,0.7954 0.031,1.0204 l 0.026,0.052 0.09,0.023 c 0.079,0.02 0.1138,0.023 0.2758,0.024 0.141,6e-4 0.2071,0 0.2759,-0.016 0.6247,-0.1178 1.3582,-0.5154 2.5534,-1.3839 0.1255,-0.091 0.2536,-0.1853 0.2846,-0.2091 0.072,-0.055 0.064,-0.043 -0.065,0.1032 -0.7536,0.8502 -1.2405,1.4984 -1.5145,2.0162 -0.1156,0.2185 -0.2206,0.4936 -0.2594,0.68 -0.039,0.1891 -0.035,0.4302 0.01,0.5935 0.01,0.034 0.016,0.063 0.015,0.065 0,0 -0.066,-0.082 -0.1444,-0.185 -0.3168,-0.4194 -0.4265,-0.5515 -0.744,-0.8956 -0.2719,-0.2946 -0.685,-0.6802 -1.1589,-1.082 -0.2609,-0.2211 -0.5945,-0.4705 -0.916,-0.6848 -0.3101,-0.2066 -1.1324,-0.6743 -1.4645,-0.8329 -0.1777,-0.085 -0.5263,-0.2371 -0.7085,-0.3094 -0.3446,-0.1367 -1.2414,-0.4227 -1.5882,-0.5064 -0.5441,-0.1313 -0.9202,-0.1922 -1.6119,-0.2611 -0.6344,-0.063 -0.6799,-0.066 -1.184,-0.066 -0.5331,10e-5 -0.6185,0.01 -1.36,0.085 -0.5492,0.058 -0.9713,0.132 -1.4502,0.2523 -0.3746,0.094 -1.2184,0.3658 -1.5743,0.5069 -0.1512,0.06 -0.5034,0.2145 -0.6796,0.2982 -0.2241,0.1065 -0.8723,0.4674 -1.2268,0.683 -0.3616,0.22 -0.7988,0.5362 -1.1346,0.8207 -0.494,0.4186 -0.8955,0.7921 -1.1622,1.0813 -0.3304,0.3583 -0.4277,0.475 -0.7453,0.8939 -0.091,0.1203 -0.1627,0.2102 -0.1588,0.1997 z"
       id="path4563"
       inkscape:connector-curvature="0" />
    <path
       inkscape:connector-curvature="0"
       id="path4559"
       d="m 408.55836,539.5715 c 0,-0.034 -0.038,-0.3824 -0.072,-0.656 -0.1875,-1.5181 -0.4571,-2.3661 -0.8882,-2.794 -0.071,-0.071 -0.2343,-0.1922 -0.258,-0.1922 -0.023,0 -0.1627,0.061 -0.2273,0.099 -0.164,0.097 -0.2979,0.2115 -0.4304,0.3696 -0.274,0.3269 -0.5056,0.7468 -0.7726,1.4005 -0.1245,0.3047 -0.3491,0.9338 -0.4711,1.3194 -0.028,0.088 -0.052,0.1575 -0.054,0.1553 0,0 0.01,-0.091 0.016,-0.1973 0.041,-0.401 0.058,-0.6056 0.088,-1.0539 0.016,-0.2392 0.016,-0.9829 3e-4,-1.1603 -0.059,-0.668 -0.2006,-1.0858 -0.4606,-1.3627 l -0.061,-0.065 -0.042,0.01 c -0.5834,0.088 -1.1739,0.6534 -1.9224,1.8393 -0.157,0.2488 -0.3939,0.6465 -0.5539,0.9301 -0.03,0.054 -0.057,0.096 -0.059,0.094 0,0 0.027,-0.099 0.063,-0.2158 0.3024,-0.9544 0.47,-1.6459 0.5373,-2.2158 0.021,-0.1757 0.028,-0.4897 0.015,-0.6488 -0.024,-0.2941 -0.1087,-0.559 -0.2358,-0.7336 l -0.034,-0.046 -0.1537,0 c -0.1577,0 -0.251,0.02 -0.3866,0.065 -0.3111,0.1021 -0.6841,0.3344 -1.0746,0.669 -0.3826,0.3278 -0.8695,0.8218 -1.3976,1.4179 -0.065,0.073 -0.1221,0.1374 -0.1273,0.1426 -0.01,0.01 -0.01,0.01 0.1248,-0.2282 0.2579,-0.4557 0.5639,-1.0459 0.7051,-1.3599 0.2838,-0.6309 0.4215,-1.1063 0.4354,-1.5039 0.01,-0.2228 -0.023,-0.4238 -0.087,-0.5679 -0.022,-0.05 -0.026,-0.053 -0.074,-0.067 -0.1526,-0.043 -0.4056,-0.052 -0.5832,-0.021 -0.6428,0.1129 -1.4399,0.5521 -2.7342,1.5068 -0.081,0.06 -0.1538,0.1135 -0.1616,0.1192 -0.02,0.015 -0.01,0 0.1865,-0.2221 1.0179,-1.1641 1.512,-1.9061 1.6722,-2.5108 0.067,-0.2537 0.07,-0.5311 0.01,-0.7155 -0.01,-0.03 -0.017,-0.055 -0.016,-0.055 0,0 0.069,0.087 0.1489,0.1926 0.5615,0.7414 0.8961,1.0979 1.6635,1.7721 0.4209,0.3698 0.741,0.6175 1.1571,0.8955 0.1933,0.1292 0.7828,0.4735 1.1395,0.6656 0.3979,0.2142 0.9025,0.4367 1.327,0.5852 0.3384,0.1184 1.0395,0.3359 1.2598,0.3908 0.4103,0.1024 0.8639,0.1834 1.3076,0.2335 0.7975,0.09 1.127,0.1105 1.6453,0.102 0.3591,-0.01 0.5011,-0.015 1.0365,-0.069 0.592,-0.059 0.8198,-0.092 1.2268,-0.1765 0.4129,-0.086 0.5959,-0.1344 1.0746,-0.2852 0.6574,-0.207 0.8769,-0.2886 1.4011,-0.5211 0.4151,-0.1841 1.251,-0.6503 1.6903,-0.9426 0.432,-0.2876 0.7389,-0.5277 1.23,-0.9627 0.695,-0.6154 1.0573,-1.0058 1.5794,-1.7021 0.073,-0.098 0.1338,-0.1765 0.1347,-0.1755 0.001,9e-4 -0.01,0.04 -0.021,0.087 -0.1196,0.4453 0.054,1.0093 0.5322,1.726 0.2753,0.4131 0.6893,0.9342 1.2125,1.5265 0.1374,0.1555 0.152,0.173 0.1344,0.1604 -0.01,-0.01 -0.074,-0.055 -0.1474,-0.1086 -0.4489,-0.3318 -1.0172,-0.7208 -1.3266,-0.908 -0.8075,-0.4885 -1.4135,-0.6886 -1.8735,-0.6183 -0.05,0.01 -0.1126,0.021 -0.1397,0.029 l -0.049,0.015 -0.03,0.078 c -0.1364,0.3539 -0.098,0.8278 0.116,1.4435 0.1775,0.5097 0.4624,1.099 0.9495,1.9638 0.056,0.099 0.1072,0.1914 0.1138,0.2044 0.015,0.03 0.018,0.033 -0.1332,-0.1379 -1.2751,-1.4412 -2.1027,-2.079 -2.7682,-2.1332 -0.059,0 -0.1371,-0.01 -0.1723,0 l -0.064,0 -0.033,0.05 c -0.1358,0.2046 -0.2092,0.4474 -0.2319,0.7668 -0.01,0.07 -0.01,0.2052 -2e-4,0.3234 0.024,0.5898 0.1936,1.3517 0.5549,2.494 0.04,0.125 0.071,0.2284 0.069,0.2299 0,0 -0.041,-0.065 -0.087,-0.1465 -1.0255,-1.8033 -1.7187,-2.5878 -2.4012,-2.7175 l -0.09,-0.017 -0.069,0.073 c -0.2606,0.2763 -0.4032,0.7055 -0.4552,1.3709 -0.016,0.2106 -0.019,0.7606 0,1.0414 0.018,0.3439 0.062,0.8903 0.1,1.2354 0.01,0.07 0.013,0.1288 0.011,0.1304 0,0 -0.036,-0.1007 -0.077,-0.2274 -0.3698,-1.1481 -0.7176,-1.9517 -1.0574,-2.4425 -0.2384,-0.3443 -0.5057,-0.5752 -0.7738,-0.6686 l -0.076,-0.027 -0.093,0.062 c -0.5335,0.3551 -0.8514,1.2343 -1.0615,2.9356 -0.034,0.2736 -0.072,0.6219 -0.072,0.656 0,0.016 0,0.029 -0.01,0.029 -0.01,0 -0.01,-0.013 -0.01,-0.029 z m -0.7324,-4.5799 c -1.6632,-0.1046 -3.2521,-0.6147 -4.7863,-1.5367 -1.0763,-0.647 -2.0527,-1.4944 -2.8464,-2.4708 -1.7131,-2.1072 -2.5443,-4.8129 -2.3285,-7.5794 0.1577,-2.0221 0.8853,-3.9899 2.0566,-5.562 1.7743,-2.3816 4.506,-3.9351 7.51,-4.2708 1.6631,-0.1859 3.3401,0.019 4.8976,0.5988 1.253,0.4664 2.446,1.1907 3.462,2.1021 0.3036,0.2723 0.709,0.691 0.9848,1.017 1.045,1.2354 1.797,2.7167 2.1948,4.3231 0.3214,1.2979 0.4019,2.6794 0.2335,4.0076 -0.167,1.3175 -0.5756,2.5936 -1.198,3.7422 -0.1659,0.306 -0.3271,0.5698 -0.564,0.9225 -0.1932,0.2878 -0.2903,0.4198 -0.4055,0.5515 -0.1265,0.1445 -0.4831,0.519 -0.4916,0.5161 -0.018,-0.01 -14.1106,-9.418 -14.1109,-9.424 -10e-5,0 0.039,-0.1085 0.086,-0.233 0.1412,-0.3692 0.1983,-0.4791 0.4487,-0.8635 0.5391,-0.8276 1.05,-1.3953 1.7102,-1.9001 1.524,-1.1651 3.505,-1.5662 5.4053,-1.0943 2.1569,0.5355 3.8858,2.0684 4.6177,4.0943 0.1831,0.507 0.2881,0.983 0.3477,1.5771 0.024,0.2347 0.024,0.8369 10e-5,1.0794 -0.06,0.6174 -0.1724,1.127 -0.3744,1.6959 -0.034,0.097 -0.058,0.1776 -0.054,0.1819 0.023,0.021 1.3486,0.9272 1.3533,0.9251 0.014,-0.01 0.1544,-0.3505 0.2158,-0.5296 0.2146,-0.6264 0.3372,-1.2468 0.3995,-2.0213 0.023,-0.2858 0.023,-0.94 3e-4,-1.2316 -0.1067,-1.362 -0.4707,-2.5412 -1.1169,-3.6184 -0.6449,-1.0752 -1.5946,-2.0179 -2.7061,-2.6861 -1.1067,-0.6653 -2.3278,-1.0684 -3.5868,-1.184 -0.3775,-0.035 -0.917,-0.041 -1.2792,-0.015 -1.8012,0.1296 -3.4357,0.8071 -4.774,1.9788 -0.1657,0.1451 -0.5448,0.5243 -0.6887,0.6889 -0.6086,0.6961 -1.1001,1.4831 -1.4433,2.311 -0.5269,1.2709 -0.7233,2.674 -0.5685,4.0608 0.1566,1.4025 0.675,2.7412 1.5023,3.88 0.5084,0.6997 1.173,1.3565 1.8878,1.8654 0.9418,0.6706 1.8441,1.0693 2.9005,1.2814 0.744,0.1494 1.5544,0.1905 2.3442,0.119 1.2073,-0.1094 2.4306,-0.4649 3.5816,-1.0406 0.153,-0.077 0.2249,-0.108 0.2306,-0.1007 0.03,0.038 1.313,2.253 1.309,2.2595 -0.013,0.021 -0.6387,0.342 -0.9221,0.4728 -1.4548,0.6716 -2.8784,1.0377 -4.337,1.1153 -0.2466,0.013 -0.8495,0.01 -1.0985,-0.01 z m -8.7832,-17.7066 c 0,-0.01 0.015,-0.054 0.025,-0.097 0.1194,-0.501 -0.096,-1.0973 -0.7034,-1.9482 -0.2559,-0.3585 -0.6452,-0.8335 -1.1529,-1.407 -0.052,-0.058 -0.052,-0.059 0.1627,0.1 1.159,0.8549 1.91,1.287 2.5107,1.4443 0.1884,0.049 0.2758,0.061 0.4517,0.062 0.158,4e-4 0.2056,-0.01 0.3301,-0.039 l 0.054,-0.015 0.028,-0.072 c 0.1556,-0.4084 0.089,-0.9566 -0.2074,-1.6987 -0.1843,-0.4621 -0.4967,-1.085 -0.8845,-1.7641 -0.04,-0.071 -0.079,-0.1391 -0.085,-0.1522 l -0.012,-0.024 0.023,0.024 c 0.013,0.013 0.076,0.084 0.1411,0.1569 0.7191,0.812 1.3206,1.3872 1.7873,1.7091 0.2877,0.1985 0.5753,0.3337 0.8178,0.3845 0.057,0.012 0.1247,0.017 0.2278,0.017 l 0.1469,3e-4 0.036,-0.048 c 0.02,-0.026 0.057,-0.09 0.083,-0.1427 0.124,-0.2528 0.1688,-0.5297 0.1525,-0.9429 -0.024,-0.6063 -0.1968,-1.3757 -0.5788,-2.575 -0.027,-0.083 -0.047,-0.1526 -0.045,-0.1543 0,0 0.039,0.06 0.082,0.1371 0.4853,0.8541 0.8875,1.4652 1.25,1.8994 0.1189,0.1423 0.3522,0.3777 0.4716,0.4757 0.229,0.188 0.4697,0.3108 0.6904,0.3521 l 0.082,0.015 0.042,-0.041 c 0.15,-0.1464 0.2833,-0.3892 0.3594,-0.6549 0.098,-0.343 0.1376,-0.7014 0.1378,-1.2597 2e-4,-0.5315 -0.04,-1.1609 -0.1186,-1.8593 0,-0.024 0.057,0.1391 0.1318,0.3614 0.2129,0.63 0.3198,0.9182 0.4725,1.2743 0.2833,0.6606 0.5385,1.0767 0.8352,1.3619 0.1546,0.1486 0.313,0.2516 0.4738,0.3082 l 0.049,0.017 0.084,-0.057 c 0.105,-0.071 0.255,-0.2207 0.3358,-0.3354 0.3685,-0.5233 0.5938,-1.4078 0.7706,-3.0261 0.016,-0.149 0.031,-0.2722 0.032,-0.2737 0,0 0.01,0.028 0.01,0.066 0.026,0.2709 0.084,0.7502 0.1301,1.0678 0.1558,1.0726 0.3742,1.7756 0.6799,2.189 0.1033,0.1396 0.2498,0.2767 0.3684,0.3445 l 0.053,0.03 0.06,-0.02 c 0.2138,-0.072 0.4392,-0.2401 0.6303,-0.4702 0.3983,-0.4798 0.7283,-1.1903 1.1709,-2.5202 0.064,-0.1935 0.1173,-0.3454 0.1175,-0.3376 3e-4,0.01 -0.01,0.117 -0.023,0.2425 -0.1366,1.3373 -0.1318,2.2293 0.015,2.8004 0.055,0.2157 0.1339,0.4093 0.2204,0.5438 0.041,0.064 0.1356,0.1823 0.1765,0.2212 l 0.029,0.028 0.069,-0.011 c 0.1547,-0.025 0.3689,-0.116 0.5287,-0.2235 0.5253,-0.3534 1.0771,-1.0758 1.8477,-2.4193 0.068,-0.1183 0.1261,-0.2175 0.1293,-0.2204 0.01,-0.01 0.01,0 -0.087,0.2944 -0.2783,0.881 -0.4513,1.6008 -0.5141,2.1398 -0.021,0.177 -0.028,0.5094 -0.015,0.6597 0.025,0.2867 0.1123,0.5559 0.2333,0.7202 0.032,0.043 0.033,0.044 0.096,0.049 0.035,0 0.1078,0 0.1621,0 0.3629,-0.029 0.772,-0.231 1.255,-0.6194 0.3977,-0.3198 0.9199,-0.8398 1.5081,-1.5013 0.1252,-0.1409 0.1638,-0.1809 0.1485,-0.154 0,0 -0.038,0.067 -0.08,0.1402 -0.6235,1.0927 -0.9896,1.9052 -1.1193,2.484 -0.091,0.4074 -0.08,0.7954 0.031,1.0204 l 0.026,0.052 0.09,0.023 c 0.079,0.02 0.1138,0.023 0.2758,0.024 0.141,6e-4 0.2071,0 0.2759,-0.016 0.6247,-0.1178 1.3582,-0.5154 2.5534,-1.3839 0.1255,-0.091 0.2536,-0.1853 0.2846,-0.2091 0.072,-0.055 0.064,-0.043 -0.065,0.1032 -0.7536,0.8502 -1.2405,1.4984 -1.5145,2.0162 -0.1156,0.2185 -0.2206,0.4936 -0.2594,0.68 -0.039,0.1891 -0.035,0.4302 0.01,0.5935 0.01,0.034 0.016,0.063 0.015,0.065 0,0 -0.066,-0.082 -0.1444,-0.185 -0.3168,-0.4194 -0.4265,-0.5515 -0.744,-0.8956 -0.2719,-0.2946 -0.685,-0.6802 -1.1589,-1.082 -0.2609,-0.2211 -0.5945,-0.4705 -0.916,-0.6848 -0.3101,-0.2066 -1.1324,-0.6743 -1.4645,-0.8329 -0.1777,-0.085 -0.5263,-0.2371 -0.7085,-0.3094 -0.3446,-0.1367 -1.2414,-0.4227 -1.5882,-0.5064 -0.5441,-0.1313 -0.9202,-0.1922 -1.6119,-0.2611 -0.6344,-0.063 -0.6799,-0.066 -1.184,-0.066 -0.5331,1e-4 -0.6185,0.01 -1.36,0.085 -0.5492,0.058 -0.9713,0.132 -1.4502,0.2523 -0.3746,0.094 -1.2184,0.3658 -1.5743,0.5069 -0.1512,0.06 -0.5034,0.2145 -0.6796,0.2982 -0.2241,0.1065 -0.8723,0.4674 -1.2268,0.683 -0.3616,0.22 -0.7988,0.5362 -1.1346,0.8207 -0.494,0.4186 -0.8955,0.7921 -1.1622,1.0813 -0.3304,0.3583 -0.4277,0.475 -0.7453,0.8939 -0.091,0.1203 -0.1627,0.2102 -0.1588,0.1997 z"
       style="fill:#000000;fill-opacity:0.23529412;stroke-width:0.00950999" />
    <path
       style="fill:url(#linearGradient4557);stroke-width:0.00950999;fill-opacity:1"
       d="m 408.55836,539.1715 c 0,-0.034 -0.038,-0.3824 -0.072,-0.656 -0.1875,-1.5181 -0.4571,-2.3661 -0.8882,-2.794 -0.071,-0.071 -0.2343,-0.1922 -0.258,-0.1922 -0.023,0 -0.1627,0.061 -0.2273,0.099 -0.164,0.097 -0.2979,0.2115 -0.4304,0.3696 -0.274,0.3269 -0.5056,0.7468 -0.7726,1.4005 -0.1245,0.3047 -0.3491,0.9338 -0.4711,1.3194 -0.028,0.088 -0.052,0.1575 -0.054,0.1553 0,0 0.01,-0.091 0.016,-0.1973 0.041,-0.401 0.058,-0.6056 0.088,-1.0539 0.016,-0.2392 0.016,-0.9829 3e-4,-1.1603 -0.059,-0.668 -0.2006,-1.0858 -0.4606,-1.3627 l -0.061,-0.065 -0.042,0.01 c -0.5834,0.088 -1.1739,0.6534 -1.9224,1.8393 -0.157,0.2488 -0.3939,0.6465 -0.5539,0.9301 -0.03,0.054 -0.057,0.096 -0.059,0.094 0,0 0.027,-0.099 0.063,-0.2158 0.3024,-0.9544 0.47,-1.6459 0.5373,-2.2158 0.021,-0.1757 0.028,-0.4897 0.015,-0.6488 -0.024,-0.2941 -0.1087,-0.559 -0.2358,-0.7336 l -0.034,-0.046 -0.1537,0 c -0.1577,0 -0.251,0.02 -0.3866,0.065 -0.3111,0.1021 -0.6841,0.3344 -1.0746,0.669 -0.3826,0.3278 -0.8695,0.8218 -1.3976,1.4179 -0.065,0.073 -0.1221,0.1374 -0.1273,0.1426 -0.01,0.01 -0.01,0.01 0.1248,-0.2282 0.2579,-0.4557 0.5639,-1.0459 0.7051,-1.3599 0.2838,-0.6309 0.4215,-1.1063 0.4354,-1.5039 0.01,-0.2228 -0.023,-0.4238 -0.087,-0.5679 -0.022,-0.05 -0.026,-0.053 -0.074,-0.067 -0.1526,-0.043 -0.4056,-0.052 -0.5832,-0.021 -0.6428,0.1129 -1.4399,0.5521 -2.7342,1.5068 -0.081,0.06 -0.1538,0.1135 -0.1616,0.1192 -0.02,0.015 -0.01,0 0.1865,-0.2221 1.0179,-1.1641 1.512,-1.9061 1.6722,-2.5108 0.067,-0.2537 0.07,-0.5311 0.01,-0.7155 -0.01,-0.03 -0.017,-0.055 -0.016,-0.055 0,0 0.069,0.087 0.1489,0.1926 0.5615,0.7414 0.8961,1.0979 1.6635,1.7721 0.4209,0.3698 0.741,0.6175 1.1571,0.8955 0.1933,0.1292 0.7828,0.4735 1.1395,0.6656 0.3979,0.2142 0.9025,0.4367 1.327,0.5852 0.3384,0.1184 1.0395,0.3359 1.2598,0.3908 0.4103,0.1024 0.8639,0.1834 1.3076,0.2335 0.7975,0.09 1.127,0.1105 1.6453,0.102 0.3591,-0.01 0.5011,-0.015 1.0365,-0.069 0.592,-0.059 0.8198,-0.092 1.2268,-0.1765 0.4129,-0.086 0.5959,-0.1344 1.0746,-0.2852 0.6574,-0.207 0.8769,-0.2886 1.4011,-0.5211 0.4151,-0.1841 1.251,-0.6503 1.6903,-0.9426 0.432,-0.2876 0.7389,-0.5277 1.23,-0.9627 0.695,-0.6154 1.0573,-1.0058 1.5794,-1.7021 0.073,-0.098 0.1338,-0.1765 0.1347,-0.1755 0.001,9e-4 -0.01,0.04 -0.021,0.087 -0.1196,0.4453 0.054,1.0093 0.5322,1.726 0.2753,0.4131 0.6893,0.9342 1.2125,1.5265 0.1374,0.1555 0.152,0.173 0.1344,0.1604 -0.01,-0.01 -0.074,-0.055 -0.1474,-0.1086 -0.4489,-0.3318 -1.0172,-0.7208 -1.3266,-0.908 -0.8075,-0.4885 -1.4135,-0.6886 -1.8735,-0.6183 -0.05,0.01 -0.1126,0.021 -0.1397,0.029 l -0.049,0.015 -0.03,0.078 c -0.1364,0.3539 -0.098,0.8278 0.116,1.4435 0.1775,0.5097 0.4624,1.099 0.9495,1.9638 0.056,0.099 0.1072,0.1914 0.1138,0.2044 0.015,0.03 0.018,0.033 -0.1332,-0.1379 -1.2751,-1.4412 -2.1027,-2.079 -2.7682,-2.1332 -0.059,0 -0.1371,-0.01 -0.1723,0 l -0.064,0 -0.033,0.05 c -0.1358,0.2046 -0.2092,0.4474 -0.2319,0.7668 -0.01,0.07 -0.01,0.2052 -2e-4,0.3234 0.024,0.5898 0.1936,1.3517 0.5549,2.494 0.04,0.125 0.071,0.2284 0.069,0.2299 0,0 -0.041,-0.065 -0.087,-0.1465 -1.0255,-1.8033 -1.7187,-2.5878 -2.4012,-2.7175 l -0.09,-0.017 -0.069,0.073 c -0.2606,0.2763 -0.4032,0.7055 -0.4552,1.3709 -0.016,0.2106 -0.019,0.7606 0,1.0414 0.018,0.3439 0.062,0.8903 0.1,1.2354 0.01,0.07 0.013,0.1288 0.011,0.1304 0,0 -0.036,-0.1007 -0.077,-0.2274 -0.3698,-1.1481 -0.7176,-1.9517 -1.0574,-2.4425 -0.2384,-0.3443 -0.5057,-0.5752 -0.7738,-0.6686 l -0.076,-0.027 -0.093,0.062 c -0.5335,0.3551 -0.8514,1.2343 -1.0615,2.9356 -0.034,0.2736 -0.072,0.6219 -0.072,0.656 0,0.016 0,0.029 -0.01,0.029 -0.01,0 -0.01,-0.013 -0.01,-0.029 z m -0.7324,-4.5799 c -1.6632,-0.1046 -3.2521,-0.6147 -4.7863,-1.5367 -1.0763,-0.647 -2.0527,-1.4944 -2.8464,-2.4708 -1.7131,-2.1072 -2.5443,-4.8129 -2.3285,-7.5794 0.1577,-2.0221 0.8853,-3.9899 2.0566,-5.562 1.7743,-2.3816 4.506,-3.9351 7.51,-4.2708 1.6631,-0.1859 3.3401,0.019 4.8976,0.5988 1.253,0.4664 2.446,1.1907 3.462,2.1021 0.3036,0.2723 0.709,0.691 0.9848,1.017 1.045,1.2354 1.797,2.7167 2.1948,4.3231 0.3214,1.2979 0.4019,2.6794 0.2335,4.0076 -0.167,1.3175 -0.5756,2.5936 -1.198,3.7422 -0.1659,0.306 -0.3271,0.5698 -0.564,0.9225 -0.1932,0.2878 -0.2903,0.4198 -0.4055,0.5515 -0.1265,0.1445 -0.4831,0.519 -0.4916,0.5161 -0.018,-0.01 -14.1106,-9.418 -14.1109,-9.424 -10e-5,0 0.039,-0.1085 0.086,-0.233 0.1412,-0.3692 0.1983,-0.4791 0.4487,-0.8635 0.5391,-0.8276 1.05,-1.3953 1.7102,-1.9001 1.524,-1.1651 3.505,-1.5662 5.4053,-1.0943 2.1569,0.5355 3.8858,2.0684 4.6177,4.0943 0.1831,0.507 0.2881,0.983 0.3477,1.5771 0.024,0.2347 0.024,0.8369 10e-5,1.0794 -0.06,0.6174 -0.1724,1.127 -0.3744,1.6959 -0.034,0.097 -0.058,0.1776 -0.054,0.1819 0.023,0.021 1.3486,0.9272 1.3533,0.9251 0.014,-0.01 0.1544,-0.3505 0.2158,-0.5296 0.2146,-0.6264 0.3372,-1.2468 0.3995,-2.0213 0.023,-0.2858 0.023,-0.94 3e-4,-1.2316 -0.1067,-1.362 -0.4707,-2.5412 -1.1169,-3.6184 -0.6449,-1.0752 -1.5946,-2.0179 -2.7061,-2.6861 -1.1067,-0.6653 -2.3278,-1.0684 -3.5868,-1.184 -0.3775,-0.035 -0.917,-0.041 -1.2792,-0.015 -1.8012,0.1296 -3.4357,0.8071 -4.774,1.9788 -0.1657,0.1451 -0.5448,0.5243 -0.6887,0.6889 -0.6086,0.6961 -1.1001,1.4831 -1.4433,2.311 -0.5269,1.2709 -0.7233,2.674 -0.5685,4.0608 0.1566,1.4025 0.675,2.7412 1.5023,3.88 0.5084,0.6997 1.173,1.3565 1.8878,1.8654 0.9418,0.6706 1.8441,1.0693 2.9005,1.2814 0.744,0.1494 1.5544,0.1905 2.3442,0.119 1.2073,-0.1094 2.4306,-0.4649 3.5816,-1.0406 0.153,-0.077 0.2249,-0.108 0.2306,-0.1007 0.03,0.038 1.313,2.253 1.309,2.2595 -0.013,0.021 -0.6387,0.342 -0.9221,0.4728 -1.4548,0.6716 -2.8784,1.0377 -4.337,1.1153 -0.2466,0.013 -0.8495,0.01 -1.0985,-0.01 z m -8.7832,-17.7066 c 0,-0.01 0.015,-0.054 0.025,-0.097 0.1194,-0.501 -0.096,-1.0973 -0.7034,-1.9482 -0.2559,-0.3585 -0.6452,-0.8335 -1.1529,-1.407 -0.052,-0.058 -0.052,-0.059 0.1627,0.1 1.159,0.8549 1.91,1.287 2.5107,1.4443 0.1884,0.049 0.2758,0.061 0.4517,0.062 0.158,4e-4 0.2056,-0.01 0.3301,-0.039 l 0.054,-0.015 0.028,-0.072 c 0.1556,-0.4084 0.089,-0.9566 -0.2074,-1.6987 -0.1843,-0.4621 -0.4967,-1.085 -0.8845,-1.7641 -0.04,-0.071 -0.079,-0.1391 -0.085,-0.1522 l -0.012,-0.024 0.023,0.024 c 0.013,0.013 0.076,0.084 0.1411,0.1569 0.7191,0.812 1.3206,1.3872 1.7873,1.7091 0.2877,0.1985 0.5753,0.3337 0.8178,0.3845 0.057,0.012 0.1247,0.017 0.2278,0.017 l 0.1469,3e-4 0.036,-0.048 c 0.02,-0.026 0.057,-0.09 0.083,-0.1427 0.124,-0.2528 0.1688,-0.5297 0.1525,-0.9429 -0.024,-0.6063 -0.1968,-1.3757 -0.5788,-2.575 -0.027,-0.083 -0.047,-0.1526 -0.045,-0.1543 0,0 0.039,0.06 0.082,0.1371 0.4853,0.8541 0.8875,1.4652 1.25,1.8994 0.1189,0.1423 0.3522,0.3777 0.4716,0.4757 0.229,0.188 0.4697,0.3108 0.6904,0.3521 l 0.082,0.015 0.042,-0.041 c 0.15,-0.1464 0.2833,-0.3892 0.3594,-0.6549 0.098,-0.343 0.1376,-0.7014 0.1378,-1.2597 2e-4,-0.5315 -0.04,-1.1609 -0.1186,-1.8593 0,-0.024 0.057,0.1391 0.1318,0.3614 0.2129,0.63 0.3198,0.9182 0.4725,1.2743 0.2833,0.6606 0.5385,1.0767 0.8352,1.3619 0.1546,0.1486 0.313,0.2516 0.4738,0.3082 l 0.049,0.017 0.084,-0.057 c 0.105,-0.071 0.255,-0.2207 0.3358,-0.3354 0.3685,-0.5233 0.5938,-1.4078 0.7706,-3.0261 0.016,-0.149 0.031,-0.2722 0.032,-0.2737 0,0 0.01,0.028 0.01,0.066 0.026,0.2709 0.084,0.7502 0.1301,1.0678 0.1558,1.0726 0.3742,1.7756 0.6799,2.189 0.1033,0.1396 0.2498,0.2767 0.3684,0.3445 l 0.053,0.03 0.06,-0.02 c 0.2138,-0.072 0.4392,-0.2401 0.6303,-0.4702 0.3983,-0.4798 0.7283,-1.1903 1.1709,-2.5202 0.064,-0.1935 0.1173,-0.3454 0.1175,-0.3376 3e-4,0.01 -0.01,0.117 -0.023,0.2425 -0.1366,1.3373 -0.1318,2.2293 0.015,2.8004 0.055,0.2157 0.1339,0.4093 0.2204,0.5438 0.041,0.064 0.1356,0.1823 0.1765,0.2212 l 0.029,0.028 0.069,-0.011 c 0.1547,-0.025 0.3689,-0.116 0.5287,-0.2235 0.5253,-0.3534 1.0771,-1.0758 1.8477,-2.4193 0.068,-0.1183 0.1261,-0.2175 0.1293,-0.2204 0.01,-0.01 0.01,0 -0.087,0.2944 -0.2783,0.881 -0.4513,1.6008 -0.5141,2.1398 -0.021,0.177 -0.028,0.5094 -0.015,0.6597 0.025,0.2867 0.1123,0.5559 0.2333,0.7202 0.032,0.043 0.033,0.044 0.096,0.049 0.035,0 0.1078,0 0.1621,0 0.3629,-0.029 0.772,-0.231 1.255,-0.6194 0.3977,-0.3198 0.9199,-0.8398 1.5081,-1.5013 0.1252,-0.1409 0.1638,-0.1809 0.1485,-0.154 0,0 -0.038,0.067 -0.08,0.1402 -0.6235,1.0927 -0.9896,1.9052 -1.1193,2.484 -0.091,0.4074 -0.08,0.7954 0.031,1.0204 l 0.026,0.052 0.09,0.023 c 0.079,0.02 0.1138,0.023 0.2758,0.024 0.141,6e-4 0.2071,0 0.2759,-0.016 0.6247,-0.1178 1.3582,-0.5154 2.5534,-1.3839 0.1255,-0.091 0.2536,-0.1853 0.2846,-0.2091 0.072,-0.055 0.064,-0.043 -0.065,0.1032 -0.7536,0.8502 -1.2405,1.4984 -1.5145,2.0162 -0.1156,0.2185 -0.2206,0.4936 -0.2594,0.68 -0.039,0.1891 -0.035,0.4302 0.01,0.5935 0.01,0.034 0.016,0.063 0.015,0.065 0,0 -0.066,-0.082 -0.1444,-0.185 -0.3168,-0.4194 -0.4265,-0.5515 -0.744,-0.8956 -0.2719,-0.2946 -0.685,-0.6802 -1.1589,-1.082 -0.2609,-0.2211 -0.5945,-0.4705 -0.916,-0.6848 -0.3101,-0.2066 -1.1324,-0.6743 -1.4645,-0.8329 -0.1777,-0.085 -0.5263,-0.2371 -0.7085,-0.3094 -0.3446,-0.1367 -1.2414,-0.4227 -1.5882,-0.5064 -0.5441,-0.1313 -0.9202,-0.1922 -1.6119,-0.2611 -0.6344,-0.063 -0.6799,-0.066 -1.184,-0.066 -0.5331,10e-5 -0.6185,0.01 -1.36,0.085 -0.5492,0.058 -0.9713,0.132 -1.4502,0.2523 -0.3746,0.094 -1.2184,0.3658 -1.5743,0.5069 -0.1512,0.06 -0.5034,0.2145 -0.6796,0.2982 -0.2241,0.1065 -0.8723,0.4674 -1.2268,0.683 -0.3616,0.22 -0.7988,0.5362 -1.1346,0.8207 -0.494,0.4186 -0.8955,0.7921 -1.1622,1.0813 -0.3304,0.3583 -0.4277,0.475 -0.7453,0.8939 -0.091,0.1203 -0.1627,0.2102 -0.1588,0.1997 z"
       id="path4168"
       inkscape:connector-curvature="0" />
    <path
       style="fill:#282827;stroke-width:0.00950999;fill-opacity:0.3137255"
       d="M 27.181641 8.9492188 C 27.181525 8.9447056 27.140738 9.0649916 27.113281 9.1445312 C 27.080111 9.6608613 27.055635 10.153801 27.080078 10.511719 C 27.090201 10.11741 27.104764 9.7145674 27.158203 9.1914062 C 27.171203 9.0659063 27.181941 8.9592187 27.181641 8.9492188 z M 20.777344 8.96875 C 20.835497 9.4854664 20.863603 9.9474806 20.878906 10.376953 C 20.883944 10.261646 20.894482 10.16581 20.894531 10.029297 C 20.894625 9.780307 20.884621 9.505786 20.867188 9.2167969 C 20.826144 9.0983005 20.777344 8.9522741 20.777344 8.96875 z M 17.779297 9.9042969 C 17.777297 9.9059969 17.797219 9.9755937 17.824219 10.058594 C 18.16422 11.126037 18.318007 11.825959 18.369141 12.400391 C 18.399205 12.238456 18.413146 12.058312 18.404297 11.833984 C 18.390962 11.497122 18.316733 11.084881 18.201172 10.601562 C 18.088441 10.415687 17.983973 10.258816 17.861328 10.042969 C 17.818328 9.9658688 17.779297 9.9042969 17.779297 9.9042969 z M 30.173828 9.9101562 C 30.170628 9.9130563 30.112922 10.012559 30.044922 10.130859 C 29.938367 10.316632 29.84479 10.464265 29.746094 10.626953 C 29.663639 10.973471 29.602887 11.282104 29.572266 11.544922 C 29.551266 11.721922 29.545594 12.054778 29.558594 12.205078 C 29.561785 12.241677 29.574916 12.272747 29.580078 12.308594 C 29.645908 11.773253 29.815098 11.068645 30.087891 10.205078 C 30.184891 9.9106781 30.183828 9.9001563 30.173828 9.9101562 z M 23.964844 11.46875 C 23.732318 11.468794 23.524866 11.497498 23.371094 11.505859 C 23.305127 11.652187 23.236061 11.789826 23.158203 11.900391 C 23.077403 12.015091 22.927266 12.163375 22.822266 12.234375 L 22.738281 12.292969 L 22.689453 12.275391 C 22.528653 12.218791 22.371397 12.115397 22.216797 11.966797 C 22.127113 11.880589 22.04496 11.75389 21.960938 11.640625 C 21.689346 11.684844 21.4286 11.737735 21.154297 11.806641 C 21.067398 11.828446 20.914512 11.886737 20.789062 11.923828 C 20.776964 11.976382 20.772456 12.03664 20.757812 12.087891 C 20.681713 12.353591 20.548437 12.597741 20.398438 12.744141 L 20.355469 12.785156 L 20.273438 12.769531 C 20.052737 12.728231 19.812984 12.605969 19.583984 12.417969 C 19.565313 12.402644 19.533134 12.364913 19.509766 12.34375 C 19.340521 12.413497 19.058331 12.536302 18.900391 12.611328 C 18.807596 12.655427 18.579843 12.791571 18.392578 12.894531 C 18.381503 13.161419 18.345636 13.387134 18.251953 13.578125 C 18.225953 13.630825 18.187969 13.694703 18.167969 13.720703 L 18.132812 13.767578 L 17.984375 13.767578 C 17.881275 13.767578 17.814813 13.762 17.757812 13.75 C 17.610929 13.71923 17.445367 13.648557 17.275391 13.560547 C 17.01809 13.738199 16.759088 13.928822 16.539062 14.115234 C 16.412976 14.222076 16.355519 14.290311 16.242188 14.390625 C 16.276438 14.671487 16.255534 14.911034 16.177734 15.115234 L 16.148438 15.1875 L 16.095703 15.201172 C 15.971203 15.230172 15.923625 15.240634 15.765625 15.240234 C 15.617039 15.23939 15.519322 15.221668 15.382812 15.189453 C 15.381413 15.190967 15.378345 15.193803 15.376953 15.195312 C 15.046553 15.553612 14.948459 15.670944 14.630859 16.089844 C 14.539859 16.210144 14.468756 16.299562 14.472656 16.289062 L 14.470703 16.287109 C 14.470703 16.277109 14.486094 16.232453 14.496094 16.189453 C 14.601429 15.74747 14.427731 15.221183 13.972656 14.521484 C 13.623452 14.305479 13.265731 14.07589 12.802734 13.734375 C 12.588034 13.575375 12.588625 13.576766 12.640625 13.634766 C 13.148325 14.208266 13.537069 14.682516 13.792969 15.041016 C 14.400369 15.891916 14.615494 16.489234 14.496094 16.990234 C 14.486094 17.033234 14.470703 17.077891 14.470703 17.087891 L 14.472656 17.089844 C 14.468756 17.100344 14.539859 17.010925 14.630859 16.890625 C 14.948459 16.471725 15.046553 16.354394 15.376953 15.996094 C 15.643653 15.706894 16.045062 15.332662 16.539062 14.914062 C 16.874863 14.629563 17.312228 14.31375 17.673828 14.09375 C 18.028328 13.87815 18.676291 13.516656 18.900391 13.410156 C 19.076591 13.326456 19.428878 13.173281 19.580078 13.113281 C 19.935978 12.972181 20.779697 12.699469 21.154297 12.605469 C 21.633197 12.485169 22.054316 12.411516 22.603516 12.353516 C 23.345016 12.278516 23.431744 12.269631 23.964844 12.269531 C 24.468944 12.269531 24.514037 12.270984 25.148438 12.333984 C 25.840137 12.402884 26.215666 12.464403 26.759766 12.595703 C 27.106566 12.679403 28.003056 12.964862 28.347656 13.101562 C 28.529856 13.173862 28.878941 13.327109 29.056641 13.412109 C 29.388741 13.570709 30.211384 14.037541 30.521484 14.244141 C 30.842984 14.458441 31.1766 14.708588 31.4375 14.929688 C 31.9114 15.331487 32.323803 15.717119 32.595703 16.011719 C 32.913203 16.355819 33.023044 16.48685 33.339844 16.90625 C 33.418244 17.00925 33.484375 17.091797 33.484375 17.091797 C 33.485375 17.089797 33.47875 17.061344 33.46875 17.027344 C 33.42375 16.864044 33.419984 16.622694 33.458984 16.433594 C 33.497784 16.247194 33.60315 15.972406 33.71875 15.753906 C 33.99275 15.236106 34.478822 14.586528 35.232422 13.736328 C 35.361422 13.590128 35.370828 13.579766 35.298828 13.634766 C 35.267828 13.658566 35.139172 13.75275 35.013672 13.84375 C 34.624358 14.126648 34.297677 14.341674 33.994141 14.53125 C 33.90374 14.670688 33.784156 14.829521 33.71875 14.953125 C 33.60315 15.171625 33.497784 15.446413 33.458984 15.632812 C 33.419984 15.821913 33.42375 16.063263 33.46875 16.226562 C 33.47875 16.260562 33.485375 16.289016 33.484375 16.291016 C 33.484375 16.291016 33.418244 16.210422 33.339844 16.107422 C 33.023044 15.688022 32.913203 15.555037 32.595703 15.210938 C 32.591196 15.206054 32.580756 15.198292 32.576172 15.193359 C 32.538946 15.202166 32.497354 15.219695 32.460938 15.226562 C 32.392138 15.242562 32.324594 15.242787 32.183594 15.242188 C 32.021594 15.241188 31.987203 15.23875 31.908203 15.21875 L 31.818359 15.195312 L 31.792969 15.144531 C 31.708877 14.974076 31.700858 14.699417 31.732422 14.404297 C 31.620984 14.305341 31.558145 14.231196 31.4375 14.128906 C 31.222431 13.946646 30.948012 13.751614 30.681641 13.566406 C 30.455557 13.684061 30.243908 13.757848 30.048828 13.773438 L 29.886719 13.773438 C 29.823719 13.768438 29.823016 13.767609 29.791016 13.724609 C 29.670016 13.560309 29.583594 13.292559 29.558594 13.005859 C 29.556478 12.981404 29.561629 12.931082 29.560547 12.898438 C 29.371051 12.793911 29.170904 12.665897 29.056641 12.611328 C 28.902869 12.537774 28.634512 12.422607 28.443359 12.34375 C 28.361046 12.416013 28.277649 12.496703 28.197266 12.550781 C 28.037466 12.658281 27.822669 12.748438 27.667969 12.773438 L 27.599609 12.785156 L 27.570312 12.757812 C 27.529413 12.718913 27.435531 12.599156 27.394531 12.535156 C 27.308031 12.400656 27.228828 12.207887 27.173828 11.992188 C 27.16871 11.972278 27.166882 11.944523 27.162109 11.923828 C 27.021514 11.882354 26.847654 11.816134 26.759766 11.794922 C 26.487716 11.729272 26.258266 11.682828 26.009766 11.642578 C 25.970831 11.696011 25.932715 11.758291 25.892578 11.806641 C 25.701478 12.036741 25.475519 12.205344 25.261719 12.277344 L 25.203125 12.296875 L 25.150391 12.267578 C 25.031791 12.199778 24.88455 12.061475 24.78125 11.921875 C 24.696095 11.806719 24.619016 11.66378 24.546875 11.501953 C 24.396208 11.493723 24.212748 11.46875 23.964844 11.46875 z M 14.988281 11.476562 L 15 11.5 C 15.006 11.5131 15.045937 11.581344 15.085938 11.652344 C 15.473738 12.331444 15.786403 12.953916 15.970703 13.416016 C 16.087926 13.709508 16.157319 13.964989 16.203125 14.201172 C 16.310725 13.805434 16.241819 13.295983 15.970703 12.617188 C 15.948401 12.561268 15.90682 12.484271 15.880859 12.423828 C 15.648407 12.18952 15.417683 11.955869 15.152344 11.65625 C 15.087244 11.58335 15.024719 11.513 15.011719 11.5 L 14.988281 11.476562 z M 32.960938 11.5 C 32.976237 11.4731 32.9377 11.513397 32.8125 11.654297 C 32.547073 11.952801 32.299579 12.209829 32.066406 12.445312 C 31.92436 12.779134 31.81682 13.078323 31.761719 13.324219 C 31.688657 13.651312 31.698455 13.94216 31.755859 14.169922 C 31.75921 14.153499 31.758034 14.139543 31.761719 14.123047 C 31.891419 13.544247 32.257359 12.731372 32.880859 11.638672 C 32.922859 11.565472 32.960938 11.5 32.960938 11.5 z M 23.330078 15.107422 C 21.528878 15.237022 19.894941 15.914238 18.556641 17.085938 C 18.390941 17.231037 18.011087 17.610791 17.867188 17.775391 C 17.258587 18.471491 16.767028 19.258038 16.423828 20.085938 C 15.966378 21.189323 15.773795 22.392157 15.828125 23.597656 C 15.876114 22.664518 16.067992 21.745008 16.423828 20.886719 C 16.767028 20.058819 17.258587 19.272272 17.867188 18.576172 C 18.011087 18.411572 18.390941 18.031819 18.556641 17.886719 C 19.894941 16.715019 21.528878 16.037803 23.330078 15.908203 C 23.692278 15.882203 24.231875 15.886875 24.609375 15.921875 C 25.868375 16.037475 27.088613 16.442122 28.195312 17.107422 C 29.306812 17.775622 30.257444 18.717769 30.902344 19.792969 C 31.546933 20.867484 31.909865 22.042694 32.017578 23.400391 C 32.02177 23.107944 32.034088 22.798323 32.019531 22.611328 C 31.912831 21.249328 31.548544 20.069387 30.902344 18.992188 C 30.257444 17.916988 29.306812 16.974841 28.195312 16.306641 C 27.088613 15.641341 25.868375 15.238647 24.609375 15.123047 C 24.231875 15.088047 23.692278 15.081422 23.330078 15.107422 z M 18.119141 21.103516 C 18.062253 21.216315 18.014625 21.327027 17.949219 21.498047 C 17.902219 21.622547 17.863181 21.730469 17.863281 21.730469 C 17.863581 21.736469 31.954656 31.144297 31.972656 31.154297 C 31.981156 31.157197 32.338344 30.783172 32.464844 30.638672 C 32.580044 30.506972 32.677894 30.375691 32.871094 30.087891 C 33.107994 29.735191 33.269647 29.470063 33.435547 29.164062 C 34.057947 28.015463 34.465813 26.739375 34.632812 25.421875 C 34.703414 24.865031 34.719432 24.299868 34.703125 23.734375 C 34.69015 24.032032 34.670078 24.329127 34.632812 24.623047 C 34.465813 25.940547 34.057947 27.216634 33.435547 28.365234 C 33.269647 28.671234 33.107994 28.934409 32.871094 29.287109 C 32.677894 29.574909 32.580044 29.706191 32.464844 29.837891 C 32.338344 29.982391 31.981156 30.358369 31.972656 30.355469 C 31.954983 30.34565 18.613014 21.438707 18.119141 21.103516 z M 30.478516 23.589844 C 30.418516 24.207244 30.305516 24.718209 30.103516 25.287109 C 30.069516 25.384109 30.046781 25.46445 30.050781 25.46875 C 30.054075 25.471757 30.195134 25.567522 30.244141 25.601562 C 30.352231 25.213478 30.436064 24.827454 30.478516 24.390625 C 30.496235 24.210833 30.487112 23.868715 30.478516 23.589844 z M 13.277344 23.699219 C 13.191114 26.292373 14.010007 28.803438 15.621094 30.785156 C 16.414794 31.761556 17.39245 32.610812 18.46875 33.257812 C 20.00295 34.179813 21.590706 34.688369 23.253906 34.792969 L 23.253906 34.789062 C 23.502906 34.809062 24.104962 34.811828 24.351562 34.798828 C 25.810162 34.721228 27.234653 34.355194 28.689453 33.683594 C 28.972853 33.552794 29.598328 33.231937 29.611328 33.210938 C 29.612421 33.209162 29.393075 32.835668 29.253906 32.59375 C 29.042936 32.703933 28.863028 32.804654 28.689453 32.884766 C 27.234653 33.556366 25.810162 33.9224 24.351562 34 C 24.104962 34.013 23.502906 34.008281 23.253906 33.988281 L 23.253906 33.994141 C 21.590706 33.889541 20.00295 33.379031 18.46875 32.457031 C 17.39245 31.810031 16.414794 30.962728 15.621094 29.986328 C 14.176577 28.209499 13.368785 26.004761 13.277344 23.699219 z M 32.609375 32.03125 C 32.379405 32.275068 32.135746 32.510875 31.810547 32.798828 C 31.790938 32.816197 31.778807 32.825034 31.759766 32.841797 C 31.767152 32.899633 31.77695 32.95809 31.789062 33.019531 C 31.798958 32.983191 31.803266 32.942297 31.816406 32.908203 L 31.845703 32.830078 L 31.894531 32.814453 C 31.921631 32.806453 31.985156 32.795156 32.035156 32.785156 C 32.495156 32.714856 33.100703 32.915797 33.908203 33.404297 C 34.217603 33.591497 34.785475 33.9807 35.234375 34.3125 C 35.307775 34.3661 35.372813 34.411875 35.382812 34.421875 C 35.400412 34.434475 35.385447 34.415266 35.248047 34.259766 C 34.724847 33.667466 34.310456 33.147475 34.035156 32.734375 C 34.017835 32.708415 34.00871 32.685717 33.992188 32.660156 C 33.970727 32.646821 33.927702 32.615313 33.908203 32.603516 C 33.396215 32.293787 32.9735 32.113689 32.609375 32.03125 z M 15.417969 32.033203 C 15.037821 32.121393 14.589355 32.329812 14.029297 32.675781 C 13.756074 33.096093 13.371588 33.586634 12.835938 34.199219 C 12.639437 34.421319 12.630391 34.436875 12.650391 34.421875 C 12.658191 34.416175 12.729547 34.362734 12.810547 34.302734 C 14.104847 33.348034 14.902122 32.909775 15.544922 32.796875 C 15.722522 32.765875 15.976306 32.773406 16.128906 32.816406 C 16.176906 32.830406 16.181125 32.834766 16.203125 32.884766 C 16.2159 32.913529 16.22026 32.95331 16.230469 32.986328 C 16.2396 32.934355 16.252229 32.879481 16.257812 32.830078 C 15.914997 32.527054 15.649627 32.279115 15.417969 32.033203 z M 30.720703 33.660156 C 30.67243 33.693363 30.63136 33.727578 30.580078 33.761719 C 30.325521 33.931095 29.955604 34.144361 29.59375 34.341797 C 29.589686 34.415318 29.586252 34.499414 29.59375 34.589844 C 29.596705 34.662463 29.623404 34.767477 29.630859 34.845703 C 29.667691 34.636123 29.723449 34.45065 29.824219 34.298828 L 29.857422 34.248047 L 29.921875 34.248047 C 29.957075 34.238047 30.03475 34.248047 30.09375 34.248047 C 30.75925 34.302247 31.588181 34.941613 32.863281 36.382812 C 33.014481 36.553712 33.011094 36.549531 32.996094 36.519531 C 32.989494 36.506531 32.938812 36.413453 32.882812 36.314453 C 32.520026 35.670361 32.292862 35.204538 32.115234 34.785156 C 31.567011 34.231301 31.111475 33.86367 30.720703 33.660156 z M 17.314453 33.666016 C 17.074983 33.790365 16.820062 33.951187 16.548828 34.183594 C 16.363202 34.342632 16.15135 34.543476 15.923828 34.773438 C 15.896433 34.838365 15.884327 34.886584 15.853516 34.955078 C 15.712316 35.269078 15.406338 35.860706 15.148438 36.316406 C 15.013638 36.554606 15.015391 36.552969 15.025391 36.542969 C 15.030591 36.537769 15.087344 36.473391 15.152344 36.400391 C 15.680444 35.804291 16.166228 35.310222 16.548828 34.982422 C 16.939328 34.647822 17.311947 34.416553 17.623047 34.314453 C 17.758647 34.269453 17.852066 34.25 18.009766 34.25 L 18.164062 34.25 L 18.197266 34.294922 C 18.307187 34.445924 18.377452 34.671409 18.412109 34.917969 C 18.413631 34.905739 18.418491 34.889071 18.419922 34.876953 C 18.43738 34.730887 18.436981 34.506661 18.431641 34.337891 C 18.082591 34.143371 17.635403 33.888075 17.472656 33.779297 C 17.415728 33.741263 17.368291 33.703306 17.314453 33.666016 z M 19.554688 34.876953 C 19.211088 35.177363 18.846669 35.627598 18.431641 36.285156 C 18.379421 36.367909 18.310222 36.487729 18.246094 36.59375 C 18.156686 36.96994 18.039391 37.39224 17.880859 37.892578 C 17.844859 38.009378 17.818359 38.109375 17.818359 38.109375 C 17.820359 38.111375 17.846953 38.069625 17.876953 38.015625 C 18.036953 37.732025 18.274641 37.334737 18.431641 37.085938 C 19.180141 35.900038 19.770116 35.334094 20.353516 35.246094 L 20.396484 35.236328 L 20.457031 35.300781 C 20.717031 35.577681 20.858969 35.996062 20.917969 36.664062 C 20.92219 36.354143 20.928805 35.985729 20.917969 35.863281 C 20.897927 35.636365 20.853008 35.474239 20.8125 35.300781 C 20.510139 35.210617 20.172556 35.111539 19.9375 35.029297 C 19.816579 34.986996 19.68429 34.929361 19.554688 34.876953 z M 28.470703 34.878906 C 28.196607 34.989839 27.933368 35.084462 27.488281 35.224609 C 27.359529 35.265169 27.295415 35.272313 27.199219 35.300781 C 27.161459 35.471665 27.132361 35.65585 27.115234 35.875 C 27.10295 36.036697 27.108118 36.389392 27.115234 36.675781 C 27.167234 36.010381 27.309712 35.580987 27.570312 35.304688 L 27.638672 35.232422 L 27.728516 35.248047 C 28.411016 35.377747 29.103406 36.163497 30.128906 37.966797 C 30.174906 38.048297 30.216797 38.113281 30.216797 38.113281 C 30.218797 38.111781 30.188438 38.007812 30.148438 37.882812 C 29.991854 37.387753 29.887152 36.992165 29.798828 36.623047 C 29.29143 35.786101 28.859362 35.216738 28.470703 34.878906 z M 26.046875 35.5625 C 25.802748 35.604972 25.602309 35.646159 25.1875 35.6875 C 24.884999 35.71801 24.763008 35.717597 24.601562 35.726562 C 24.379992 36.219239 24.21005 36.909055 24.085938 37.914062 C 24.051938 38.187662 24.015625 38.536213 24.015625 38.570312 C 24.015625 38.586312 24.013906 38.599609 24.003906 38.599609 C 23.993906 38.599609 23.994141 38.586312 23.994141 38.570312 L 23.986328 38.574219 C 23.986328 38.540219 23.948062 38.191569 23.914062 37.917969 C 23.790514 36.917657 23.625759 36.230181 23.408203 35.740234 C 23.166183 35.724682 22.893714 35.698067 22.505859 35.654297 C 22.335026 35.635007 22.172685 35.592362 22.001953 35.564453 C 21.775695 35.870108 21.567104 36.239594 21.337891 36.800781 C 21.2224 37.083433 21.026352 37.635808 20.900391 38.023438 C 20.878985 38.324852 20.863316 38.551868 20.830078 38.876953 C 20.824078 38.983253 20.8125 39.074219 20.8125 39.074219 C 20.8145 39.076419 20.839187 39.007922 20.867188 38.919922 C 20.989187 38.534322 21.213391 37.904309 21.337891 37.599609 C 21.604891 36.945909 21.837328 36.526119 22.111328 36.199219 C 22.243828 36.041119 22.377016 35.927078 22.541016 35.830078 C 22.605616 35.792078 22.746531 35.730469 22.769531 35.730469 C 22.793231 35.730469 22.956344 35.852828 23.027344 35.923828 C 23.458444 36.351728 23.726562 37.198697 23.914062 38.716797 C 23.948062 38.990397 23.986328 39.339047 23.986328 39.373047 L 23.994141 39.371094 C 23.994141 39.387094 23.993906 39.400391 24.003906 39.400391 C 24.013906 39.400391 24.015625 39.387094 24.015625 39.371094 C 24.015625 39.336994 24.051938 38.988444 24.085938 38.714844 C 24.296038 37.013544 24.614937 36.134397 25.148438 35.779297 L 25.242188 35.716797 L 25.316406 35.744141 C 25.584506 35.837541 25.853397 36.067809 26.091797 36.412109 C 26.431597 36.902909 26.778638 37.707369 27.148438 38.855469 C 27.189437 38.982169 27.224609 39.082031 27.224609 39.082031 C 27.226609 39.080431 27.224844 39.023125 27.214844 38.953125 C 27.186569 38.696342 27.162361 38.346536 27.140625 38.033203 C 26.773849 36.898502 26.429111 36.100491 26.091797 35.613281 C 26.077622 35.59281 26.061248 35.582165 26.046875 35.5625 z "
       transform="translate(384.57143,499.798)"
       id="path4567" />
    <path
       style="fill:#ffffff;stroke-width:0.00950999;fill-opacity:0.23529412"
       d="M 23.960938 8.5996094 C 23.959938 8.6011094 23.945688 8.7240469 23.929688 8.8730469 C 23.752887 10.491347 23.526703 11.377091 23.158203 11.900391 C 23.077403 12.015091 22.927266 12.163375 22.822266 12.234375 L 22.738281 12.292969 L 22.689453 12.275391 C 22.528653 12.218791 22.371397 12.115397 22.216797 11.966797 C 21.920097 11.681597 21.664159 11.266069 21.380859 10.605469 C 21.228159 10.249369 21.121103 9.9600781 20.908203 9.3300781 C 20.833403 9.1077781 20.777344 8.94475 20.777344 8.96875 C 20.798309 9.1550355 20.808756 9.322128 20.824219 9.4980469 C 20.847174 9.5580249 20.860101 9.5875132 20.908203 9.7304688 C 21.121103 10.360469 21.228159 10.649759 21.380859 11.005859 C 21.664159 11.666459 21.920097 12.081987 22.216797 12.367188 C 22.23078 12.380628 22.245721 12.387697 22.259766 12.400391 C 22.374194 12.385103 22.478006 12.36677 22.603516 12.353516 C 22.893956 12.324139 22.981268 12.333037 23.136719 12.320312 C 23.142422 12.31272 23.153036 12.306164 23.158203 12.298828 C 23.526703 11.775528 23.752887 10.891737 23.929688 9.2734375 C 23.945688 9.1244375 23.959938 9.0015 23.960938 9 C 23.960938 9 23.970703 9.0284063 23.970703 9.0664062 C 23.996703 9.3373062 24.055462 9.8171656 24.101562 10.134766 C 24.256469 11.201213 24.472439 11.900118 24.775391 12.314453 C 24.89113 12.324173 24.948509 12.31413 25.148438 12.333984 C 25.365716 12.355627 25.519468 12.379849 25.689453 12.402344 C 25.758596 12.34098 25.829292 12.283233 25.892578 12.207031 C 26.290878 11.727231 26.621853 11.0174 27.064453 9.6875 C 27.10701 9.5588328 27.12195 9.5200481 27.142578 9.4628906 C 27.151735 9.3610247 27.147216 9.2989691 27.158203 9.1914062 C 27.171203 9.0659063 27.181941 8.9592187 27.181641 8.9492188 C 27.181441 8.9414188 27.128453 9.0936094 27.064453 9.2871094 C 26.621853 10.617009 26.290878 11.326841 25.892578 11.806641 C 25.701478 12.036741 25.475519 12.205344 25.261719 12.277344 L 25.203125 12.296875 L 25.150391 12.267578 C 25.031791 12.199778 24.88455 12.061475 24.78125 11.921875 C 24.47555 11.508475 24.257362 10.806975 24.101562 9.734375 C 24.055462 9.416775 23.996703 8.9369156 23.970703 8.6660156 C 23.970703 8.6280156 23.960938 8.5996094 23.960938 8.5996094 z M 17.779297 9.9042969 C 17.777297 9.9059969 17.797219 9.9755937 17.824219 10.058594 C 17.900063 10.29671 17.932364 10.451892 17.992188 10.658203 C 18.415766 11.386523 18.784262 11.95004 19.111328 12.341797 C 19.230228 12.484097 19.464584 12.718406 19.583984 12.816406 C 19.682318 12.897134 19.782674 12.960232 19.882812 13.015625 C 20.127976 12.928802 20.363448 12.856889 20.642578 12.771484 C 20.685704 12.681288 20.728941 12.589084 20.757812 12.488281 C 20.855813 12.145281 20.894331 11.786816 20.894531 11.228516 C 20.894557 11.159084 20.888067 11.074662 20.886719 11.001953 C 20.877838 11.451514 20.843831 11.786825 20.757812 12.087891 C 20.681713 12.353591 20.548437 12.597741 20.398438 12.744141 L 20.355469 12.785156 L 20.273438 12.769531 C 20.052737 12.728231 19.812984 12.605969 19.583984 12.417969 C 19.464584 12.319969 19.230228 12.083706 19.111328 11.941406 C 18.748828 11.507206 18.346628 10.897069 17.861328 10.042969 C 17.818328 9.9658688 17.779297 9.9042969 17.779297 9.9042969 z M 30.173828 9.9101562 C 30.170628 9.9130563 30.112922 10.012559 30.044922 10.130859 C 29.274322 11.474359 28.722566 12.197381 28.197266 12.550781 C 28.037466 12.658281 27.822669 12.748438 27.667969 12.773438 L 27.599609 12.785156 L 27.570312 12.757812 C 27.529413 12.718913 27.435531 12.599156 27.394531 12.535156 C 27.308031 12.400656 27.228828 12.207887 27.173828 11.992188 C 27.113201 11.756328 27.082542 11.449793 27.070312 11.095703 C 27.064508 11.630801 27.09244 12.075953 27.173828 12.392578 C 27.212798 12.54541 27.27291 12.659863 27.330078 12.777344 C 27.612589 12.863864 27.842431 12.932121 28.078125 13.015625 C 28.118225 12.993701 28.161365 12.975323 28.197266 12.951172 C 28.700222 12.612803 29.23279 11.919797 29.953125 10.683594 C 30.000226 10.520818 30.032368 10.380842 30.087891 10.205078 C 30.184891 9.9106781 30.183828 9.9001563 30.173828 9.9101562 z M 14.988281 11.476562 L 15 11.5 C 15.006 11.5131 15.045937 11.581344 15.085938 11.652344 C 15.240935 11.92377 15.372457 12.175083 15.5 12.421875 C 16.05815 13.022064 16.554807 13.500321 16.939453 13.765625 C 17.186327 13.935957 17.428191 14.047547 17.646484 14.111328 C 17.655013 14.106085 17.66538 14.09889 17.673828 14.09375 C 17.863434 13.978435 18.082262 13.865806 18.330078 13.728516 C 18.384313 13.534845 18.415667 13.323388 18.404297 13.035156 C 18.403264 13.009052 18.392215 12.97009 18.390625 12.943359 C 18.375924 13.187085 18.339938 13.398749 18.251953 13.578125 C 18.225953 13.630825 18.187969 13.694703 18.167969 13.720703 L 18.132812 13.767578 L 17.984375 13.767578 C 17.881275 13.767578 17.814813 13.762 17.757812 13.75 C 17.515313 13.6992 17.227153 13.563734 16.939453 13.365234 C 16.472753 13.043334 15.871444 12.46825 15.152344 11.65625 C 15.087244 11.58335 15.024719 11.513 15.011719 11.5 L 14.988281 11.476562 z M 32.960938 11.5 C 32.976237 11.4731 32.9377 11.513397 32.8125 11.654297 C 32.2243 12.315797 31.702387 12.834497 31.304688 13.154297 C 30.821687 13.542697 30.411728 13.744438 30.048828 13.773438 L 29.886719 13.773438 C 29.823719 13.768438 29.823016 13.767609 29.791016 13.724609 C 29.675582 13.567868 29.595667 13.314767 29.566406 13.042969 C 29.562481 13.179401 29.551457 13.321787 29.558594 13.404297 C 29.568746 13.520728 29.59426 13.62957 29.623047 13.734375 C 29.885641 13.880519 30.103775 13.996525 30.308594 14.123047 C 30.60523 14.038741 30.933235 13.853387 31.304688 13.554688 C 31.623802 13.29808 32.037119 12.884468 32.486328 12.400391 C 32.615887 12.149104 32.715469 11.928522 32.880859 11.638672 C 32.922859 11.565472 32.960938 11.5 32.960938 11.5 z M 24.107422 13.306641 C 23.691994 13.304514 23.27515 13.326572 22.859375 13.373047 C 19.855375 13.708747 17.123909 15.262931 15.349609 17.644531 C 14.178309 19.216631 13.450669 21.184931 13.292969 23.207031 C 13.26259 23.596477 13.258874 23.983605 13.269531 24.369141 C 13.271764 24.115643 13.273081 23.862373 13.292969 23.607422 C 13.450669 21.585322 14.178309 19.617022 15.349609 18.044922 C 17.123909 15.663322 19.855375 14.109137 22.859375 13.773438 C 24.522475 13.587538 26.200312 13.793247 27.757812 14.373047 C 29.010812 14.839447 30.20275 15.563209 31.21875 16.474609 C 31.52235 16.746909 31.929278 17.166187 32.205078 17.492188 C 33.250078 18.727588 34.000638 20.208053 34.398438 21.814453 C 34.612343 22.678261 34.710849 23.579052 34.708984 24.476562 C 34.748474 23.447666 34.644172 22.406406 34.398438 21.414062 C 34.000638 19.807662 33.250078 18.327197 32.205078 17.091797 C 31.929278 16.765797 31.52235 16.346519 31.21875 16.074219 C 30.20275 15.162819 29.010812 14.439056 27.757812 13.972656 C 26.589687 13.537806 25.353706 13.31302 24.107422 13.306641 z M 12.640625 13.634766 C 12.954954 13.989833 13.133515 14.230577 13.353516 14.505859 C 14.177207 15.074994 14.824824 15.450421 15.3125 15.578125 C 15.498509 15.626503 15.588285 15.639358 15.759766 15.640625 C 15.908455 15.496341 16.063054 15.348594 16.251953 15.181641 C 16.262079 15.070848 16.255866 14.94994 16.242188 14.822266 C 16.229513 14.925788 16.211841 15.025715 16.177734 15.115234 L 16.148438 15.1875 L 16.095703 15.201172 C 15.971203 15.230172 15.923625 15.240634 15.765625 15.240234 C 15.589725 15.239234 15.5009 15.228687 15.3125 15.179688 C 14.7118 15.022388 13.961734 14.589275 12.802734 13.734375 C 12.588034 13.575375 12.588625 13.576766 12.640625 13.634766 z M 35.298828 13.634766 C 35.267828 13.658566 35.139172 13.75275 35.013672 13.84375 C 33.818472 14.71225 33.085638 15.108763 32.460938 15.226562 C 32.392138 15.242562 32.324594 15.242787 32.183594 15.242188 C 32.021594 15.241188 31.987203 15.23875 31.908203 15.21875 L 31.818359 15.195312 L 31.792969 15.144531 C 31.754161 15.065867 31.742791 14.948314 31.728516 14.835938 C 31.716515 14.964742 31.710232 15.08281 31.720703 15.193359 C 31.902663 15.354619 32.050549 15.498447 32.199219 15.642578 C 32.324591 15.642975 32.396001 15.642055 32.460938 15.626953 C 32.996164 15.526025 33.629969 15.198303 34.546875 14.566406 C 34.754025 14.305618 34.956316 14.047827 35.232422 13.736328 C 35.361422 13.590128 35.370828 13.579766 35.298828 13.634766 z M 33.453125 16.902344 C 33.446654 16.946106 33.443764 16.991099 33.441406 17.037109 C 33.451563 17.049872 33.484375 17.091797 33.484375 17.091797 C 33.485375 17.089797 33.47875 17.061344 33.46875 17.027344 C 33.458951 16.991785 33.459015 16.943941 33.453125 16.902344 z M 14.501953 16.908203 C 14.497575 16.934662 14.502273 16.964308 14.496094 16.990234 C 14.486094 17.033234 14.470703 17.077891 14.470703 17.087891 L 14.472656 17.089844 C 14.471506 17.092941 14.508972 17.043826 14.519531 17.03125 C 14.517013 16.991825 14.508035 16.949024 14.501953 16.908203 z M 24.080078 17.447266 C 22.649795 17.415606 21.250422 17.86055 20.107422 18.734375 C 19.447222 19.239175 18.935584 19.807166 18.396484 20.634766 C 18.146084 21.019166 18.090419 21.128847 17.949219 21.498047 C 17.902219 21.622547 17.863181 21.730469 17.863281 21.730469 C 17.863284 21.730521 17.984203 21.811032 17.986328 21.8125 C 18.100552 21.522741 18.17136 21.380755 18.396484 21.035156 C 18.935584 20.207556 19.447222 19.639566 20.107422 19.134766 C 21.631422 17.969666 23.613372 17.567162 25.513672 18.039062 C 27.670572 18.574562 29.398959 20.108866 30.130859 22.134766 C 30.313959 22.641766 30.418916 23.116837 30.478516 23.710938 C 30.47621 23.559973 30.487413 23.397551 30.478516 23.310547 C 30.418916 22.716447 30.313959 22.241375 30.130859 21.734375 C 29.398959 19.708475 27.670572 18.176125 25.513672 17.640625 C 25.038597 17.52265 24.556839 17.457819 24.080078 17.447266 z M 15.816406 24.152344 C 15.803387 24.549982 15.81099 24.949187 15.855469 25.347656 C 16.012069 26.750156 16.530122 28.087763 17.357422 29.226562 C 17.865822 29.926263 18.531294 30.582897 19.246094 31.091797 C 20.187894 31.762397 21.090084 32.160947 22.146484 32.373047 C 22.890484 32.522447 23.700434 32.563688 24.490234 32.492188 C 25.697534 32.382787 26.921266 32.028825 28.072266 31.453125 C 28.225266 31.376125 28.297034 31.344263 28.302734 31.351562 C 28.328632 31.384366 29.172239 32.846497 29.431641 33.302734 C 29.473602 33.279505 29.608796 33.215028 29.611328 33.210938 C 29.615328 33.204438 28.332734 30.989172 28.302734 30.951172 C 28.297034 30.943872 28.225266 30.975734 28.072266 31.052734 C 26.921266 31.628434 25.697534 31.98435 24.490234 32.09375 C 23.700434 32.16525 22.890484 32.124009 22.146484 31.974609 C 21.090084 31.762509 20.187894 31.363959 19.246094 30.693359 C 18.531294 30.184459 17.865822 29.525872 17.357422 28.826172 C 16.530122 27.687372 16.012069 26.349766 15.855469 24.947266 C 15.825917 24.68252 15.820504 24.417244 15.816406 24.152344 z M 32.017578 24.642578 C 31.955278 25.417078 31.833741 26.037663 31.619141 26.664062 C 31.557741 26.843162 31.416344 27.183359 31.402344 27.193359 C 31.397983 27.195308 30.331392 26.463245 30.148438 26.333984 C 30.131359 26.385394 30.122079 26.434047 30.103516 26.486328 C 30.069516 26.583328 30.046781 26.663669 30.050781 26.667969 C 30.073781 26.688969 31.397644 27.59585 31.402344 27.59375 C 31.416344 27.58375 31.557741 27.243553 31.619141 27.064453 C 31.833741 26.438053 31.955278 25.817469 32.017578 25.042969 C 32.02505 24.950118 32.014951 24.78813 32.017578 24.642578 z M 14.501953 30.917969 C 14.500953 30.917969 14.507578 30.942656 14.517578 30.972656 C 14.55351 31.083087 14.560253 31.228786 14.550781 31.380859 C 14.576923 31.414167 14.596486 31.440476 14.650391 31.511719 C 15.048894 32.037899 15.381354 32.393602 15.787109 32.783203 C 15.912464 32.783342 16.037735 32.790716 16.128906 32.816406 C 16.176906 32.830406 16.181125 32.834766 16.203125 32.884766 C 16.246526 32.982487 16.268151 33.110891 16.279297 33.25 C 16.293802 33.262791 16.299629 33.27018 16.314453 33.283203 C 16.735353 33.653003 17.056556 33.899734 17.472656 34.177734 C 17.509079 34.202079 17.627152 34.265573 17.6875 34.302734 C 17.791152 34.272095 17.878414 34.25 18.009766 34.25 L 18.164062 34.25 L 18.197266 34.294922 C 18.274049 34.400401 18.329294 34.545206 18.371094 34.703125 C 18.461187 34.753765 18.536057 34.803213 18.611328 34.84375 C 18.997654 35.05172 19.481914 35.26577 19.898438 35.414062 C 20.052054 35.325774 20.203409 35.268736 20.353516 35.246094 L 20.396484 35.236328 L 20.457031 35.300781 C 20.549151 35.398888 20.621561 35.523766 20.685547 35.662109 C 20.877101 35.720508 21.107803 35.798018 21.197266 35.820312 C 21.540171 35.905893 21.918678 35.965485 22.291016 36.015625 C 22.368663 35.946205 22.449645 35.88412 22.541016 35.830078 C 22.605616 35.792078 22.746531 35.730469 22.769531 35.730469 C 22.793231 35.730469 22.956344 35.852828 23.027344 35.923828 C 23.079117 35.975217 23.120717 36.053248 23.167969 36.117188 C 23.51987 36.146489 23.817036 36.161717 24.150391 36.15625 C 24.381667 36.14981 24.604094 36.128046 24.818359 36.111328 C 24.918759 35.972594 25.026951 35.860159 25.148438 35.779297 L 25.242188 35.716797 L 25.316406 35.744141 C 25.457627 35.793339 25.597705 35.885835 25.734375 36.007812 C 25.942335 35.979427 26.188516 35.956983 26.414062 35.910156 C 26.771342 35.835741 26.990215 35.772875 27.34375 35.664062 C 27.407269 35.526105 27.478992 35.401509 27.570312 35.304688 L 27.638672 35.232422 L 27.728516 35.248047 C 27.861584 35.273335 27.996547 35.332388 28.132812 35.410156 C 28.371867 35.324309 28.59114 35.236347 28.890625 35.103516 C 29.080236 35.019422 29.36699 34.869292 29.654297 34.710938 C 29.693371 34.557619 29.74486 34.418392 29.824219 34.298828 L 29.857422 34.248047 L 29.921875 34.248047 C 29.957075 34.238047 30.03475 34.248047 30.09375 34.248047 C 30.177449 34.254864 30.26412 34.271158 30.353516 34.296875 C 30.423715 34.253119 30.521894 34.200824 30.580078 34.162109 C 30.990127 33.889123 31.296958 33.648596 31.746094 33.253906 C 31.756068 33.129366 31.776524 33.011681 31.816406 32.908203 L 31.845703 32.830078 L 31.894531 32.814453 C 31.921631 32.806453 31.985156 32.795156 32.035156 32.785156 C 32.098978 32.775403 32.172596 32.784452 32.242188 32.785156 C 32.659468 32.384865 33.000423 32.016487 33.390625 31.496094 C 33.435171 31.436292 33.448035 31.420318 33.472656 31.388672 C 33.463067 31.25369 33.47228 31.125566 33.503906 31.007812 C 33.514906 30.960812 33.526391 30.922775 33.525391 30.921875 C 33.524491 30.920875 33.463625 30.997703 33.390625 31.095703 C 32.868525 31.792003 32.505547 32.183428 31.810547 32.798828 C 31.319447 33.233828 31.012078 33.474119 30.580078 33.761719 C 30.140778 34.054019 29.305725 34.519025 28.890625 34.703125 C 28.366425 34.935625 28.145681 35.017609 27.488281 35.224609 C 27.009581 35.375409 26.826962 35.423766 26.414062 35.509766 C 26.007062 35.594266 25.7795 35.6285 25.1875 35.6875 C 24.6521 35.7415 24.509491 35.745859 24.150391 35.755859 C 23.632091 35.764359 23.303359 35.744297 22.505859 35.654297 C 22.062159 35.604197 21.607566 35.522322 21.197266 35.419922 C 20.976966 35.365022 20.2759 35.147697 19.9375 35.029297 C 19.513 34.880797 19.009228 34.657559 18.611328 34.443359 C 18.254628 34.251259 17.665956 33.908497 17.472656 33.779297 C 17.056556 33.501297 16.735353 33.252613 16.314453 32.882812 C 15.547053 32.208612 15.211891 31.852728 14.650391 31.111328 C 14.570491 31.005728 14.501953 30.917969 14.501953 30.917969 z M 14.533203 31.5 C 14.524452 31.563565 14.524301 31.627019 14.507812 31.689453 C 14.347613 32.294153 13.853837 33.035119 12.835938 34.199219 C 12.639437 34.421319 12.630391 34.436875 12.650391 34.421875 C 12.658191 34.416175 12.729547 34.362734 12.810547 34.302734 C 13.055252 34.122235 13.267038 33.976956 13.478516 33.832031 C 14.068848 33.089336 14.386114 32.549214 14.507812 32.089844 C 14.562014 31.884606 14.562241 31.674474 14.533203 31.5 z M 33.494141 31.501953 C 33.418383 31.932727 33.588331 32.465089 34.035156 33.134766 C 34.177912 33.348977 34.360986 33.594167 34.574219 33.861328 C 34.810056 34.022813 35.011062 34.147441 35.234375 34.3125 C 35.307775 34.3661 35.372813 34.411875 35.382812 34.421875 C 35.400412 34.434475 35.385447 34.415266 35.248047 34.259766 C 34.724847 33.667466 34.310456 33.147475 34.035156 32.734375 C 33.716914 32.257411 33.545934 31.85368 33.494141 31.501953 z M 16.273438 33.541016 C 16.244804 33.921912 16.118171 34.366738 15.853516 34.955078 C 15.712316 35.269078 15.406338 35.860706 15.148438 36.316406 C 15.013638 36.554606 15.015391 36.552969 15.025391 36.542969 C 15.030591 36.537769 15.087344 36.473391 15.152344 36.400391 C 15.278587 36.257892 15.391046 36.143626 15.511719 36.013672 C 15.63323 35.778681 15.78513 35.507544 15.853516 35.355469 C 16.137316 34.724569 16.275162 34.249163 16.289062 33.851562 C 16.294031 33.740857 16.288229 33.636651 16.273438 33.541016 z M 31.75 33.580078 C 31.70898 33.894575 31.768226 34.281791 31.931641 34.751953 C 32.052082 35.097806 32.252997 35.517693 32.501953 35.998047 C 32.624002 36.12958 32.732065 36.234504 32.863281 36.382812 C 33.014481 36.553712 33.011094 36.549531 32.996094 36.519531 C 32.989494 36.506531 32.938812 36.413453 32.882812 36.314453 C 32.395713 35.449653 32.109141 34.861262 31.931641 34.351562 C 31.831427 34.063239 31.77328 33.808449 31.75 33.580078 z M 18.425781 35.388672 C 18.422516 35.495987 18.429283 35.599412 18.419922 35.677734 C 18.352622 36.247634 18.183259 36.938178 17.880859 37.892578 C 17.844859 38.009378 17.818359 38.109375 17.818359 38.109375 C 17.820359 38.111375 17.846953 38.069625 17.876953 38.015625 C 17.923042 37.933932 17.982006 37.842389 18.037109 37.748047 C 18.229041 37.085729 18.367273 36.523958 18.419922 36.078125 C 18.440922 35.902425 18.446594 35.588788 18.433594 35.429688 C 18.432399 35.41505 18.427274 35.403157 18.425781 35.388672 z M 29.599609 35.429688 C 29.598499 35.442609 29.594687 35.451664 29.59375 35.464844 C 29.58375 35.534844 29.58395 35.670862 29.59375 35.789062 C 29.613435 36.272825 29.762878 36.929502 30.003906 37.759766 C 30.04798 37.835551 30.083561 37.887059 30.128906 37.966797 C 30.174906 38.048297 30.216797 38.113281 30.216797 38.113281 C 30.218797 38.111781 30.188438 38.007812 30.148438 37.882812 C 29.794253 36.76301 29.628777 36.014596 29.599609 35.429688 z M 27.115234 37.716797 C 27.116545 37.869815 27.107927 38.009188 27.115234 38.117188 C 27.12751 38.351724 27.157283 38.664164 27.183594 38.958984 C 27.199841 39.006351 27.224609 39.082031 27.224609 39.082031 C 27.226609 39.080431 27.224844 39.023125 27.214844 38.953125 C 27.176844 38.608025 27.133234 38.060697 27.115234 37.716797 z M 20.917969 37.824219 C 20.887969 38.272519 20.871078 38.475953 20.830078 38.876953 C 20.824078 38.983253 20.8125 39.074219 20.8125 39.074219 C 20.814145 39.076029 20.836021 39.012882 20.857422 38.947266 C 20.877733 38.726834 20.897375 38.532355 20.917969 38.224609 C 20.923491 38.142057 20.916246 37.982933 20.917969 37.824219 z "
       transform="translate(384.57143,499.798)"
       id="path4572" />
  </g>
</svg>
