<?xml version="1.0" encoding="UTF-8" standalone="no"?>
<svg
   xmlns:dc="http://purl.org/dc/elements/1.1/"
   xmlns:cc="http://creativecommons.org/ns#"
   xmlns:rdf="http://www.w3.org/1999/02/22-rdf-syntax-ns#"
   xmlns:svg="http://www.w3.org/2000/svg"
   xmlns="http://www.w3.org/2000/svg"
   xmlns:sodipodi="http://sodipodi.sourceforge.net/DTD/sodipodi-0.dtd"
   xmlns:inkscape="http://www.inkscape.org/namespaces/inkscape"
   width="22"
   viewBox="0 0 22 22"
   height="22"
   id="svg2"
   version="1.1"
   inkscape:version="0.91+devel r"
   sodipodi:docname="audio-recorder-on.svg">
  <metadata
     id="metadata30">
    <rdf:RDF>
      <cc:Work
         rdf:about="">
        <dc:format>image/svg+xml</dc:format>
        <dc:type
           rdf:resource="http://purl.org/dc/dcmitype/StillImage" />
        <dc:title />
      </cc:Work>
    </rdf:RDF>
  </metadata>
  <defs
     id="defs28">
    <clipPath
       id="clipPath6">
      <rect
         id="rect8"
         color="#bebebe"
         fill="#bebebe"
         x="26.85"
         y="220.75"
         width="3.825"
         height="6.375" />
    </clipPath>
    <clipPath
       id="clipPath10">
      <rect
         id="rect12"
         color="#bebebe"
         fill="#bebebe"
         x="26.966"
         y="221.33"
         width="2.898"
         height="5.216" />
    </clipPath>
    <clipPath
       id="clipPath14">
      <rect
         id="rect16"
         color="#bebebe"
         fill="#bebebe"
         x="26.999"
         y="221.5"
         width="1.876"
         height="4.874" />
    </clipPath>
    <clipPath
       id="clipPath3025">
      <rect
         height="4.874"
         width="1.876"
         y="221.5"
         x="26.999"
         fill="#bebebe"
         color="#bebebe"
         id="rect3027" />
    </clipPath>
    <clipPath
       id="clipPath3021">
      <rect
         height="5.216"
         width="2.898"
         y="221.33"
         x="26.966"
         fill="#bebebe"
         color="#bebebe"
         id="rect3023" />
    </clipPath>
    <clipPath
       id="clipPath3017">
      <rect
         height="6.375"
         width="3.825"
         y="220.75"
         x="26.85"
         fill="#bebebe"
         color="#bebebe"
         id="rect3019" />
    </clipPath>
  </defs>
  <sodipodi:namedview
     pagecolor="#ffffff"
     bordercolor="#666666"
     borderopacity="1"
     objecttolerance="10"
     gridtolerance="10"
     guidetolerance="10"
     inkscape:pageopacity="0"
     inkscape:pageshadow="2"
     inkscape:window-width="2560"
     inkscape:window-height="957"
     id="namedview26"
     showgrid="true"
     inkscape:showpageshadow="false"
     borderlayer="true"
     inkscape:zoom="7.5853275"
     inkscape:cx="5.6253011"
     inkscape:cy="8.5109096"
     inkscape:window-x="-4"
     inkscape:window-y="29"
     inkscape:window-maximized="1"
     inkscape:current-layer="svg2">
    <inkscape:grid
       type="xygrid"
       id="grid4159" />
    <sodipodi:guide
       position="0,22"
       orientation="22,0"
       id="guide4165" />
    <sodipodi:guide
       position="0,0"
       orientation="0,22"
       id="guide4167" />
    <sodipodi:guide
       position="22,0"
       orientation="-22,0"
       id="guide4169" />
    <sodipodi:guide
       position="22,22"
       orientation="0,-22"
       id="guide4171" />
    <sodipodi:guide
       position="3,19"
       orientation="16,0"
       id="guide4173" />
    <sodipodi:guide
       position="3,3"
       orientation="0,16"
       id="guide4175" />
    <sodipodi:guide
       position="19,3"
       orientation="-16,0"
       id="guide4177" />
    <sodipodi:guide
       position="19,19"
       orientation="0,-16"
       id="guide4179" />
  </sodipodi:namedview>
  <path
     inkscape:connector-curvature="0"
     style="color:#000000;text-decoration:none;text-decoration-line:none;text-decoration-style:solid;text-decoration-color:#000000;clip-rule:nonzero;display:inline;overflow:visible;visibility:visible;opacity:1;isolation:auto;mix-blend-mode:normal;color-interpolation:sRGB;color-interpolation-filters:linearRGB;solid-color:#000000;solid-opacity:1;fill:#424854;fill-opacity:1;fill-rule:nonzero;stroke:none;stroke-width:1;stroke-linecap:butt;stroke-linejoin:miter;stroke-miterlimit:4;stroke-dasharray:none;stroke-dashoffset:0;stroke-opacity:1;color-rendering:auto;image-rendering:auto;shape-rendering:auto;text-rendering:auto;enable-background:accumulate"
     d="M 8,3 C 5.23,3 3,5.23 3,8 l 0,5 c 0,2.05682 1.2328358,3.810613 3,4.580078 L 6,19 l 0,1 1,0 0,2 2,0 0,-2 1,0 0,-1 0,-1.419922 C 11.767164,16.810613 13,15.05682 13,13 L 13,8 C 13,5.23 10.77,3 8,3 Z M 7.5,4.0488281 7.5,5 l 1,0 0,-0.9511719 C 10.13996,4.2538468 11.458302,5.4319271 11.861328,7 L 9,7 l 0,1 3,0 0,1 -3,0 0,1 3,0 0,1 -3,0 0,1 3,0 0,1 -3,0 0,1 2.861328,0 C 11.417636,15.726297 9.86855,17 8,17 6.13145,17 4.5823641,15.726297 4.1386719,14 L 7,14 7,13 4,13 4,12 7,12 7,11 4,11 4,10 7,10 7,9 4,9 4,8 7,8 7,7 4.1386719,7 C 4.5416975,5.4319271 5.8600405,4.2538468 7.5,4.0488281 Z M 7,17.900391 C 7.3230841,17.965505 7.6571685,18 8,18 8.3428315,18 8.6769159,17.96551 9,17.90039 L 9,19 7,19 7,17.900391 Z"
     id="rect4199" />
  <circle
     style="opacity:1;fill:#f92d36;fill-opacity:1;stroke:none;stroke-width:3.56737041px;stroke-linecap:butt;stroke-linejoin:miter;stroke-miterlimit:4;stroke-dasharray:none;stroke-dashoffset:0;stroke-opacity:1"
     id="path4151"
     cx="17"
     cy="11"
     r="2" />
</svg>
