<?xml version="1.0" encoding="UTF-8" standalone="no"?>
<svg
   xmlns:dc="http://purl.org/dc/elements/1.1/"
   xmlns:cc="http://creativecommons.org/ns#"
   xmlns:rdf="http://www.w3.org/1999/02/22-rdf-syntax-ns#"
   xmlns:svg="http://www.w3.org/2000/svg"
   xmlns="http://www.w3.org/2000/svg"
   xmlns:sodipodi="http://sodipodi.sourceforge.net/DTD/sodipodi-0.dtd"
   xmlns:inkscape="http://www.inkscape.org/namespaces/inkscape"
   width="22"
   viewBox="0 0 6.208889 6.208889"
   height="22"
   id="svg2"
   version="1.1"
   inkscape:version="0.91+devel r"
   sodipodi:docname="clementine-panel.svg">
  <metadata
     id="metadata12">
    <rdf:RDF>
      <cc:Work
         rdf:about="">
        <dc:format>image/svg+xml</dc:format>
        <dc:type
           rdf:resource="http://purl.org/dc/dcmitype/StillImage" />
        <dc:title></dc:title>
      </cc:Work>
    </rdf:RDF>
  </metadata>
  <defs
     id="defs10" />
  <sodipodi:namedview
     pagecolor="#ffffff"
     bordercolor="#666666"
     borderopacity="1"
     objecttolerance="10"
     gridtolerance="10000"
     guidetolerance="10000"
     inkscape:pageopacity="0"
     inkscape:pageshadow="2"
     inkscape:window-width="2560"
     inkscape:window-height="957"
     id="namedview8"
     showgrid="true"
     inkscape:showpageshadow="false"
     borderlayer="true"
     inkscape:zoom="42.90909"
     inkscape:cx="18.459784"
     inkscape:cy="10.143796"
     inkscape:window-x="-4"
     inkscape:window-y="29"
     inkscape:window-maximized="1"
     inkscape:current-layer="svg2">
    <inkscape:grid
       type="xygrid"
       id="grid4158" />
    <sodipodi:guide
       position="0,22"
       orientation="22,0"
       id="guide4164" />
    <sodipodi:guide
       position="0,-2.681702e-08"
       orientation="0,22"
       id="guide4166" />
    <sodipodi:guide
       position="22,-2.681702e-08"
       orientation="-22,0"
       id="guide4168" />
    <sodipodi:guide
       position="22,22"
       orientation="0,-22"
       id="guide4170" />
    <sodipodi:guide
       position="6.208889,2.8222223"
       orientation="16,0"
       id="guide4172" />
    <sodipodi:guide
       position="3.3866667,6.208889"
       orientation="0,16"
       id="guide4174" />
    <sodipodi:guide
       position="19,3.0000004"
       orientation="-16,0"
       id="guide4176" />
    <sodipodi:guide
       position="19,19"
       orientation="0,-16"
       id="guide4178" />
    <sodipodi:guide
       position="0.84666669,5.3622223"
       orientation="16,0"
       id="guide4149" />
    <sodipodi:guide
       position="0.84666669,0.84666681"
       orientation="0,16"
       id="guide4151" />
    <sodipodi:guide
       position="5.3622222,0.84666681"
       orientation="-16,0"
       id="guide4153" />
    <sodipodi:guide
       position="5.3622222,5.3622223"
       orientation="0,-16"
       id="guide4155" />
  </sodipodi:namedview>
  <path
     style="opacity:1;fill:#424854;fill-opacity:1;stroke:none;stroke-width:3.56737041px;stroke-linecap:butt;stroke-linejoin:miter;stroke-miterlimit:4;stroke-dasharray:none;stroke-dashoffset:0;stroke-opacity:1"
     d="M 10.285156 3.0371094 A 8.0000008 8.0000008 0 0 0 9.2128906 3.2128906 A 8.000001 8.000001 0 0 0 9.109375 3.7734375 A 8.0000008 7.9999999 0 0 1 9.2109375 3.2109375 A 8.0000009 8.0000009 0 0 0 8.8007812 3.3261719 A 6.9999996 6.9999996 0 0 1 8.8203125 3.3046875 A 8.0000007 8.0000007 0 0 0 8.5566406 3.3945312 A 8.0000009 8.0000009 0 0 0 8.3046875 3.4824219 A 8.0000007 8.0000007 0 0 0 7.8554688 3.6601562 A 8.0000009 8.0000009 0 0 0 7.5273438 3.8085938 A 8.0000007 8.0000007 0 0 0 7.0527344 4.0527344 A 7.9999999 7.9999999 0 0 0 7.0527344 4.0546875 A 8.0000009 8.0000009 0 0 0 3 11 A 8.0000009 8.0000009 0 0 0 11 19 A 8.0000009 8.0000009 0 0 0 17.927734 14.964844 A 7.9999999 7.9999999 0 0 0 17.951172 14.951172 A 8.0000007 8.0000007 0 0 0 18.068359 14.716797 A 8.0000009 8.0000009 0 0 0 18.177734 14.501953 A 8.0000007 8.0000007 0 0 0 18.408203 13.982422 A 8.0000009 8.0000009 0 0 0 18.488281 13.771484 A 8.0000007 8.0000007 0 0 0 18.6875 13.1875 A 6.9999996 6.9999996 0 0 1 18.679688 13.193359 A 8.0000009 8.0000009 0 0 0 18.787109 12.789062 A 8.000001 8.000001 0 0 0 18.789062 12.789062 A 8.0000008 8.0000008 0 0 0 18.964844 11.712891 A 7.0000008 7.0000008 0 0 1 17 12 A 7.0000008 7.0000008 0 0 1 10 5 A 7.0000008 7.0000008 0 0 1 10.285156 3.0371094 z M 9.0566406 4.1328125 A 8.000001 8.000001 0 0 0 9 5 A 8.000001 8.000001 0 0 0 10.619141 9.8085938 L 7 8 A 6.9999996 6.9999996 0 0 1 7.796875 4.7851562 A 7.0000007 7.0000007 0 0 1 9.0351562 4.2871094 A 8.0000008 7.9999999 0 0 1 9.0566406 4.1328125 z M 6.3203125 5.8105469 A 7.9999999 7.9999999 0 0 0 6 8 A 7.9999999 7.9999999 0 0 0 14 16 A 7.9999999 7.9999999 0 0 0 16.183594 15.6875 A 7.0000007 7.0000007 0 0 1 11 18 A 7.0000007 7.0000007 0 0 1 4 11 A 7.0000007 7.0000007 0 0 1 6.3203125 5.8105469 z M 7.2988281 10 L 10.763672 10 A 8.000001 8.000001 0 0 0 11.951172 11.193359 L 11.154297 14.386719 A 6.9999996 6.9999996 0 0 1 7.2988281 10 z M 12.070312 11.285156 A 8.000001 8.000001 0 0 0 17 13 A 8.000001 8.000001 0 0 0 17.714844 12.962891 A 7.0000007 7.0000007 0 0 1 17.216797 14.201172 A 6.9999996 6.9999996 0 0 1 14 15 A 6.9999996 6.9999996 0 0 1 12.978516 14.916016 L 12.070312 11.285156 z "
     transform="scale(0.28222223)"
     id="path4157" />
</svg>
