<?xml version="1.0" encoding="UTF-8" standalone="no"?>
<svg
   xmlns:dc="http://purl.org/dc/elements/1.1/"
   xmlns:cc="http://creativecommons.org/ns#"
   xmlns:rdf="http://www.w3.org/1999/02/22-rdf-syntax-ns#"
   xmlns:svg="http://www.w3.org/2000/svg"
   xmlns="http://www.w3.org/2000/svg"
   xmlns:sodipodi="http://sodipodi.sourceforge.net/DTD/sodipodi-0.dtd"
   xmlns:inkscape="http://www.inkscape.org/namespaces/inkscape"
   width="22"
   height="22"
   viewBox="0 0 22 22"
   id="svg2"
   version="1.1"
   inkscape:version="0.91+devel r"
   sodipodi:docname="hipchat-attention.svg">
  <metadata
     id="metadata12">
    <rdf:RDF>
      <cc:Work
         rdf:about="">
        <dc:format>image/svg+xml</dc:format>
        <dc:type
           rdf:resource="http://purl.org/dc/dcmitype/StillImage" />
        <dc:title />
      </cc:Work>
    </rdf:RDF>
  </metadata>
  <defs
     id="defs10" />
  <sodipodi:namedview
     pagecolor="#ffffff"
     bordercolor="#666666"
     borderopacity="1"
     objecttolerance="10"
     gridtolerance="10"
     guidetolerance="10"
     inkscape:pageopacity="0"
     inkscape:pageshadow="2"
     inkscape:window-width="2560"
     inkscape:window-height="957"
     id="namedview8"
     showgrid="true"
     inkscape:showpageshadow="false"
     borderlayer="true"
     showguides="true"
     inkscape:zoom="45.254834"
     inkscape:cx="12.547178"
     inkscape:cy="11.536136"
     inkscape:window-x="-4"
     inkscape:window-y="29"
     inkscape:window-maximized="1"
     inkscape:current-layer="svg2">
    <inkscape:grid
       type="xygrid"
       id="grid4141" />
    <sodipodi:guide
       position="0,22"
       orientation="22,0"
       id="guide4147" />
    <sodipodi:guide
       position="0,0"
       orientation="0,22"
       id="guide4149" />
    <sodipodi:guide
       position="22,0"
       orientation="-22,0"
       id="guide4151" />
    <sodipodi:guide
       position="22,22"
       orientation="0,-22"
       id="guide4153" />
    <sodipodi:guide
       position="3,19"
       orientation="16,0"
       id="guide4155" />
    <sodipodi:guide
       position="3,3"
       orientation="0,16"
       id="guide4157" />
    <sodipodi:guide
       position="19,3"
       orientation="-16,0"
       id="guide4159" />
    <sodipodi:guide
       position="19,19"
       orientation="0,-16"
       id="guide4161" />
  </sodipodi:namedview>
  <path
     style="opacity:1;fill:#229df0;fill-opacity:1;stroke:none;stroke-width:3.84178424px;stroke-linecap:butt;stroke-linejoin:miter;stroke-miterlimit:4;stroke-dasharray:none;stroke-dashoffset:0;stroke-opacity:1"
     d="M 11 3 A 6.9999981 6.9999981 0 0 0 4 10 A 6.9999981 6.9999981 0 0 0 11 17 A 6.9999981 6.9999981 0 0 0 12.140625 16.904297 A 3 3 0 0 0 15 19 A 3 3 0 0 0 15.009766 19 A 3 3 0 0 1 14 16.757812 A 3 3 0 0 1 14.041016 16.298828 A 6.9999981 6.9999981 0 0 0 18 10 A 6.9999981 6.9999981 0 0 0 11 3 z M 11 4 A 6 6 0 0 1 17 10 A 6 6 0 0 1 11 16 A 6 6 0 0 1 5 10 A 6 6 0 0 1 11 4 z M 11 5 L 11 6 A 4 4 0 0 1 14.326172 7.7832031 L 15.158203 7.2285156 A 5 5 0 0 0 11 5 z "
     id="path4147" />
</svg>
