<?xml version="1.0" encoding="UTF-8" standalone="no"?>
<!-- Created with Inkscape (http://www.inkscape.org/) -->

<svg
   xmlns:dc="http://purl.org/dc/elements/1.1/"
   xmlns:cc="http://creativecommons.org/ns#"
   xmlns:rdf="http://www.w3.org/1999/02/22-rdf-syntax-ns#"
   xmlns:svg="http://www.w3.org/2000/svg"
   xmlns="http://www.w3.org/2000/svg"
   xmlns:sodipodi="http://sodipodi.sourceforge.net/DTD/sodipodi-0.dtd"
   xmlns:inkscape="http://www.inkscape.org/namespaces/inkscape"
   width="22"
   height="22"
   id="svg2"
   version="1.1"
   inkscape:version="0.91+devel r"
   viewBox="0 0 22 22"
   sodipodi:docname="insync-offline.svg">
  <defs
     id="defs4" />
  <sodipodi:namedview
     id="base"
     pagecolor="#ffffff"
     bordercolor="#666666"
     borderopacity="1.0"
     inkscape:pageopacity="0.0"
     inkscape:pageshadow="2"
     inkscape:zoom="35.576748"
     inkscape:cx="7.3417958"
     inkscape:cy="10.667266"
     inkscape:document-units="px"
     inkscape:current-layer="layer1"
     showgrid="true"
     inkscape:showpageshadow="false"
     units="px"
     inkscape:window-width="2560"
     inkscape:window-height="957"
     inkscape:window-x="-4"
     inkscape:window-y="29"
     inkscape:window-maximized="1"
     showguides="true">
    <inkscape:grid
       type="xygrid"
       id="grid4120" />
    <sodipodi:guide
       position="2,20.000017"
       orientation="18,0"
       id="guide4126" />
    <sodipodi:guide
       position="2,2.0000174"
       orientation="0,18"
       id="guide4128" />
    <sodipodi:guide
       position="20,2.0000174"
       orientation="-18,0"
       id="guide4130" />
    <sodipodi:guide
       position="20,20.000017"
       orientation="0,-18"
       id="guide4132" />
    <sodipodi:guide
       position="3,19.000017"
       orientation="16,0"
       id="guide4134" />
    <sodipodi:guide
       position="3,3.0000174"
       orientation="0,16"
       id="guide4136" />
    <sodipodi:guide
       position="19,3.0000174"
       orientation="-16,0"
       id="guide4138" />
    <sodipodi:guide
       position="19,19.000017"
       orientation="0,-16"
       id="guide4140" />
    <sodipodi:guide
       position="19,13.000017"
       orientation="-6,0"
       id="guide4199" />
    <sodipodi:guide
       position="19,19.000017"
       orientation="0,-6.0000172"
       id="guide4201" />
  </sodipodi:namedview>
  <metadata
     id="metadata7">
    <rdf:RDF>
      <cc:Work
         rdf:about="">
        <dc:format>image/svg+xml</dc:format>
        <dc:type
           rdf:resource="http://purl.org/dc/dcmitype/StillImage" />
        <dc:title />
      </cc:Work>
    </rdf:RDF>
  </metadata>
  <g
     inkscape:label="Capa 1"
     inkscape:groupmode="layer"
     id="layer1"
     transform="translate(0,-1030.3622)">
    <path
       style="opacity:1;fill:#f9832d;fill-opacity:1;stroke:none;stroke-width:3.56737041px;stroke-linecap:butt;stroke-linejoin:miter;stroke-miterlimit:4;stroke-dasharray:none;stroke-dashoffset:0;stroke-opacity:1"
       d="M 15.5 3 A 9.5 9.5 0 0 0 6 12.5 A 9.5 9.5 0 0 0 6.0253906 13 L 7.0175781 13 A 8.5 8.5 0 0 1 7 12.5 A 8.5 8.5 0 0 1 15.5 4 A 8.5 8.5 0 0 1 16 4.0253906 L 16 3.0175781 A 9.5 9.5 0 0 0 15.5 3 z M 15.5 6 A 6.5 6.5 0 0 0 9 12.5 A 6.5 6.5 0 0 0 9.0253906 13 L 10.027344 13 A 5.5 5.5 0 0 1 10 12.5 A 5.5 5.5 0 0 1 15.5 7 A 5.5 5.5 0 0 1 16 7.0253906 L 16 6.0214844 A 6.5 6.5 0 0 0 15.5 6 z M 14.5 10 A 1.5 1.5 0 0 0 13 11.5 A 1.5 1.5 0 0 0 14.5 13 A 1.5 1.5 0 0 0 16 11.5 A 1.5 1.5 0 0 0 14.5 10 z M 14.5 11 A 0.5 0.5 0 0 1 15 11.5 A 0.5 0.5 0 0 1 14.5 12 A 0.5 0.5 0 0 1 14 11.5 A 0.5 0.5 0 0 1 14.5 11 z M 14 14 L 14 19 L 15 19 L 15 14 L 14 14 z "
       transform="translate(0,1030.3622)"
       id="path4168" />
  </g>
</svg>
