<?xml version="1.0" encoding="UTF-8" standalone="no"?>
<svg
   xmlns:dc="http://purl.org/dc/elements/1.1/"
   xmlns:cc="http://creativecommons.org/ns#"
   xmlns:rdf="http://www.w3.org/1999/02/22-rdf-syntax-ns#"
   xmlns:svg="http://www.w3.org/2000/svg"
   xmlns="http://www.w3.org/2000/svg"
   xmlns:sodipodi="http://sodipodi.sourceforge.net/DTD/sodipodi-0.dtd"
   xmlns:inkscape="http://www.inkscape.org/namespaces/inkscape"
   width="22"
   height="22"
   viewBox="0 0 22 22"
   id="svg2"
   version="1.1"
   inkscape:version="0.91+devel r"
   sodipodi:docname="pamac-search.svg">
  <metadata
     id="metadata10">
    <rdf:RDF>
      <cc:Work
         rdf:about="">
        <dc:format>image/svg+xml</dc:format>
        <dc:type
           rdf:resource="http://purl.org/dc/dcmitype/StillImage" />
        <dc:title />
      </cc:Work>
    </rdf:RDF>
  </metadata>
  <defs
     id="defs8">
    <linearGradient
       id="linearGradient3257">
      <stop
         id="stop3259"
         style="stop-color:#a50000;stop-opacity:1"
         offset="0" />
      <stop
         id="stop3261"
         style="stop-color:#e73800;stop-opacity:1"
         offset="1" />
    </linearGradient>
  </defs>
  <sodipodi:namedview
     pagecolor="#ffffff"
     bordercolor="#666666"
     borderopacity="1"
     objecttolerance="10"
     gridtolerance="10000"
     guidetolerance="10000"
     inkscape:pageopacity="0"
     inkscape:pageshadow="2"
     inkscape:window-width="2560"
     inkscape:window-height="957"
     id="namedview6"
     showgrid="true"
     inkscape:showpageshadow="false"
     borderlayer="true"
     inkscape:zoom="64"
     inkscape:cx="11.328799"
     inkscape:cy="6.6312269"
     inkscape:window-x="-4"
     inkscape:window-y="29"
     inkscape:window-maximized="1"
     inkscape:current-layer="svg2">
    <inkscape:grid
       type="xygrid"
       id="grid4139" />
    <sodipodi:guide
       position="0,22"
       orientation="22,0"
       id="guide4161" />
    <sodipodi:guide
       position="0,0"
       orientation="0,22"
       id="guide4163" />
    <sodipodi:guide
       position="22,0"
       orientation="-22,0"
       id="guide4165" />
    <sodipodi:guide
       position="22,22"
       orientation="0,-22"
       id="guide4167" />
    <sodipodi:guide
       position="3,19"
       orientation="16,0"
       id="guide4169" />
    <sodipodi:guide
       position="3,3"
       orientation="0,16"
       id="guide4171" />
    <sodipodi:guide
       position="19,3"
       orientation="-16,0"
       id="guide4173" />
    <sodipodi:guide
       position="19,19"
       orientation="0,-16"
       id="guide4175" />
  </sodipodi:namedview>
  <path
     style="color:#000000;text-decoration:none;text-decoration-line:none;text-decoration-style:solid;text-decoration-color:#000000;clip-rule:nonzero;display:inline;overflow:visible;visibility:visible;opacity:1;isolation:auto;mix-blend-mode:normal;color-interpolation:sRGB;color-interpolation-filters:linearRGB;solid-color:#000000;solid-opacity:1;fill:#424854;fill-opacity:1;fill-rule:nonzero;stroke:none;stroke-width:1;stroke-linecap:butt;stroke-linejoin:miter;stroke-miterlimit:4;stroke-dasharray:none;stroke-dashoffset:0;stroke-opacity:1;color-rendering:auto;image-rendering:auto;shape-rendering:auto;text-rendering:auto;enable-background:accumulate"
     d="M 7,3 7,3.0039062 4,6 3,7 10,7 10,6 10,3 Z m 5,0 0,4 7,0 L 15,3.0039062 15,3 13,3 Z M 7.4160156,4 9,4 9,6 5.4140625,6 Z M 13,4 14.583984,4 16.585938,6 13,6 Z m -10,4 0,1 0,3 1,0 0,-3 14,0 0,9 -7,0 0,1 8,0 0,-1 0,-9 0,-1 z"
     id="rect4177"
     inkscape:connector-curvature="0"
     sodipodi:nodetypes="ccccccccccccccccccccccccccccccccccccccc" />
  <path
     style="opacity:1;fill:#424854;fill-opacity:1;stroke:none;stroke-width:3.56737041px;stroke-linecap:butt;stroke-linejoin:miter;stroke-miterlimit:4;stroke-dasharray:none;stroke-dashoffset:0;stroke-opacity:1"
     d="M 7.5 12 A 2.5 2.5 0 0 0 5 14.5 A 2.5 2.5 0 0 0 5.4160156 15.876953 L 3 18.292969 L 3.7070312 19 L 6.1230469 16.583984 A 2.5 2.5 0 0 0 7.5 17 A 2.5 2.5 0 0 0 10 14.5 A 2.5 2.5 0 0 0 7.5 12 z M 7.5 13 A 1.5 1.5 0 0 1 9 14.5 A 1.5 1.5 0 0 1 7.5 16 A 1.5 1.5 0 0 1 6 14.5 A 1.5 1.5 0 0 1 7.5 13 z "
     id="path4151" />
</svg>
