<?xml version="1.0" encoding="UTF-8" standalone="no"?>
<svg
   xmlns:dc="http://purl.org/dc/elements/1.1/"
   xmlns:cc="http://creativecommons.org/ns#"
   xmlns:rdf="http://www.w3.org/1999/02/22-rdf-syntax-ns#"
   xmlns:svg="http://www.w3.org/2000/svg"
   xmlns="http://www.w3.org/2000/svg"
   xmlns:sodipodi="http://sodipodi.sourceforge.net/DTD/sodipodi-0.dtd"
   xmlns:inkscape="http://www.inkscape.org/namespaces/inkscape"
   width="22"
   height="22"
   viewBox="0 0 22 22"
   id="svg2"
   version="1.1"
   inkscape:version="0.91+devel r"
   sodipodi:docname="pamac-cleanup.svg">
  <metadata
     id="metadata10">
    <rdf:RDF>
      <cc:Work
         rdf:about="">
        <dc:format>image/svg+xml</dc:format>
        <dc:type
           rdf:resource="http://purl.org/dc/dcmitype/StillImage" />
        <dc:title />
      </cc:Work>
    </rdf:RDF>
  </metadata>
  <defs
     id="defs8">
    <linearGradient
       id="linearGradient3257">
      <stop
         id="stop3259"
         style="stop-color:#a50000;stop-opacity:1"
         offset="0" />
      <stop
         id="stop3261"
         style="stop-color:#e73800;stop-opacity:1"
         offset="1" />
    </linearGradient>
  </defs>
  <sodipodi:namedview
     pagecolor="#ffffff"
     bordercolor="#666666"
     borderopacity="1"
     objecttolerance="10"
     gridtolerance="10"
     guidetolerance="10"
     inkscape:pageopacity="0"
     inkscape:pageshadow="2"
     inkscape:window-width="2560"
     inkscape:window-height="957"
     id="namedview6"
     showgrid="true"
     inkscape:showpageshadow="false"
     borderlayer="true"
     inkscape:zoom="45.254834"
     inkscape:cx="1.4472847"
     inkscape:cy="10.036363"
     inkscape:window-x="-4"
     inkscape:window-y="29"
     inkscape:window-maximized="1"
     inkscape:current-layer="svg2">
    <inkscape:grid
       type="xygrid"
       id="grid4139" />
    <sodipodi:guide
       position="0,22"
       orientation="22,0"
       id="guide4161" />
    <sodipodi:guide
       position="0,0"
       orientation="0,22"
       id="guide4163" />
    <sodipodi:guide
       position="22,0"
       orientation="-22,0"
       id="guide4165" />
    <sodipodi:guide
       position="22,22"
       orientation="0,-22"
       id="guide4167" />
    <sodipodi:guide
       position="3,19"
       orientation="16,0"
       id="guide4169" />
    <sodipodi:guide
       position="3,3"
       orientation="0,16"
       id="guide4171" />
    <sodipodi:guide
       position="19,3"
       orientation="-16,0"
       id="guide4173" />
    <sodipodi:guide
       position="19,19"
       orientation="0,-16"
       id="guide4175" />
  </sodipodi:namedview>
  <path
     style="color:#000000;text-decoration:none;text-decoration-line:none;text-decoration-style:solid;text-decoration-color:#000000;clip-rule:nonzero;display:inline;overflow:visible;visibility:visible;opacity:1;isolation:auto;mix-blend-mode:normal;color-interpolation:sRGB;color-interpolation-filters:linearRGB;solid-color:#000000;solid-opacity:1;fill:#f92d36;fill-opacity:1;fill-rule:nonzero;stroke:none;stroke-width:1;stroke-linecap:butt;stroke-linejoin:miter;stroke-miterlimit:4;stroke-dasharray:none;stroke-dashoffset:0;stroke-opacity:1;color-rendering:auto;image-rendering:auto;shape-rendering:auto;text-rendering:auto;enable-background:accumulate"
     d="M 7 3 L 7 3.0039062 L 4 6 L 3 7 L 10 7 L 10 6 L 10 3 L 7 3 z M 12 3 L 12 7 L 19 7 L 15 3.0039062 L 15 3 L 13 3 L 12 3 z M 7.4160156 4 L 9 4 L 9 6 L 5.4140625 6 L 7.4160156 4 z M 13 4 L 14.583984 4 L 16.585938 6 L 13 6 L 13 4 z M 3 8 L 3 9 L 3 12 L 4 12 L 4 9 L 18 9 L 18 18 L 11 18 L 11 19 L 19 19 L 19 18 L 19 9 L 19 8 L 3 8 z M 3.7070312 13 L 3 13.707031 L 5.2929688 16 L 3 18.292969 L 3.7070312 19 L 6 16.707031 L 8.2929688 19 L 9 18.292969 L 6.7070312 16 L 9 13.707031 L 8.2929688 13 L 6 15.292969 L 3.7070312 13 z "
     id="rect4177" />
</svg>
