<?xml version="1.0" encoding="UTF-8" standalone="no"?>
<svg
   xmlns:dc="http://purl.org/dc/elements/1.1/"
   xmlns:cc="http://creativecommons.org/ns#"
   xmlns:rdf="http://www.w3.org/1999/02/22-rdf-syntax-ns#"
   xmlns:svg="http://www.w3.org/2000/svg"
   xmlns="http://www.w3.org/2000/svg"
   xmlns:sodipodi="http://sodipodi.sourceforge.net/DTD/sodipodi-0.dtd"
   xmlns:inkscape="http://www.inkscape.org/namespaces/inkscape"
   width="22"
   viewBox="0 0 22 22"
   height="22"
   id="svg2"
   version="1.1"
   inkscape:version="0.91+devel r"
   sodipodi:docname="pidgin.svg">
  <metadata
     id="metadata14">
    <rdf:RDF>
      <cc:Work
         rdf:about="">
        <dc:format>image/svg+xml</dc:format>
        <dc:type
           rdf:resource="http://purl.org/dc/dcmitype/StillImage" />
        <dc:title />
      </cc:Work>
    </rdf:RDF>
  </metadata>
  <defs
     id="defs12" />
  <sodipodi:namedview
     pagecolor="#ffffff"
     bordercolor="#666666"
     borderopacity="1"
     objecttolerance="10"
     gridtolerance="10"
     guidetolerance="10"
     inkscape:pageopacity="0"
     inkscape:pageshadow="2"
     inkscape:window-width="2560"
     inkscape:window-height="957"
     id="namedview10"
     showgrid="true"
     borderlayer="true"
     inkscape:showpageshadow="false"
     inkscape:zoom="42.90909"
     inkscape:cx="17.633143"
     inkscape:cy="12.198586"
     inkscape:window-x="-4"
     inkscape:window-y="29"
     inkscape:window-maximized="1"
     inkscape:current-layer="svg2">
    <inkscape:grid
       type="xygrid"
       id="grid4143" />
    <sodipodi:guide
       position="0,22"
       orientation="22,0"
       id="guide4149" />
    <sodipodi:guide
       position="0,0"
       orientation="0,22"
       id="guide4151" />
    <sodipodi:guide
       position="22,0"
       orientation="-22,0"
       id="guide4153" />
    <sodipodi:guide
       position="22,22"
       orientation="0,-22"
       id="guide4155" />
    <sodipodi:guide
       position="3,19"
       orientation="16,0"
       id="guide4157" />
    <sodipodi:guide
       position="3,3"
       orientation="0,16"
       id="guide4159" />
    <sodipodi:guide
       position="19,3"
       orientation="-16,0"
       id="guide4161" />
    <sodipodi:guide
       position="19,19"
       orientation="0,-16"
       id="guide4163" />
  </sodipodi:namedview>
  <path
     style="opacity:1;fill:#424854;fill-opacity:1;stroke:none"
     d="M 3 3 L 3 4 L 3 13 L 3 14 L 3 15 L 11 15 L 11 18 L 11 19 L 11.046875 19 L 11.699219 19 L 11.710938 19 L 15.710938 15 L 19 15 L 19 14 L 19 12.492188 L 19 3 L 4 3 L 3 3 z M 4 4 L 18 4 L 18 13 L 18 14 L 4 14 L 4 13 L 4 4 z M 12 15 L 14.292969 15 L 12 17.292969 L 12 15 z "
     id="rect4162" />
  <path
     style="opacity:1;fill:#424854;fill-opacity:1;stroke:none;stroke-width:3.54940128px;stroke-linecap:butt;stroke-linejoin:miter;stroke-miterlimit:4;stroke-dasharray:none;stroke-dashoffset:0;stroke-opacity:1"
     d="M 15 5 C 14.451567 5 13.919601 5.4535385 14.009766 6 L 14.505859 9 C 14.596019 9.5464623 14.745721 10 15 10 C 15.254279 10 15.403976 9.546462 15.494141 9 L 15.990234 6 C 16.080399 5.4535385 15.548433 5 15 5 z M 15 11 A 1 1 0 0 0 14 12 A 1 1 0 0 0 15 13 A 1 1 0 0 0 16 12 A 1 1 0 0 0 15 11 z "
     id="rect4147" />
</svg>
