<?xml version="1.0" encoding="UTF-8" standalone="no"?>
<!-- Created with Inkscape (http://www.inkscape.org/) -->

<svg
   xmlns:dc="http://purl.org/dc/elements/1.1/"
   xmlns:cc="http://creativecommons.org/ns#"
   xmlns:rdf="http://www.w3.org/1999/02/22-rdf-syntax-ns#"
   xmlns:svg="http://www.w3.org/2000/svg"
   xmlns="http://www.w3.org/2000/svg"
   xmlns:sodipodi="http://sodipodi.sourceforge.net/DTD/sodipodi-0.dtd"
   xmlns:inkscape="http://www.inkscape.org/namespaces/inkscape"
   width="22"
   height="22"
   id="svg2"
   version="1.1"
   inkscape:version="0.91+devel r"
   viewBox="0 0 22 22"
   sodipodi:docname="pushbullet-indicator-sync1-dark.svg">
  <defs
     id="defs4" />
  <sodipodi:namedview
     id="base"
     pagecolor="#ffffff"
     bordercolor="#666666"
     borderopacity="1.0"
     inkscape:pageopacity="0.0"
     inkscape:pageshadow="2"
     inkscape:zoom="45.254834"
     inkscape:cx="1.5608582"
     inkscape:cy="9.450864"
     inkscape:document-units="px"
     inkscape:current-layer="layer1"
     showgrid="true"
     inkscape:showpageshadow="false"
     units="px"
     inkscape:window-width="2560"
     inkscape:window-height="957"
     inkscape:window-x="-4"
     inkscape:window-y="29"
     inkscape:window-maximized="1"
     showguides="true">
    <inkscape:grid
       type="xygrid"
       id="grid4120" />
    <sodipodi:guide
       position="2,20.000017"
       orientation="18,0"
       id="guide4126" />
    <sodipodi:guide
       position="2,2.0000174"
       orientation="0,18"
       id="guide4128" />
    <sodipodi:guide
       position="20,2.0000174"
       orientation="-18,0"
       id="guide4130" />
    <sodipodi:guide
       position="20,20.000017"
       orientation="0,-18"
       id="guide4132" />
    <sodipodi:guide
       position="3,19.000017"
       orientation="16,0"
       id="guide4134" />
    <sodipodi:guide
       position="3,3.0000174"
       orientation="0,16"
       id="guide4136" />
    <sodipodi:guide
       position="19,3.0000174"
       orientation="-16,0"
       id="guide4138" />
    <sodipodi:guide
       position="19,19.000017"
       orientation="0,-16"
       id="guide4140" />
    <sodipodi:guide
       position="19,13.000017"
       orientation="-6,0"
       id="guide4199" />
    <sodipodi:guide
       position="19,19.000017"
       orientation="0,-6.0000172"
       id="guide4201" />
  </sodipodi:namedview>
  <metadata
     id="metadata7">
    <rdf:RDF>
      <cc:Work
         rdf:about="">
        <dc:format>image/svg+xml</dc:format>
        <dc:type
           rdf:resource="http://purl.org/dc/dcmitype/StillImage" />
        <dc:title />
      </cc:Work>
    </rdf:RDF>
  </metadata>
  <g
     inkscape:label="Capa 1"
     inkscape:groupmode="layer"
     id="layer1"
     transform="translate(0,-1030.3622)">
    <path
       style="opacity:1;fill:#424854;fill-opacity:1;stroke:none;stroke-width:3.56737041px;stroke-linecap:butt;stroke-linejoin:miter;stroke-miterlimit:4;stroke-dasharray:none;stroke-dashoffset:0;stroke-opacity:1"
       d="M 6 5 C 5.613751 5 5.5880026 5.2825875 5.4648438 5.7421875 C 5.4206638 5.9900875 5.3797139 6.2375281 5.3417969 6.4863281 C 5.2659669 6.9839281 5.2030267 7.483675 5.1523438 7.984375 C 5.0509778 8.985575 5.000214 9.9923 5 11 C 5.000214 12.0077 5.0509797 13.014425 5.1523438 14.015625 C 5.2030237 14.516325 5.2659709 15.016072 5.3417969 15.513672 C 5.3797069 15.762472 5.4206667 16.009913 5.4648438 16.257812 C 5.5880028 16.717412 5.613751 17 6 17 L 7 17 L 8 17 L 9 17 L 9.3164062 17 C 9.393135 16.995953 9.4463625 16.974557 9.4824219 16.939453 C 9.4838465 16.938066 9.4830043 16.935023 9.484375 16.933594 C 9.5065058 16.911513 9.513246 16.877256 9.5234375 16.845703 C 9.5298129 16.824889 9.5406505 16.807408 9.5429688 16.783203 C 9.5548037 16.670438 9.5257465 16.517334 9.4960938 16.359375 C 9.4891705 16.322496 9.4889114 16.295488 9.4824219 16.257812 C 9.4374219 16.010012 9.3961529 15.762372 9.3574219 15.513672 C 9.2799589 15.016172 9.2144219 14.516225 9.1621094 14.015625 C 9.1287942 13.696786 9.1089962 13.376391 9.0859375 13.056641 C 9.0851401 13.045584 9.0847931 13.034494 9.0839844 13.023438 C 9.0712237 12.848992 9.0574453 12.674605 9.046875 12.5 C 9.0448034 12.456987 9.0409985 12.414112 9.0390625 12.371094 C 9.0390625 12.371094 9.0390625 12.369141 9.0390625 12.369141 C 9.0166954 11.913085 9.0015539 11.457057 9 11 C 9.0015553 10.542943 9.0166956 10.086915 9.0390625 9.6308594 C 9.0390625 9.6308594 9.0390625 9.6289062 9.0390625 9.6289062 C 9.0497556 9.4111652 9.0680836 9.193938 9.0839844 8.9765625 C 9.0847931 8.9655063 9.0851401 8.9544163 9.0859375 8.9433594 C 9.1089958 8.6236091 9.1287943 8.3032144 9.1621094 7.984375 C 9.2144214 7.483775 9.2799589 6.9838281 9.3574219 6.4863281 C 9.3961529 6.2376281 9.4374219 5.9899875 9.4824219 5.7421875 C 9.4889114 5.7045129 9.4891706 5.6775044 9.4960938 5.640625 C 9.5257465 5.4826657 9.5548037 5.3295619 9.5429688 5.2167969 C 9.5406505 5.1925922 9.5298129 5.175111 9.5234375 5.1542969 C 9.513246 5.1227436 9.5065058 5.0884867 9.484375 5.0664062 C 9.4483105 5.0288033 9.3961664 5.0042065 9.3164062 5 L 9 5 L 8 5 L 7 5 L 6 5 z M 11 5 C 10.613751 5 10.588003 5.2825875 10.464844 5.7421875 C 10.420664 5.9900875 10.379714 6.2375281 10.341797 6.4863281 C 10.265967 6.9839281 10.203027 7.483675 10.152344 7.984375 C 10.050978 8.985575 10.000214 9.9923 10 11 C 10.000214 12.0077 10.05098 13.014425 10.152344 14.015625 C 10.203024 14.516325 10.265971 15.016072 10.341797 15.513672 C 10.379707 15.762472 10.420667 16.009913 10.464844 16.257812 C 10.588003 16.717412 10.613751 17 11 17 L 14 17 C 19 17 22 13 22 11 C 22 9 19 5 14 5 L 11 5 z M 6.8339844 6 L 7 6 L 8 6 L 8.421875 6 C 8.3944521 6.1619299 8.3665745 6.3237448 8.3417969 6.4863281 C 8.2659669 6.9839281 8.2030268 7.483675 8.1523438 7.984375 C 8.1518159 7.9895886 8.1509157 7.9947861 8.1503906 8 L 6.1894531 8 C 6.2202298 7.7459305 6.246595 7.4912882 6.2851562 7.2382812 C 6.3167552 7.0309812 6.3498988 6.8257406 6.3867188 6.6191406 C 6.4893517 6.2361406 6.5121104 6 6.8339844 6 z M 11.833984 6 L 14.333984 6 C 16.497549 6 18.197732 6.9025205 19.345703 8 L 11.189453 8 C 11.22023 7.7459305 11.246595 7.4912882 11.285156 7.2382812 C 11.316755 7.0309812 11.349899 6.8257406 11.386719 6.6191406 C 11.489352 6.2361406 11.51211 6 11.833984 6 z M 6.0878906 9 L 8.0761719 9 C 8.0316038 9.6657034 8.0001418 10.332115 8 11 C 8.000214 12.0077 8.0509794 13.014425 8.1523438 14.015625 C 8.2030234 14.516325 8.2659709 15.016072 8.3417969 15.513672 C 8.3665699 15.676255 8.3944505 15.83807 8.421875 16 L 8 16 L 7 16 L 6.8339844 16 C 6.5121104 16 6.4893507 15.763859 6.3867188 15.380859 C 6.3498997 15.174259 6.3167463 14.969019 6.2851562 14.761719 C 6.2219682 14.347019 6.1691831 13.930972 6.1269531 13.513672 C 6.0424801 12.679372 6.000178 11.8397 6 11 C 6.0001415 10.332291 6.0344558 9.6649866 6.0878906 9 z M 11.087891 9 L 20.201172 9 C 20.70836 9.7279257 21 10.454004 21 11 C 21 12.6667 18.500651 16 14.333984 16 L 11.833984 16 C 11.51211 16 11.489351 15.763859 11.386719 15.380859 C 11.3499 15.174259 11.316746 14.969019 11.285156 14.761719 C 11.221968 14.347019 11.169183 13.930972 11.126953 13.513672 C 11.04248 12.679372 11.000178 11.8397 11 11 C 11.000142 10.332291 11.034456 9.6649866 11.087891 9 z "
       transform="translate(0,1030.3622)"
       id="path4215" />
    <path
       style="color:#000000;text-decoration:none;text-decoration-line:none;text-decoration-style:solid;text-decoration-color:#000000;clip-rule:nonzero;display:inline;overflow:visible;visibility:visible;opacity:0.75;isolation:auto;mix-blend-mode:normal;color-interpolation:sRGB;color-interpolation-filters:linearRGB;solid-color:#000000;solid-opacity:1;fill:#424854;fill-opacity:1;fill-rule:nonzero;stroke:none;stroke-width:0.81278992;stroke-linecap:butt;stroke-linejoin:miter;stroke-miterlimit:4;stroke-dasharray:none;stroke-dashoffset:0;stroke-opacity:1;color-rendering:auto;image-rendering:auto;shape-rendering:auto;text-rendering:auto;enable-background:accumulate"
       d="m 1.73e-5,1041.7795 c 4.136282,-0.8036 0.81836893,-1.6102 0.81836893,-1.6102 1.63600157,0.1272 1.46070677,-0.8071 2.86429157,-0.8071 1.2275523,0 2.0459221,0.9001 2.0459221,2.0183 0,0.992 -0.7193463,1.8097 -1.6734826,1.9817 0.022095,-0.1191 0.036828,-0.2417 0.036828,-0.3672 0,-1.1191 -0.2244784,-1.0478 -0.8567501,-0.4242 -0.8391551,0.8277 -3.11422124,-0.8135 -3.23509431965,-0.7913 z"
       id="path4250"
       inkscape:connector-curvature="0"
       sodipodi:nodetypes="ccsscssc" />
  </g>
</svg>
