<?xml version="1.0" encoding="UTF-8" standalone="no"?>
<svg
   xmlns:dc="http://purl.org/dc/elements/1.1/"
   xmlns:cc="http://creativecommons.org/ns#"
   xmlns:rdf="http://www.w3.org/1999/02/22-rdf-syntax-ns#"
   xmlns:svg="http://www.w3.org/2000/svg"
   xmlns="http://www.w3.org/2000/svg"
   xmlns:sodipodi="http://sodipodi.sourceforge.net/DTD/sodipodi-0.dtd"
   xmlns:inkscape="http://www.inkscape.org/namespaces/inkscape"
   viewBox="0 0 22 22"
   id="svg2"
   version="1.1"
   inkscape:version="0.91+devel r"
   sodipodi:docname="radiotray_connecting.svg">
  <metadata
     id="metadata8">
    <rdf:RDF>
      <cc:Work
         rdf:about="">
        <dc:format>image/svg+xml</dc:format>
        <dc:type
           rdf:resource="http://purl.org/dc/dcmitype/StillImage" />
        <dc:title />
      </cc:Work>
    </rdf:RDF>
  </metadata>
  <defs
     id="defs6" />
  <sodipodi:namedview
     pagecolor="#ffffff"
     bordercolor="#666666"
     borderopacity="1"
     objecttolerance="10"
     gridtolerance="10"
     guidetolerance="10"
     inkscape:pageopacity="0"
     inkscape:pageshadow="2"
     inkscape:window-width="2560"
     inkscape:window-height="957"
     id="namedview4"
     showgrid="true"
     inkscape:showpageshadow="false"
     borderlayer="true"
     inkscape:zoom="35"
     inkscape:cx="12.672583"
     inkscape:cy="9.9984054"
     inkscape:window-x="-4"
     inkscape:window-y="29"
     inkscape:window-maximized="1"
     inkscape:current-layer="svg2">
    <inkscape:grid
       type="xygrid"
       id="grid4133" />
    <sodipodi:guide
       position="3,1"
       orientation="22,0"
       id="guide4139" />
    <sodipodi:guide
       position="11,19"
       orientation="0,22"
       id="guide4141" />
    <sodipodi:guide
       position="22,0.51428571"
       orientation="-22,0"
       id="guide4143" />
    <sodipodi:guide
       position="22,22"
       orientation="0,-22"
       id="guide4145" />
    <sodipodi:guide
       position="19,0.42857143"
       orientation="16,0"
       id="guide4147" />
    <sodipodi:guide
       position="10.371429,0"
       orientation="0,16"
       id="guide4149" />
    <sodipodi:guide
       position="0,18.457143"
       orientation="-16,0"
       id="guide4151" />
    <sodipodi:guide
       position="7.4,3"
       orientation="0,-16"
       id="guide4153" />
  </sodipodi:namedview>
  <path
     style="color:#000000;text-decoration:none;text-decoration-line:none;text-decoration-style:solid;text-decoration-color:#000000;clip-rule:nonzero;display:inline;overflow:visible;visibility:visible;opacity:0.25;isolation:auto;mix-blend-mode:normal;color-interpolation:sRGB;color-interpolation-filters:linearRGB;solid-color:#000000;solid-opacity:1;fill:#424854;fill-opacity:1;fill-rule:nonzero;stroke:none;stroke-width:1;stroke-linecap:butt;stroke-linejoin:miter;stroke-miterlimit:4;stroke-dasharray:none;stroke-dashoffset:0;stroke-opacity:1;color-rendering:auto;image-rendering:auto;shape-rendering:auto;text-rendering:auto;enable-background:accumulate"
     d="m 11,3 c -4.432,0 -8,3.568 -8,8 0,2.216 0.8918906,4.216109 2.3378906,5.662109 L 6.0449219,15.955078 C 4.7796719,14.689828 4,12.939 4,11 4,7.122 7.122,4 11,4 c 3.878,0 7,3.122 7,7 0,1.939 -0.779672,3.689828 -2.044922,4.955078 l 0.707031,0.707031 C 18.108109,15.216109 19,13.216 19,11 19,6.568 15.432,3 11,3 Z"
     id="path4159" />
  <path
     style="color:#000000;text-decoration:none;text-decoration-line:none;text-decoration-style:solid;text-decoration-color:#000000;clip-rule:nonzero;display:inline;overflow:visible;visibility:visible;opacity:0.5;isolation:auto;mix-blend-mode:normal;color-interpolation:sRGB;color-interpolation-filters:linearRGB;solid-color:#000000;solid-opacity:1;fill:#424854;fill-opacity:1;fill-rule:nonzero;stroke:none;stroke-width:1;stroke-linecap:butt;stroke-linejoin:miter;stroke-miterlimit:4;stroke-dasharray:none;stroke-dashoffset:0;stroke-opacity:1;color-rendering:auto;image-rendering:auto;shape-rendering:auto;text-rendering:auto;enable-background:accumulate"
     d="m 11,5 c -3.324,0 -6,2.676 -6,6 0,1.662 0.6694063,3.161594 1.7539062,4.246094 L 7.4609375,14.539062 C 6.5571875,13.635314 6,12.385 6,11 6,8.23 8.23,6 11,6 c 2.77,0 5,2.23 5,5 0,1.385 -0.557187,2.635313 -1.460938,3.539062 l 0.707032,0.707032 C 16.330594,14.161594 17,12.662 17,11 17,7.676 14.324,5 11,5 Z"
     id="path4157" />
  <path
     style="color:#000000;text-decoration:none;text-decoration-line:none;text-decoration-style:solid;text-decoration-color:#000000;clip-rule:nonzero;display:inline;overflow:visible;visibility:visible;opacity:0.75;isolation:auto;mix-blend-mode:normal;color-interpolation:sRGB;color-interpolation-filters:linearRGB;solid-color:#000000;solid-opacity:1;fill:#424854;fill-opacity:1;fill-rule:nonzero;stroke:none;stroke-width:1;stroke-linecap:butt;stroke-linejoin:miter;stroke-miterlimit:4;stroke-dasharray:none;stroke-dashoffset:0;stroke-opacity:1;color-rendering:auto;image-rendering:auto;shape-rendering:auto;text-rendering:auto;enable-background:accumulate"
     d="m 11,7 c -2.2159996,0 -4,1.7840004 -4,4 0,1.108 0.4469218,2.107078 1.1699219,2.830078 L 8.8769531,13.123047 C 8.3347031,12.580797 8,11.831 8,11 8,9.3380003 9.3380003,8 11,8 c 1.662,0 3,1.3380003 3,3 0,0.831 -0.334703,1.580797 -0.876953,2.123047 l 0.707031,0.707031 C 14.553078,13.107078 15,12.108 15,11 15,8.7840004 13.216,7 11,7 Z"
     id="path4155" />
  <path
     style="color:#000000;text-decoration:none;text-decoration-line:none;text-decoration-style:solid;text-decoration-color:#000000;clip-rule:nonzero;display:inline;overflow:visible;visibility:visible;opacity:1;isolation:auto;mix-blend-mode:normal;color-interpolation:sRGB;color-interpolation-filters:linearRGB;solid-color:#000000;solid-opacity:1;fill:#424854;fill-opacity:1;fill-rule:nonzero;stroke:none;stroke-width:1;stroke-linecap:butt;stroke-linejoin:miter;stroke-miterlimit:4;stroke-dasharray:none;stroke-dashoffset:0;stroke-opacity:1;color-rendering:auto;image-rendering:auto;shape-rendering:auto;text-rendering:auto;enable-background:accumulate"
     d="M 11 10 C 10.446 10 10 10.446 10 11 C 10 11.0249 10.011902 11.045882 10.013672 11.070312 L 7.8554688 19 L 8.890625 19 L 9 18.597656 L 9.0234375 18.621094 L 11 16.644531 L 12.976562 18.621094 L 13 18.597656 L 13.109375 19 L 14.144531 19 L 11.986328 11.070312 C 11.9881 11.045877 12 11.024903 12 11 C 12 10.446 11.554 10 11 10 z M 10.808594 11.960938 C 10.872643 11.97372 10.932082 12 11 12 C 11.06792 12 11.127357 11.973717 11.191406 11.960938 L 11.851562 14.378906 L 11 15.230469 L 10.150391 14.380859 L 10.808594 11.960938 z M 12.154297 15.490234 L 12.488281 16.71875 L 11.707031 15.9375 L 12.154297 15.490234 z M 9.8476562 15.492188 L 10.292969 15.9375 L 9.5136719 16.716797 L 9.8476562 15.492188 z "
     id="path4153" />
</svg>
