<?xml version="1.0" encoding="UTF-8" standalone="no"?>
<svg
   xmlns:dc="http://purl.org/dc/elements/1.1/"
   xmlns:cc="http://creativecommons.org/ns#"
   xmlns:rdf="http://www.w3.org/1999/02/22-rdf-syntax-ns#"
   xmlns:svg="http://www.w3.org/2000/svg"
   xmlns="http://www.w3.org/2000/svg"
   xmlns:sodipodi="http://sodipodi.sourceforge.net/DTD/sodipodi-0.dtd"
   xmlns:inkscape="http://www.inkscape.org/namespaces/inkscape"
   width="22"
   viewBox="0 0 22 22"
   height="22"
   id="svg2"
   version="1.1"
   inkscape:version="0.91+devel r"
   sodipodi:docname="simplescreenrecorder-recording.svg">
  <metadata
     id="metadata28">
    <rdf:RDF>
      <cc:Work
         rdf:about="">
        <dc:format>image/svg+xml</dc:format>
        <dc:type
           rdf:resource="http://purl.org/dc/dcmitype/StillImage" />
        <dc:title />
      </cc:Work>
    </rdf:RDF>
  </metadata>
  <sodipodi:namedview
     pagecolor="#ffffff"
     bordercolor="#666666"
     borderopacity="1"
     objecttolerance="10"
     gridtolerance="10"
     guidetolerance="10"
     inkscape:pageopacity="0"
     inkscape:pageshadow="2"
     inkscape:window-width="2560"
     inkscape:window-height="1024"
     id="namedview26"
     showgrid="true"
     inkscape:showpageshadow="false"
     borderlayer="true"
     inkscape:zoom="42.909091"
     inkscape:cx="8.2811452"
     inkscape:cy="12.384618"
     inkscape:window-x="-4"
     inkscape:window-y="29"
     inkscape:window-maximized="1"
     inkscape:current-layer="svg2">
    <inkscape:grid
       type="xygrid"
       id="grid4157" />
    <sodipodi:guide
       position="0,22"
       orientation="22,0"
       id="guide4163" />
    <sodipodi:guide
       position="0,0"
       orientation="0,22"
       id="guide4165" />
    <sodipodi:guide
       position="22,0"
       orientation="-22,0"
       id="guide4167" />
    <sodipodi:guide
       position="22,22"
       orientation="0,-22"
       id="guide4169" />
    <sodipodi:guide
       position="3,19"
       orientation="16,0"
       id="guide4171" />
    <sodipodi:guide
       position="3,3"
       orientation="0,16"
       id="guide4173" />
    <sodipodi:guide
       position="19,3"
       orientation="-16,0"
       id="guide4175" />
    <sodipodi:guide
       position="19,19"
       orientation="0,-16"
       id="guide4177" />
  </sodipodi:namedview>
  <defs
     id="defs4" />
  <path
     style="color:#000000;text-decoration:none;text-decoration-line:none;text-decoration-style:solid;text-decoration-color:#000000;clip-rule:nonzero;display:inline;overflow:visible;visibility:visible;opacity:1;isolation:auto;mix-blend-mode:normal;color-interpolation:sRGB;color-interpolation-filters:linearRGB;solid-color:#000000;solid-opacity:1;fill:#424854;fill-opacity:1;fill-rule:nonzero;stroke:none;stroke-width:1;stroke-linecap:butt;stroke-linejoin:miter;stroke-miterlimit:4;stroke-dasharray:none;stroke-dashoffset:0;stroke-opacity:1;color-rendering:auto;image-rendering:auto;shape-rendering:auto;text-rendering:auto;enable-background:accumulate"
     d="M 9,3 9,4 9,6 8,6 8,7 5,7 5,6 3,6 3,7 1,7 1,19 21,19 21,7 19,7 19,6 19,4 19,3 10,3 Z m 1,1 8,0 0,2 -8,0 z m -8,4 9,0 9,0 0,1 -6.021484,0 C 13.14567,8.3796424 12.122918,8 11,8 9.8770816,8 8.8543302,8.3796424 8.0214844,9 L 2,9 Z m 9,1 c 0.258251,0 0.50953,0.0279 0.753906,0.074219 0.199854,0.039154 0.390546,0.099863 0.578125,0.1679687 0.03463,0.012218 0.07129,0.020069 0.105469,0.033203 0.216561,0.085564 0.426691,0.1883708 0.623047,0.3085938 0.19923,0.1220999 0.387346,0.261027 0.5625,0.4140625 L 13.625,10 c 0.836839,0.732117 1.375,1.795656 1.375,3 0,1.204344 -0.540115,2.269836 -1.376953,3.001953 -0.175154,0.153036 -0.36327,0.291963 -0.5625,0.414063 l -0.002,0 c -0.196356,0.120223 -0.404533,0.223029 -0.621094,0.308593 -0.03418,0.01313 -0.07084,0.02099 -0.105469,0.0332 -0.187579,0.06811 -0.378271,0.128815 -0.578125,0.167969 C 11.50953,16.9721 11.258251,17 11,17 10.741749,17 10.49047,16.9721 10.246094,16.925781 10.04624,16.886627 9.855548,16.825918 9.6679688,16.757812 9.6333384,16.745595 9.5966798,16.737743 9.5625,16.724609 9.3459394,16.639045 9.1377616,16.536239 8.9414062,16.416016 l -0.00195,0 C 8.7402232,16.293916 8.5501535,16.153035 8.375,16 7.5381614,15.267883 7,14.204344 7,13 7,11.795656 7.5401145,10.730164 8.3769531,9.9980469 8.5521066,9.8450114 8.7402232,9.7060843 8.9394531,9.5839844 l 0.00195,0 C 9.1377616,9.4637614 9.3459394,9.3609546 9.5625,9.2753906 9.5966798,9.2622568 9.6333384,9.2544052 9.6679688,9.2421875 9.855548,9.1740819 10.04624,9.1133727 10.246094,9.0742188 10.49047,9.0279003 10.741749,9 11,9 Z m -9,1 5.0175781,0 C 6.387118,10.836645 6,11.867057 6,13 c 0,1.132943 0.387118,2.163355 1.0175781,3 L 2,16 Z M 14.982422,10 20,10 l 0,6 -5.017578,0 C 15.612882,15.163355 16,14.132943 16,13 16,11.867057 15.612882,10.836645 14.982422,10 Z M 2,17 8.0214844,17 C 8.8543302,17.620358 9.8770816,18 11,18 c 1.122918,0 2.14567,-0.379642 2.978516,-1 L 20,17 l 0,1 -9,0 -9,0 z"
     id="rect4179"
     inkscape:connector-curvature="0"
     sodipodi:nodetypes="cccccccccccccccccccccccccccccscccsccccccsccccccsccccccsccccccsccscccccccscccscccccc" />
  <circle
     style="opacity:1;fill:#f92d36;fill-opacity:1;stroke:none;stroke-width:3.56737041px;stroke-linecap:butt;stroke-linejoin:miter;stroke-miterlimit:4;stroke-dasharray:none;stroke-dashoffset:0;stroke-opacity:1"
     id="path4149"
     cx="11"
     cy="13"
     r="3" />
</svg>
