<?xml version="1.0" encoding="UTF-8" standalone="no"?>
<!-- Created with Inkscape (http://www.inkscape.org/) -->

<svg
   xmlns:dc="http://purl.org/dc/elements/1.1/"
   xmlns:cc="http://creativecommons.org/ns#"
   xmlns:rdf="http://www.w3.org/1999/02/22-rdf-syntax-ns#"
   xmlns:svg="http://www.w3.org/2000/svg"
   xmlns="http://www.w3.org/2000/svg"
   xmlns:sodipodi="http://sodipodi.sourceforge.net/DTD/sodipodi-0.dtd"
   xmlns:inkscape="http://www.inkscape.org/namespaces/inkscape"
   width="22"
   height="22"
   id="svg2"
   version="1.1"
   inkscape:version="0.91+devel r"
   viewBox="0 0 22 22"
   sodipodi:docname="weather-few-clouds.svg">
  <defs
     id="defs4">
    <clipPath
       id="clipPath6">
      <rect
         id="rect8"
         style="fill:#ff0"
         height="208.571"
         y="1580.934"
         x="-830"
         width="477.143" />
    </clipPath>
    <clipPath
       id="clipPath10">
      <rect
         id="rect12"
         style="fill:#ff0"
         height="208.571"
         y="1580.934"
         x="-830"
         width="477.143" />
    </clipPath>
    <clipPath
       id="clipPath14">
      <rect
         id="rect16"
         style="fill:#ff0"
         height="208.571"
         y="1580.934"
         x="-830"
         width="477.143" />
    </clipPath>
    <clipPath
       id="clipPath18">
      <rect
         id="rect20"
         style="fill:#ff0"
         height="208.571"
         y="1580.934"
         x="-830"
         width="477.143" />
    </clipPath>
    <clipPath
       id="clipPath22">
      <rect
         id="rect24"
         style="fill:#ff0"
         height="208.571"
         y="1580.934"
         x="-830"
         width="477.143" />
    </clipPath>
    <clipPath
       id="clipPath26">
      <rect
         id="rect28"
         style="fill:#ff0"
         height="208.571"
         y="1580.934"
         x="-830"
         width="477.143" />
    </clipPath>
  </defs>
  <sodipodi:namedview
     id="base"
     pagecolor="#ffffff"
     bordercolor="#666666"
     borderopacity="1.0"
     inkscape:pageopacity="0.0"
     inkscape:pageshadow="2"
     inkscape:zoom="35.576748"
     inkscape:cx="9.5223986"
     inkscape:cy="10.04162"
     inkscape:document-units="px"
     inkscape:current-layer="layer1"
     showgrid="true"
     inkscape:showpageshadow="false"
     units="px"
     inkscape:window-width="2560"
     inkscape:window-height="957"
     inkscape:window-x="-4"
     inkscape:window-y="29"
     inkscape:window-maximized="1"
     showguides="true">
    <inkscape:grid
       type="xygrid"
       id="grid4120" />
    <sodipodi:guide
       position="2,20.000017"
       orientation="18,0"
       id="guide4126" />
    <sodipodi:guide
       position="2,2.0000174"
       orientation="0,18"
       id="guide4128" />
    <sodipodi:guide
       position="20,2.0000174"
       orientation="-18,0"
       id="guide4130" />
    <sodipodi:guide
       position="20,20.000017"
       orientation="0,-18"
       id="guide4132" />
    <sodipodi:guide
       position="3,19.000017"
       orientation="16,0"
       id="guide4134" />
    <sodipodi:guide
       position="3,3.0000174"
       orientation="0,16"
       id="guide4136" />
    <sodipodi:guide
       position="19,3.0000174"
       orientation="-16,0"
       id="guide4138" />
    <sodipodi:guide
       position="19,19.000017"
       orientation="0,-16"
       id="guide4140" />
    <sodipodi:guide
       position="19,13.000017"
       orientation="-6,0"
       id="guide4199" />
    <sodipodi:guide
       position="19,19.000017"
       orientation="0,-6.0000172"
       id="guide4201" />
  </sodipodi:namedview>
  <metadata
     id="metadata7">
    <rdf:RDF>
      <cc:Work
         rdf:about="">
        <dc:format>image/svg+xml</dc:format>
        <dc:type
           rdf:resource="http://purl.org/dc/dcmitype/StillImage" />
        <dc:title />
      </cc:Work>
    </rdf:RDF>
  </metadata>
  <g
     inkscape:label="Capa 1"
     inkscape:groupmode="layer"
     id="layer1"
     transform="translate(0,-1030.3622)">
    <path
       style="opacity:1;fill:#424854;fill-opacity:1;stroke:none;stroke-width:3.56737041px;stroke-linecap:butt;stroke-linejoin:miter;stroke-miterlimit:4;stroke-dasharray:none;stroke-dashoffset:0;stroke-opacity:1"
       d="M 10.5 3 L 10.5 5 L 11 5 L 11.5 5 L 11.5 3 L 11 3 L 10.5 3 z M 5.6972656 4.9902344 L 4.9902344 5.6972656 L 6.4042969 7.1113281 L 7.1113281 6.4042969 L 5.6972656 4.9902344 z M 16.302734 4.9902344 L 14.888672 6.4042969 L 15.595703 7.1113281 L 17.009766 5.6972656 L 16.302734 4.9902344 z M 11 6 C 10.831354 6 10.664355 6.0090825 10.5 6.0253906 C 10.332588 6.0420021 10.168001 6.0668961 10.005859 6.0996094 C 9.9919422 6.1024175 9.9787199 6.1064515 9.9648438 6.109375 A 5 5 0 0 0 9.0761719 6.3867188 C 9.0693755 6.3895578 9.0614686 6.3897099 9.0546875 6.3925781 A 5 5 0 0 0 9.0527344 6.3945312 C 9.0473333 6.3968191 9.0425007 6.4000374 9.0371094 6.4023438 A 5 5 0 0 0 8.2421875 6.8339844 C 8.2259084 6.8447857 8.2075511 6.8522953 8.1914062 6.8632812 A 5 5 0 0 0 7.4980469 7.4375 C 7.4831896 7.4521054 7.4677996 7.46568 7.453125 7.4804688 A 5 5 0 0 0 6.9042969 8.1445312 C 6.8810192 8.1778389 6.8545116 8.2082931 6.8320312 8.2421875 A 5 5 0 0 0 6.4355469 8.9765625 C 6.4162711 9.0199345 6.3950201 9.0614568 6.3769531 9.1054688 A 5 5 0 0 0 6.1230469 9.921875 C 6.1113851 9.9748091 6.0978601 10.026529 6.0878906 10.080078 A 5 5 0 0 0 6.0527344 10.308594 C 6.0408707 10.394179 6.0289583 10.479493 6.0214844 10.566406 A 5 5 0 0 0 6 11 A 5 5 0 0 0 6.0273438 11.511719 C 6.0278881 11.516945 6.028736 11.522119 6.0292969 11.527344 A 5 5 0 0 0 6.1074219 12.021484 A 5 5 0 0 0 6.2382812 12.517578 A 5 5 0 0 0 6.4199219 13 L 7.5410156 13 C 7.538814 12.996209 7.537345 12.992079 7.5351562 12.988281 C 7.4496483 12.839928 7.3740571 12.686365 7.3085938 12.529297 C 7.2414546 12.368208 7.1841477 12.203269 7.1386719 12.035156 C 7.0978669 11.88431 7.067837 11.731016 7.0449219 11.576172 A 4 4 0 0 1 7.0292969 11.449219 C 7.012117 11.300355 7.0003336 11.150727 7 11 C 7 10.727896 7.0283034 10.461926 7.0800781 10.205078 A 4 4 0 0 1 7.0820312 10.199219 C 7.0836602 10.191199 7.0862137 10.183783 7.0878906 10.175781 C 7.1395372 9.9293293 7.2138622 9.6923303 7.3085938 9.4648438 C 7.3117681 9.4572207 7.3131861 9.4490055 7.3164062 9.4414062 A 4 4 0 0 1 7.3242188 9.4257812 C 7.4189644 9.2049209 7.5347684 8.995113 7.6660156 8.796875 A 4 4 0 0 1 7.6933594 8.7519531 C 7.8277405 8.5546723 7.9798867 8.3710114 8.1464844 8.2011719 A 4 4 0 0 1 8.1855469 8.1621094 C 8.3507962 7.9982315 8.530975 7.8500168 8.7226562 7.7167969 A 4 4 0 0 1 8.7890625 7.6699219 C 8.9770846 7.5448503 9.1781409 7.4379808 9.3867188 7.3457031 A 4 4 0 0 1 9.4804688 7.3027344 C 9.6895199 7.2166995 9.9077392 7.1514374 10.132812 7.1015625 A 4 4 0 0 1 10.234375 7.078125 C 10.482416 7.0299963 10.73789 7 11 7 A 4 4 0 0 1 14.458984 9 A 4 4 0 0 1 14.464844 9.0117188 C 14.550352 9.1600724 14.625943 9.3136348 14.691406 9.4707031 C 14.758545 9.6317919 14.815852 9.7967305 14.861328 9.9648438 C 14.902133 10.11569 14.932163 10.268984 14.955078 10.423828 A 4 4 0 0 1 14.970703 10.550781 C 14.987883 10.699645 14.999666 10.849273 15 11 C 15 11.272104 14.971697 11.538074 14.919922 11.794922 C 14.919154 11.798733 14.918748 11.802833 14.917969 11.806641 A 4 4 0 0 1 14.912109 11.824219 C 14.860463 12.070671 14.786138 12.30767 14.691406 12.535156 C 14.688574 12.541958 14.688416 12.549858 14.685547 12.556641 A 4 4 0 0 1 14.675781 12.574219 C 14.581036 12.795079 14.465232 13.004887 14.333984 13.203125 A 4 4 0 0 1 14.306641 13.248047 C 14.17226 13.445328 14.020113 13.628989 13.853516 13.798828 A 4 4 0 0 1 13.814453 13.837891 C 13.649204 14.001769 13.469025 14.149983 13.277344 14.283203 A 4 4 0 0 1 13.210938 14.330078 C 13.022913 14.45515 12.821859 14.562019 12.613281 14.654297 A 4 4 0 0 1 12.519531 14.697266 C 12.353047 14.765782 12.176945 14.812534 12 14.857422 L 12 15.898438 C 12.011738 15.895775 12.023305 15.893121 12.035156 15.890625 A 5 5 0 0 0 12.923828 15.613281 A 5 5 0 0 0 12.945312 15.607422 L 12.947266 15.605469 A 5 5 0 0 0 12.962891 15.597656 A 5 5 0 0 0 13.757812 15.166016 C 13.774095 15.155214 13.792449 15.147705 13.808594 15.136719 A 5 5 0 0 0 14.501953 14.5625 C 14.51681 14.547895 14.5322 14.53432 14.546875 14.519531 A 5 5 0 0 0 15.095703 13.855469 C 15.118981 13.822161 15.145489 13.791708 15.167969 13.757812 A 5 5 0 0 0 15.564453 13.023438 C 15.583729 12.980066 15.60498 12.938543 15.623047 12.894531 A 5 5 0 0 0 15.876953 12.078125 C 15.888615 12.025191 15.90214 11.973471 15.912109 11.919922 A 5 5 0 0 0 15.947266 11.691406 C 15.959129 11.605821 15.971042 11.520507 15.978516 11.433594 A 5 5 0 0 0 16 11 A 5 5 0 0 0 15.972656 10.488281 A 5 5 0 0 0 15.972656 10.486328 C 15.972177 10.481748 15.971195 10.477235 15.970703 10.472656 A 5 5 0 0 0 15.892578 9.9785156 A 5 5 0 0 0 15.761719 9.4824219 A 5 5 0 0 0 15.580078 9 A 5 5 0 0 0 11 6 z M 11 8 C 9.3431458 8 8 9.3431458 8 11 L 9 11 C 9 9.8954305 9.8954305 9 11 9 L 11 8 z M 3 10.5 L 3 11.5 L 5 11.5 L 5 10.5 L 3 10.5 z M 17 10.5 L 17 11.5 L 19 11.5 L 19 10.5 L 17 10.5 z M 15.595703 14.888672 L 14.888672 15.595703 L 16.302734 17.009766 L 17.009766 16.302734 L 15.595703 14.888672 z "
       id="path4209"
       transform="translate(0,1030.3622)" />
    <path
       inkscape:connector-curvature="0"
       id="path4179"
       d="m 6.4999995,1044.3583 c -0.6366342,6e-4 -1.2035091,0.4031 -1.4140625,1.0039 -0.028614,0 -0.057267,0 -0.085937,0 -1.1045695,0 -2,0.8954 -2,2 0,1.1046 0.8954305,2 2,2 h 5 c 0.552285,0 1,-0.4477 1,-1 0,-0.5523 -0.447715,-1 -1,-1 H 9.91211 c 0.05749,-0.1605 0.08721,-0.3295 0.08789,-0.5 0,-0.8284 -0.6715729,-1.5 -1.5,-1.5 -0.1892484,0 -0.3767926,0.036 -0.5527344,0.1055 -0.1779372,-0.6566 -0.7707538,-1.1094 -1.4472661,-1.1094 z"
       style="opacity:1;fill:#424854;fill-opacity:1;stroke:none;stroke-width:3.56737041px;stroke-linecap:butt;stroke-linejoin:miter;stroke-miterlimit:4;stroke-dasharray:none;stroke-dashoffset:0;stroke-opacity:1" />
  </g>
</svg>
