<?xml version="1.0" encoding="UTF-8" standalone="no"?>
<svg
   xmlns:dc="http://purl.org/dc/elements/1.1/"
   xmlns:cc="http://creativecommons.org/ns#"
   xmlns:rdf="http://www.w3.org/1999/02/22-rdf-syntax-ns#"
   xmlns:svg="http://www.w3.org/2000/svg"
   xmlns="http://www.w3.org/2000/svg"
   xmlns:sodipodi="http://sodipodi.sourceforge.net/DTD/sodipodi-0.dtd"
   xmlns:inkscape="http://www.inkscape.org/namespaces/inkscape"
   width="22"
   viewBox="0 0 22 22"
   height="22"
   style="enable-background:new"
   id="svg2"
   version="1.1"
   inkscape:version="0.91+devel r"
   sodipodi:docname="weather-clear-night-symbolic.svg">
  <metadata
     id="metadata10">
    <rdf:RDF>
      <cc:Work
         rdf:about="">
        <dc:format>image/svg+xml</dc:format>
        <dc:type
           rdf:resource="http://purl.org/dc/dcmitype/StillImage" />
        <dc:title></dc:title>
      </cc:Work>
    </rdf:RDF>
  </metadata>
  <sodipodi:namedview
     pagecolor="#ffffff"
     bordercolor="#666666"
     borderopacity="1"
     objecttolerance="10"
     gridtolerance="10000"
     guidetolerance="10"
     inkscape:pageopacity="0"
     inkscape:pageshadow="2"
     inkscape:window-width="2560"
     inkscape:window-height="957"
     id="namedview8"
     showgrid="true"
     inkscape:showpageshadow="false"
     borderlayer="true"
     inkscape:zoom="29.5"
     inkscape:cx="10.710318"
     inkscape:cy="11.193536"
     inkscape:window-x="-4"
     inkscape:window-y="29"
     inkscape:window-maximized="1"
     inkscape:current-layer="svg2"
     fit-margin-top="0"
     fit-margin-left="0"
     fit-margin-right="0"
     fit-margin-bottom="0">
    <inkscape:grid
       type="xygrid"
       id="grid4139"
       originx="3"
       originy="3" />
    <sodipodi:guide
       position="0,22"
       orientation="22,0"
       id="guide4153" />
    <sodipodi:guide
       position="0,0"
       orientation="0,22"
       id="guide4155" />
    <sodipodi:guide
       position="22,0"
       orientation="-22,0"
       id="guide4157" />
    <sodipodi:guide
       position="22,22"
       orientation="0,-22"
       id="guide4159" />
    <sodipodi:guide
       position="3,19"
       orientation="16,0"
       id="guide4161" />
    <sodipodi:guide
       position="3,3"
       orientation="0,16"
       id="guide4163" />
    <sodipodi:guide
       position="19,3"
       orientation="-16,0"
       id="guide4165" />
    <sodipodi:guide
       position="19,19"
       orientation="0,-16"
       id="guide4167" />
  </sodipodi:namedview>
  <defs
     id="defs4" />
  <path
     style="opacity:1;fill:#424854;fill-opacity:1;stroke:none;stroke-width:3.56737041px;stroke-linecap:butt;stroke-linejoin:miter;stroke-miterlimit:4;stroke-dasharray:none;stroke-dashoffset:0;stroke-opacity:1"
     d="M 11 3 A 8 8 0 0 0 3 11 A 8 8 0 0 0 11 19 A 8 8 0 0 0 17.916016 14.998047 A 8 8 0 0 0 17.921875 14.998047 A 8 8 0 0 0 17.974609 14.896484 A 8 8 0 0 0 18.248047 14.363281 A 8 8 0 0 0 18.363281 14.107422 A 8 8 0 0 0 18.421875 13.978516 A 7 7 0 0 1 18 14 A 7 7 0 0 1 17.333984 13.960938 A 7 7 0 0 1 17.332031 13.966797 A 7 7 0 0 1 11 7 A 7 7 0 0 1 11.708984 3.9570312 A 7 7 0 0 1 11.978516 3.4492188 A 7 7 0 0 1 12.066406 3.3046875 A 7 7 0 0 1 12.197266 3.0976562 A 8 8 0 0 0 11 3 z M 10.595703 4.0136719 A 8 8 0 0 0 10 7 A 8 8 0 0 0 16.792969 14.900391 A 7 7 0 0 1 11 18 A 7 7 0 0 1 4 11 A 7 7 0 0 1 10.595703 4.0136719 z "
     id="path4179" />
</svg>
