<?xml version="1.0" encoding="UTF-8" standalone="no"?>
<svg
   xmlns:dc="http://purl.org/dc/elements/1.1/"
   xmlns:cc="http://creativecommons.org/ns#"
   xmlns:rdf="http://www.w3.org/1999/02/22-rdf-syntax-ns#"
   xmlns:svg="http://www.w3.org/2000/svg"
   xmlns="http://www.w3.org/2000/svg"
   xmlns:sodipodi="http://sodipodi.sourceforge.net/DTD/sodipodi-0.dtd"
   xmlns:inkscape="http://www.inkscape.org/namespaces/inkscape"
   width="22"
   viewBox="0 0 22 22"
   height="22"
   style="enable-background:new"
   id="svg2"
   version="1.1"
   inkscape:version="0.91+devel r"
   sodipodi:docname="weather-few-clouds.svg">
  <metadata
     id="metadata10">
    <rdf:RDF>
      <cc:Work
         rdf:about="">
        <dc:format>image/svg+xml</dc:format>
        <dc:type
           rdf:resource="http://purl.org/dc/dcmitype/StillImage" />
        <dc:title />
      </cc:Work>
    </rdf:RDF>
  </metadata>
  <sodipodi:namedview
     pagecolor="#ffffff"
     bordercolor="#666666"
     borderopacity="1"
     objecttolerance="10"
     gridtolerance="10000"
     guidetolerance="10"
     inkscape:pageopacity="0"
     inkscape:pageshadow="2"
     inkscape:window-width="2560"
     inkscape:window-height="957"
     id="namedview8"
     showgrid="true"
     inkscape:showpageshadow="false"
     borderlayer="true"
     inkscape:zoom="59"
     inkscape:cx="1.158259"
     inkscape:cy="5.992502"
     inkscape:window-x="-4"
     inkscape:window-y="29"
     inkscape:window-maximized="1"
     inkscape:current-layer="svg2"
     fit-margin-top="0"
     fit-margin-left="0"
     fit-margin-right="0"
     fit-margin-bottom="0">
    <inkscape:grid
       type="xygrid"
       id="grid4139"
       originx="3"
       originy="3" />
    <sodipodi:guide
       position="0,22"
       orientation="22,0"
       id="guide4153" />
    <sodipodi:guide
       position="0,0"
       orientation="0,22"
       id="guide4155" />
    <sodipodi:guide
       position="22,0"
       orientation="-22,0"
       id="guide4157" />
    <sodipodi:guide
       position="22,22"
       orientation="0,-22"
       id="guide4159" />
    <sodipodi:guide
       position="3,19"
       orientation="16,0"
       id="guide4161" />
    <sodipodi:guide
       position="3,3"
       orientation="0,16"
       id="guide4163" />
    <sodipodi:guide
       position="19,3"
       orientation="-16,0"
       id="guide4165" />
    <sodipodi:guide
       position="19,19"
       orientation="0,-16"
       id="guide4167" />
  </sodipodi:namedview>
  <defs
     id="defs4" />
  <path
     style="opacity:1;fill:#424854;fill-opacity:1;stroke:none;stroke-width:3.56737041px;stroke-linecap:butt;stroke-linejoin:miter;stroke-miterlimit:4;stroke-dasharray:none;stroke-dashoffset:0;stroke-opacity:1"
     d="M 11 3 C 6.581722 3 3 6.581722 3 11 C 3.00378 11.675205 3.093036 12.347214 3.265625 13 L 4.2988281 13 C 4.1029409 12.351311 4.0022814 11.677616 4 11 C 4.0010525 7.2918204 6.8937135 4.227844 10.595703 4.0136719 C 10.207764 4.9617926 10.005533 5.9755983 10 7 C 10.004 10.94914 12.889035 14.304551 16.792969 14.900391 C 15.685213 16.551267 13.936559 17.632456 12 17.917969 L 12 18.931641 C 14.459414 18.617838 16.658059 17.178319 17.916016 14.998047 L 17.921875 14.998047 C 17.939695 14.964317 17.957279 14.930467 17.974609 14.896484 C 18.072379 14.722227 18.163592 14.544368 18.248047 14.363281 C 18.287947 14.278671 18.326367 14.193375 18.363281 14.107422 C 18.383191 14.064632 18.402725 14.021652 18.421875 13.978516 C 18.281465 13.98992 18.140809 13.997084 18 14 C 17.7775 13.9976 17.555242 13.984538 17.333984 13.960938 L 17.332031 13.966797 C 13.74177 13.622581 11.000649 10.606766 11 7 C 11.004 5.9452156 11.24641 4.9049828 11.708984 3.9570312 C 11.791834 3.7841409 11.881756 3.6147272 11.978516 3.4492188 C 12.007226 3.4006898 12.036526 3.3525088 12.066406 3.3046875 C 12.108816 3.2349195 12.152446 3.1658983 12.197266 3.0976562 C 11.801189 3.0351453 11.400972 3.0025011 11 3 z M 6.5 14 C 5.8633658 14.000648 5.2964909 14.403098 5.0859375 15.003906 C 5.057323 15.001988 5.0286705 15.000686 5 15 C 3.8954305 15 3 15.895431 3 17 C 3 18.104569 3.8954305 19 5 19 L 10 19 C 10.552285 19 11 18.552285 11 18 C 11 17.447715 10.552285 17 10 17 L 9.9121094 17 C 9.969602 16.839538 9.9993244 16.67045 10 16.5 C 10 15.671573 9.3284271 15 8.5 15 C 8.3107516 14.999974 8.1232074 15.035759 7.9472656 15.105469 C 7.7693289 14.452777 7.1765123 13.999964 6.5 14 z "
     id="path4179" />
</svg>
