<?xml version="1.0" encoding="UTF-8" standalone="no"?>
<!-- Created with Inkscape (http://www.inkscape.org/) -->

<svg
   xmlns:dc="http://purl.org/dc/elements/1.1/"
   xmlns:cc="http://creativecommons.org/ns#"
   xmlns:rdf="http://www.w3.org/1999/02/22-rdf-syntax-ns#"
   xmlns:svg="http://www.w3.org/2000/svg"
   xmlns="http://www.w3.org/2000/svg"
   xmlns:xlink="http://www.w3.org/1999/xlink"
   xmlns:sodipodi="http://sodipodi.sourceforge.net/DTD/sodipodi-0.dtd"
   xmlns:inkscape="http://www.inkscape.org/namespaces/inkscape"
   width="48"
   height="48"
   id="svg2"
   version="1.1"
   inkscape:version="0.91+devel r"
   sodipodi:docname="vivaldi.svg"
   viewBox="0 0 48 48">
  <defs
     id="defs4">
    <linearGradient
       inkscape:collect="always"
       xlink:href="#linearGradient1408"
       id="linearGradient837"
       x1="97.580727"
       y1="-1050.7296"
       x2="97.580727"
       y2="-1002.8647"
       gradientUnits="userSpaceOnUse"
       gradientTransform="translate(-73.403954,-1.455814)" />
    <linearGradient
       inkscape:collect="always"
       id="linearGradient4078">
      <stop
         style="stop-color:#fdbebb;stop-opacity:1"
         offset="0"
         id="stop4080" />
      <stop
         style="stop-color:#fff6f5;stop-opacity:1"
         offset="1"
         id="stop4082" />
    </linearGradient>
    <linearGradient
       inkscape:collect="always"
       xlink:href="#linearGradient4078"
       id="linearGradient4223"
       x1="24.847551"
       y1="1042.1405"
       x2="24.847551"
       y2="1014.532"
       gradientUnits="userSpaceOnUse"
       gradientTransform="translate(1.850288e-7,3.105094e-5)" />
    <linearGradient
       id="linearGradient1408"
       inkscape:collect="always">
      <stop
         id="stop1410"
         offset="0"
         style="stop-color:#d51007;stop-opacity:1" />
      <stop
         id="stop1412"
         offset="1"
         style="stop-color:#f83025;stop-opacity:1" />
    </linearGradient>
  </defs>
  <sodipodi:namedview
     id="base"
     pagecolor="#ffffff"
     bordercolor="#666666"
     borderopacity="1.0"
     inkscape:pageopacity="0.0"
     inkscape:pageshadow="2"
     inkscape:zoom="8"
     inkscape:cx="48.339965"
     inkscape:cy="21.443336"
     inkscape:document-units="px"
     inkscape:current-layer="layer1"
     showgrid="false"
     inkscape:window-width="2560"
     inkscape:window-height="957"
     inkscape:window-x="-4"
     inkscape:window-y="29"
     inkscape:window-maximized="1" />
  <metadata
     id="metadata7">
    <rdf:RDF>
      <cc:Work
         rdf:about="">
        <dc:format>image/svg+xml</dc:format>
        <dc:type
           rdf:resource="http://purl.org/dc/dcmitype/StillImage" />
        <dc:title />
      </cc:Work>
    </rdf:RDF>
  </metadata>
  <g
     inkscape:label="Capa 1"
     inkscape:groupmode="layer"
     id="layer1"
     transform="translate(0,-1004.3622)">
    <rect
       style="fill:url(#linearGradient837);fill-opacity:1.0;stroke:none"
       id="rect2991-1"
       width="48"
       height="48"
       x="-4.4775391e-07"
       y="-1052.3622"
       ry="1.9445436"
       transform="scale(1,-1)" />
    <path
       inkscape:connector-curvature="0"
       style="fill:#000000;fill-opacity:1;stroke:none"
       d="m 1e-6,1049.3622 0,1.0625 c 0,1.0773 0.860223,1.9375 1.9375,1.9375 l 44.124995,0 c 1.07728,0 1.9375,-0.8602 1.9375,-1.9375 l 0,-1.0625 c 0,1.0773 -0.86022,1.9375 -1.9375,1.9375 l -44.124995,0 c -1.077277,0 -1.9375,-0.8602 -1.9375,-1.9375 z"
       id="rect846" />
    <path
       inkscape:connector-curvature="0"
       style="fill:#ffffff;fill-opacity:0.5372549;stroke:none"
       d="m 2.531251,1005.0185 c -0.917089,0 -1.671147,0.6395 -1.84375,1.5 0.335612,-0.2799 0.774512,-0.4375 1.25,-0.4375 l 44.124995,0 c 0.47549,0 0.91439,0.1576 1.25,0.4375 -0.1726,-0.8605 -0.92666,-1.5 -1.84375,-1.5 l -42.937495,0 z"
       id="path7515" />
    <path
       inkscape:connector-curvature="0"
       style="fill:#000000;fill-opacity:0.39215686;stroke:none"
       d="m 1.937501,1004.3622 c -1.077277,0 -1.9375,0.8602 -1.9375,1.9375 l 0,43.0625 c 0,0.7934 0.480023,1.449 1.15625,1.75 -0.309342,-0.3333 -0.5,-0.7824 -0.5,-1.2812 l 0,-42.9375 c 0,-1.0482 0.826899,-1.875 1.875,-1.875 l 42.937495,0 c 1.04811,0 1.875,0.8268 1.875,1.875 l 0,42.9375 c 0,0.4988 -0.19065,0.9479 -0.5,1.2812 0.67623,-0.301 1.15625,-0.9566 1.15625,-1.75 l 0,-43.0625 c 0,-1.0773 -0.86022,-1.9375 -1.9375,-1.9375 l -44.124995,0 z"
       id="rect4280-9" />
    <path
       sodipodi:nodetypes="ccsscsssccsssssssscsssscc"
       inkscape:connector-curvature="0"
       id="path4272"
       d="m 24.847561,1043.3397 c 0.913828,-0.1936 1.796598,-0.8069 2.356525,-1.6373 0.131705,-0.1953 0.970979,-1.6262 1.865059,-3.1798 0.894075,-1.5537 3.459528,-6.0027 5.701003,-9.8866 2.241469,-3.884 4.157278,-7.2339 4.257337,-7.4442 0.562734,-1.1829 0.482614,-2.6298 -0.204485,-3.6928 -0.688094,-1.0647 -1.797079,-1.7139 -3.045351,-1.7828 -1.787905,-0.099 -3.510418,1.1683 -3.913713,2.8792 -0.125172,0.5311 -0.125141,1.3816 4.7e-5,1.8648 0.05431,0.2095 0.214392,0.6437 0.355713,0.965 0.649972,1.477 0.763981,2.7909 0.374629,4.3175 -0.538638,2.112 -2.238174,3.7788 -4.456319,4.3706 -0.608071,0.1622 -1.941045,0.1966 -2.623951,0.068 -1.197028,-0.2261 -2.173547,-0.7088 -2.977037,-1.4718 -0.848551,-0.8058 -0.857469,-0.8195 -3.515626,-5.4338 -3.70413,-6.4299 -3.51509,-6.1233 -4.112214,-6.6691 -1.204438,-1.1007 -3.164972,-1.2113 -4.624033,-0.2607 -1.0203604,0.6649 -1.6069164,1.7078 -1.6766884,2.9816 -0.03853,0.7035 0.05177,1.1984 0.329538,1.8053 0.08275,0.1809 0.938957,1.6976 1.9027054,3.3704 4.885001,8.4796 6.413749,11.1297 8.042648,13.942 2.154137,3.7189 2.033907,3.5269 2.484433,3.9687 0.516716,0.5067 1.200411,0.8656 1.859032,0.9759 0.369174,0.062 1.217455,0.037 1.620738,-0.049 z"
       style="fill:#000000;fill-opacity:0.05882353;stroke-width:0.06419861" />
    <path
       style="fill:#000000;fill-opacity:0.11764706;stroke-width:0.06419861"
       d="m 24.847561,1042.9397 c 0.913828,-0.1936 1.796598,-0.8069 2.356525,-1.6373 0.131705,-0.1953 0.970979,-1.6262 1.865059,-3.1798 0.894075,-1.5537 3.459528,-6.0027 5.701003,-9.8866 2.241469,-3.884 4.157278,-7.2339 4.257337,-7.4442 0.562734,-1.1829 0.482614,-2.6298 -0.204485,-3.6928 -0.688094,-1.0647 -1.797079,-1.7139 -3.045351,-1.7828 -1.787905,-0.099 -3.510418,1.1683 -3.913713,2.8792 -0.125172,0.5311 -0.125141,1.3816 4.7e-5,1.8648 0.05431,0.2095 0.214392,0.6437 0.355713,0.965 0.649972,1.477 0.763981,2.7909 0.374629,4.3175 -0.538638,2.112 -2.238174,3.7788 -4.456319,4.3706 -0.608071,0.1622 -1.941045,0.1966 -2.623951,0.068 -1.197028,-0.2261 -2.173547,-0.7088 -2.977037,-1.4718 -0.848551,-0.8058 -0.857469,-0.8195 -3.515626,-5.4338 -3.70413,-6.4299 -3.51509,-6.1233 -4.112214,-6.6691 -1.204438,-1.1007 -3.164972,-1.2113 -4.624033,-0.2607 -1.0203604,0.6649 -1.6069164,1.7078 -1.6766884,2.9816 -0.03853,0.7035 0.05177,1.1984 0.329538,1.8053 0.08275,0.1809 0.938957,1.6976 1.9027054,3.3704 4.885001,8.4796 6.413749,11.1297 8.042648,13.942 2.154137,3.7189 2.033907,3.5269 2.484433,3.9687 0.516716,0.5067 1.200411,0.8656 1.859032,0.9759 0.369174,0.062 1.217455,0.037 1.620738,-0.049 z"
       id="path4270"
       inkscape:connector-curvature="0"
       sodipodi:nodetypes="ccsscsssccsssssssscsssscc" />
    <path
       sodipodi:nodetypes="ccsscsssccsssssssscsssscc"
       inkscape:connector-curvature="0"
       id="path4264"
       d="m 24.847561,1042.5397 c 0.913828,-0.1936 1.796598,-0.8069 2.356525,-1.6373 0.131705,-0.1953 0.970979,-1.6262 1.865059,-3.1798 0.894075,-1.5537 3.459528,-6.0027 5.701003,-9.8866 2.241469,-3.884 4.157278,-7.2339 4.257337,-7.4442 0.562734,-1.1829 0.482614,-2.6298 -0.204485,-3.6928 -0.688094,-1.0647 -1.797079,-1.7139 -3.045351,-1.7828 -1.787905,-0.099 -3.510418,1.1683 -3.913713,2.8792 -0.125172,0.5311 -0.125141,1.3816 4.7e-5,1.8648 0.05431,0.2095 0.214392,0.6437 0.355713,0.965 0.649972,1.477 0.763981,2.7909 0.374629,4.3175 -0.538638,2.112 -2.238174,3.7788 -4.456319,4.3706 -0.608071,0.1622 -1.941045,0.1966 -2.623951,0.068 -1.197028,-0.2261 -2.173547,-0.7088 -2.977037,-1.4718 -0.848551,-0.8058 -0.857469,-0.8195 -3.515626,-5.4338 -3.70413,-6.4299 -3.51509,-6.1233 -4.112214,-6.6691 -1.204438,-1.1007 -3.164972,-1.2113 -4.624033,-0.2607 -1.0203604,0.6649 -1.6069164,1.7078 -1.6766884,2.9816 -0.03853,0.7035 0.05177,1.1984 0.329538,1.8053 0.08275,0.1809 0.938957,1.6976 1.9027054,3.3704 4.885001,8.4796 6.413749,11.1297 8.042648,13.942 2.154137,3.7189 2.033907,3.5269 2.484433,3.9687 0.516716,0.5067 1.200411,0.8656 1.859032,0.9759 0.369174,0.062 1.217455,0.037 1.620738,-0.049 z"
       style="fill:#000000;fill-opacity:0.23529412;stroke-width:0.06419861" />
    <path
       style="fill:url(#linearGradient4223);fill-opacity:1;stroke-width:0.06419861"
       d="m 24.847561,1042.1394 c 0.913828,-0.1936 1.796598,-0.8069 2.356525,-1.6373 0.131705,-0.1953 0.970979,-1.6262 1.865059,-3.1798 0.894075,-1.5537 3.459528,-6.0027 5.701003,-9.8866 2.241469,-3.884 4.157278,-7.2339 4.257337,-7.4442 0.562734,-1.1829 0.482614,-2.6298 -0.204485,-3.6928 -0.688094,-1.0647 -1.797079,-1.7139 -3.045351,-1.7828 -1.787905,-0.099 -3.510418,1.1683 -3.913713,2.8792 -0.125172,0.5311 -0.125141,1.3816 4.7e-5,1.8648 0.05431,0.2095 0.214392,0.6437 0.355713,0.965 0.649972,1.477 0.763981,2.7909 0.374629,4.3175 -0.538638,2.112 -2.238174,3.7788 -4.456319,4.3706 -0.608071,0.1622 -1.941045,0.1966 -2.623951,0.068 -1.197028,-0.2261 -2.173547,-0.7088 -2.977037,-1.4718 -0.848551,-0.8058 -0.857469,-0.8195 -3.515626,-5.4338 -3.70413,-6.4299 -3.51509,-6.1233 -4.112214,-6.6691 -1.204438,-1.1007 -3.164972,-1.2113 -4.624033,-0.2607 -1.0203604,0.6649 -1.6069164,1.7078 -1.6766884,2.9816 -0.03853,0.7035 0.05177,1.1984 0.329538,1.8053 0.08275,0.1809 0.938957,1.6976 1.9027054,3.3704 4.885001,8.4796 6.413749,11.1297 8.042648,13.942 2.154137,3.7189 2.033907,3.5269 2.484433,3.9687 0.516716,0.5067 1.200411,0.8656 1.859032,0.9759 0.369174,0.062 1.217455,0.037 1.620738,-0.049 z"
       id="path4173"
       inkscape:connector-curvature="0"
       sodipodi:nodetypes="ccsscsssccsssssssscsssscc" />
    <path
       style="fill:#d61108;fill-opacity:0.3137255;stroke-width:0.06419861"
       d="M 39.378906 13.611328 C 39.338467 14.064487 39.225261 14.513654 39.027344 14.929688 C 38.927285 15.139988 37.011 18.489047 34.769531 22.373047 C 32.528056 26.256947 29.962434 30.706066 29.068359 32.259766 C 28.174279 33.813366 27.33483 35.244153 27.203125 35.439453 C 26.643198 36.269853 25.761484 36.884525 24.847656 37.078125 C 24.444373 37.164125 23.595737 37.188953 23.226562 37.126953 C 22.567942 37.016653 21.883903 36.659044 21.367188 36.152344 C 20.916662 35.710544 21.036949 35.902494 18.882812 32.183594 C 17.253914 29.371294 15.724845 26.719834 10.839844 18.240234 C 9.8760953 16.567434 9.02025 15.051994 8.9375 14.871094 C 8.7477631 14.456534 8.6526237 14.089958 8.6191406 13.677734 C 8.6169252 13.707476 8.6110182 13.735625 8.609375 13.765625 C 8.570845 14.469125 8.659732 14.963413 8.9375 15.570312 C 9.02025 15.751212 9.8760953 17.268606 10.839844 18.941406 C 15.724845 27.421006 17.253914 30.070512 18.882812 32.882812 C 21.036949 36.601713 20.916662 36.409763 21.367188 36.851562 C 21.883903 37.358262 22.567942 37.717825 23.226562 37.828125 C 23.595737 37.890125 24.444373 37.863344 24.847656 37.777344 C 25.761484 37.583744 26.643198 36.971025 27.203125 36.140625 C 27.33483 35.945325 28.174279 34.514538 29.068359 32.960938 C 29.962434 31.407238 32.528056 26.958119 34.769531 23.074219 C 37.011 19.190219 38.927285 15.839206 39.027344 15.628906 C 39.327383 14.998206 39.438933 14.293925 39.378906 13.611328 z M 31.785156 13.630859 C 31.755578 14.080571 31.778769 14.572239 31.863281 14.898438 C 31.917591 15.107938 32.077429 15.541981 32.21875 15.863281 C 32.540431 16.59427 32.729894 17.283823 32.792969 17.980469 C 32.82074 17.041417 32.647006 16.13528 32.21875 15.162109 C 32.077429 14.840809 31.917591 14.406766 31.863281 14.197266 C 31.822704 14.040645 31.799434 13.841273 31.785156 13.630859 z "
       transform="translate(0,1004.3622)"
       id="path4274" />
    <path
       style="fill:#ffffff;fill-opacity:0.23529412;stroke-width:0.06419861"
       d="M 12.693359 10.144531 C 11.870288 10.098119 11.014687 10.307903 10.285156 10.783203 C 9.2647959 11.448103 8.679147 12.491825 8.609375 13.765625 C 8.5982213 13.969274 8.6014209 14.15166 8.6132812 14.328125 C 8.6925212 13.071542 9.2749361 12.041105 10.285156 11.382812 C 11.744217 10.432212 13.703765 10.543831 14.908203 11.644531 C 15.505327 12.190331 15.317354 11.884553 19.021484 18.314453 C 21.679641 22.928753 21.688558 22.942247 22.537109 23.748047 C 23.340599 24.511047 24.316644 24.99265 25.513672 25.21875 C 26.196578 25.34735 27.530601 25.312591 28.138672 25.150391 C 30.356817 24.558591 32.055112 22.89325 32.59375 20.78125 C 32.790057 20.011554 32.856756 19.29566 32.792969 18.585938 C 32.785882 19.102143 32.735122 19.625388 32.59375 20.179688 C 32.055112 22.291688 30.356817 23.958981 28.138672 24.550781 C 27.530601 24.712981 26.196578 24.747741 25.513672 24.619141 C 24.316644 24.393041 23.340599 23.909484 22.537109 23.146484 C 21.688558 22.340684 21.679641 22.327191 19.021484 17.712891 C 15.317354 11.282991 15.505327 11.590722 14.908203 11.044922 C 14.305984 10.494572 13.51643 10.190944 12.693359 10.144531 z M 35.777344 10.154297 C 33.989439 10.055297 32.266576 11.322303 31.863281 13.033203 C 31.781896 13.378518 31.758743 13.852682 31.783203 14.279297 C 31.796398 14.045437 31.819615 13.818086 31.863281 13.632812 C 32.266576 11.921913 33.989439 10.654906 35.777344 10.753906 C 37.025616 10.822806 38.134172 11.472409 38.822266 12.537109 C 39.152072 13.047348 39.338621 13.646232 39.384766 14.261719 C 39.447726 13.442195 39.25902 12.611243 38.822266 11.935547 C 38.134172 10.870847 37.025616 10.223197 35.777344 10.154297 z "
       transform="translate(0,1004.3622)"
       id="path4279" />
  </g>
</svg>
