<?xml version="1.0" encoding="UTF-8" standalone="no"?>
<svg
   xmlns:dc="http://purl.org/dc/elements/1.1/"
   xmlns:cc="http://creativecommons.org/ns#"
   xmlns:rdf="http://www.w3.org/1999/02/22-rdf-syntax-ns#"
   xmlns:svg="http://www.w3.org/2000/svg"
   xmlns="http://www.w3.org/2000/svg"
   xmlns:sodipodi="http://sodipodi.sourceforge.net/DTD/sodipodi-0.dtd"
   xmlns:inkscape="http://www.inkscape.org/namespaces/inkscape"
   viewBox="0 0 16 16.0176"
   id="svg2"
   version="1.1"
   inkscape:version="0.91+devel r"
   sodipodi:docname="preferences-other-symbolic.svg">
  <metadata
     id="metadata14">
    <rdf:RDF>
      <cc:Work
         rdf:about="">
        <dc:format>image/svg+xml</dc:format>
        <dc:type
           rdf:resource="http://purl.org/dc/dcmitype/StillImage" />
        <dc:title />
      </cc:Work>
    </rdf:RDF>
  </metadata>
  <defs
     id="defs12" />
  <sodipodi:namedview
     pagecolor="#ffffff"
     bordercolor="#666666"
     borderopacity="1"
     objecttolerance="10"
     gridtolerance="10000"
     guidetolerance="10"
     inkscape:pageopacity="0"
     inkscape:pageshadow="2"
     inkscape:window-width="2560"
     inkscape:window-height="957"
     id="namedview10"
     showgrid="true"
     inkscape:showpageshadow="false"
     borderlayer="true"
     inkscape:zoom="44.44084"
     inkscape:cx="11.754534"
     inkscape:cy="6.9528818"
     inkscape:window-x="-4"
     inkscape:window-y="29"
     inkscape:window-maximized="1"
     inkscape:current-layer="svg2">
    <inkscape:grid
       type="xygrid"
       id="grid4143" />
    <sodipodi:guide
       position="0,1"
       orientation="15.999999,0"
       id="guide4149" />
    <sodipodi:guide
       position="8.0550813e-15,8.9416499e-07"
       orientation="0,16"
       id="guide4151" />
    <sodipodi:guide
       position="16,11"
       orientation="-15.999999,0"
       id="guide4153" />
    <sodipodi:guide
       position="2.0000001,2.0000001"
       orientation="0,-16"
       id="guide4155" />
    <sodipodi:guide
       position="2.0000001,1"
       orientation="11.999999,0"
       id="guide4157" />
    <sodipodi:guide
       position="5.0000001,16"
       orientation="0,12"
       id="guide4159" />
    <sodipodi:guide
       position="14,1"
       orientation="-11.999999,0"
       id="guide4161" />
    <sodipodi:guide
       position="7.0000002,14"
       orientation="0,-12"
       id="guide4163" />
  </sodipodi:namedview>
  <path
     style="opacity:1;fill:#bebebe;fill-opacity:1;stroke:none;stroke-width:3.56737041px;stroke-linecap:butt;stroke-linejoin:miter;stroke-miterlimit:4;stroke-dasharray:none;stroke-dashoffset:0;stroke-opacity:1"
     d="M 10.5 5.0175781 A 3.5 3.5 0 0 0 8.0546875 6.0175781 L 4.5 6.0175781 C 3.115 6.0175781 2 7.1325781 2 8.5175781 C 2 9.9025781 3.115 11.017578 4.5 11.017578 L 8.0507812 11.017578 A 3.5 3.5 0 0 0 10.5 12.017578 A 3.5 3.5 0 0 0 14 8.5175781 A 3.5 3.5 0 0 0 10.5 5.0175781 z M 10.5 6.0175781 A 2.5 2.5 0 0 1 12.109375 6.6054688 A 2.5 2.5 0 0 1 12.111328 6.6054688 A 2.5 2.5 0 0 1 12.603516 7.1679688 A 2.5 2.5 0 0 1 12.830078 7.6132812 A 2.5 2.5 0 0 1 12.908203 7.8496094 A 2.5 2.5 0 0 1 12.962891 8.0917969 A 2.5 2.5 0 0 1 12.962891 8.09375 A 2.5 2.5 0 0 1 12.998047 8.4511719 A 2.5 2.5 0 0 1 13 8.5175781 A 2.5 2.5 0 0 1 12.996094 8.6074219 A 2.5 2.5 0 0 1 12.933594 9.0761719 A 2.5 2.5 0 0 1 12.919922 9.1328125 A 2.5 2.5 0 0 1 12.859375 9.3378906 A 2.5 2.5 0 0 1 12.851562 9.359375 A 2.5 2.5 0 0 1 12.773438 9.5507812 A 2.5 2.5 0 0 1 12.748047 9.6015625 A 2.5 2.5 0 0 1 12.648438 9.7910156 A 2.5 2.5 0 0 1 12.636719 9.8085938 A 2.5 2.5 0 0 1 12.527344 9.9765625 A 2.5 2.5 0 0 1 12.482422 10.037109 A 2.5 2.5 0 0 1 12.353516 10.193359 A 2.5 2.5 0 0 1 12.330078 10.216797 A 2.5 2.5 0 0 1 11.775391 10.666016 A 2.5 2.5 0 0 1 11.753906 10.677734 A 2.5 2.5 0 0 1 11.572266 10.773438 A 2.5 2.5 0 0 1 11.517578 10.798828 A 2.5 2.5 0 0 1 11.345703 10.867188 A 2.5 2.5 0 0 1 11.269531 10.892578 A 2.5 2.5 0 0 1 11.121094 10.9375 A 2.5 2.5 0 0 1 11.011719 10.960938 A 2.5 2.5 0 0 1 10.878906 10.986328 A 2.5 2.5 0 0 1 10.773438 11 A 2.5 2.5 0 0 1 10.5 11.017578 A 2.5 2.5 0 0 1 10.25 11.005859 A 2.5 2.5 0 0 1 8.5019531 10.017578 A 2.5 2.5 0 0 1 8 8.5175781 A 2.5 2.5 0 0 1 8.5039062 7.0175781 A 2.5 2.5 0 0 1 9.6738281 6.1621094 A 2.5 2.5 0 0 1 9.7441406 6.1386719 A 2.5 2.5 0 0 1 9.8964844 6.0957031 A 2.5 2.5 0 0 1 10.001953 6.0703125 A 2.5 2.5 0 0 1 10.128906 6.046875 A 2.5 2.5 0 0 1 10.257812 6.03125 A 2.5 2.5 0 0 1 10.388672 6.0214844 A 2.5 2.5 0 0 1 10.5 6.0175781 z M 4.4550781 7.0175781 L 7.3417969 7.0175781 A 3.5 3.5 0 0 0 7 8.5175781 A 3.5 3.5 0 0 0 7.3417969 10.017578 L 4.4550781 10.017578 C 3.6490101 10.017578 3 9.368568 3 8.5625 L 3 8.4726562 C 3 7.6665885 3.6490101 7.0175781 4.4550781 7.0175781 z M 10.5 7.0175781 C 10.223 7.0175781 10 7.2405781 10 7.5175781 L 10 9.5175781 C 10 9.7945781 10.223 10.017578 10.5 10.017578 C 10.777 10.017578 11 9.7945781 11 9.5175781 L 11 7.5175781 C 11 7.2405781 10.777 7.0175781 10.5 7.0175781 z "
     id="rect4149" />
</svg>
