<?xml version="1.0" encoding="UTF-8" standalone="no"?>
<!-- Created with Inkscape (http://www.inkscape.org/) -->

<svg
   xmlns:dc="http://purl.org/dc/elements/1.1/"
   xmlns:cc="http://creativecommons.org/ns#"
   xmlns:rdf="http://www.w3.org/1999/02/22-rdf-syntax-ns#"
   xmlns:svg="http://www.w3.org/2000/svg"
   xmlns="http://www.w3.org/2000/svg"
   xmlns:sodipodi="http://sodipodi.sourceforge.net/DTD/sodipodi-0.dtd"
   xmlns:inkscape="http://www.inkscape.org/namespaces/inkscape"
   width="22"
   height="22"
   id="svg4359"
   version="1.1"
   inkscape:version="0.91+devel r"
   sodipodi:docname="system-help.svg">
  <defs
     id="defs4361" />
  <sodipodi:namedview
     id="base"
     pagecolor="#ffffff"
     bordercolor="#666666"
     borderopacity="1.0"
     inkscape:pageopacity="0.0"
     inkscape:pageshadow="2"
     inkscape:zoom="16.000001"
     inkscape:cx="11.933778"
     inkscape:cy="12.998262"
     inkscape:current-layer="layer1"
     showgrid="true"
     inkscape:grid-bbox="true"
     inkscape:document-units="px"
     inkscape:window-width="1366"
     inkscape:window-height="670"
     inkscape:window-x="-4"
     inkscape:window-y="29"
     inkscape:window-maximized="1"
     inkscape:showpageshadow="false"
     borderlayer="true"
     showguides="true">
    <inkscape:grid
       type="xygrid"
       id="grid4105" />
    <sodipodi:guide
       position="0,22"
       orientation="22,0"
       id="guide4111" />
    <sodipodi:guide
       position="0,0"
       orientation="0,22"
       id="guide4113" />
    <sodipodi:guide
       position="22,0"
       orientation="-22,0"
       id="guide4115" />
    <sodipodi:guide
       position="22,22"
       orientation="0,-22"
       id="guide4117" />
    <sodipodi:guide
       position="21,11"
       orientation="0,-20"
       id="guide4145" />
    <sodipodi:guide
       position="3,19"
       orientation="16,0"
       id="guide4130" />
    <sodipodi:guide
       position="3,3"
       orientation="0,16"
       id="guide4132" />
    <sodipodi:guide
       position="19,3"
       orientation="-16,0"
       id="guide4134" />
    <sodipodi:guide
       position="19,19"
       orientation="0,-16"
       id="guide4136" />
    <sodipodi:guide
       position="3,10.999989"
       orientation="8,0"
       id="guide4140" />
    <sodipodi:guide
       position="3,2.9999886"
       orientation="0,8"
       id="guide4142" />
    <sodipodi:guide
       position="11,2.9999886"
       orientation="-8,0"
       id="guide4144" />
    <sodipodi:guide
       position="3,22"
       orientation="19.000011,0"
       id="guide4152" />
    <sodipodi:guide
       position="3,2.9999886"
       orientation="0,4"
       id="guide4154" />
    <sodipodi:guide
       position="7,2.9999886"
       orientation="-19.000011,0"
       id="guide4156" />
    <sodipodi:guide
       position="7,22"
       orientation="0,-4"
       id="guide4158" />
    <sodipodi:guide
       position="15,22"
       orientation="19,0"
       id="guide4160" />
    <sodipodi:guide
       position="15,3"
       orientation="0,4.0000019"
       id="guide4162" />
    <sodipodi:guide
       position="19.000002,3"
       orientation="-19,0"
       id="guide4164" />
    <sodipodi:guide
       position="19.000002,22"
       orientation="0,-4.0000019"
       id="guide4166" />
    <sodipodi:guide
       position="5,3"
       orientation="0,14"
       id="guide4137" />
    <sodipodi:guide
       position="19,3"
       orientation="-14,0"
       id="guide4139" />
  </sodipodi:namedview>
  <metadata
     id="metadata4364">
    <rdf:RDF>
      <cc:Work
         rdf:about="">
        <dc:format>image/svg+xml</dc:format>
        <dc:type
           rdf:resource="http://purl.org/dc/dcmitype/StillImage" />
        <dc:title />
      </cc:Work>
    </rdf:RDF>
  </metadata>
  <g
     id="layer1"
     inkscape:label="Layer 1"
     inkscape:groupmode="layer"
     transform="translate(0,-26)">
    <path
       style="opacity:1;fill:#424854;fill-opacity:1;stroke:none;stroke-width:0.1;stroke-miterlimit:4;stroke-dasharray:none;stroke-opacity:1"
       d="M 11 3 C 9.2896483 3 7.711665 3.536026 6.4140625 4.4433594 L 6.3964844 4.4257812 C 6.1026809 4.1319772 5.7174129 3.984375 5.3339844 3.984375 C 4.9505559 3.984375 4.567241 4.1319772 4.2734375 4.4257812 C 3.6858314 5.0133873 3.6858314 5.959268 4.2734375 6.546875 L 4.3203125 6.59375 C 3.4879367 7.8563272 3 9.3682273 3 11 C 3 12.631773 3.4879367 14.143673 4.3203125 15.40625 L 4.2734375 15.453125 C 3.6858314 16.040732 3.6858314 16.986613 4.2734375 17.574219 C 4.8610445 18.161826 5.8088774 18.161826 6.3964844 17.574219 L 6.4140625 17.556641 C 7.711665 18.463974 9.2896483 19 11 19 C 12.710352 19 14.288335 18.463974 15.585938 17.556641 L 15.603516 17.574219 C 16.191123 18.161825 17.138956 18.161825 17.726562 17.574219 C 18.314169 16.986612 18.314169 16.040732 17.726562 15.453125 L 17.679688 15.40625 C 18.512063 14.143673 19 12.631773 19 11 C 19 9.3682273 18.512063 7.8563272 17.679688 6.59375 L 17.726562 6.546875 C 18.314169 5.959268 18.314169 5.0133883 17.726562 4.4257812 C 17.432758 4.1319782 17.047491 3.984375 16.664062 3.984375 C 16.280634 3.984375 15.897319 4.1319782 15.603516 4.4257812 L 15.585938 4.4433594 C 14.288335 3.536026 12.710352 3 11 3 z M 11 4 C 11.381597 4 11.752485 4.0394522 12.117188 4.0976562 L 11.015625 6 C 11.010356 5.9999838 11.005273 6 11 6 C 10.994727 6 10.989644 5.9999838 10.984375 6 L 9.8828125 4.0976562 C 10.247515 4.0394522 10.618403 4 11 4 z M 8.8652344 4.3320312 L 9.9023438 6.1289062 C 8.0198732 6.5489525 6.5489525 8.0198732 6.1289062 9.9023438 L 4.3320312 8.8652344 C 4.5065654 8.316324 4.7502574 7.8005301 5.046875 7.3203125 C 5.2253155 7.0314212 5.4193862 6.7548345 5.6367188 6.4960938 C 5.8515029 6.2403869 6.0889801 6.0036503 6.3378906 5.78125 C 6.5884442 5.5573816 6.8496272 5.3463772 7.1308594 5.1601562 C 7.6619748 4.8084725 8.2448562 4.5292896 8.8652344 4.3320312 z M 13.134766 4.3320312 C 13.756553 4.5297378 14.340958 4.809305 14.873047 5.1621094 C 15.151792 5.3469899 15.413524 5.5574013 15.662109 5.7792969 C 15.912758 6.0031656 16.15114 6.2423776 16.367188 6.5 C 16.583041 6.7575256 16.775669 7.0330149 16.953125 7.3203125 C 17.249743 7.8005301 17.493435 8.316324 17.667969 8.8652344 L 15.871094 9.9023438 C 15.451048 8.0198732 13.980127 6.5489525 12.097656 6.1289062 L 13.134766 4.3320312 z M 5.3339844 4.9863281 C 5.4337611 4.9863281 5.5311124 5.0244104 5.6171875 5.0839844 C 5.3779968 5.3016335 5.1506495 5.5322941 4.9394531 5.7773438 C 4.7953618 5.5814575 4.8030136 5.3102686 4.9804688 5.1328125 C 5.0784037 5.0348825 5.2061749 4.9863281 5.3339844 4.9863281 z M 16.664062 4.9863281 C 16.791871 4.9863281 16.919644 5.0348775 17.017578 5.1328125 C 17.194367 5.3096022 17.202894 5.5796468 17.060547 5.7753906 C 16.849622 5.530745 16.621647 5.3013091 16.382812 5.0839844 C 16.468364 5.0244115 16.564285 4.9863281 16.664062 4.9863281 z M 11 7 C 11.600948 7 12.165337 7.1395663 12.675781 7.375 C 12.196088 7.9651789 12.223405 8.8249652 12.773438 9.375 C 13.303955 9.905518 14.12727 9.9528253 14.714844 9.5253906 C 14.895326 9.981964 15 10.477738 15 11 C 15 11.522262 14.895326 12.018036 14.714844 12.474609 C 14.452328 12.283713 14.144863 12.183594 13.835938 12.183594 C 13.452508 12.183594 13.06724 12.331197 12.773438 12.625 C 12.223404 13.175035 12.196088 14.034821 12.675781 14.625 C 12.165337 14.860434 11.600948 15 11 15 C 10.399052 15 9.8346632 14.860434 9.3242188 14.625 C 9.8035146 14.034832 9.7744974 13.17489 9.2246094 12.625 C 8.9308059 12.331197 8.5474909 12.183594 8.1640625 12.183594 C 7.8551368 12.183594 7.5491318 12.283713 7.2871094 12.474609 C 7.3295976 12.582048 7.3820266 12.683156 7.4335938 12.785156 C 7.3823144 12.682555 7.3296029 12.582061 7.2871094 12.474609 C 7.1064934 12.017891 7 11.522465 7 11 C 7 10.477535 7.1064934 9.982109 7.2871094 9.5253906 C 7.3296029 9.4179386 7.3823144 9.3174451 7.4335938 9.2148438 C 7.3820266 9.3168444 7.3295976 9.417952 7.2871094 9.5253906 C 7.8743736 9.9528253 8.6940904 9.905518 9.2246094 9.375 C 9.7744974 8.8251101 9.8035147 7.9651675 9.3242188 7.375 C 9.8346632 7.1395663 10.399052 7 11 7 z M 9.3125 7.3808594 C 9.0080305 7.5227665 8.7313534 7.7076066 8.4746094 7.9179688 L 8.5175781 7.9609375 C 8.7134471 8.1568075 8.7134471 8.4720997 8.5175781 8.6679688 C 8.3217091 8.8638386 8.0064159 8.8638387 7.8105469 8.6679688 L 7.78125 8.6386719 C 7.9800107 8.367684 8.2150203 8.1306619 8.4746094 7.9179688 C 8.7313666 7.7075959 9.0078273 7.5226094 9.3125 7.3808594 z M 12.6875 7.3808594 C 12.985346 7.5194331 13.255636 7.7000178 13.507812 7.9042969 C 13.255911 7.6998367 12.985156 7.5195496 12.6875 7.3808594 z M 13.525391 7.9160156 C 13.78537 8.1288928 14.019743 8.367348 14.21875 8.6386719 L 14.189453 8.6679688 C 13.993584 8.8638378 13.676338 8.8638377 13.480469 8.6679688 C 13.2846 8.4720996 13.2846 8.1568065 13.480469 7.9609375 L 13.525391 7.9160156 z M 7.7792969 8.6425781 C 7.7037178 8.7458354 7.6362175 8.8550231 7.5703125 8.9648438 C 7.6360338 8.8539696 7.7034949 8.7461576 7.7792969 8.6425781 z M 14.220703 8.6425781 C 14.296505 8.7461576 14.363966 8.8539696 14.429688 8.9648438 C 14.36344 8.8550531 14.29633 8.7458911 14.220703 8.6425781 z M 14.570312 9.2246094 C 14.619233 9.3231398 14.672052 9.4184981 14.712891 9.5214844 C 14.672077 9.418607 14.619709 9.3224209 14.570312 9.2246094 z M 4.0957031 9.8847656 L 6 10.984375 C 5.9999838 10.989644 6 10.994727 6 11 C 6 11.005273 5.9999838 11.010356 6 11.015625 L 4.0957031 12.115234 C 4.0377278 11.751225 4 11.380831 4 11 C 4 10.619169 4.0377278 10.248775 4.0957031 9.8847656 z M 17.904297 9.8847656 C 17.962272 10.248775 18 10.619169 18 11 C 18 11.380831 17.962272 11.751225 17.904297 12.115234 L 16 11.015625 C 16.000016 11.010356 16 11.005273 16 11 C 16 10.994727 16.000016 10.989644 16 10.984375 L 17.904297 9.8847656 z M 6.1289062 12.097656 C 6.5489525 13.980127 8.0198732 15.451048 9.9023438 15.871094 L 8.8652344 17.667969 C 8.2448562 17.47071 7.6619748 17.191528 7.1308594 16.839844 C 6.8496272 16.653623 6.5884442 16.442618 6.3378906 16.21875 C 6.0889801 15.99635 5.8515029 15.759613 5.6367188 15.503906 C 5.4193862 15.245165 5.2253155 14.968578 5.046875 14.679688 C 4.7502574 14.19947 4.5065654 13.683676 4.3320312 13.134766 L 6.1289062 12.097656 z M 15.871094 12.097656 L 17.667969 13.134766 C 17.493435 13.683676 17.249743 14.19947 16.953125 14.679688 C 16.77443 14.968991 16.580977 15.246795 16.363281 15.505859 C 16.148474 15.761486 15.909075 16.000332 15.660156 16.222656 C 15.411571 16.444552 15.151792 16.65301 14.873047 16.837891 C 14.340958 17.190695 13.756553 17.470262 13.134766 17.667969 L 12.097656 15.871094 C 13.980127 15.451048 15.451048 13.980127 15.871094 12.097656 z M 14.712891 12.478516 C 14.672052 12.581502 14.619233 12.67686 14.570312 12.775391 C 14.619709 12.677579 14.672077 12.581393 14.712891 12.478516 z M 7.5703125 13.035156 C 7.6362175 13.144977 7.7037178 13.254165 7.7792969 13.357422 C 7.7034949 13.253842 7.6360338 13.14603 7.5703125 13.035156 z M 14.429688 13.035156 C 14.363966 13.14603 14.296505 13.253842 14.220703 13.357422 C 14.29633 13.254109 14.36344 13.144947 14.429688 13.035156 z M 8.1640625 13.185547 C 8.2918719 13.185547 8.4196436 13.234097 8.5175781 13.332031 C 8.7134471 13.5279 8.7134471 13.843193 8.5175781 14.039062 L 8.4746094 14.082031 C 8.7313534 14.292394 9.0080305 14.477233 9.3125 14.619141 C 9.0078273 14.477391 8.7313666 14.292404 8.4746094 14.082031 C 8.2150203 13.869338 7.9800107 13.632316 7.78125 13.361328 L 7.8105469 13.332031 C 7.9084819 13.234101 8.036253 13.185547 8.1640625 13.185547 z M 13.835938 13.185547 C 13.963745 13.185547 14.091519 13.234097 14.189453 13.332031 L 14.21875 13.361328 C 14.019743 13.632652 13.78537 13.871107 13.525391 14.083984 L 13.480469 14.039062 C 13.2846 13.843193 13.2846 13.5279 13.480469 13.332031 C 13.578399 13.234101 13.708127 13.185547 13.835938 13.185547 z M 13.507812 14.095703 C 13.255636 14.299982 12.985346 14.480567 12.6875 14.619141 C 12.985156 14.48045 13.255911 14.300164 13.507812 14.095703 z M 10.984375 16 C 10.989644 16.000016 10.994727 16 11 16 C 11.005273 16 11.010356 16.000016 11.015625 16 L 12.117188 17.902344 C 11.752485 17.960548 11.381597 18 11 18 C 10.618403 18 10.247515 17.960548 9.8828125 17.902344 L 10.984375 16 z M 4.9394531 16.222656 C 5.1506495 16.467706 5.3779968 16.698366 5.6171875 16.916016 C 5.4216956 17.052155 5.1548576 17.041576 4.9804688 16.867188 C 4.8030136 16.689731 4.7953618 16.418542 4.9394531 16.222656 z M 17.060547 16.224609 C 17.202894 16.420353 17.194367 16.690397 17.017578 16.867188 C 16.843189 17.041576 16.577965 17.052155 16.382812 16.916016 C 16.621647 16.698691 16.849622 16.469255 17.060547 16.224609 z "
       transform="translate(0,26)"
       id="rect4159" />
  </g>
</svg>
