<?xml version="1.0" encoding="UTF-8" standalone="no"?>
<svg
   xmlns:dc="http://purl.org/dc/elements/1.1/"
   xmlns:cc="http://creativecommons.org/ns#"
   xmlns:rdf="http://www.w3.org/1999/02/22-rdf-syntax-ns#"
   xmlns:svg="http://www.w3.org/2000/svg"
   xmlns="http://www.w3.org/2000/svg"
   xmlns:sodipodi="http://sodipodi.sourceforge.net/DTD/sodipodi-0.dtd"
   xmlns:inkscape="http://www.inkscape.org/namespaces/inkscape"
   width="16"
   viewBox="0 0 16.000001 16"
   height="16"
   style="enable-background:new"
   id="svg2"
   version="1.1"
   inkscape:version="0.91+devel r"
   sodipodi:docname="weather-fog-symbolic.svg">
  <metadata
     id="metadata10">
    <rdf:RDF>
      <cc:Work
         rdf:about="">
        <dc:format>image/svg+xml</dc:format>
        <dc:type
           rdf:resource="http://purl.org/dc/dcmitype/StillImage" />
        <dc:title />
      </cc:Work>
    </rdf:RDF>
  </metadata>
  <sodipodi:namedview
     pagecolor="#ffffff"
     bordercolor="#666666"
     borderopacity="1"
     objecttolerance="10"
     gridtolerance="10"
     guidetolerance="10"
     inkscape:pageopacity="0"
     inkscape:pageshadow="2"
     inkscape:window-width="2560"
     inkscape:window-height="957"
     id="namedview8"
     showgrid="true"
     inkscape:showpageshadow="false"
     borderlayer="true"
     showguides="true"
     inkscape:zoom="45.254834"
     inkscape:cx="-1.0107885"
     inkscape:cy="7.913733"
     inkscape:window-x="-4"
     inkscape:window-y="29"
     inkscape:window-maximized="1"
     inkscape:current-layer="svg2">
    <inkscape:grid
       type="xygrid"
       id="grid4139" />
    <sodipodi:guide
       position="0,16"
       orientation="16.000001,0"
       id="guide4145" />
    <sodipodi:guide
       position="0,-1.4073485e-06"
       orientation="0,16.000001"
       id="guide4147" />
    <sodipodi:guide
       position="16.000001,-1.4073485e-06"
       orientation="-16.000001,0"
       id="guide4149" />
    <sodipodi:guide
       position="16.000001,16"
       orientation="0,-16.000001"
       id="guide4151" />
    <sodipodi:guide
       position="2.0000001,14"
       orientation="12.000002,0"
       id="guide4153" />
    <sodipodi:guide
       position="2.0000001,1.9999985"
       orientation="0,12.000001"
       id="guide4155" />
    <sodipodi:guide
       position="14.000001,1.9999985"
       orientation="-12.000002,0"
       id="guide4157" />
    <sodipodi:guide
       position="14.000001,14"
       orientation="0,-12.000001"
       id="guide4159" />
  </sodipodi:namedview>
  <defs
     id="defs4" />
  <path
     style="color:#000000;text-decoration:none;text-decoration-line:none;text-decoration-style:solid;text-decoration-color:#000000;clip-rule:nonzero;display:inline;overflow:visible;visibility:visible;opacity:1;isolation:auto;mix-blend-mode:normal;color-interpolation:sRGB;color-interpolation-filters:linearRGB;solid-color:#000000;solid-opacity:1;fill:#bebebe;fill-opacity:1;fill-rule:nonzero;stroke:none;stroke-width:1;stroke-linecap:butt;stroke-linejoin:miter;stroke-miterlimit:4;stroke-dasharray:none;stroke-dashoffset:0;stroke-opacity:1;color-rendering:auto;image-rendering:auto;shape-rendering:auto;text-rendering:auto;enable-background:accumulate"
     d="M 6.9882812 3 C 5.5593321 3 4.3768893 3.9951369 4.0742188 5.3320312 C 2.9619832 5.8329946 2.1730936 6.8927184 2.0507812 8.1640625 C 1.9065416 8.2120109 1.7759708 8.2853491 1.6425781 8.3535156 L 3.0390625 8.3535156 C 3.0881185 7.5238229 3.5233277 6.8030696 4.1835938 6.3867188 C 4.2106958 6.3697587 4.2398201 6.3558077 4.2675781 6.3398438 C 4.3691174 6.2811698 4.4720091 6.2238216 4.5820312 6.1796875 C 4.6021292 6.1716275 4.6241753 6.1677083 4.6445312 6.1601562 C 4.7592124 6.1176113 4.8760043 6.0802152 4.9980469 6.0546875 C 4.9979932 6.0527175 4.998197 6.0507781 4.9980469 6.0488281 C 4.9976427 6.032172 4.9921875 6.0167582 4.9921875 6 C 4.9921875 5.8292355 5.0170668 5.6664773 5.0585938 5.5097656 C 5.0634638 5.4903836 5.0707469 5.472275 5.0761719 5.453125 C 5.1206517 5.3036558 5.17901 5.1591553 5.2539062 5.0253906 C 5.5952502 4.415751 6.238062 4 6.9882812 4 C 7.5773288 4 8.1032593 4.2539844 8.4667969 4.6582031 L 8.4648438 4.6601562 C 8.5711828 4.7776758 8.6603322 4.9101029 8.7363281 5.0507812 C 8.8206301 5.2075312 8.8910501 5.374118 8.9316406 5.5527344 C 9.1943933 5.3426443 9.4974104 5.1859801 9.8320312 5.0957031 C 9.8315919 5.0943131 9.8305181 5.0931969 9.8300781 5.0917969 C 10.038587 5.0354464 10.255713 5 10.482422 5 C 11.865228 5 12.978516 6.1150008 12.978516 7.5 C 12.978516 7.6751428 12.956725 7.8437979 12.921875 8.0078125 C 12.224159 8.0281145 11.592563 8.2884216 11.09375 8.7050781 L 11.730469 9.46875 C 11.973811 9.2656433 12.265865 9.1214842 12.585938 9.0507812 C 12.610247 9.0456412 12.633313 9.0372321 12.658203 9.0332031 C 12.770494 9.0129364 12.88528 9 13.003906 9 C 13.743802 9 14.381552 9.4042011 14.726562 10 C 14.897393 10.295001 15.001953 10.63307 15.001953 11 C 15.001953 12.108 14.110151 13 13.003906 13 L 12.978516 13 L 12.480469 13 L 9.984375 13 L 9 13 L 9 14 L 9.984375 14 L 12.978516 14 L 12.978516 13.998047 C 12.987216 13.998165 12.995226 14 13.003906 14 C 14.663272 14 16 12.662 16 11 C 16 10.647651 15.937274 10.312159 15.826172 10 C 15.512982 9.1200413 14.800441 8.4348328 13.904297 8.1523438 C 13.948297 7.9438496 13.978516 7.7297028 13.978516 7.5 C 13.978516 5.5610009 12.41835 4 10.482422 4 C 10.087573 4 9.7138856 4.0720625 9.3632812 4.1953125 C 8.8209659 3.4714446 7.9663667 3 6.9882812 3 z M 1.4882812 9 C 1.2174021 9 1 9.2174021 1 9.4882812 L 1 9.5117188 C 1 9.7825979 1.2174021 10 1.4882812 10 L 7.5117188 10 C 7.7825979 10 8 9.7825979 8 9.5117188 L 8 9.4882812 C 8 9.2174021 7.7825979 9 7.5117188 9 L 1.4882812 9 z M 0.5 11 C 0.223 11 0 11.223 0 11.5 C 0 11.777 0.223 12 0.5 12 L 8.5 12 C 8.777 12 9 11.777 9 11.5 C 9 11.223 8.777 11 8.5 11 L 8 11 L 0.5 11 z M 1.5996094 13 C 1.3226094 13 1.0996094 13.223 1.0996094 13.5 C 1.0996094 13.777 1.3226094 14 1.5996094 14 L 7.5 14 C 7.777 14 8 13.777 8 13.5 C 8 13.223 7.777 13 7.5 13 L 1.5996094 13 z "
     id="rect4199-1" />
</svg>
