<?xml version="1.0" encoding="UTF-8" standalone="no"?>
<!-- Created with Inkscape (http://www.inkscape.org/) -->

<svg
   xmlns:dc="http://purl.org/dc/elements/1.1/"
   xmlns:cc="http://creativecommons.org/ns#"
   xmlns:rdf="http://www.w3.org/1999/02/22-rdf-syntax-ns#"
   xmlns:svg="http://www.w3.org/2000/svg"
   xmlns="http://www.w3.org/2000/svg"
   xmlns:sodipodi="http://sodipodi.sourceforge.net/DTD/sodipodi-0.dtd"
   xmlns:inkscape="http://www.inkscape.org/namespaces/inkscape"
   width="22"
   height="22"
   id="svg4359"
   version="1.1"
   inkscape:version="0.91+devel r"
   sodipodi:docname="fluxgui.svg"
   viewBox="0 0 22 22">
  <defs
     id="defs4361" />
  <sodipodi:namedview
     id="base"
     pagecolor="#ffffff"
     bordercolor="#666666"
     borderopacity="1.0"
     inkscape:pageopacity="0.0"
     inkscape:pageshadow="2"
     inkscape:zoom="32"
     inkscape:cx="16.966155"
     inkscape:cy="11.381452"
     inkscape:current-layer="layer1"
     showgrid="true"
     inkscape:grid-bbox="true"
     inkscape:document-units="px"
     inkscape:window-width="2560"
     inkscape:window-height="957"
     inkscape:window-x="-4"
     inkscape:window-y="29"
     inkscape:window-maximized="1"
     inkscape:showpageshadow="false"
     borderlayer="true"
     showguides="true">
    <inkscape:grid
       type="xygrid"
       id="grid4105" />
    <sodipodi:guide
       position="0,22"
       orientation="22,0"
       id="guide4111" />
    <sodipodi:guide
       position="0,0"
       orientation="0,22"
       id="guide4113" />
    <sodipodi:guide
       position="22,0"
       orientation="-22,0"
       id="guide4115" />
    <sodipodi:guide
       position="22,22"
       orientation="0,-22"
       id="guide4117" />
    <sodipodi:guide
       position="21,11"
       orientation="0,-20"
       id="guide4145" />
    <sodipodi:guide
       position="3,19"
       orientation="16,0"
       id="guide4130" />
    <sodipodi:guide
       position="3,3"
       orientation="0,16"
       id="guide4132" />
    <sodipodi:guide
       position="19,3"
       orientation="-16,0"
       id="guide4134" />
    <sodipodi:guide
       position="19,19"
       orientation="0,-16"
       id="guide4136" />
    <sodipodi:guide
       position="3,10.999989"
       orientation="8,0"
       id="guide4140" />
    <sodipodi:guide
       position="3,2.9999886"
       orientation="0,8"
       id="guide4142" />
    <sodipodi:guide
       position="11,2.9999886"
       orientation="-8,0"
       id="guide4144" />
    <sodipodi:guide
       position="3,22"
       orientation="19.000011,0"
       id="guide4152" />
    <sodipodi:guide
       position="3,2.9999886"
       orientation="0,4"
       id="guide4154" />
    <sodipodi:guide
       position="7,2.9999886"
       orientation="-19.000011,0"
       id="guide4156" />
    <sodipodi:guide
       position="7,22"
       orientation="0,-4"
       id="guide4158" />
    <sodipodi:guide
       position="15,22"
       orientation="19,0"
       id="guide4160" />
    <sodipodi:guide
       position="15,3"
       orientation="0,4.0000019"
       id="guide4162" />
    <sodipodi:guide
       position="19.000002,3"
       orientation="-19,0"
       id="guide4164" />
    <sodipodi:guide
       position="19.000002,22"
       orientation="0,-4.0000019"
       id="guide4166" />
    <sodipodi:guide
       position="5,3"
       orientation="0,14"
       id="guide4137" />
    <sodipodi:guide
       position="19,3"
       orientation="-14,0"
       id="guide4139" />
  </sodipodi:namedview>
  <metadata
     id="metadata4364">
    <rdf:RDF>
      <cc:Work
         rdf:about="">
        <dc:format>image/svg+xml</dc:format>
        <dc:type
           rdf:resource="http://purl.org/dc/dcmitype/StillImage" />
        <dc:title />
      </cc:Work>
    </rdf:RDF>
  </metadata>
  <g
     id="layer1"
     inkscape:label="Layer 1"
     inkscape:groupmode="layer"
     transform="translate(0,-26)">
    <path
       style="opacity:1;fill:#424854;fill-opacity:1;stroke:none;stroke-width:3.56737041px;stroke-linecap:butt;stroke-linejoin:miter;stroke-miterlimit:4;stroke-dasharray:none;stroke-dashoffset:0;stroke-opacity:1"
       d="M 11 3 A 8.000001 8 0 0 0 3 11 A 8.000001 8 0 0 0 11 19 A 8.000001 8 0 0 0 19 11 A 8.000001 8 0 0 0 11 3 z M 11 4 A 7.000001 7 0 0 1 14.939453 5.2148438 A 7.000001 7 0 0 1 15.056641 5.3007812 C 15.062606 5.3051983 15.068183 5.3101202 15.074219 5.3144531 A 7.000001 7 0 0 1 15.490234 5.6328125 A 7.000001 7 0 0 1 15.650391 5.7773438 C 15.657536 5.7838734 15.664675 5.7904055 15.671875 5.796875 A 7.000001 7 0 0 1 15.986328 6.0898438 A 7.000001 7 0 0 1 16.173828 6.296875 A 7.000001 7 0 0 1 16.453125 6.6152344 A 7.000001 7 0 0 1 16.574219 6.7773438 C 16.576718 6.7806804 16.579517 6.7837839 16.582031 6.7871094 A 7.000001 7 0 0 1 16.853516 7.1679688 A 7.000001 7 0 0 1 16.996094 7.4003906 C 16.99638 7.4008674 16.995807 7.4018671 16.996094 7.4023438 A 7.000001 7 0 0 1 17.195312 7.7519531 A 7.000001 7 0 0 1 17.318359 8.0058594 C 17.319356 8.0079651 17.321268 8.0096131 17.322266 8.0117188 A 7.000001 7 0 0 1 17.496094 8.4003906 A 7.000001 7 0 0 1 17.572266 8.6113281 A 7.000001 7 0 0 1 17.724609 9.0683594 A 7.000001 7 0 0 1 17.777344 9.2734375 C 17.779278 9.281261 17.781247 9.2890645 17.783203 9.296875 A 7.000001 7 0 0 1 17.875 9.7089844 A 7.000001 7 0 0 1 17.927734 10.056641 A 7.000001 7 0 0 1 17.96875 10.394531 A 7.000001 7 0 0 1 18 11 A 7.000001 7 0 0 1 17.96875 11.619141 A 7.000001 7 0 0 1 17.910156 12.0625 A 7.000001 7 0 0 1 17.896484 12.152344 A 7.000001 7 0 0 1 17.521484 13.521484 A 7 7 0 0 0 17.623047 13.216797 C 14.69092 10.352044 11.553647 8.2164106 8.65625 8.25 C 6.988946 8.2693273 5.4074917 9.0280853 4.0136719 10.734375 A 7.000001 7 0 0 1 4.03125 10.382812 A 7.000001 7 0 0 1 4.0410156 10.265625 C 4.0412687 10.263048 4.0407431 10.260386 4.0410156 10.257812 A 7.000001 7 0 0 1 4.1269531 9.6894531 A 7.000001 7 0 0 1 4.1464844 9.578125 C 4.1471243 9.5748785 4.1477633 9.5715938 4.1484375 9.5683594 A 7.000001 7 0 0 1 4.3007812 8.9785156 A 7.000001 7 0 0 1 4.3203125 8.9121094 A 7.000001 7 0 0 1 7.7949219 4.7773438 A 7 7 0 0 1 7.8046875 4.7734375 A 7.000001 7 0 0 1 7.9570312 4.703125 A 7.000001 7 0 0 1 8.4277344 4.4921875 A 7.000001 7 0 0 1 8.5527344 4.4472656 C 8.5612759 4.4442083 8.5696202 4.4406399 8.578125 4.4375 A 7.000001 7 0 0 1 9.0839844 4.2695312 A 7 7 0 0 1 9.0898438 4.2675781 A 7.000001 7 0 0 1 9.2773438 4.2226562 A 7.000001 7 0 0 1 9.7246094 4.1210938 A 7.000001 7 0 0 1 10.042969 4.0742188 A 7.000001 7 0 0 1 11 4 z M 17.623047 13.216797 C 17.623047 13.216797 17.625 13.21875 17.625 13.21875 C 17.629644 13.204833 17.632149 13.18974 17.636719 13.175781 A 7 7 0 0 1 17.623047 13.216797 z M 17.636719 13.175781 A 7 7 0 0 0 17.896484 12.152344 C 17.834501 12.503308 17.74506 12.844796 17.636719 13.175781 z M 4 11 A 7 7 0 0 0 4.0292969 11.599609 A 7.000001 7 0 0 1 4 11 z M 4.0722656 11.945312 A 7 7 0 0 0 4.1230469 12.28125 A 7.000001 7 0 0 1 4.0722656 11.945312 z M 4.2070312 12.660156 A 7 7 0 0 0 4.2851562 12.958984 A 7.000001 7 0 0 1 4.2070312 12.660156 z M 4.4042969 13.322266 A 7 7 0 0 0 4.515625 13.623047 A 7.000001 7 0 0 1 4.4042969 13.322266 z M 17.517578 13.533203 A 7.000001 7 0 0 1 17.246094 14.142578 A 7 7 0 0 0 17.517578 13.533203 z M 4.6601562 13.947266 A 7 7 0 0 0 4.8164062 14.271484 A 7.000001 7 0 0 1 4.6601562 13.947266 z M 17.228516 14.179688 A 7.000001 7 0 0 1 16.898438 14.755859 A 7 7 0 0 0 17.228516 14.179688 z M 4.9804688 14.558594 A 7 7 0 0 0 5.1660156 14.859375 A 7.000001 7 0 0 1 4.9804688 14.558594 z M 16.880859 14.783203 A 7.000001 7 0 0 1 16.509766 15.304688 A 7 7 0 0 0 16.880859 14.783203 z M 5.3847656 15.166016 A 7 7 0 0 0 5.5820312 15.423828 A 7.000001 7 0 0 1 5.3847656 15.166016 z M 16.464844 15.363281 A 7.000001 7 0 0 1 16.060547 15.824219 A 7 7 0 0 0 16.464844 15.363281 z M 5.8164062 15.693359 A 7 7 0 0 0 6.0527344 15.947266 A 7.000001 7 0 0 1 5.8164062 15.693359 z M 16 15.888672 A 7.000001 7 0 0 1 15.582031 16.28125 A 7 7 0 0 0 16 15.888672 z M 6.3066406 16.183594 A 7 7 0 0 0 6.5761719 16.417969 A 7.000001 7 0 0 1 6.3066406 16.183594 z M 15.470703 16.376953 A 7.000001 7 0 0 1 15.048828 16.699219 A 7 7 0 0 0 15.470703 16.376953 z M 6.8339844 16.615234 A 7 7 0 0 0 7.140625 16.833984 A 7.000001 7 0 0 1 6.8339844 16.615234 z M 14.908203 16.800781 A 7.000001 7 0 0 1 14.447266 17.082031 A 7 7 0 0 0 14.908203 16.800781 z M 7.4414062 17.019531 A 7 7 0 0 0 7.7285156 17.183594 A 7.000001 7 0 0 1 7.4414062 17.019531 z M 14.316406 17.158203 A 7.000001 7 0 0 1 13.824219 17.394531 A 7 7 0 0 0 14.316406 17.158203 z M 8.0527344 17.339844 A 7 7 0 0 0 8.3769531 17.484375 A 7.000001 7 0 0 1 8.0527344 17.339844 z M 13.677734 17.460938 A 7.000001 7 0 0 1 13.240234 17.621094 A 7 7 0 0 0 13.677734 17.460938 z M 8.6777344 17.595703 A 7 7 0 0 0 9.0410156 17.714844 A 7.000001 7 0 0 1 8.6777344 17.595703 z M 12.984375 17.707031 A 7.000001 7 0 0 1 12.597656 17.806641 A 7 7 0 0 0 12.984375 17.707031 z M 9.3398438 17.792969 A 7 7 0 0 0 9.71875 17.876953 A 7.000001 7 0 0 1 9.3398438 17.792969 z M 12.304688 17.873047 A 7.000001 7 0 0 1 11.923828 17.931641 A 7 7 0 0 0 12.304688 17.873047 z M 10.054688 17.927734 A 7 7 0 0 0 10.400391 17.970703 A 7.000001 7 0 0 1 10.054688 17.927734 z M 11.599609 17.970703 A 7.000001 7 0 0 1 11 18 A 7 7 0 0 0 11.599609 17.970703 z "
       id="path4164"
       transform="translate(0,26)" />
  </g>
</svg>
