<?xml version="1.0" encoding="UTF-8" standalone="no"?>
<!-- Created with Inkscape (http://www.inkscape.org/) -->

<svg
   xmlns:dc="http://purl.org/dc/elements/1.1/"
   xmlns:cc="http://creativecommons.org/ns#"
   xmlns:rdf="http://www.w3.org/1999/02/22-rdf-syntax-ns#"
   xmlns:svg="http://www.w3.org/2000/svg"
   xmlns="http://www.w3.org/2000/svg"
   xmlns:sodipodi="http://sodipodi.sourceforge.net/DTD/sodipodi-0.dtd"
   xmlns:inkscape="http://www.inkscape.org/namespaces/inkscape"
   width="22"
   height="22"
   id="svg3760"
   version="1.1"
   inkscape:version="0.91+devel r"
   sodipodi:docname="cartesian-plot-four-axes.svg"
   viewBox="0 0 22 22">
  <defs
     id="defs3762" />
  <sodipodi:namedview
     id="base"
     pagecolor="#ffffff"
     bordercolor="#666666"
     borderopacity="1.0"
     inkscape:pageopacity="0.0"
     inkscape:pageshadow="2"
     inkscape:zoom="16"
     inkscape:cx="-14.69472"
     inkscape:cy="12.127843"
     inkscape:document-units="px"
     inkscape:current-layer="layer1"
     showgrid="true"
     fit-margin-top="0"
     fit-margin-left="0"
     fit-margin-right="0"
     fit-margin-bottom="0"
     inkscape:window-width="2560"
     inkscape:window-height="1024"
     inkscape:window-x="-4"
     inkscape:window-y="29"
     inkscape:window-maximized="1"
     inkscape:showpageshadow="false"
     showguides="true"
     inkscape:snap-bbox="false"
     inkscape:snap-nodes="true"
     inkscape:snap-to-guides="true"
     inkscape:snap-grids="false"
     inkscape:object-paths="true"
     objecttolerance="20"
     guidetolerance="20">
    <inkscape:grid
       type="xygrid"
       id="grid4106"
       originx="-0.99998557px"
       originy="-1.0000252px" />
    <sodipodi:guide
       position="2.00001,19.99997"
       orientation="0,18"
       id="guide4229" />
    <sodipodi:guide
       position="20.00001,19.99997"
       orientation="18,0"
       id="guide4231" />
    <sodipodi:guide
       position="20.00001,1.99997"
       orientation="0,-18"
       id="guide4233" />
    <sodipodi:guide
       position="2.00001,1.99997"
       orientation="-18,0"
       id="guide4235" />
    <sodipodi:guide
       position="3.00001,18.99997"
       orientation="0,16"
       id="guide4237" />
    <sodipodi:guide
       position="19.00001,18.99997"
       orientation="16,0"
       id="guide4239" />
    <sodipodi:guide
       position="19.00001,2.99997"
       orientation="0,-16"
       id="guide4241" />
    <sodipodi:guide
       position="3.00001,2.99997"
       orientation="-16,0"
       id="guide4243" />
  </sodipodi:namedview>
  <metadata
     id="metadata3765">
    <rdf:RDF>
      <cc:Work
         rdf:about="">
        <dc:format>image/svg+xml</dc:format>
        <dc:type
           rdf:resource="http://purl.org/dc/dcmitype/StillImage" />
        <dc:title />
      </cc:Work>
    </rdf:RDF>
  </metadata>
  <g
     inkscape:label="Capa 1"
     inkscape:groupmode="layer"
     id="layer1"
     transform="translate(-551.28571,-607.64788)">
    <path
       style="fill:#424854;fill-opacity:1;stroke:none"
       d="m 3,3 0,16 1,0 16,0 0,-1 L 20,3 4,3 3,3 Z M 4,4 17.71875,4 17.25,4.46875 16.4375,5.28125 15.125,6.59375 13,4.46875 11.46875,6 11,6.46875 10.15625,7.28125 8.46875,9 7,9 6,9 5,9 4,9 4,4 Z m 15,0.125 0,13.71875 -0.28125,-0.28125 -0.75,-0.75 L 17.125,16 15.84375,14.6875 15.125,14 13,16.09375 11.6875,14.8125 10.875,14 8.875,12 7,12 l -1,0 -1,0 -1,0 0,-2 1,0 1,0 1,0 1.875,0 2,-2 L 11.6875,7.15625 13,5.875 15.125,8 17.125,6 17.96875,5.15625 19,4.125 Z M 4,13 l 1,0 1,0 1,0 1.46875,0 1.6875,1.6875 L 11,15.53125 11.46875,16 13,17.53125 13.53125,17 15.125,15.40625 l 1.3125,1.28125 0.5,0.53125 0.3125,0.3125 0.03125,0.03125 L 17.71875,18 4,18 4,13 Z"
       transform="translate(551.28571,607.64788)"
       id="rect3764"
       inkscape:connector-curvature="0" />
  </g>
</svg>
