<?xml version="1.0" encoding="UTF-8" standalone="no"?>
<!-- Created with Inkscape (http://www.inkscape.org/) -->

<svg
   xmlns:dc="http://purl.org/dc/elements/1.1/"
   xmlns:cc="http://creativecommons.org/ns#"
   xmlns:rdf="http://www.w3.org/1999/02/22-rdf-syntax-ns#"
   xmlns:svg="http://www.w3.org/2000/svg"
   xmlns="http://www.w3.org/2000/svg"
   xmlns:sodipodi="http://sodipodi.sourceforge.net/DTD/sodipodi-0.dtd"
   xmlns:inkscape="http://www.inkscape.org/namespaces/inkscape"
   width="22"
   height="22"
   id="svg3381"
   version="1.1"
   inkscape:version="0.91+devel r"
   sodipodi:docname="dashboard-show.svg"
   viewBox="0 0 22 22">
  <defs
     id="defs3383" />
  <sodipodi:namedview
     id="base"
     pagecolor="#ffffff"
     bordercolor="#666666"
     borderopacity="1.0"
     inkscape:pageopacity="0.0"
     inkscape:pageshadow="2"
     inkscape:zoom="32"
     inkscape:cx="21.131342"
     inkscape:cy="6.0516805"
     inkscape:document-units="px"
     inkscape:current-layer="layer1"
     showgrid="true"
     fit-margin-top="0"
     fit-margin-left="0"
     fit-margin-right="0"
     fit-margin-bottom="0"
     inkscape:window-width="2560"
     inkscape:window-height="957"
     inkscape:window-x="-4"
     inkscape:window-y="29"
     inkscape:window-maximized="1"
     inkscape:showpageshadow="false"
     showguides="true">
    <inkscape:grid
       type="xygrid"
       id="grid4114" />
    <sodipodi:guide
       position="2.0000117,19.999979"
       orientation="18,0"
       id="guide4163" />
    <sodipodi:guide
       position="2.0000117,1.9999785"
       orientation="0,18"
       id="guide4165" />
    <sodipodi:guide
       position="20.000012,1.9999785"
       orientation="-18,0"
       id="guide4167" />
    <sodipodi:guide
       position="20.000012,19.999979"
       orientation="0,-18"
       id="guide4169" />
    <sodipodi:guide
       position="3.0000117,18.999979"
       orientation="16,0"
       id="guide4171" />
    <sodipodi:guide
       position="3.0000117,2.9999785"
       orientation="0,16"
       id="guide4173" />
    <sodipodi:guide
       position="19.000012,2.9999785"
       orientation="-16,0"
       id="guide4175" />
    <sodipodi:guide
       position="19.000012,18.999979"
       orientation="0,-16"
       id="guide4177" />
  </sodipodi:namedview>
  <metadata
     id="metadata3386">
    <rdf:RDF>
      <cc:Work
         rdf:about="">
        <dc:format>image/svg+xml</dc:format>
        <dc:type
           rdf:resource="http://purl.org/dc/dcmitype/StillImage" />
        <dc:title />
      </cc:Work>
    </rdf:RDF>
  </metadata>
  <g
     inkscape:label="Capa 1"
     inkscape:groupmode="layer"
     id="layer1"
     transform="translate(-364.57143,-525.79075)">
    <path
       style="opacity:1;fill:#424854;fill-opacity:1;stroke:none;stroke-width:0.1;stroke-linecap:square;stroke-linejoin:miter;stroke-miterlimit:4;stroke-dasharray:none;stroke-dashoffset:0;stroke-opacity:1"
       d="M 3 3 L 3 19 L 19 19 L 19 3 L 3 3 z M 4 4 L 18 4 L 18 16 L 4 16 L 4 4 z M 5 5 L 5 9 L 8 9 L 8 10 L 10 9 L 10 5 L 5 5 z M 12 5 L 12 6 L 11 6 L 11 12 L 14 12 L 15 12 L 16 12 L 17 12 L 17 11 L 17 10 L 17 9 L 17 6 L 16 6 L 16 5 L 12 5 z M 6 6 L 9 6 L 9 8 L 6 8 L 6 6 z M 12 7 L 16 7 L 16 9 L 16 10 L 16 11 L 15 11 L 14 11 L 12 11 L 12 7 z M 13 8 L 13 9 L 15 9 L 15 8 L 13 8 z M 5 11 L 5 12 L 5.5 12 A 2.5 2.5 0 0 1 8 14.5 L 8 15 L 9 15 L 9 14.5 A 3.5 3.5 0 0 0 5.5 11 L 5 11 z M 5.5 14 A 0.5 0.5 0 0 0 5 14.5 A 0.5 0.5 0 0 0 5.5 15 A 0.5 0.5 0 0 0 6 14.5 A 0.5 0.5 0 0 0 5.5 14 z M 4 17 L 5 17 L 5 18 L 4 18 L 4 17 z M 6 17 L 14 17 L 14 18 L 6 18 L 6 17 z M 15 17 L 16 17 L 16 18 L 15 18 L 15 17 z M 17 17 L 18 17 L 18 18 L 17 18 L 17 17 z "
       transform="translate(364.57143,525.79075)"
       id="rect4150" />
  </g>
</svg>
