<?xml version="1.0" encoding="UTF-8" standalone="no"?>
<!-- Created with Inkscape (http://www.inkscape.org/) -->

<svg
   xmlns:dc="http://purl.org/dc/elements/1.1/"
   xmlns:cc="http://creativecommons.org/ns#"
   xmlns:rdf="http://www.w3.org/1999/02/22-rdf-syntax-ns#"
   xmlns:svg="http://www.w3.org/2000/svg"
   xmlns="http://www.w3.org/2000/svg"
   xmlns:sodipodi="http://sodipodi.sourceforge.net/DTD/sodipodi-0.dtd"
   xmlns:inkscape="http://www.inkscape.org/namespaces/inkscape"
   width="22"
   height="22"
   id="svg4359"
   version="1.1"
   inkscape:version="0.91+devel r"
   sodipodi:docname="debug-step-out.svg"
   viewBox="0 0 22 22">
  <defs
     id="defs4361" />
  <sodipodi:namedview
     id="base"
     pagecolor="#ffffff"
     bordercolor="#666666"
     borderopacity="1.0"
     inkscape:pageopacity="0.0"
     inkscape:pageshadow="2"
     inkscape:zoom="32"
     inkscape:cx="16.210237"
     inkscape:cy="12.863784"
     inkscape:current-layer="layer1"
     showgrid="true"
     inkscape:grid-bbox="true"
     inkscape:document-units="px"
     inkscape:window-width="2560"
     inkscape:window-height="957"
     inkscape:window-x="-4"
     inkscape:window-y="29"
     inkscape:window-maximized="1"
     inkscape:showpageshadow="false"
     borderlayer="true"
     showguides="true">
    <inkscape:grid
       type="xygrid"
       id="grid4105" />
    <sodipodi:guide
       position="0,22"
       orientation="22,0"
       id="guide4111" />
    <sodipodi:guide
       position="0,0"
       orientation="0,22"
       id="guide4113" />
    <sodipodi:guide
       position="22,0"
       orientation="-22,0"
       id="guide4115" />
    <sodipodi:guide
       position="22,22"
       orientation="0,-22"
       id="guide4117" />
    <sodipodi:guide
       position="21,11"
       orientation="0,-20"
       id="guide4145" />
    <sodipodi:guide
       position="3,19"
       orientation="16,0"
       id="guide4130" />
    <sodipodi:guide
       position="3,3"
       orientation="0,16"
       id="guide4132" />
    <sodipodi:guide
       position="19,3"
       orientation="-16,0"
       id="guide4134" />
    <sodipodi:guide
       position="-11,19"
       orientation="0,-16"
       id="guide4136" />
    <sodipodi:guide
       position="3,10.999989"
       orientation="8,0"
       id="guide4140" />
    <sodipodi:guide
       position="3,2.9999886"
       orientation="0,8"
       id="guide4142" />
    <sodipodi:guide
       position="3,22"
       orientation="19.000011,0"
       id="guide4152" />
    <sodipodi:guide
       position="3,2.9999886"
       orientation="0,4"
       id="guide4154" />
    <sodipodi:guide
       position="7,22"
       orientation="0,-4"
       id="guide4158" />
    <sodipodi:guide
       position="15,22"
       orientation="19,0"
       id="guide4160" />
    <sodipodi:guide
       position="15,3"
       orientation="0,4.0000019"
       id="guide4162" />
    <sodipodi:guide
       position="19.000002,3"
       orientation="-19,0"
       id="guide4164" />
    <sodipodi:guide
       position="19.000002,22"
       orientation="0,-4.0000019"
       id="guide4166" />
    <sodipodi:guide
       position="4,2.9999771"
       orientation="0,7"
       id="guide4163" />
    <sodipodi:guide
       position="11,2.9999771"
       orientation="-7,0"
       id="guide4165" />
  </sodipodi:namedview>
  <metadata
     id="metadata4364">
    <rdf:RDF>
      <cc:Work
         rdf:about="">
        <dc:format>image/svg+xml</dc:format>
        <dc:type
           rdf:resource="http://purl.org/dc/dcmitype/StillImage" />
        <dc:title />
      </cc:Work>
    </rdf:RDF>
  </metadata>
  <g
     id="layer1"
     inkscape:label="Layer 1"
     inkscape:groupmode="layer"
     transform="translate(0,-26)">
    <path
       style="opacity:1;fill:#424854;fill-opacity:1;stroke:none;stroke-width:0.1;stroke-linecap:square;stroke-linejoin:miter;stroke-miterlimit:4;stroke-dasharray:none;stroke-dashoffset:0;stroke-opacity:1"
       d="m 14,29 0,1.5 -3,0 c -1.108,0 -2,0.892 -2,2 l 0,2.5 1,0 0,-2.5 c 0,-0.554 0.446,-1 1,-1 l 3,0 0,0.5 0,1 3,-2 -3,-2 z M 8,32.050781 C 6.8559283,32.280978 6,33.28614 6,34.5 l 0,1.5 0,0.550781 c 0,0.65424 -0.4180774,1.202197 -1,1.408203 l 0,0.0918 L 5,39 l 0,0.0918 c 0.5819226,0.206 1.1168734,0.764487 1,1.408203 L 6,41.050781 6,42 6,42.550781 C 6,43.764641 6.8559283,44.769803 8,45 L 8,43.958984 C 7.4180774,43.752978 7,43.205021 7,42.550781 L 7,42 7,41.050781 7,40.5 C 7,39.690898 6.613903,38.98135 6.0214844,38.525391 6.613903,38.069432 7,37.359883 7,36.550781 l 0,-1.5 L 7,34.5 c 0,-0.65424 0.4180774,-1.202197 1,-1.408203 l 0,-1.041016 z m 3,0 0,1.041016 c 0.581923,0.206006 1,0.753963 1,1.408203 l 0,0.550781 0,1.5 c 0,0.809102 0.386097,1.518651 0.978516,1.97461 C 12.386097,38.98135 12,39.690898 12,40.5 L 12,41.050781 12,42 l 0,0.550781 c 0,0.65424 -0.418077,1.202197 -1,1.408203 L 11,45 c 1.144072,-0.230197 2,-1.235359 2,-2.449219 L 13,42 13,41.050781 13,40.5 c -0.116873,-0.643716 0.418077,-1.202203 1,-1.408203 L 14,39 l 0,-0.949219 0,-0.0918 C 13.418077,37.752978 13,37.205021 13,36.550781 L 13,36 13,34.5 c 0,-1.21386 -0.855928,-2.219022 -2,-2.449219 z"
       id="path4164"
       inkscape:connector-curvature="0" />
  </g>
</svg>
