<?xml version="1.0" encoding="UTF-8" standalone="no"?>
<!-- Created with Inkscape (http://www.inkscape.org/) -->

<svg
   xmlns:dc="http://purl.org/dc/elements/1.1/"
   xmlns:cc="http://creativecommons.org/ns#"
   xmlns:rdf="http://www.w3.org/1999/02/22-rdf-syntax-ns#"
   xmlns:svg="http://www.w3.org/2000/svg"
   xmlns="http://www.w3.org/2000/svg"
   xmlns:sodipodi="http://sodipodi.sourceforge.net/DTD/sodipodi-0.dtd"
   xmlns:inkscape="http://www.inkscape.org/namespaces/inkscape"
   width="22"
   height="22"
   id="svg2"
   version="1.1"
   inkscape:version="0.91+devel r"
   viewBox="0 0 22 22"
   sodipodi:docname="document-revert.svg">
  <defs
     id="defs4" />
  <sodipodi:namedview
     id="base"
     pagecolor="#ffffff"
     bordercolor="#666666"
     borderopacity="1.0"
     inkscape:pageopacity="0.0"
     inkscape:pageshadow="2"
     inkscape:zoom="22.837498"
     inkscape:cx="13.46357"
     inkscape:cy="10.551043"
     inkscape:document-units="px"
     inkscape:current-layer="layer1"
     showgrid="true"
     inkscape:showpageshadow="false"
     borderlayer="true"
     inkscape:window-width="2560"
     inkscape:window-height="957"
     inkscape:window-x="-4"
     inkscape:window-y="29"
     inkscape:window-maximized="1"
     units="px">
    <sodipodi:guide
       position="2,20.000017"
       orientation="18,0"
       id="guide4085" />
    <sodipodi:guide
       position="2,2.0000174"
       orientation="0,18"
       id="guide4087" />
    <sodipodi:guide
       position="20,2.0000174"
       orientation="-18,0"
       id="guide4089" />
    <sodipodi:guide
       position="20,20.000017"
       orientation="0,-18"
       id="guide4091" />
    <sodipodi:guide
       position="3,19.000017"
       orientation="16,0"
       id="guide4093" />
    <sodipodi:guide
       position="3,3.0000174"
       orientation="0,16"
       id="guide4095" />
    <sodipodi:guide
       position="19,3.0000174"
       orientation="-16,0"
       id="guide4097" />
    <sodipodi:guide
       position="19,19.000017"
       orientation="0,-16"
       id="guide4099" />
    <inkscape:grid
       type="xygrid"
       id="grid4101" />
    <sodipodi:guide
       position="3,19.000017"
       orientation="16,0"
       id="guide4123" />
    <sodipodi:guide
       position="3,3.0000174"
       orientation="0,2.000001"
       id="guide4125" />
    <sodipodi:guide
       position="4,19.000017"
       orientation="-16,0"
       id="guide4127" />
    <sodipodi:guide
       position="5.000001,19.000017"
       orientation="0,-2.000001"
       id="guide4129" />
    <sodipodi:guide
       position="18,19.000017"
       orientation="16,0"
       id="guide4131" />
    <sodipodi:guide
       position="17,3.0000174"
       orientation="0,2"
       id="guide4133" />
    <sodipodi:guide
       position="19,3.0000174"
       orientation="-16,0"
       id="guide4135" />
    <sodipodi:guide
       position="19,19.000017"
       orientation="0,-2"
       id="guide4137" />
  </sodipodi:namedview>
  <metadata
     id="metadata7">
    <rdf:RDF>
      <cc:Work
         rdf:about="">
        <dc:format>image/svg+xml</dc:format>
        <dc:type
           rdf:resource="http://purl.org/dc/dcmitype/StillImage" />
        <dc:title />
      </cc:Work>
    </rdf:RDF>
  </metadata>
  <g
     inkscape:label="Capa 1"
     inkscape:groupmode="layer"
     id="layer1"
     transform="translate(0,-1030.3622)">
    <path
       style="opacity:1;fill:#424854;fill-opacity:1;stroke:none;stroke-width:2.79999995;stroke-miterlimit:4;stroke-dasharray:none;stroke-opacity:0.55026455"
       d="M 4 3 L 4 14 L 4.8046875 14.804688 L 4.8007812 14.804688 L 8.09375 18.097656 L 8.0976562 18.097656 L 9 19 L 17 19 L 18 19 L 18 10 L 17 10 L 17 18 L 10 18 L 10 14 L 10 13 L 5 13 L 5 4 L 9 4 L 9 3 L 5 3 L 4 3 z M 12.292969 3 L 10 5.2929688 L 9.7929688 5.5 L 10 5.7070312 L 12.292969 8 L 13 7.2929688 L 11.707031 6 L 15 6 L 16 6 C 16.554 6 17 6.446 17 7 C 17 7.554 16.554 8 16 8 L 14 8 L 14 9 L 16 9 C 17.108 9 18 8.108 18 7 C 18 5.892 17.108 5 16 5 L 15 5 L 11.707031 5 L 13 3.7070312 L 12.292969 3 z M 5.5 14 L 6 14 L 6.5 14 L 9 14 L 9 15 L 9 16 L 9 17 L 8.5 17 L 8 16.5 L 7.5 16 L 7 15.5 L 6.5 15 L 6 14.5 L 5.5 14 z "
       transform="translate(0,1030.3622)"
       id="rect4162" />
  </g>
</svg>
