<?xml version="1.0" encoding="UTF-8" standalone="no"?>
<!-- Created with Inkscape (http://www.inkscape.org/) -->

<svg
   xmlns:dc="http://purl.org/dc/elements/1.1/"
   xmlns:cc="http://creativecommons.org/ns#"
   xmlns:rdf="http://www.w3.org/1999/02/22-rdf-syntax-ns#"
   xmlns:svg="http://www.w3.org/2000/svg"
   xmlns="http://www.w3.org/2000/svg"
   xmlns:sodipodi="http://sodipodi.sourceforge.net/DTD/sodipodi-0.dtd"
   xmlns:inkscape="http://www.inkscape.org/namespaces/inkscape"
   width="22"
   height="22"
   id="svg3760"
   version="1.1"
   inkscape:version="0.91+devel r"
   sodipodi:docname="draw-path.svg"
   viewBox="0 0 22 22">
  <defs
     id="defs3762" />
  <sodipodi:namedview
     id="base"
     pagecolor="#ffffff"
     bordercolor="#666666"
     borderopacity="1.0"
     inkscape:pageopacity="0.0"
     inkscape:pageshadow="2"
     inkscape:zoom="16.000001"
     inkscape:cx="-9.5226345"
     inkscape:cy="14.152862"
     inkscape:document-units="px"
     inkscape:current-layer="layer1"
     showgrid="true"
     fit-margin-top="0"
     fit-margin-left="0"
     fit-margin-right="0"
     fit-margin-bottom="0"
     inkscape:window-width="2560"
     inkscape:window-height="957"
     inkscape:window-x="-4"
     inkscape:window-y="29"
     inkscape:window-maximized="1"
     inkscape:showpageshadow="false">
    <sodipodi:guide
       position="1.443e-05,-1.18e-05"
       orientation="24,0"
       id="guide4115" />
    <sodipodi:guide
       position="1.443e-05,-1.18e-05"
       orientation="0,24"
       id="guide4117" />
    <sodipodi:guide
       position="22.000014,-1.18e-05"
       orientation="-24,0"
       id="guide4119" />
    <sodipodi:guide
       position="22.000014,21.999988"
       orientation="0,-24"
       id="guide4121" />
    <sodipodi:guide
       position="2,20"
       orientation="18,0"
       id="guide4123" />
    <sodipodi:guide
       position="2,2"
       orientation="0,18"
       id="guide4125" />
    <sodipodi:guide
       position="20,2"
       orientation="-18,0"
       id="guide4127" />
    <sodipodi:guide
       position="20,20"
       orientation="0,-18"
       id="guide4129" />
    <sodipodi:guide
       position="3,19"
       orientation="16,0"
       id="guide4131" />
    <sodipodi:guide
       position="3,3"
       orientation="0,16"
       id="guide4133" />
    <sodipodi:guide
       position="19,3"
       orientation="-16,0"
       id="guide4135" />
    <sodipodi:guide
       position="19,19"
       orientation="0,-16"
       id="guide4137" />
    <inkscape:grid
       type="xygrid"
       id="grid4139"
       originx="-0.99998557"
       originy="-1.0000118" />
  </sodipodi:namedview>
  <metadata
     id="metadata3765">
    <rdf:RDF>
      <cc:Work
         rdf:about="">
        <dc:format>image/svg+xml</dc:format>
        <dc:type
           rdf:resource="http://purl.org/dc/dcmitype/StillImage" />
        <dc:title />
      </cc:Work>
    </rdf:RDF>
  </metadata>
  <g
     inkscape:label="Capa 1"
     inkscape:groupmode="layer"
     id="layer1"
     transform="translate(-551.28571,-607.64789)">
    <path
       style="opacity:1;fill:#424854;fill-opacity:1;stroke:none;stroke-width:0.1;stroke-linecap:square;stroke-linejoin:miter;stroke-miterlimit:4;stroke-dasharray:none;stroke-dashoffset:0;stroke-opacity:1"
       d="M 2 3 L 2 6 L 3 6 L 3 13 L 3 16 L 3 19 L 4 19 L 6 19 L 7.0078125 19 L 7.0078125 18.996094 L 8.0039062 18 L 9 18 L 17 18 L 17 19 L 20 19 L 20 16 L 19 16 L 18 16 L 17 16 L 17 17 L 9.0039062 17 L 19 7.0039062 L 18.998047 7.0019531 L 19 7 L 15 3 L 14.998047 3.0019531 L 14.996094 3 L 4 13.996094 L 4 13 L 4 6 L 5 6 L 5 5 L 5 4 L 5 3 L 2 3 z M 3 4 L 4 4 L 4 5 L 3 5 L 3 4 z M 14.998047 4.4121094 L 17.587891 7.0019531 L 16.294922 8.2949219 L 13.705078 5.7050781 L 14.998047 4.4121094 z M 12.998047 6.4121094 L 15.587891 9.0019531 L 15.052734 9.5371094 L 8 16.589844 L 8 15 L 7 15 L 6 15 L 6 14 L 6 13.410156 L 12.478516 6.9316406 L 12.998047 6.4121094 z M 5 14.410156 L 5 16 L 6 16 L 7 16 L 7 17 L 7 17.589844 L 6.5898438 18 L 5 18 L 4 17 L 4 15.410156 L 5 14.410156 z M 18 17 L 19 17 L 19 18 L 18 18 L 18 17 z "
       transform="translate(551.28571,607.64789)"
       id="rect4152" />
  </g>
</svg>
