<?xml version="1.0" encoding="UTF-8" standalone="no"?>
<!-- Created with Inkscape (http://www.inkscape.org/) -->

<svg
   xmlns:dc="http://purl.org/dc/elements/1.1/"
   xmlns:cc="http://creativecommons.org/ns#"
   xmlns:rdf="http://www.w3.org/1999/02/22-rdf-syntax-ns#"
   xmlns:svg="http://www.w3.org/2000/svg"
   xmlns="http://www.w3.org/2000/svg"
   xmlns:sodipodi="http://sodipodi.sourceforge.net/DTD/sodipodi-0.dtd"
   xmlns:inkscape="http://www.inkscape.org/namespaces/inkscape"
   width="22"
   height="22"
   id="svg4359"
   version="1.1"
   inkscape:version="0.91+devel r"
   sodipodi:docname="draw-text.svg"
   viewBox="0 0 22 22">
  <defs
     id="defs4361" />
  <sodipodi:namedview
     id="base"
     pagecolor="#ffffff"
     bordercolor="#666666"
     borderopacity="1.0"
     inkscape:pageopacity="0.0"
     inkscape:pageshadow="2"
     inkscape:zoom="32"
     inkscape:cx="8.8067019"
     inkscape:cy="12.102085"
     inkscape:current-layer="layer1"
     showgrid="true"
     inkscape:grid-bbox="true"
     inkscape:document-units="px"
     inkscape:window-width="2560"
     inkscape:window-height="957"
     inkscape:window-x="-4"
     inkscape:window-y="29"
     inkscape:window-maximized="1"
     inkscape:showpageshadow="false"
     borderlayer="true"
     showguides="true">
    <inkscape:grid
       type="xygrid"
       id="grid4105" />
    <sodipodi:guide
       position="0,22"
       orientation="22,0"
       id="guide4111" />
    <sodipodi:guide
       position="0,0"
       orientation="0,22"
       id="guide4113" />
    <sodipodi:guide
       position="22,0"
       orientation="-22,0"
       id="guide4115" />
    <sodipodi:guide
       position="22,22"
       orientation="0,-22"
       id="guide4117" />
    <sodipodi:guide
       position="21,11"
       orientation="0,-20"
       id="guide4145" />
    <sodipodi:guide
       position="3,19"
       orientation="16,0"
       id="guide4130" />
    <sodipodi:guide
       position="3,3"
       orientation="0,16"
       id="guide4132" />
    <sodipodi:guide
       position="19,3"
       orientation="-16,0"
       id="guide4134" />
    <sodipodi:guide
       position="19,19"
       orientation="0,-16"
       id="guide4136" />
    <sodipodi:guide
       position="3,10.999989"
       orientation="8,0"
       id="guide4140" />
    <sodipodi:guide
       position="3,2.9999886"
       orientation="0,8"
       id="guide4142" />
    <sodipodi:guide
       position="11,2.9999886"
       orientation="-8,0"
       id="guide4144" />
    <sodipodi:guide
       position="3,22"
       orientation="19.000011,0"
       id="guide4152" />
    <sodipodi:guide
       position="3,2.9999886"
       orientation="0,4"
       id="guide4154" />
    <sodipodi:guide
       position="7,2.9999886"
       orientation="-19.000011,0"
       id="guide4156" />
    <sodipodi:guide
       position="7,22"
       orientation="0,-4"
       id="guide4158" />
    <sodipodi:guide
       position="15,22"
       orientation="19,0"
       id="guide4160" />
    <sodipodi:guide
       position="15,3"
       orientation="0,4.0000019"
       id="guide4162" />
    <sodipodi:guide
       position="19.000002,3"
       orientation="-19,0"
       id="guide4164" />
    <sodipodi:guide
       position="19.000002,22"
       orientation="0,-4.0000019"
       id="guide4166" />
  </sodipodi:namedview>
  <metadata
     id="metadata4364">
    <rdf:RDF>
      <cc:Work
         rdf:about="">
        <dc:format>image/svg+xml</dc:format>
        <dc:type
           rdf:resource="http://purl.org/dc/dcmitype/StillImage" />
        <dc:title />
      </cc:Work>
    </rdf:RDF>
  </metadata>
  <g
     id="layer1"
     inkscape:label="Layer 1"
     inkscape:groupmode="layer"
     transform="translate(0,-26)">
    <path
       style="opacity:1;fill:#424854;fill-opacity:1;stroke:none;stroke-width:0.1;stroke-linecap:square;stroke-linejoin:miter;stroke-miterlimit:4;stroke-dasharray:none;stroke-dashoffset:0;stroke-opacity:1"
       d="M 4 3 L 4 6 L 4.9003906 6 L 4.9003906 8 L 5.9003906 8 L 5.9003906 6 L 7 6 L 7 5 L 16 5 L 16 6 L 17 6 L 17 16 L 16 16 L 16 17 L 9 17 L 9 18 L 16 18 L 16 19 L 19 19 L 19 16 L 18 16 L 18 6 L 19 6 L 19 3 L 16 3 L 16 4 L 7 4 L 7 3 L 4 3 z M 5 4 L 6 4 L 6 5 L 5 5 L 5 4 z M 17 4 L 18 4 L 18 5 L 17 5 L 17 4 z M 3 9 L 3 10 L 7 10 L 7 18 L 8 18 L 8 10 L 12 10 L 12 9 L 3 9 z M 17 17 L 18 17 L 18 18 L 17 18 L 17 17 z "
       transform="translate(0,26)"
       id="rect4160" />
  </g>
</svg>
