<?xml version="1.0" encoding="UTF-8" standalone="no"?>
<!-- Created with Inkscape (http://www.inkscape.org/) -->

<svg
   xmlns:dc="http://purl.org/dc/elements/1.1/"
   xmlns:cc="http://creativecommons.org/ns#"
   xmlns:rdf="http://www.w3.org/1999/02/22-rdf-syntax-ns#"
   xmlns:svg="http://www.w3.org/2000/svg"
   xmlns="http://www.w3.org/2000/svg"
   xmlns:sodipodi="http://sodipodi.sourceforge.net/DTD/sodipodi-0.dtd"
   xmlns:inkscape="http://www.inkscape.org/namespaces/inkscape"
   width="22"
   height="22"
   id="svg4359"
   version="1.1"
   inkscape:version="0.91+devel r"
   sodipodi:docname="edit-bomb.svg"
   viewBox="0 0 22 22">
  <defs
     id="defs4361" />
  <sodipodi:namedview
     id="base"
     pagecolor="#ffffff"
     bordercolor="#666666"
     borderopacity="1.0"
     inkscape:pageopacity="0.0"
     inkscape:pageshadow="2"
     inkscape:zoom="32"
     inkscape:cx="12.566678"
     inkscape:cy="7.0325797"
     inkscape:current-layer="layer1"
     showgrid="true"
     inkscape:grid-bbox="true"
     inkscape:document-units="px"
     inkscape:window-width="2560"
     inkscape:window-height="957"
     inkscape:window-x="-4"
     inkscape:window-y="29"
     inkscape:window-maximized="1"
     inkscape:showpageshadow="false"
     borderlayer="true"
     showguides="true">
    <inkscape:grid
       type="xygrid"
       id="grid4105" />
    <sodipodi:guide
       position="0,22"
       orientation="22,0"
       id="guide4111" />
    <sodipodi:guide
       position="0,0"
       orientation="0,22"
       id="guide4113" />
    <sodipodi:guide
       position="22,0"
       orientation="-22,0"
       id="guide4115" />
    <sodipodi:guide
       position="22,22"
       orientation="0,-22"
       id="guide4117" />
    <sodipodi:guide
       position="21,11"
       orientation="0,-20"
       id="guide4145" />
    <sodipodi:guide
       position="3,19"
       orientation="16,0"
       id="guide4130" />
    <sodipodi:guide
       position="3,3"
       orientation="0,16"
       id="guide4132" />
    <sodipodi:guide
       position="19,3"
       orientation="-16,0"
       id="guide4134" />
    <sodipodi:guide
       position="-11,19"
       orientation="0,-16"
       id="guide4136" />
    <sodipodi:guide
       position="3,10.999989"
       orientation="8,0"
       id="guide4140" />
    <sodipodi:guide
       position="3,2.9999886"
       orientation="0,8"
       id="guide4142" />
    <sodipodi:guide
       position="3,22"
       orientation="19.000011,0"
       id="guide4152" />
    <sodipodi:guide
       position="3,2.9999886"
       orientation="0,4"
       id="guide4154" />
    <sodipodi:guide
       position="7,22"
       orientation="0,-4"
       id="guide4158" />
    <sodipodi:guide
       position="15,3"
       orientation="0,4.0000019"
       id="guide4162" />
    <sodipodi:guide
       position="19.000002,3"
       orientation="-19,0"
       id="guide4164" />
    <sodipodi:guide
       position="19.000002,22"
       orientation="0,-4.0000019"
       id="guide4166" />
    <sodipodi:guide
       position="4,2.9999771"
       orientation="0,7"
       id="guide4163" />
    <sodipodi:guide
       position="11,2.9999771"
       orientation="-7,0"
       id="guide4165" />
  </sodipodi:namedview>
  <metadata
     id="metadata4364">
    <rdf:RDF>
      <cc:Work
         rdf:about="">
        <dc:format>image/svg+xml</dc:format>
        <dc:type
           rdf:resource="http://purl.org/dc/dcmitype/StillImage" />
        <dc:title />
      </cc:Work>
    </rdf:RDF>
  </metadata>
  <g
     id="layer1"
     inkscape:label="Layer 1"
     inkscape:groupmode="layer"
     transform="translate(0,-26)">
    <path
       style="opacity:1;fill:#424854;fill-opacity:1;stroke:none;stroke-width:0.1;stroke-linecap:square;stroke-linejoin:miter;stroke-miterlimit:4;stroke-dasharray:none;stroke-dashoffset:0;stroke-opacity:1"
       d="M 15.498047 3 A 2.5 2.5 0 0 1 16 4.5 A 2.5 2.5 0 0 1 15.296875 6.2304688 A 1.5 1.5 0 0 0 14.5 6 A 1.5 1.5 0 0 0 13.550781 6.3398438 A 6.5 6.5 0 0 0 11.5 6 A 6.5 6.5 0 0 0 5 12.5 A 6.5 6.5 0 0 0 11.5 19 A 6.5 6.5 0 0 0 18 12.5 A 6.5 6.5 0 0 0 15.972656 7.7871094 A 1.5 1.5 0 0 0 16 7.5 A 1.5 1.5 0 0 0 15.919922 7.0214844 A 3.5 3.5 0 0 0 17 4.5 A 3.5 3.5 0 0 0 16.658203 3 L 15.498047 3 z M 11.5 7 A 5.5 5.5 0 0 1 13.03125 7.2226562 A 5.5 5.5 0 0 1 13.546875 7.3984375 A 5.5 5.5 0 0 1 13.552734 7.4003906 A 5.5 5.5 0 0 1 14.046875 7.6289062 A 5.5 5.5 0 0 1 14.058594 7.6367188 A 5.5 5.5 0 0 1 14.40625 7.8378906 A 5.5 5.5 0 0 1 14.548828 7.9257812 A 5.5 5.5 0 0 1 14.849609 8.1464844 A 5.5 5.5 0 0 1 14.988281 8.2519531 A 5.5 5.5 0 0 1 15.246094 8.4804688 A 5.5 5.5 0 0 1 15.445312 8.6679688 A 5.5 5.5 0 0 1 17 12.5 A 5.5 5.5 0 0 1 11.5 18 A 5.5 5.5 0 0 1 6 12.5 A 5.5 5.5 0 0 1 11.5 7 z "
       transform="translate(0,26)"
       id="path4160" />
  </g>
</svg>
