<?xml version="1.0" encoding="UTF-8" standalone="no"?>
<!-- Created with Inkscape (http://www.inkscape.org/) -->

<svg
   xmlns:dc="http://purl.org/dc/elements/1.1/"
   xmlns:cc="http://creativecommons.org/ns#"
   xmlns:rdf="http://www.w3.org/1999/02/22-rdf-syntax-ns#"
   xmlns:svg="http://www.w3.org/2000/svg"
   xmlns="http://www.w3.org/2000/svg"
   xmlns:sodipodi="http://sodipodi.sourceforge.net/DTD/sodipodi-0.dtd"
   xmlns:inkscape="http://www.inkscape.org/namespaces/inkscape"
   width="22"
   height="22"
   id="svg4359"
   version="1.1"
   inkscape:version="0.91+devel r"
   sodipodi:docname="edit-table-insert-column-left.svg"
   viewBox="0 0 22 22">
  <defs
     id="defs4361" />
  <sodipodi:namedview
     id="base"
     pagecolor="#ffffff"
     bordercolor="#666666"
     borderopacity="1.0"
     inkscape:pageopacity="0.0"
     inkscape:pageshadow="2"
     inkscape:zoom="47.409473"
     inkscape:cx="6.6426158"
     inkscape:cy="13.39908"
     inkscape:current-layer="layer1"
     showgrid="true"
     inkscape:grid-bbox="true"
     inkscape:document-units="px"
     inkscape:window-width="2560"
     inkscape:window-height="1024"
     inkscape:window-x="-4"
     inkscape:window-y="29"
     inkscape:window-maximized="1"
     inkscape:showpageshadow="false"
     borderlayer="true"
     showguides="true">
    <inkscape:grid
       type="xygrid"
       id="grid4105" />
    <sodipodi:guide
       position="0,22"
       orientation="22,0"
       id="guide4111" />
    <sodipodi:guide
       position="0,0"
       orientation="0,22"
       id="guide4113" />
    <sodipodi:guide
       position="22,0"
       orientation="-22,0"
       id="guide4115" />
    <sodipodi:guide
       position="22,22"
       orientation="0,-22"
       id="guide4117" />
    <sodipodi:guide
       position="21,11"
       orientation="0,-20"
       id="guide4145" />
    <sodipodi:guide
       position="3,19"
       orientation="16,0"
       id="guide4130" />
    <sodipodi:guide
       position="3,3"
       orientation="0,16"
       id="guide4132" />
    <sodipodi:guide
       position="19,3"
       orientation="-16,0"
       id="guide4134" />
    <sodipodi:guide
       position="19,19"
       orientation="0,-16"
       id="guide4136" />
    <sodipodi:guide
       position="3,10.999989"
       orientation="8,0"
       id="guide4140" />
    <sodipodi:guide
       position="3,2.9999886"
       orientation="0,8"
       id="guide4142" />
    <sodipodi:guide
       position="11,2.9999886"
       orientation="-8,0"
       id="guide4144" />
    <sodipodi:guide
       position="3,22"
       orientation="19.000011,0"
       id="guide4152" />
    <sodipodi:guide
       position="3,2.9999886"
       orientation="0,4"
       id="guide4154" />
    <sodipodi:guide
       position="7,2.9999886"
       orientation="-19.000011,0"
       id="guide4156" />
    <sodipodi:guide
       position="7,22"
       orientation="0,-4"
       id="guide4158" />
    <sodipodi:guide
       position="15,3"
       orientation="0,4.0000019"
       id="guide4162" />
    <sodipodi:guide
       position="19.000002,3"
       orientation="-19,0"
       id="guide4164" />
    <sodipodi:guide
       position="19.000002,22"
       orientation="0,-4.0000019"
       id="guide4166" />
    <sodipodi:guide
       position="5,3"
       orientation="0,14"
       id="guide4137" />
    <sodipodi:guide
       position="19,3"
       orientation="-14,0"
       id="guide4139" />
    <sodipodi:guide
       position="4.2929688,18"
       orientation="0.292969,-0.2929688"
       id="guide4173" />
    <sodipodi:guide
       position="4,17.707031"
       orientation="1.414062,0"
       id="guide4175" />
    <sodipodi:guide
       position="4,16.292969"
       orientation="-1.707031,1.7070312"
       id="guide4177" />
    <sodipodi:guide
       position="5.7070312,18"
       orientation="0,-1.4140624"
       id="guide4179" />
    <sodipodi:guide
       position="8,17.707031"
       orientation="4,-4"
       id="guide4181" />
    <sodipodi:guide
       position="4,13.707031"
       orientation="1.414062,0"
       id="guide4183" />
    <sodipodi:guide
       position="4,12.292969"
       orientation="-4,4"
       id="guide4185" />
    <sodipodi:guide
       position="8,16.292969"
       orientation="-1.414062,0"
       id="guide4187" />
    <sodipodi:guide
       position="8,13.707031"
       orientation="2.707031,-2.7070312"
       id="guide4189" />
    <sodipodi:guide
       position="5.2929688,11"
       orientation="0,1.4140624"
       id="guide4191" />
    <sodipodi:guide
       position="6.7070312,11"
       orientation="-1.292969,1.2929688"
       id="guide4193" />
    <sodipodi:guide
       position="8,12.292969"
       orientation="-1.414062,0"
       id="guide4195" />
  </sodipodi:namedview>
  <metadata
     id="metadata4364">
    <rdf:RDF>
      <cc:Work
         rdf:about="">
        <dc:format>image/svg+xml</dc:format>
        <dc:type
           rdf:resource="http://purl.org/dc/dcmitype/StillImage" />
        <dc:title />
      </cc:Work>
    </rdf:RDF>
  </metadata>
  <g
     id="layer1"
     inkscape:label="Layer 1"
     inkscape:groupmode="layer"
     transform="translate(0,-26)">
    <path
       style="opacity:1;fill:#27ae60;fill-opacity:1;stroke:none;stroke-width:3.56737041px;stroke-linecap:butt;stroke-linejoin:miter;stroke-miterlimit:4;stroke-dasharray:none;stroke-dashoffset:0;stroke-opacity:1"
       d="M 3 3 L 3 11 L 5.2929688 11 L 6.7070312 11 L 10 11 L 10 3 L 3 3 z M 4 4 L 4.2929688 4 L 4 4.2929688 L 4 4 z M 5.7070312 4 L 8.2929688 4 L 8 4.2929688 L 4 8.2929688 L 4 5.7070312 L 5.7070312 4 z M 9 4.7070312 L 9 7.2929688 L 8 8.2929688 L 6.2929688 10 L 4 10 L 4 9.7070312 L 8 5.7070312 L 9 4.7070312 z M 9 8.7070312 L 9 10 L 7.7070312 10 L 8 9.7070312 L 9 8.7070312 z "
       transform="translate(0,26)"
       id="rect4191" />
    <path
       style="opacity:1;fill:#424854;fill-opacity:1;stroke:none;stroke-width:3.56737041px;stroke-linecap:butt;stroke-linejoin:miter;stroke-miterlimit:4;stroke-dasharray:none;stroke-dashoffset:0;stroke-opacity:1"
       d="M 10 3 L 10 4 L 12 4 L 12 8 L 10 8 L 10 9 L 12 9 L 12 13 L 11 13 L 11 14 L 12 14 L 12 18 L 11 18 L 11 19 L 13 19 L 19 19 L 19 3 L 13 3 L 10 3 z M 13 4 L 14 4 L 15 4 L 15 8 L 14 8 L 13 8 L 13 4 z M 16 4 L 18 4 L 18 8 L 16 8 L 16 4 z M 13 9 L 14 9 L 15 9 L 15 13 L 14 13 L 13 13 L 13 9 z M 16 9 L 18 9 L 18 13 L 16 13 L 16 9 z M 13 14 L 14 14 L 15 14 L 15 18 L 14 18 L 13 18 L 13 14 z M 16 14 L 18 14 L 18 16 L 18 18 L 16 18 L 16 14 z "
       transform="translate(0,26)"
       id="rect4162" />
    <path
       style="opacity:1;fill:#424854;fill-opacity:1;stroke:none;stroke-width:3.56737041px;stroke-linecap:butt;stroke-linejoin:miter;stroke-miterlimit:4;stroke-dasharray:none;stroke-dashoffset:0;stroke-opacity:1"
       d="M 6 12 L 6 15 L 3 15 L 3 16 L 6 16 L 6 19 L 7 19 L 7 16 L 10 16 L 10 15 L 7 15 L 7 12 L 6 12 z "
       transform="translate(0,26)"
       id="rect4199" />
  </g>
</svg>
