<?xml version="1.0" encoding="UTF-8" standalone="no"?>
<!-- Created with Inkscape (http://www.inkscape.org/) -->

<svg
   xmlns:dc="http://purl.org/dc/elements/1.1/"
   xmlns:cc="http://creativecommons.org/ns#"
   xmlns:rdf="http://www.w3.org/1999/02/22-rdf-syntax-ns#"
   xmlns:svg="http://www.w3.org/2000/svg"
   xmlns="http://www.w3.org/2000/svg"
   xmlns:sodipodi="http://sodipodi.sourceforge.net/DTD/sodipodi-0.dtd"
   xmlns:inkscape="http://www.inkscape.org/namespaces/inkscape"
   width="22"
   height="22"
   id="svg3815"
   version="1.1"
   inkscape:version="0.91+devel r"
   sodipodi:docname="select-rectangular.svg"
   viewBox="0 0 22 22">
  <defs
     id="defs3817" />
  <sodipodi:namedview
     id="base"
     pagecolor="#ffffff"
     bordercolor="#666666"
     borderopacity="1.0"
     inkscape:pageopacity="0.0"
     inkscape:pageshadow="2"
     inkscape:zoom="36.670822"
     inkscape:cx="10.492901"
     inkscape:cy="10.912742"
     inkscape:document-units="px"
     inkscape:current-layer="layer1"
     showgrid="true"
     fit-margin-top="0"
     fit-margin-left="0"
     fit-margin-right="0"
     fit-margin-bottom="0"
     inkscape:window-width="2560"
     inkscape:window-height="957"
     inkscape:window-x="-4"
     inkscape:window-y="29"
     inkscape:window-maximized="1"
     inkscape:showpageshadow="false"
     borderlayer="false">
    <sodipodi:guide
       position="2.0000044,19.999979"
       orientation="18,0"
       id="guide3338" />
    <sodipodi:guide
       position="2.0000044,1.9999785"
       orientation="0,18"
       id="guide3340" />
    <sodipodi:guide
       position="20.000004,1.9999785"
       orientation="-18,0"
       id="guide3342" />
    <sodipodi:guide
       position="20.000004,19.999979"
       orientation="0,-18"
       id="guide3344" />
    <sodipodi:guide
       position="3.0000044,18.999979"
       orientation="16,0"
       id="guide3346" />
    <sodipodi:guide
       position="3.0000044,2.9999785"
       orientation="0,16"
       id="guide3348" />
    <sodipodi:guide
       position="19,12"
       orientation="-16,0"
       id="guide3350" />
    <sodipodi:guide
       position="17,19"
       orientation="0,-16"
       id="guide3352" />
    <inkscape:grid
       type="xygrid"
       id="grid3354" />
  </sodipodi:namedview>
  <metadata
     id="metadata3820">
    <rdf:RDF>
      <cc:Work
         rdf:about="">
        <dc:format>image/svg+xml</dc:format>
        <dc:type
           rdf:resource="http://purl.org/dc/dcmitype/StillImage" />
        <dc:title />
      </cc:Work>
    </rdf:RDF>
  </metadata>
  <g
     inkscape:label="Capa 1"
     inkscape:groupmode="layer"
     id="layer1"
     transform="translate(-461.71429,-525.79075)">
    <path
       style="opacity:1;fill:#424854;fill-opacity:1;stroke:none;stroke-width:0.1;stroke-linecap:square;stroke-linejoin:miter;stroke-miterlimit:4;stroke-dasharray:none;stroke-dashoffset:0;stroke-opacity:1"
       d="M 1 3 L 1 5 L 2 5 L 2 17 L 1 17 L 1 19 L 3 19 L 3 18 L 19 18 L 19 19 L 21 19 L 21 17 L 20 17 L 20 5 L 21 5 L 21 3 L 19 3 L 19 4 L 3 4 L 3 3 L 1 3 z M 3 5 L 19 5 L 19 17 L 3 17 L 3 5 z M 4 7 L 4 8 L 5 8 L 5 7 L 4 7 z M 6 7 L 6 8 L 7 8 L 7 7 L 6 7 z M 8 7 L 8 8 L 9 8 L 9 7 L 8 7 z M 10 7 L 10 8 L 11 8 L 11 7 L 10 7 z M 12 7 L 12 8 L 13 8 L 13 7 L 12 7 z M 14 7 L 14 8 L 15 8 L 15 7 L 14 7 z M 16 8 L 15.003906 8.9941406 L 15 8.9902344 L 10 13.988281 L 10.007812 13.996094 L 10.003906 15 L 10 15 L 10 15.990234 L 10 16 L 12 16 L 12.005859 15.994141 L 12.009766 15.990234 C 12.013766 15.990214 12.015531 15.992188 12.019531 15.992188 L 12.013672 15.986328 L 13 15 L 17 11.003906 L 16.294922 10.294922 L 11.304688 15.28125 L 10.710938 14.689453 L 15.703125 9.7011719 L 16.294922 10.294922 L 17 10.998047 L 18 9.9980469 L 16 8 z M 4 9 L 4 10 L 5 10 L 5 9 L 4 9 z M 4 11 L 4 12 L 5 12 L 5 11 L 4 11 z M 4 13 L 4 14 L 5 14 L 5 13 L 4 13 z M 4 15 L 4 16 L 5 16 L 5 15 L 4 15 z M 6 15 L 6 16 L 7 16 L 7 15 L 6 15 z M 8 15 L 8 16 L 9 16 L 9 15 L 8 15 z "
       transform="translate(461.71429,525.79075)"
       id="rect4150" />
  </g>
</svg>
