<?xml version="1.0" encoding="UTF-8" standalone="no"?>
<svg
   xmlns:dc="http://purl.org/dc/elements/1.1/"
   xmlns:cc="http://creativecommons.org/ns#"
   xmlns:rdf="http://www.w3.org/1999/02/22-rdf-syntax-ns#"
   xmlns:svg="http://www.w3.org/2000/svg"
   xmlns="http://www.w3.org/2000/svg"
   xmlns:sodipodi="http://sodipodi.sourceforge.net/DTD/sodipodi-0.dtd"
   xmlns:inkscape="http://www.inkscape.org/namespaces/inkscape"
   width="24"
   viewBox="0 0 6.7733335 6.7733335"
   height="24"
   id="svg2"
   version="1.1"
   inkscape:version="0.91+devel r"
   sodipodi:docname="clementine-panel.svg">
  <metadata
     id="metadata12">
    <rdf:RDF>
      <cc:Work
         rdf:about="">
        <dc:format>image/svg+xml</dc:format>
        <dc:type
           rdf:resource="http://purl.org/dc/dcmitype/StillImage" />
        <dc:title></dc:title>
      </cc:Work>
    </rdf:RDF>
  </metadata>
  <defs
     id="defs10" />
  <sodipodi:namedview
     pagecolor="#ffffff"
     bordercolor="#666666"
     borderopacity="1"
     objecttolerance="10"
     gridtolerance="10000"
     guidetolerance="10000"
     inkscape:pageopacity="0"
     inkscape:pageshadow="2"
     inkscape:window-width="2560"
     inkscape:window-height="1024"
     id="namedview8"
     showgrid="true"
     inkscape:showpageshadow="false"
     borderlayer="true"
     inkscape:zoom="21.454545"
     inkscape:cx="17.444413"
     inkscape:cy="12.400269"
     inkscape:window-x="-4"
     inkscape:window-y="29"
     inkscape:window-maximized="1"
     inkscape:current-layer="svg2"
     fit-margin-top="0"
     fit-margin-left="0"
     fit-margin-right="0"
     fit-margin-bottom="0">
    <inkscape:grid
       type="xygrid"
       id="grid4158"
       originx="0.28222224"
       originy="0.28222231" />
    <sodipodi:guide
       position="0.28222224,22.282222"
       orientation="22,0"
       id="guide4164" />
    <sodipodi:guide
       position="0.28222224,0.28222228"
       orientation="0,22"
       id="guide4166" />
    <sodipodi:guide
       position="22.282222,0.28222228"
       orientation="-22,0"
       id="guide4168" />
    <sodipodi:guide
       position="22.282222,22.282222"
       orientation="0,-22"
       id="guide4170" />
    <sodipodi:guide
       position="6.4911113,3.1044446"
       orientation="16,0"
       id="guide4172" />
    <sodipodi:guide
       position="3.668889,6.4911114"
       orientation="0,16"
       id="guide4174" />
    <sodipodi:guide
       position="19.282222,3.2822227"
       orientation="-16,0"
       id="guide4176" />
    <sodipodi:guide
       position="19.282222,19.282222"
       orientation="0,-16"
       id="guide4178" />
    <sodipodi:guide
       position="1.1288889,5.6444446"
       orientation="16,0"
       id="guide4149" />
    <sodipodi:guide
       position="1.1288889,1.1288891"
       orientation="0,16"
       id="guide4151" />
    <sodipodi:guide
       position="5.6444445,1.1288891"
       orientation="-16,0"
       id="guide4153" />
    <sodipodi:guide
       position="5.6444445,5.6444446"
       orientation="0,-16"
       id="guide4155" />
  </sodipodi:namedview>
  <path
     style="opacity:1;fill:#424854;fill-opacity:1;stroke:none;stroke-width:1.00679123px;stroke-linecap:butt;stroke-linejoin:miter;stroke-miterlimit:4;stroke-dasharray:none;stroke-dashoffset:0;stroke-opacity:1"
     d="m 3.1849219,1.139362 a 2.2577781,2.2577781 0 0 0 -0.3026171,0.049609 2.2577781,2.2577781 0 0 0 -0.029214,0.1581988 2.2577781,2.2577778 0 0 1 0.028663,-0.15875 2.2577781,2.2577781 0 0 0 -0.1157553,0.032522 1.9755555,1.9755555 0 0 1 0.00551,-0.00606 2.257778,2.257778 0 0 0 -0.074414,0.025356 2.2577781,2.2577781 0 0 0 -0.071107,0.024805 2.257778,2.257778 0 0 0 -0.1267795,0.050161 2.2577781,2.2577781 0 0 0 -0.092604,0.041892 2.257778,2.257778 0 0 0 -0.1339453,0.068902 2.2577778,2.2577778 0 0 0 0,5.503e-4 2.2577781,2.2577781 0 0 0 -1.1437717,1.9601222 2.2577781,2.2577781 0 0 0 2.2577779,2.2577778 2.2577781,2.2577781 0 0 0 1.9551605,-1.1388107 2.2577778,2.2577778 0 0 0 0.00662,-0.00386 2.257778,2.257778 0 0 0 0.033073,-0.066146 2.2577781,2.2577781 0 0 0 0.030868,-0.060634 2.257778,2.257778 0 0 0 0.065043,-0.1466232 2.2577781,2.2577781 0 0 0 0.0226,-0.059531 2.257778,2.257778 0 0 0 0.056224,-0.1648132 1.9755555,1.9755555 0 0 1 -0.0022,0.00167 2.2577781,2.2577781 0 0 0 0.030317,-0.1141016 2.2577781,2.2577781 0 0 0 5.644e-4,0 A 2.2577781,2.2577781 0 0 0 5.6345448,3.587879 1.9755558,1.9755558 0 0 1 5.0800002,3.668889 1.9755558,1.9755558 0 0 1 3.1044445,1.6933334 1.9755558,1.9755558 0 0 1 3.1849219,1.139362 Z M 2.8382075,1.4485938 A 2.2577781,2.2577781 0 0 0 2.8222223,1.6933334 2.2577781,2.2577781 0 0 0 3.2791799,3.0504255 L 2.2577779,2.5400001 A 1.9755555,1.9755555 0 0 1 2.4826737,1.6326997 1.9755558,1.9755558 0 0 1 2.8321442,1.4921398 2.2577781,2.2577778 0 0 1 2.8382075,1.4485938 Z M 2.0659549,1.9220877 A 2.2577778,2.2577778 0 0 0 1.9755556,2.5400001 2.2577778,2.2577778 0 0 0 4.2333335,4.7977779 2.2577778,2.2577778 0 0 0 4.8495922,4.7095835 1.9755558,1.9755558 0 0 1 3.3866668,5.3622224 1.9755558,1.9755558 0 0 1 1.4111112,3.3866668 1.9755558,1.9755558 0 0 1 2.0659549,1.9220877 Z m 0.2761589,1.1823568 0.977856,0 A 2.2577781,2.2577781 0 0 0 3.6551087,3.441237 L 3.4302128,4.3424742 A 1.9755555,1.9755555 0 0 1 2.3421138,3.1044445 Z M 3.6887326,3.4671441 A 2.2577781,2.2577781 0 0 0 5.0800002,3.9511112 2.2577781,2.2577781 0 0 0 5.281745,3.9406382 1.9755558,1.9755558 0 0 1 5.1411851,4.2901087 1.9755555,1.9755555 0 0 1 4.2333335,4.5155557 1.9755555,1.9755555 0 0 1 3.945048,4.4918535 L 3.6887326,3.4671441 Z"
     id="path4157"
     inkscape:connector-curvature="0" />
</svg>
