<?xml version="1.0" encoding="UTF-8" standalone="no"?>
<svg
   xmlns:dc="http://purl.org/dc/elements/1.1/"
   xmlns:cc="http://creativecommons.org/ns#"
   xmlns:rdf="http://www.w3.org/1999/02/22-rdf-syntax-ns#"
   xmlns:svg="http://www.w3.org/2000/svg"
   xmlns="http://www.w3.org/2000/svg"
   xmlns:sodipodi="http://sodipodi.sourceforge.net/DTD/sodipodi-0.dtd"
   xmlns:inkscape="http://www.inkscape.org/namespaces/inkscape"
   width="24"
   height="24"
   viewBox="0 0 24 24"
   id="svg2"
   version="1.1"
   inkscape:version="0.91+devel r"
   sodipodi:docname="hipchat.svg">
  <metadata
     id="metadata12">
    <rdf:RDF>
      <cc:Work
         rdf:about="">
        <dc:format>image/svg+xml</dc:format>
        <dc:type
           rdf:resource="http://purl.org/dc/dcmitype/StillImage" />
        <dc:title></dc:title>
      </cc:Work>
    </rdf:RDF>
  </metadata>
  <defs
     id="defs10" />
  <sodipodi:namedview
     pagecolor="#ffffff"
     bordercolor="#666666"
     borderopacity="1"
     objecttolerance="10"
     gridtolerance="10"
     guidetolerance="10"
     inkscape:pageopacity="0"
     inkscape:pageshadow="2"
     inkscape:window-width="2560"
     inkscape:window-height="1024"
     id="namedview8"
     showgrid="true"
     inkscape:showpageshadow="false"
     borderlayer="true"
     showguides="true"
     inkscape:zoom="16"
     inkscape:cx="1.4383784"
     inkscape:cy="14.601245"
     inkscape:window-x="-4"
     inkscape:window-y="29"
     inkscape:window-maximized="1"
     inkscape:current-layer="svg2"
     fit-margin-top="0"
     fit-margin-left="0"
     fit-margin-right="0"
     fit-margin-bottom="0">
    <inkscape:grid
       type="xygrid"
       id="grid4141"
       originx="1"
       originy="1" />
    <sodipodi:guide
       position="1,23"
       orientation="22,0"
       id="guide4147" />
    <sodipodi:guide
       position="1,1"
       orientation="0,22"
       id="guide4149" />
    <sodipodi:guide
       position="23,1"
       orientation="-22,0"
       id="guide4151" />
    <sodipodi:guide
       position="23,23"
       orientation="0,-22"
       id="guide4153" />
    <sodipodi:guide
       position="4,20"
       orientation="16,0"
       id="guide4155" />
    <sodipodi:guide
       position="4,4"
       orientation="0,16"
       id="guide4157" />
    <sodipodi:guide
       position="20,4"
       orientation="-16,0"
       id="guide4159" />
    <sodipodi:guide
       position="20,20"
       orientation="0,-16"
       id="guide4161" />
  </sodipodi:namedview>
  <path
     style="opacity:1;fill:#424854;fill-opacity:1;stroke:none;stroke-width:3.84178424px;stroke-linecap:butt;stroke-linejoin:miter;stroke-miterlimit:4;stroke-dasharray:none;stroke-dashoffset:0;stroke-opacity:1"
     d="m 12,4 a 6.9999981,6.9999981 0 0 0 -7,7 6.9999981,6.9999981 0 0 0 7,7 6.9999981,6.9999981 0 0 0 1.140625,-0.0957 A 3,3 0 0 0 16,20 3,3 0 0 0 16.009766,20 3,3 0 0 1 15,17.757812 3,3 0 0 1 15.041016,17.298828 6.9999981,6.9999981 0 0 0 19,11 6.9999981,6.9999981 0 0 0 12,4 Z m 0,1 a 6,6 0 0 1 6,6 6,6 0 0 1 -6,6 6,6 0 0 1 -6,-6 6,6 0 0 1 6,-6 z m 0,1 0,1 a 4,4 0 0 1 3.326172,1.7832031 L 16.158203,8.2285156 A 5,5 0 0 0 12,6 Z"
     id="path4147"
     inkscape:connector-curvature="0" />
</svg>
