<?xml version="1.0" encoding="UTF-8" standalone="no"?>
<!-- Created with Inkscape (http://www.inkscape.org/) -->

<svg
   xmlns:dc="http://purl.org/dc/elements/1.1/"
   xmlns:cc="http://creativecommons.org/ns#"
   xmlns:rdf="http://www.w3.org/1999/02/22-rdf-syntax-ns#"
   xmlns:svg="http://www.w3.org/2000/svg"
   xmlns="http://www.w3.org/2000/svg"
   xmlns:sodipodi="http://sodipodi.sourceforge.net/DTD/sodipodi-0.dtd"
   xmlns:inkscape="http://www.inkscape.org/namespaces/inkscape"
   width="24"
   height="24"
   id="svg2"
   version="1.1"
   inkscape:version="0.91+devel r"
   viewBox="0 0 24 24"
   sodipodi:docname="indicator-workspaces-3.svg">
  <defs
     id="defs4" />
  <sodipodi:namedview
     id="base"
     pagecolor="#ffffff"
     bordercolor="#666666"
     borderopacity="1.0"
     inkscape:pageopacity="0.0"
     inkscape:pageshadow="2"
     inkscape:zoom="22.627417"
     inkscape:cx="6.686288"
     inkscape:cy="18.532181"
     inkscape:document-units="px"
     inkscape:current-layer="layer1"
     showgrid="true"
     inkscape:showpageshadow="false"
     units="px"
     inkscape:window-width="2560"
     inkscape:window-height="1024"
     inkscape:window-x="-4"
     inkscape:window-y="29"
     inkscape:window-maximized="1"
     showguides="true"
     fit-margin-top="0"
     fit-margin-left="0"
     fit-margin-right="0"
     fit-margin-bottom="0">
    <inkscape:grid
       type="xygrid"
       id="grid4120"
       originx="1"
       originy="0.99998262" />
    <sodipodi:guide
       position="3,21"
       orientation="18,0"
       id="guide4126" />
    <sodipodi:guide
       position="3,3"
       orientation="0,18"
       id="guide4128" />
    <sodipodi:guide
       position="21,3"
       orientation="-18,0"
       id="guide4130" />
    <sodipodi:guide
       position="21,21"
       orientation="0,-18"
       id="guide4132" />
    <sodipodi:guide
       position="4,20"
       orientation="16,0"
       id="guide4134" />
    <sodipodi:guide
       position="4,4"
       orientation="0,16"
       id="guide4136" />
    <sodipodi:guide
       position="20,4"
       orientation="-16,0"
       id="guide4138" />
    <sodipodi:guide
       position="20,20"
       orientation="0,-16"
       id="guide4140" />
    <sodipodi:guide
       position="20,14"
       orientation="-6,0"
       id="guide4199" />
    <sodipodi:guide
       position="20,20"
       orientation="0,-6.0000172"
       id="guide4201" />
  </sodipodi:namedview>
  <metadata
     id="metadata7">
    <rdf:RDF>
      <cc:Work
         rdf:about="">
        <dc:format>image/svg+xml</dc:format>
        <dc:type
           rdf:resource="http://purl.org/dc/dcmitype/StillImage" />
        <dc:title></dc:title>
      </cc:Work>
    </rdf:RDF>
  </metadata>
  <g
     inkscape:label="Capa 1"
     inkscape:groupmode="layer"
     id="layer1"
     transform="translate(1,-1029.3622)">
    <path
       style="color:#000000;text-decoration:none;text-decoration-line:none;text-decoration-style:solid;text-decoration-color:#000000;clip-rule:nonzero;display:inline;overflow:visible;visibility:visible;opacity:1;isolation:auto;mix-blend-mode:normal;color-interpolation:sRGB;color-interpolation-filters:linearRGB;solid-color:#000000;solid-opacity:1;fill:#424854;fill-opacity:1;fill-rule:nonzero;stroke:none;stroke-width:1;stroke-linecap:butt;stroke-linejoin:miter;stroke-miterlimit:4;stroke-dasharray:none;stroke-dashoffset:0;stroke-opacity:1;color-rendering:auto;image-rendering:auto;shape-rendering:auto;text-rendering:auto;enable-background:accumulate"
       d="m 2,3 0,13 7,0 0,2 -1,0 c -0.7410731,0 -1.379047,0.404199 -1.7246094,1 l 9.4492184,0 C 15.379047,18.404199 14.741073,18 14,18 l -1,0 0,-2 7,0 0,-13 z m 1,1 16,0 0,11 -16,0 z m 7,12 2,0 0,2 -2,0 z"
       transform="translate(0,1030.3622)"
       id="rect4146"
       inkscape:connector-curvature="0"
       sodipodi:nodetypes="ccccsccsccccccccccccccc" />
    <path
       style="opacity:1;fill:#424854;fill-opacity:1;stroke:none;stroke-width:3.56737041px;stroke-linecap:butt;stroke-linejoin:miter;stroke-miterlimit:4;stroke-dasharray:none;stroke-dashoffset:0;stroke-opacity:1"
       d="m 10.992188,1037.3622 c -0.166013,6e-4 -0.324574,0.028 -0.478516,0.066 -0.02383,0.01 -0.04668,0.014 -0.07031,0.022 C 9.6099365,1037.6914 9,1038.449 9,1039.3622 l 1,0 c 0,-0.276 0.111397,-0.5245 0.291016,-0.7051 l 0.002,0 c 0.0968,-0.096 0.209538,-0.1679 0.328125,-0.2168 0.120989,-0.05 0.248275,-0.076 0.376953,-0.076 0.06391,0 0.124536,0.025 0.1875,0.037 0.06281,0.012 0.129541,0.014 0.1875,0.037 0.120322,0.049 0.234097,0.1228 0.332031,0.2207 0.09793,0.098 0.171736,0.2117 0.220703,0.3321 0.0065,0.016 0.0041,0.036 0.0098,0.053 0.120361,0.3496 0.04958,0.7493 -0.230469,1.0293 -0.129857,0.1069 -0.229077,0.1903 -0.351562,0.291 l 1.36914,0 c 0.180041,-0.3096 0.277681,-0.6532 0.277344,-1 -1.5e-5,-0.016 -0.0035,-0.031 -0.0039,-0.047 -0.0028,-0.114 -0.01284,-0.2275 -0.03516,-0.3398 -0.02047,-0.1052 -0.05367,-0.2042 -0.08984,-0.3028 -0.0072,-0.02 -0.0098,-0.041 -0.01758,-0.061 -5.44e-4,0 -0.0014,0 -0.002,0 -0.202358,-0.4984 -0.599223,-0.8953 -1.097656,-1.0977 -0.0013,-5e-4 -0.0026,0 -0.0039,0 -0.01961,-0.01 -0.04075,-0.01 -0.06055,-0.018 -0.09853,-0.036 -0.197525,-0.069 -0.302734,-0.09 -0.11236,-0.022 -0.225764,-0.032 -0.339844,-0.035 -0.01632,-4e-4 -0.03247,0 -0.04883,0 l -0.0059,0 z"
       id="rect4151"
       inkscape:connector-curvature="0" />
    <path
       id="path4156"
       d="m 10.992188,1043.3622 c -0.166013,-6e-4 -0.324574,-0.028 -0.478516,-0.066 -0.02383,-0.01 -0.04668,-0.014 -0.07031,-0.022 C 9.6099365,1043.0332 9,1042.2762 9,1041.3637 l 1,0 c 0,0.2758 0.111397,0.5241 0.291016,0.7045 l 0.002,0 c 0.0968,0.096 0.209538,0.1678 0.328125,0.2167 0.120989,0.05 0.248275,0.076 0.376953,0.076 0.06391,0 0.124536,-0.025 0.1875,-0.037 0.06281,-0.012 0.129541,-0.014 0.1875,-0.037 0.120322,-0.049 0.234097,-0.1227 0.332031,-0.2205 0.09793,-0.098 0.171736,-0.2116 0.220703,-0.3319 0.0065,-0.016 0.0041,-0.036 0.0098,-0.053 0.120361,-0.3493 0.04958,-0.7487 -0.230469,-1.0285 -0.129857,-0.1068 -0.229077,-0.1902 -0.351562,-0.2908 l 1.36914,0 c 0.180041,0.3094 0.277681,0.6527 0.277344,0.9993 -1.5e-5,0.016 -0.0035,0.031 -0.0039,0.047 -0.0028,0.1139 -0.01284,0.2274 -0.03516,0.3396 -0.02047,0.1051 -0.05367,0.204 -0.08984,0.3026 -0.0072,0.02 -0.0098,0.041 -0.01758,0.061 -5.44e-4,0 -0.0014,0 -0.002,0 -0.202358,0.4981 -0.599223,0.8947 -1.097656,1.0969 -0.0013,5e-4 -0.0026,0 -0.0039,0 -0.01961,0.01 -0.04075,0.01 -0.06055,0.018 -0.09853,0.036 -0.197525,0.069 -0.302734,0.09 -0.11236,0.022 -0.225764,0.032 -0.339844,0.035 -0.01632,4e-4 -0.03247,0 -0.04883,0 l -0.0059,0 z"
       style="opacity:1;fill:#424854;fill-opacity:1;stroke:none;stroke-width:3.56606317px;stroke-linecap:butt;stroke-linejoin:miter;stroke-miterlimit:4;stroke-dasharray:none;stroke-dashoffset:0;stroke-opacity:1"
       inkscape:connector-curvature="0" />
  </g>
</svg>
