<?xml version="1.0" encoding="UTF-8" standalone="no"?>
<!-- Created with Inkscape (http://www.inkscape.org/) -->

<svg
   xmlns:dc="http://purl.org/dc/elements/1.1/"
   xmlns:cc="http://creativecommons.org/ns#"
   xmlns:rdf="http://www.w3.org/1999/02/22-rdf-syntax-ns#"
   xmlns:svg="http://www.w3.org/2000/svg"
   xmlns="http://www.w3.org/2000/svg"
   xmlns:sodipodi="http://sodipodi.sourceforge.net/DTD/sodipodi-0.dtd"
   xmlns:inkscape="http://www.inkscape.org/namespaces/inkscape"
   width="24"
   height="24"
   id="svg2"
   version="1.1"
   inkscape:version="0.91+devel r"
   viewBox="0 0 24 24"
   sodipodi:docname="indicator-workspaces-2.svg">
  <defs
     id="defs4" />
  <sodipodi:namedview
     id="base"
     pagecolor="#ffffff"
     bordercolor="#666666"
     borderopacity="1.0"
     inkscape:pageopacity="0.0"
     inkscape:pageshadow="2"
     inkscape:zoom="22.627417"
     inkscape:cx="9.1833689"
     inkscape:cy="11.420504"
     inkscape:document-units="px"
     inkscape:current-layer="layer1"
     showgrid="true"
     inkscape:showpageshadow="false"
     units="px"
     inkscape:window-width="2560"
     inkscape:window-height="1024"
     inkscape:window-x="-4"
     inkscape:window-y="29"
     inkscape:window-maximized="1"
     showguides="true"
     fit-margin-top="0"
     fit-margin-left="0"
     fit-margin-right="0"
     fit-margin-bottom="0">
    <inkscape:grid
       type="xygrid"
       id="grid4120"
       originx="1"
       originy="0.99998262" />
    <sodipodi:guide
       position="3,21"
       orientation="18,0"
       id="guide4126" />
    <sodipodi:guide
       position="3,3"
       orientation="0,18"
       id="guide4128" />
    <sodipodi:guide
       position="21,3"
       orientation="-18,0"
       id="guide4130" />
    <sodipodi:guide
       position="21,21"
       orientation="0,-18"
       id="guide4132" />
    <sodipodi:guide
       position="4,20"
       orientation="16,0"
       id="guide4134" />
    <sodipodi:guide
       position="4,4"
       orientation="0,16"
       id="guide4136" />
    <sodipodi:guide
       position="20,4"
       orientation="-16,0"
       id="guide4138" />
    <sodipodi:guide
       position="20,20"
       orientation="0,-16"
       id="guide4140" />
    <sodipodi:guide
       position="20,14"
       orientation="-6,0"
       id="guide4199" />
    <sodipodi:guide
       position="20,20"
       orientation="0,-6.0000172"
       id="guide4201" />
  </sodipodi:namedview>
  <metadata
     id="metadata7">
    <rdf:RDF>
      <cc:Work
         rdf:about="">
        <dc:format>image/svg+xml</dc:format>
        <dc:type
           rdf:resource="http://purl.org/dc/dcmitype/StillImage" />
        <dc:title></dc:title>
      </cc:Work>
    </rdf:RDF>
  </metadata>
  <g
     inkscape:label="Capa 1"
     inkscape:groupmode="layer"
     id="layer1"
     transform="translate(1,-1029.3622)">
    <path
       style="color:#000000;text-decoration:none;text-decoration-line:none;text-decoration-style:solid;text-decoration-color:#000000;clip-rule:nonzero;display:inline;overflow:visible;visibility:visible;opacity:1;isolation:auto;mix-blend-mode:normal;color-interpolation:sRGB;color-interpolation-filters:linearRGB;solid-color:#000000;solid-opacity:1;fill:#424854;fill-opacity:1;fill-rule:nonzero;stroke:none;stroke-width:1;stroke-linecap:butt;stroke-linejoin:miter;stroke-miterlimit:4;stroke-dasharray:none;stroke-dashoffset:0;stroke-opacity:1;color-rendering:auto;image-rendering:auto;shape-rendering:auto;text-rendering:auto;enable-background:accumulate"
       d="m 2,3 0,13 7,0 0,2 -1,0 c -0.7410731,0 -1.379047,0.404199 -1.7246094,1 l 9.4492184,0 C 15.379047,18.404199 14.741073,18 14,18 l -1,0 0,-2 7,0 0,-13 z m 1,1 16,0 0,11 -16,0 z m 7,12 2,0 0,2 -2,0 z"
       transform="translate(0,1030.3622)"
       id="rect4146"
       inkscape:connector-curvature="0"
       sodipodi:nodetypes="ccccsccsccccccccccccccc" />
    <path
       style="opacity:1;fill:#424854;fill-opacity:1;stroke:none;stroke-width:3.56737041px;stroke-linecap:butt;stroke-linejoin:miter;stroke-miterlimit:4;stroke-dasharray:none;stroke-dashoffset:0;stroke-opacity:1"
       d="m 10.992188,7 c -0.166012,6.391e-4 -0.324574,0.027996 -0.478516,0.066406 -0.02383,0.00628 -0.04668,0.014305 -0.07031,0.021484 C 9.6099391,7.32915 9,8.086772 9,9 l 1,0 c 0,-0.2760175 0.111397,-0.5244803 0.291016,-0.7050781 l 0.002,-0.00195 C 10.389816,8.1966769 10.502554,8.1250772 10.621141,8.076175 10.74213,8.0262596 10.869369,8 10.998047,8 c 0.06391,0 0.124536,0.024765 0.1875,0.037109 0.06281,0.012134 0.129541,0.013879 0.1875,0.037109 0.120322,0.049243 0.234097,0.1227531 0.332031,0.2207031 0.09793,0.097925 0.171736,0.2117035 0.220703,0.3320312 0.0065,0.016261 0.0041,0.036059 0.0098,0.052734 0.120361,0.3496621 0.04958,0.7492733 -0.230469,1.0292969 C 10.661413,10.568539 9.8778555,11.201015 9,12 l 4,0 0,-1 -1.314453,0 0.726562,-0.583984 C 12.804344,10.023768 13.000498,9.5118052 13,9 12.999985,8.984293 12.9965,8.968828 12.9961,8.953125 12.9933,8.8390612 12.98326,8.7256366 12.96094,8.6132812 12.94047,8.5080715 12.90727,8.4090721 12.8711,8.3105469 c -0.0072,-0.019688 -0.0098,-0.041159 -0.01758,-0.060547 -5.44e-4,-0.00134 -0.0014,-0.00257 -0.002,-0.00391 -0.202358,-0.4984329 -0.599223,-0.8952983 -1.097656,-1.0976563 -0.0013,-5.373e-4 -0.0026,-0.00142 -0.0039,-0.00195 -0.01961,-0.00799 -0.04075,-0.010243 -0.06055,-0.017578 C 11.590884,7.0927316 11.491889,7.0595306 11.38668,7.0390616 11.27432,7.0167246 11.160916,7.0067066 11.046836,7.0039056 11.030521,7.0035046 11.014405,7 10.998047,7 Z"
       transform="translate(0,1030.3622)"
       id="rect4151"
       inkscape:connector-curvature="0"
       sodipodi:nodetypes="cccccccsscccccccccccccccccccccssc" />
  </g>
</svg>
