<?xml version="1.0" encoding="UTF-8" standalone="no"?>
<!-- Created with Inkscape (http://www.inkscape.org/) -->

<svg
   xmlns:dc="http://purl.org/dc/elements/1.1/"
   xmlns:cc="http://creativecommons.org/ns#"
   xmlns:rdf="http://www.w3.org/1999/02/22-rdf-syntax-ns#"
   xmlns:svg="http://www.w3.org/2000/svg"
   xmlns="http://www.w3.org/2000/svg"
   xmlns:sodipodi="http://sodipodi.sourceforge.net/DTD/sodipodi-0.dtd"
   xmlns:inkscape="http://www.inkscape.org/namespaces/inkscape"
   width="24"
   height="24"
   id="svg2"
   version="1.1"
   inkscape:version="0.91+devel r"
   viewBox="0 0 24 24"
   sodipodi:docname="indicator-weather.svg">
  <defs
     id="defs4">
    <clipPath
       id="clipPath6">
      <rect
         id="rect8"
         style="fill:#ffff00"
         height="208.571"
         y="1580.934"
         x="-830"
         width="477.14301" />
    </clipPath>
    <clipPath
       id="clipPath10">
      <rect
         id="rect12"
         style="fill:#ffff00"
         height="208.571"
         y="1580.934"
         x="-830"
         width="477.14301" />
    </clipPath>
    <clipPath
       id="clipPath14">
      <rect
         id="rect16"
         style="fill:#ffff00"
         height="208.571"
         y="1580.934"
         x="-830"
         width="477.14301" />
    </clipPath>
    <clipPath
       id="clipPath18">
      <rect
         id="rect20"
         style="fill:#ffff00"
         height="208.571"
         y="1580.934"
         x="-830"
         width="477.14301" />
    </clipPath>
    <clipPath
       id="clipPath22">
      <rect
         id="rect24"
         style="fill:#ffff00"
         height="208.571"
         y="1580.934"
         x="-830"
         width="477.14301" />
    </clipPath>
    <clipPath
       id="clipPath26">
      <rect
         id="rect28"
         style="fill:#ffff00"
         height="208.571"
         y="1580.934"
         x="-830"
         width="477.14301" />
    </clipPath>
  </defs>
  <sodipodi:namedview
     id="base"
     pagecolor="#ffffff"
     bordercolor="#666666"
     borderopacity="1.0"
     inkscape:pageopacity="0.0"
     inkscape:pageshadow="2"
     inkscape:zoom="17.788374"
     inkscape:cx="5.8519464"
     inkscape:cy="16.363217"
     inkscape:document-units="px"
     inkscape:current-layer="layer1"
     showgrid="true"
     inkscape:showpageshadow="false"
     units="px"
     inkscape:window-width="2560"
     inkscape:window-height="1024"
     inkscape:window-x="-4"
     inkscape:window-y="29"
     inkscape:window-maximized="1"
     showguides="true"
     fit-margin-top="0"
     fit-margin-left="0"
     fit-margin-right="0"
     fit-margin-bottom="0">
    <inkscape:grid
       type="xygrid"
       id="grid4120"
       originx="1"
       originy="0.99998262" />
    <sodipodi:guide
       position="3,21"
       orientation="18,0"
       id="guide4126" />
    <sodipodi:guide
       position="3,3"
       orientation="0,18"
       id="guide4128" />
    <sodipodi:guide
       position="21,3"
       orientation="-18,0"
       id="guide4130" />
    <sodipodi:guide
       position="21,21"
       orientation="0,-18"
       id="guide4132" />
    <sodipodi:guide
       position="4,20"
       orientation="16,0"
       id="guide4134" />
    <sodipodi:guide
       position="4,4"
       orientation="0,16"
       id="guide4136" />
    <sodipodi:guide
       position="20,4"
       orientation="-16,0"
       id="guide4138" />
    <sodipodi:guide
       position="20,20"
       orientation="0,-16"
       id="guide4140" />
    <sodipodi:guide
       position="20,14"
       orientation="-6,0"
       id="guide4199" />
    <sodipodi:guide
       position="20,20"
       orientation="0,-6.0000172"
       id="guide4201" />
  </sodipodi:namedview>
  <metadata
     id="metadata7">
    <rdf:RDF>
      <cc:Work
         rdf:about="">
        <dc:format>image/svg+xml</dc:format>
        <dc:type
           rdf:resource="http://purl.org/dc/dcmitype/StillImage" />
        <dc:title></dc:title>
      </cc:Work>
    </rdf:RDF>
  </metadata>
  <g
     inkscape:label="Capa 1"
     inkscape:groupmode="layer"
     id="layer1"
     transform="translate(1,-1029.3622)">
    <path
       style="opacity:1;fill:#424854;fill-opacity:1;stroke:none;stroke-width:3.56737041px;stroke-linecap:butt;stroke-linejoin:miter;stroke-miterlimit:4;stroke-dasharray:none;stroke-dashoffset:0;stroke-opacity:1"
       d="m 10.5,3 0,2 1,0 0,-2 -1,0 z M 5.6972656,4.9902344 4.9902344,5.6972656 6.4042969,7.1113281 7.1113281,6.4042969 5.6972656,4.9902344 Z m 10.6054684,0 -1.414062,1.4140625 0.707031,0.7070312 1.414063,-1.4140625 -0.707032,-0.7070312 z M 11,6 a 5,5 0 0 0 -5,5 5,5 0 0 0 5,5 5,5 0 0 0 5,-5 5,5 0 0 0 -5,-5 z m 0,1 a 4,4 0 0 1 4,4 4,4 0 0 1 -4,4 4,4 0 0 1 -4,-4 4,4 0 0 1 4,-4 z m 0,1 a 3,3 0 0 0 -3,3 l 1,0 a 2,2 0 0 1 2,-2 l 0,-1 z m -8,2.5 0,1 2,0 0,-1 -2,0 z m 14,0 0,1 2,0 0,-1 -2,0 z M 6.4042969,14.888672 4.9902344,16.302734 5.6972656,17.009766 7.1113281,15.595703 6.4042969,14.888672 Z m 9.1914061,0 -0.707031,0.707031 1.414062,1.414063 0.707032,-0.707032 -1.414063,-1.414062 z M 10.5,17 l 0,2 1,0 0,-2 -1,0 z"
       transform="translate(0,1030.3622)"
       id="path4209"
       inkscape:connector-curvature="0" />
  </g>
</svg>
