<?xml version="1.0" encoding="UTF-8" standalone="no"?>
<!-- Created with Inkscape (http://www.inkscape.org/) -->

<svg
   xmlns:dc="http://purl.org/dc/elements/1.1/"
   xmlns:cc="http://creativecommons.org/ns#"
   xmlns:rdf="http://www.w3.org/1999/02/22-rdf-syntax-ns#"
   xmlns:svg="http://www.w3.org/2000/svg"
   xmlns="http://www.w3.org/2000/svg"
   xmlns:sodipodi="http://sodipodi.sourceforge.net/DTD/sodipodi-0.dtd"
   xmlns:inkscape="http://www.inkscape.org/namespaces/inkscape"
   width="24"
   height="24"
   id="svg2"
   version="1.1"
   inkscape:version="0.91+devel r"
   viewBox="0 0 24 24"
   sodipodi:docname="insync-normal.svg">
  <defs
     id="defs4" />
  <sodipodi:namedview
     id="base"
     pagecolor="#ffffff"
     bordercolor="#666666"
     borderopacity="1.0"
     inkscape:pageopacity="0.0"
     inkscape:pageshadow="2"
     inkscape:zoom="25.15656"
     inkscape:cx="2.9418249"
     inkscape:cy="9.7055112"
     inkscape:document-units="px"
     inkscape:current-layer="layer1"
     showgrid="true"
     inkscape:showpageshadow="false"
     units="px"
     inkscape:window-width="2560"
     inkscape:window-height="1024"
     inkscape:window-x="-4"
     inkscape:window-y="29"
     inkscape:window-maximized="1"
     showguides="true"
     fit-margin-top="0"
     fit-margin-left="0"
     fit-margin-right="0"
     fit-margin-bottom="0">
    <inkscape:grid
       type="xygrid"
       id="grid4120"
       originx="1"
       originy="0.99998262" />
    <sodipodi:guide
       position="3,21"
       orientation="18,0"
       id="guide4126" />
    <sodipodi:guide
       position="3,3"
       orientation="0,18"
       id="guide4128" />
    <sodipodi:guide
       position="21,3"
       orientation="-18,0"
       id="guide4130" />
    <sodipodi:guide
       position="21,21"
       orientation="0,-18"
       id="guide4132" />
    <sodipodi:guide
       position="4,20"
       orientation="16,0"
       id="guide4134" />
    <sodipodi:guide
       position="4,4"
       orientation="0,16"
       id="guide4136" />
    <sodipodi:guide
       position="20,4"
       orientation="-16,0"
       id="guide4138" />
    <sodipodi:guide
       position="20,20"
       orientation="0,-16"
       id="guide4140" />
    <sodipodi:guide
       position="20,14"
       orientation="-6,0"
       id="guide4199" />
    <sodipodi:guide
       position="20,20"
       orientation="0,-6.0000172"
       id="guide4201" />
  </sodipodi:namedview>
  <metadata
     id="metadata7">
    <rdf:RDF>
      <cc:Work
         rdf:about="">
        <dc:format>image/svg+xml</dc:format>
        <dc:type
           rdf:resource="http://purl.org/dc/dcmitype/StillImage" />
        <dc:title></dc:title>
      </cc:Work>
    </rdf:RDF>
  </metadata>
  <g
     inkscape:label="Capa 1"
     inkscape:groupmode="layer"
     id="layer1"
     transform="translate(1,-1029.3622)">
    <path
       style="opacity:1;fill:#424854;fill-opacity:1;stroke:none;stroke-width:3.56737041px;stroke-linecap:butt;stroke-linejoin:miter;stroke-miterlimit:4;stroke-dasharray:none;stroke-dashoffset:0;stroke-opacity:1"
       d="M 15.5,3 A 9.5,9.5 0 0 0 6,12.5 9.5,9.5 0 0 0 6.0253906,13 l 0.9921875,0 A 8.5,8.5 0 0 1 7,12.5 8.5,8.5 0 0 1 15.5,4 8.5,8.5 0 0 1 16,4.0253906 L 16,3.0175781 A 9.5,9.5 0 0 0 15.5,3 Z m 0,3 A 6.5,6.5 0 0 0 9,12.5 6.5,6.5 0 0 0 9.0253906,13 l 1.0019534,0 A 5.5,5.5 0 0 1 10,12.5 5.5,5.5 0 0 1 15.5,7 5.5,5.5 0 0 1 16,7.0253906 L 16,6.0214844 A 6.5,6.5 0 0 0 15.5,6 Z m -1,4 A 1.5,1.5 0 0 0 13,11.5 1.5,1.5 0 0 0 14.5,13 1.5,1.5 0 0 0 16,11.5 1.5,1.5 0 0 0 14.5,10 Z m 0,1 A 0.5,0.5 0 0 1 15,11.5 0.5,0.5 0 0 1 14.5,12 0.5,0.5 0 0 1 14,11.5 0.5,0.5 0 0 1 14.5,11 Z m -0.5,3 0,5 1,0 0,-5 -1,0 z"
       transform="translate(0,1030.3622)"
       id="path4168"
       inkscape:connector-curvature="0" />
  </g>
</svg>
