<?xml version="1.0" encoding="UTF-8" standalone="no"?>
<svg
   xmlns:dc="http://purl.org/dc/elements/1.1/"
   xmlns:cc="http://creativecommons.org/ns#"
   xmlns:rdf="http://www.w3.org/1999/02/22-rdf-syntax-ns#"
   xmlns:svg="http://www.w3.org/2000/svg"
   xmlns="http://www.w3.org/2000/svg"
   xmlns:sodipodi="http://sodipodi.sourceforge.net/DTD/sodipodi-0.dtd"
   xmlns:inkscape="http://www.inkscape.org/namespaces/inkscape"
   width="24"
   viewBox="0 0 24 24"
   height="24"
   id="svg2"
   version="1.1"
   inkscape:version="0.91+devel r"
   sodipodi:docname="owncloud-client.svg">
  <metadata
     id="metadata28">
    <rdf:RDF>
      <cc:Work
         rdf:about="">
        <dc:format>image/svg+xml</dc:format>
        <dc:type
           rdf:resource="http://purl.org/dc/dcmitype/StillImage" />
        <dc:title></dc:title>
      </cc:Work>
    </rdf:RDF>
  </metadata>
  <sodipodi:namedview
     pagecolor="#ffffff"
     bordercolor="#666666"
     borderopacity="1"
     objecttolerance="10"
     gridtolerance="10000"
     guidetolerance="10000"
     inkscape:pageopacity="0"
     inkscape:pageshadow="2"
     inkscape:window-width="2560"
     inkscape:window-height="1024"
     id="namedview26"
     showgrid="true"
     inkscape:showpageshadow="false"
     borderlayer="true"
     inkscape:zoom="22.627417"
     inkscape:cx="13.043573"
     inkscape:cy="12.256994"
     inkscape:window-x="-4"
     inkscape:window-y="29"
     inkscape:window-maximized="1"
     inkscape:current-layer="svg2"
     fit-margin-top="0"
     fit-margin-left="0"
     fit-margin-right="0"
     fit-margin-bottom="0">
    <inkscape:grid
       type="xygrid"
       id="grid4157"
       originx="1"
       originy="1" />
    <sodipodi:guide
       position="1,23"
       orientation="22,0"
       id="guide4163" />
    <sodipodi:guide
       position="1,1"
       orientation="0,22"
       id="guide4165" />
    <sodipodi:guide
       position="23,1"
       orientation="-22,0"
       id="guide4167" />
    <sodipodi:guide
       position="23,23"
       orientation="0,-22"
       id="guide4169" />
    <sodipodi:guide
       position="4,20"
       orientation="16,0"
       id="guide4171" />
    <sodipodi:guide
       position="4,4"
       orientation="0,16"
       id="guide4173" />
    <sodipodi:guide
       position="20,4"
       orientation="-16,0"
       id="guide4175" />
    <sodipodi:guide
       position="20,20"
       orientation="0,-16"
       id="guide4177" />
  </sodipodi:namedview>
  <defs
     id="defs4" />
  <path
     style="opacity:1;fill:#424854;fill-opacity:1;stroke:none;stroke-width:3.56737041px;stroke-linecap:butt;stroke-linejoin:miter;stroke-miterlimit:4;stroke-dasharray:none;stroke-dashoffset:0;stroke-opacity:1"
     d="M 11,7 A 3,3 0 0 0 8.484375,8.3691406 1.5,1.5 0 0 0 7.5,8 1.5,1.5 0 0 0 6,9.5 1.5,1.5 0 0 0 6.3691406,10.482422 3,3 0 0 0 5.1660156,12.025391 2.5,2.5 0 0 0 3,14.5 2.5,2.5 0 0 0 5.5,17 2.5,2.5 0 0 0 7.2324219,16.300781 1.5,1.5 0 0 0 8.5,17 1.5,1.5 0 0 0 9.8691406,16.109375 3,3 0 0 0 12,17 3,3 0 0 0 14,16.232422 3,3 0 0 0 16,17 3,3 0 0 0 18.130859,16.107422 1.5,1.5 0 0 0 19.5,17 1.5,1.5 0 0 0 21,15.5 1.5,1.5 0 0 0 19.5,14 1.5,1.5 0 0 0 18.996094,14.089844 3,3 0 0 0 19,14 3,3 0 0 0 16.869141,11.130859 3,3 0 0 0 14,9 3,3 0 0 0 13.828125,9.0058594 3,3 0 0 0 11,7 Z"
     id="path4159"
     inkscape:connector-curvature="0" />
</svg>
