<?xml version="1.0" encoding="UTF-8" standalone="no"?>
<svg
   xmlns:dc="http://purl.org/dc/elements/1.1/"
   xmlns:cc="http://creativecommons.org/ns#"
   xmlns:rdf="http://www.w3.org/1999/02/22-rdf-syntax-ns#"
   xmlns:svg="http://www.w3.org/2000/svg"
   xmlns="http://www.w3.org/2000/svg"
   xmlns:sodipodi="http://sodipodi.sourceforge.net/DTD/sodipodi-0.dtd"
   xmlns:inkscape="http://www.inkscape.org/namespaces/inkscape"
   width="24"
   height="24"
   viewBox="0 0 24 24"
   id="svg2"
   version="1.1"
   inkscape:version="0.91+devel r"
   sodipodi:docname="pamac-delete.svg">
  <metadata
     id="metadata10">
    <rdf:RDF>
      <cc:Work
         rdf:about="">
        <dc:format>image/svg+xml</dc:format>
        <dc:type
           rdf:resource="http://purl.org/dc/dcmitype/StillImage" />
        <dc:title></dc:title>
      </cc:Work>
    </rdf:RDF>
  </metadata>
  <defs
     id="defs8">
    <linearGradient
       id="linearGradient3257">
      <stop
         id="stop3259"
         style="stop-color:#a50000;stop-opacity:1"
         offset="0" />
      <stop
         id="stop3261"
         style="stop-color:#e73800;stop-opacity:1"
         offset="1" />
    </linearGradient>
  </defs>
  <sodipodi:namedview
     pagecolor="#ffffff"
     bordercolor="#666666"
     borderopacity="1"
     objecttolerance="10"
     gridtolerance="10"
     guidetolerance="10"
     inkscape:pageopacity="0"
     inkscape:pageshadow="2"
     inkscape:window-width="2560"
     inkscape:window-height="1024"
     id="namedview6"
     showgrid="true"
     inkscape:showpageshadow="false"
     borderlayer="true"
     inkscape:zoom="22.627417"
     inkscape:cx="-4.0079579"
     inkscape:cy="12.23664"
     inkscape:window-x="-4"
     inkscape:window-y="29"
     inkscape:window-maximized="1"
     inkscape:current-layer="svg2"
     fit-margin-top="0"
     fit-margin-left="0"
     fit-margin-right="0"
     fit-margin-bottom="0">
    <inkscape:grid
       type="xygrid"
       id="grid4139"
       originx="1"
       originy="1" />
    <sodipodi:guide
       position="1,23"
       orientation="22,0"
       id="guide4161" />
    <sodipodi:guide
       position="1,1"
       orientation="0,22"
       id="guide4163" />
    <sodipodi:guide
       position="23,1"
       orientation="-22,0"
       id="guide4165" />
    <sodipodi:guide
       position="23,23"
       orientation="0,-22"
       id="guide4167" />
    <sodipodi:guide
       position="4,20"
       orientation="16,0"
       id="guide4169" />
    <sodipodi:guide
       position="4,4"
       orientation="0,16"
       id="guide4171" />
    <sodipodi:guide
       position="20,4"
       orientation="-16,0"
       id="guide4173" />
    <sodipodi:guide
       position="20,20"
       orientation="0,-16"
       id="guide4175" />
  </sodipodi:namedview>
  <path
     style="color:#000000;text-decoration:none;text-decoration-line:none;text-decoration-style:solid;text-decoration-color:#000000;clip-rule:nonzero;display:inline;overflow:visible;visibility:visible;opacity:1;isolation:auto;mix-blend-mode:normal;color-interpolation:sRGB;color-interpolation-filters:linearRGB;solid-color:#000000;solid-opacity:1;fill:#f92d36;fill-opacity:1;fill-rule:nonzero;stroke:none;stroke-width:1;stroke-linecap:butt;stroke-linejoin:miter;stroke-miterlimit:4;stroke-dasharray:none;stroke-dashoffset:0;stroke-opacity:1;color-rendering:auto;image-rendering:auto;shape-rendering:auto;text-rendering:auto;enable-background:accumulate"
     d="M 8,4 8,4.0039062 5,7 4,8 11,8 11,7 11,4 8,4 Z m 5,0 0,4 7,0 L 16,4.0039062 16,4 14,4 13,4 Z M 8.4160156,5 10,5 10,7 6.4140625,7 8.4160156,5 Z M 14,5 15.583984,5 17.585938,7 14,7 14,5 Z m -10,4 0,1 0,3 1,0 0,-3 14,0 0,9 -7,0 0,1 8,0 0,-1 0,-9 0,-1 -16,0 z m 3.5,4 A 3.5,3.5 0 0 0 4,16.5 3.5,3.5 0 0 0 7.5,20 3.5,3.5 0 0 0 11,16.5 3.5,3.5 0 0 0 7.5,13 Z m 0,1 A 2.5,2.5 0 0 1 10,16.5 2.5,2.5 0 0 1 9.5839844,17.876953 L 6.1230469,14.416016 A 2.5,2.5 0 0 1 7.5,14 Z m -2.0839844,1.123047 3.4609375,3.460937 A 2.5,2.5 0 0 1 7.5,19 2.5,2.5 0 0 1 5,16.5 2.5,2.5 0 0 1 5.4160156,15.123047 Z"
     id="rect4177"
     inkscape:connector-curvature="0" />
</svg>
