<?xml version="1.0" encoding="UTF-8" standalone="no"?>
<svg
   xmlns:dc="http://purl.org/dc/elements/1.1/"
   xmlns:cc="http://creativecommons.org/ns#"
   xmlns:rdf="http://www.w3.org/1999/02/22-rdf-syntax-ns#"
   xmlns:svg="http://www.w3.org/2000/svg"
   xmlns="http://www.w3.org/2000/svg"
   xmlns:sodipodi="http://sodipodi.sourceforge.net/DTD/sodipodi-0.dtd"
   xmlns:inkscape="http://www.inkscape.org/namespaces/inkscape"
   width="24"
   height="24"
   viewBox="0 0 24 24"
   id="svg2"
   version="1.1"
   inkscape:version="0.91+devel r"
   sodipodi:docname="psensor.svg">
  <metadata
     id="metadata10">
    <rdf:RDF>
      <cc:Work
         rdf:about="">
        <dc:format>image/svg+xml</dc:format>
        <dc:type
           rdf:resource="http://purl.org/dc/dcmitype/StillImage" />
        <dc:title></dc:title>
      </cc:Work>
    </rdf:RDF>
  </metadata>
  <defs
     id="defs8">
    <linearGradient
       id="linearGradient3257">
      <stop
         id="stop3259"
         style="stop-color:#a50000;stop-opacity:1"
         offset="0" />
      <stop
         id="stop3261"
         style="stop-color:#e73800;stop-opacity:1"
         offset="1" />
    </linearGradient>
  </defs>
  <sodipodi:namedview
     pagecolor="#ffffff"
     bordercolor="#666666"
     borderopacity="1"
     objecttolerance="10"
     gridtolerance="10000"
     guidetolerance="10000"
     inkscape:pageopacity="0"
     inkscape:pageshadow="2"
     inkscape:window-width="2560"
     inkscape:window-height="1024"
     id="namedview6"
     showgrid="true"
     inkscape:showpageshadow="false"
     borderlayer="true"
     inkscape:zoom="22.627417"
     inkscape:cx="-10.370857"
     inkscape:cy="10.442757"
     inkscape:window-x="-4"
     inkscape:window-y="29"
     inkscape:window-maximized="1"
     inkscape:current-layer="svg2"
     fit-margin-top="0"
     fit-margin-left="0"
     fit-margin-right="0"
     fit-margin-bottom="0">
    <inkscape:grid
       type="xygrid"
       id="grid4139"
       originx="1"
       originy="1" />
    <sodipodi:guide
       position="1,23"
       orientation="22,0"
       id="guide4161" />
    <sodipodi:guide
       position="1,1"
       orientation="0,22"
       id="guide4163" />
    <sodipodi:guide
       position="23,1"
       orientation="-22,0"
       id="guide4165" />
    <sodipodi:guide
       position="23,23"
       orientation="0,-22"
       id="guide4167" />
    <sodipodi:guide
       position="4,20"
       orientation="16,0"
       id="guide4169" />
    <sodipodi:guide
       position="4,4"
       orientation="0,16"
       id="guide4171" />
    <sodipodi:guide
       position="20,4"
       orientation="-16,0"
       id="guide4173" />
    <sodipodi:guide
       position="20,20"
       orientation="0,-16"
       id="guide4175" />
  </sodipodi:namedview>
  <path
     style="opacity:1;fill:#424854;fill-opacity:1;stroke:none;stroke-width:3.56737041px;stroke-linecap:butt;stroke-linejoin:miter;stroke-miterlimit:4;stroke-dasharray:none;stroke-dashoffset:0;stroke-opacity:1"
     d="m 11,4 c -0.554,0 -1,0.446 -1,1 l 0,9.767578 A 3,3 0 0 0 9,17 a 3,3 0 0 0 3,3 3,3 0 0 0 3,-3 3,3 0 0 0 -1,-2.230469 L 14,14 l 0,-1 -1,0 0,-1 0,-1 1,0 0,-1 -1,0 0,-1 0,-1 1,0 0,-1 -1,0 0,-1 -1,0 0,1 0,1 0,1 0,1 0,1 0,1 0,1 0,1 a 3,3 0 0 0 -1,0.175781 L 11,5 l 2,0 0,1 1,0 0,-1 C 14,4.446 13.554,4 13,4 l -2,0 z m 0.951172,11 A 2,2 0 0 1 12,15 a 2,2 0 0 1 1,0.269531 l 0,0.002 c 0.326586,0.188305 0.590641,0.462685 0.765625,0.791016 a 2,2 0 0 1 0,0.002 c 0.05429,0.10208 0.09858,0.210988 0.134766,0.322266 A 2,2 0 0 1 14,17 2,2 0 0 1 12,19 2,2 0 0 1 10,17 2,2 0 0 1 10.158203,16.220703 2,2 0 0 1 11,15.271484 2,2 0 0 1 11.951172,15 Z M 12,16 a 1,1 0 0 0 -1,1 l 1,0 0,-1 z"
     id="path4151"
     inkscape:connector-curvature="0" />
</svg>
