<?xml version="1.0" encoding="UTF-8" standalone="no"?>
<!-- Created with Inkscape (http://www.inkscape.org/) -->

<svg
   xmlns:dc="http://purl.org/dc/elements/1.1/"
   xmlns:cc="http://creativecommons.org/ns#"
   xmlns:rdf="http://www.w3.org/1999/02/22-rdf-syntax-ns#"
   xmlns:svg="http://www.w3.org/2000/svg"
   xmlns="http://www.w3.org/2000/svg"
   xmlns:sodipodi="http://sodipodi.sourceforge.net/DTD/sodipodi-0.dtd"
   xmlns:inkscape="http://www.inkscape.org/namespaces/inkscape"
   width="24"
   height="24"
   id="svg2"
   version="1.1"
   inkscape:version="0.91+devel r"
   viewBox="0 0 24 24"
   sodipodi:docname="redshift-status-off.svg">
  <defs
     id="defs4" />
  <sodipodi:namedview
     id="base"
     pagecolor="#ffffff"
     bordercolor="#666666"
     borderopacity="1.0"
     inkscape:pageopacity="0.0"
     inkscape:pageshadow="2"
     inkscape:zoom="22.545455"
     inkscape:cx="9.6319074"
     inkscape:cy="13.498809"
     inkscape:document-units="px"
     inkscape:current-layer="layer1"
     showgrid="true"
     inkscape:showpageshadow="false"
     units="px"
     inkscape:window-width="2560"
     inkscape:window-height="1024"
     inkscape:window-x="-4"
     inkscape:window-y="29"
     inkscape:window-maximized="1"
     showguides="true"
     fit-margin-top="0"
     fit-margin-left="0"
     fit-margin-right="0"
     fit-margin-bottom="0">
    <inkscape:grid
       type="xygrid"
       id="grid4120"
       originx="1"
       originy="0.99998262" />
    <sodipodi:guide
       position="3,21"
       orientation="18,0"
       id="guide4126" />
    <sodipodi:guide
       position="3,3"
       orientation="0,18"
       id="guide4128" />
    <sodipodi:guide
       position="21,3"
       orientation="-18,0"
       id="guide4130" />
    <sodipodi:guide
       position="21,21"
       orientation="0,-18"
       id="guide4132" />
    <sodipodi:guide
       position="4,20"
       orientation="16,0"
       id="guide4134" />
    <sodipodi:guide
       position="4,4"
       orientation="0,16"
       id="guide4136" />
    <sodipodi:guide
       position="20,4"
       orientation="-16,0"
       id="guide4138" />
    <sodipodi:guide
       position="20,20"
       orientation="0,-16"
       id="guide4140" />
    <sodipodi:guide
       position="20,14"
       orientation="-6,0"
       id="guide4199" />
    <sodipodi:guide
       position="20,20"
       orientation="0,-6.0000172"
       id="guide4201" />
  </sodipodi:namedview>
  <metadata
     id="metadata7">
    <rdf:RDF>
      <cc:Work
         rdf:about="">
        <dc:format>image/svg+xml</dc:format>
        <dc:type
           rdf:resource="http://purl.org/dc/dcmitype/StillImage" />
        <dc:title></dc:title>
      </cc:Work>
    </rdf:RDF>
  </metadata>
  <g
     inkscape:label="Capa 1"
     inkscape:groupmode="layer"
     id="layer1"
     transform="translate(1,-1029.3622)">
    <path
       style="opacity:0.5;fill:#424854;fill-opacity:1;stroke:none;stroke-width:3.56737041px;stroke-linecap:butt;stroke-linejoin:miter;stroke-miterlimit:4;stroke-dasharray:none;stroke-dashoffset:0;stroke-opacity:1"
       d="M 11,3 C 8.2385763,3 6,5.2385763 6,8 6.00409,9.9843675 7.1812914,11.778522 9,12.572266 L 9,13 c 0,1.108 0.8920048,2 2,2 1.107995,0 2,-0.892 2,-2 l 0,-0.421875 C 14.820654,11.783527 15.998231,9.9864951 16,8 16,5.2385763 13.761424,3 11,3 Z m 0,1 c 2.209139,0 4,1.790861 4,4 -0.0024,1.6401218 -1.005693,3.112613 -2.53125,3.714844 -0.153314,0.06005 -0.309187,0.11358 -0.46875,0.154297 L 12,12.898438 12,13 c 0,0.554 -0.446,1 -1,1 -0.554,0 -1,-0.446 -1,-1 l 0,-0.105469 0,-1.027343 C 9.8559333,11.830738 9.7152546,11.78269 9.5761719,11.730469 8.0276411,11.140629 7.0031248,9.6570605 7,8 7,5.790861 8.790861,4 11,4 Z M 10.113281,5.1347656 C 9.1668525,5.428271 8.4264036,6.1701819 8.1347656,7.1171875 8.3022156,7.4879133 8.6168278,7.7743849 9.0039062,7.9101562 9.0512715,6.8776189 9.8776187,6.0512716 10.910156,6.0039062 10.774372,5.615728 10.487097,5.3022121 10.115234,5.1347656 c -6.51e-4,-2e-7 -0.0013,-2e-7 -0.002,0 z M 9,15.8 9,18 c 0,0.553995 0.4460048,1 1,1 l 2,0 c 0.553995,0 1,-0.446005 1,-1 l 0,-2.2 z"
       transform="translate(0,1030.3622)"
       id="rect4158"
       inkscape:connector-curvature="0"
       sodipodi:nodetypes="sccsssccssccccsssccccscccccccsssscc" />
  </g>
</svg>
