<?xml version="1.0" encoding="UTF-8" standalone="no"?>
<svg
   xmlns:dc="http://purl.org/dc/elements/1.1/"
   xmlns:cc="http://creativecommons.org/ns#"
   xmlns:rdf="http://www.w3.org/1999/02/22-rdf-syntax-ns#"
   xmlns:svg="http://www.w3.org/2000/svg"
   xmlns="http://www.w3.org/2000/svg"
   xmlns:sodipodi="http://sodipodi.sourceforge.net/DTD/sodipodi-0.dtd"
   xmlns:inkscape="http://www.inkscape.org/namespaces/inkscape"
   width="24"
   viewBox="0 0 24 24"
   height="24"
   style="enable-background:new"
   id="svg2"
   version="1.1"
   inkscape:version="0.91+devel r"
   sodipodi:docname="weather-few-clouds-night.svg">
  <metadata
     id="metadata10">
    <rdf:RDF>
      <cc:Work
         rdf:about="">
        <dc:format>image/svg+xml</dc:format>
        <dc:type
           rdf:resource="http://purl.org/dc/dcmitype/StillImage" />
        <dc:title></dc:title>
      </cc:Work>
    </rdf:RDF>
  </metadata>
  <sodipodi:namedview
     pagecolor="#ffffff"
     bordercolor="#666666"
     borderopacity="1"
     objecttolerance="10"
     gridtolerance="10000"
     guidetolerance="10"
     inkscape:pageopacity="0"
     inkscape:pageshadow="2"
     inkscape:window-width="2560"
     inkscape:window-height="957"
     id="namedview8"
     showgrid="true"
     inkscape:showpageshadow="false"
     borderlayer="true"
     inkscape:zoom="20.85965"
     inkscape:cx="8.6800378"
     inkscape:cy="14.17497"
     inkscape:window-x="-4"
     inkscape:window-y="29"
     inkscape:window-maximized="1"
     inkscape:current-layer="svg2"
     fit-margin-top="0"
     fit-margin-left="0"
     fit-margin-right="0"
     fit-margin-bottom="0">
    <inkscape:grid
       type="xygrid"
       id="grid4139"
       originx="4"
       originy="4" />
    <sodipodi:guide
       position="1,23"
       orientation="22,0"
       id="guide4153" />
    <sodipodi:guide
       position="1,1"
       orientation="0,22"
       id="guide4155" />
    <sodipodi:guide
       position="23,1"
       orientation="-22,0"
       id="guide4157" />
    <sodipodi:guide
       position="23,23"
       orientation="0,-22"
       id="guide4159" />
    <sodipodi:guide
       position="4,20"
       orientation="16,0"
       id="guide4161" />
    <sodipodi:guide
       position="4,4"
       orientation="0,16"
       id="guide4163" />
    <sodipodi:guide
       position="20,4"
       orientation="-16,0"
       id="guide4165" />
    <sodipodi:guide
       position="20,20"
       orientation="0,-16"
       id="guide4167" />
  </sodipodi:namedview>
  <defs
     id="defs4" />
  <path
     style="opacity:1;fill:#424854;fill-opacity:1;stroke:none;stroke-width:3.56737041px;stroke-linecap:butt;stroke-linejoin:miter;stroke-miterlimit:4;stroke-dasharray:none;stroke-dashoffset:0;stroke-opacity:1"
     d="m 12,4 c -4.418278,0 -8,3.581722 -8,8 0.00378,0.675205 0.093036,1.347214 0.265625,2 H 5.2988281 C 5.1029409,13.351311 5.0022814,12.677616 5,12 5.0010525,8.2918204 7.8937135,5.227844 11.595703,5.0136719 11.207764,5.9617926 11.005533,6.9755983 11,8 c 0.004,3.94914 2.889035,7.304551 6.792969,7.900391 C 16.685213,17.551267 14.936559,18.632456 13,18.917969 v 1.013672 c 2.459414,-0.313803 4.658059,-1.753322 5.916016,-3.933594 h 0.0059 c 0.01782,-0.03373 0.0354,-0.06758 0.05273,-0.101563 0.09777,-0.174257 0.188983,-0.352116 0.273438,-0.533203 0.0399,-0.08461 0.07832,-0.169906 0.115234,-0.255859 0.01991,-0.04279 0.03944,-0.08577 0.05859,-0.128906 C 19.281465,14.98992 19.140809,14.997084 19,15 18.7775,14.9976 18.555242,14.98454 18.333984,14.96094 l -0.002,0.0059 C 14.74177,14.622581 12.000649,11.606766 12,8 c 0.004,-1.0547844 0.24641,-2.0950172 0.708984,-3.0429688 0.08285,-0.1728903 0.172772,-0.342304 0.269532,-0.5078124 0.02871,-0.048529 0.05801,-0.09671 0.08789,-0.1445313 0.04241,-0.069768 0.08604,-0.1387892 0.13086,-0.2070313 C 12.801189,4.0351453 12.400972,4.0025011 12,4 Z M 7.5,15 C 6.8633658,15.000648 6.2964909,15.403098 6.0859375,16.003906 6.057323,16.001988 6.0286705,16.000686 6,16 c -1.1045695,0 -2,0.895431 -2,2 0,1.104569 0.8954305,2 2,2 h 5 c 0.552285,0 1,-0.447715 1,-1 0,-0.552285 -0.447715,-1 -1,-1 h -0.08789 C 10.969602,17.839538 10.999324,17.67045 11,17.5 11,16.671573 10.328427,16 9.5,16 9.3107516,15.999974 9.1232074,16.035759 8.9472656,16.105469 8.7693289,15.452777 8.1765123,14.999964 7.5,15 Z"
     id="path4179"
     inkscape:connector-curvature="0" />
</svg>
