<?xml version="1.0" encoding="UTF-8" standalone="no"?>
<svg
   xmlns:dc="http://purl.org/dc/elements/1.1/"
   xmlns:cc="http://creativecommons.org/ns#"
   xmlns:rdf="http://www.w3.org/1999/02/22-rdf-syntax-ns#"
   xmlns:svg="http://www.w3.org/2000/svg"
   xmlns="http://www.w3.org/2000/svg"
   xmlns:sodipodi="http://sodipodi.sourceforge.net/DTD/sodipodi-0.dtd"
   xmlns:inkscape="http://www.inkscape.org/namespaces/inkscape"
   width="24"
   viewBox="0 0 24 24"
   height="24"
   style="enable-background:new"
   id="svg2"
   version="1.1"
   inkscape:version="0.91+devel r"
   sodipodi:docname="weather-clear-night.svg">
  <metadata
     id="metadata10">
    <rdf:RDF>
      <cc:Work
         rdf:about="">
        <dc:format>image/svg+xml</dc:format>
        <dc:type
           rdf:resource="http://purl.org/dc/dcmitype/StillImage" />
        <dc:title></dc:title>
      </cc:Work>
    </rdf:RDF>
  </metadata>
  <sodipodi:namedview
     pagecolor="#ffffff"
     bordercolor="#666666"
     borderopacity="1"
     objecttolerance="10"
     gridtolerance="10000"
     guidetolerance="10"
     inkscape:pageopacity="0"
     inkscape:pageshadow="2"
     inkscape:window-width="2560"
     inkscape:window-height="957"
     id="namedview8"
     showgrid="true"
     inkscape:showpageshadow="false"
     borderlayer="true"
     inkscape:zoom="20.85965"
     inkscape:cx="1.686927"
     inkscape:cy="11.634829"
     inkscape:window-x="-4"
     inkscape:window-y="29"
     inkscape:window-maximized="1"
     inkscape:current-layer="svg2"
     fit-margin-top="0"
     fit-margin-left="0"
     fit-margin-right="0"
     fit-margin-bottom="0">
    <inkscape:grid
       type="xygrid"
       id="grid4139"
       originx="4"
       originy="4" />
    <sodipodi:guide
       position="1,23"
       orientation="22,0"
       id="guide4153" />
    <sodipodi:guide
       position="1,1"
       orientation="0,22"
       id="guide4155" />
    <sodipodi:guide
       position="23,1"
       orientation="-22,0"
       id="guide4157" />
    <sodipodi:guide
       position="23,23"
       orientation="0,-22"
       id="guide4159" />
    <sodipodi:guide
       position="4,20"
       orientation="16,0"
       id="guide4161" />
    <sodipodi:guide
       position="4,4"
       orientation="0,16"
       id="guide4163" />
    <sodipodi:guide
       position="20,4"
       orientation="-16,0"
       id="guide4165" />
    <sodipodi:guide
       position="20,20"
       orientation="0,-16"
       id="guide4167" />
  </sodipodi:namedview>
  <defs
     id="defs4" />
  <path
     style="opacity:1;fill:#424854;fill-opacity:1;stroke:none;stroke-width:3.56737041px;stroke-linecap:butt;stroke-linejoin:miter;stroke-miterlimit:4;stroke-dasharray:none;stroke-dashoffset:0;stroke-opacity:1"
     d="m 12,4 a 8,8 0 0 0 -8,8 8,8 0 0 0 8,8 8,8 0 0 0 6.916016,-4.001953 8,8 0 0 0 0.0059,0 8,8 0 0 0 0.05273,-0.101563 8,8 0 0 0 0.273438,-0.533203 8,8 0 0 0 0.115234,-0.255859 8,8 0 0 0 0.05859,-0.128906 A 7,7 0 0 1 19,15 a 7,7 0 0 1 -0.666016,-0.03906 7,7 0 0 1 -0.002,0.0059 A 7,7 0 0 1 12,8 7,7 0 0 1 12.708984,4.9570312 7,7 0 0 1 12.978516,4.4492188 7,7 0 0 1 13.066406,4.3046875 7,7 0 0 1 13.197266,4.0976562 8,8 0 0 0 12,4 Z M 11.595703,5.0136719 A 8,8 0 0 0 11,8 8,8 0 0 0 17.792969,15.900391 7,7 0 0 1 12,19 7,7 0 0 1 5,12 7,7 0 0 1 11.595703,5.0136719 Z"
     id="path4179"
     inkscape:connector-curvature="0" />
</svg>
