<?xml version="1.0" encoding="UTF-8" standalone="no"?>
<!-- Created with Inkscape (http://www.inkscape.org/) -->

<svg
   xmlns:dc="http://purl.org/dc/elements/1.1/"
   xmlns:cc="http://creativecommons.org/ns#"
   xmlns:rdf="http://www.w3.org/1999/02/22-rdf-syntax-ns#"
   xmlns:svg="http://www.w3.org/2000/svg"
   xmlns="http://www.w3.org/2000/svg"
   xmlns:sodipodi="http://sodipodi.sourceforge.net/DTD/sodipodi-0.dtd"
   xmlns:inkscape="http://www.inkscape.org/namespaces/inkscape"
   width="24"
   height="24"
   id="svg2"
   version="1.1"
   inkscape:version="0.91+devel r"
   viewBox="0 0 24 24"
   sodipodi:docname="weather-few-clouds.svg">
  <defs
     id="defs4">
    <clipPath
       id="clipPath6">
      <rect
         id="rect8"
         style="fill:#ffff00"
         height="208.571"
         y="1580.934"
         x="-830"
         width="477.14301" />
    </clipPath>
    <clipPath
       id="clipPath10">
      <rect
         id="rect12"
         style="fill:#ffff00"
         height="208.571"
         y="1580.934"
         x="-830"
         width="477.14301" />
    </clipPath>
    <clipPath
       id="clipPath14">
      <rect
         id="rect16"
         style="fill:#ffff00"
         height="208.571"
         y="1580.934"
         x="-830"
         width="477.14301" />
    </clipPath>
    <clipPath
       id="clipPath18">
      <rect
         id="rect20"
         style="fill:#ffff00"
         height="208.571"
         y="1580.934"
         x="-830"
         width="477.14301" />
    </clipPath>
    <clipPath
       id="clipPath22">
      <rect
         id="rect24"
         style="fill:#ffff00"
         height="208.571"
         y="1580.934"
         x="-830"
         width="477.14301" />
    </clipPath>
    <clipPath
       id="clipPath26">
      <rect
         id="rect28"
         style="fill:#ffff00"
         height="208.571"
         y="1580.934"
         x="-830"
         width="477.14301" />
    </clipPath>
  </defs>
  <sodipodi:namedview
     id="base"
     pagecolor="#ffffff"
     bordercolor="#666666"
     borderopacity="1.0"
     inkscape:pageopacity="0.0"
     inkscape:pageshadow="2"
     inkscape:zoom="25.15656"
     inkscape:cx="2.721277"
     inkscape:cy="12.371773"
     inkscape:document-units="px"
     inkscape:current-layer="layer1"
     showgrid="true"
     inkscape:showpageshadow="false"
     units="px"
     inkscape:window-width="2560"
     inkscape:window-height="957"
     inkscape:window-x="-4"
     inkscape:window-y="29"
     inkscape:window-maximized="1"
     showguides="true"
     fit-margin-top="0"
     fit-margin-left="0"
     fit-margin-right="0"
     fit-margin-bottom="0">
    <inkscape:grid
       type="xygrid"
       id="grid4120"
       originx="1"
       originy="0.99998262" />
    <sodipodi:guide
       position="3,21"
       orientation="18,0"
       id="guide4126" />
    <sodipodi:guide
       position="3,3"
       orientation="0,18"
       id="guide4128" />
    <sodipodi:guide
       position="21,3"
       orientation="-18,0"
       id="guide4130" />
    <sodipodi:guide
       position="21,21"
       orientation="0,-18"
       id="guide4132" />
    <sodipodi:guide
       position="4,20"
       orientation="16,0"
       id="guide4134" />
    <sodipodi:guide
       position="4,4"
       orientation="0,16"
       id="guide4136" />
    <sodipodi:guide
       position="20,4"
       orientation="-16,0"
       id="guide4138" />
    <sodipodi:guide
       position="20,20"
       orientation="0,-16"
       id="guide4140" />
    <sodipodi:guide
       position="20,14"
       orientation="-6,0"
       id="guide4199" />
    <sodipodi:guide
       position="20,20"
       orientation="0,-6.0000172"
       id="guide4201" />
  </sodipodi:namedview>
  <metadata
     id="metadata7">
    <rdf:RDF>
      <cc:Work
         rdf:about="">
        <dc:format>image/svg+xml</dc:format>
        <dc:type
           rdf:resource="http://purl.org/dc/dcmitype/StillImage" />
        <dc:title></dc:title>
      </cc:Work>
    </rdf:RDF>
  </metadata>
  <g
     inkscape:label="Capa 1"
     inkscape:groupmode="layer"
     id="layer1"
     transform="translate(1,-1029.3622)">
    <path
       style="opacity:1;fill:#424854;fill-opacity:1;stroke:none;stroke-width:3.56737041px;stroke-linecap:butt;stroke-linejoin:miter;stroke-miterlimit:4;stroke-dasharray:none;stroke-dashoffset:0;stroke-opacity:1"
       d="M 10.5,3 V 5 H 11 11.5 V 3 H 11 Z M 5.6972656,4.9902344 4.9902344,5.6972656 6.4042969,7.1113281 7.1113281,6.4042969 Z m 10.6054684,0 -1.414062,1.4140625 0.707031,0.7070312 1.414063,-1.4140625 z M 11,6 C 10.831354,6 10.664355,6.00908 10.5,6.025391 10.332588,6.042003 10.168001,6.066897 10.005859,6.09961 9.991942,6.10242 9.97872,6.10645 9.964844,6.10938 A 5,5 0 0 0 9.0761719,6.3867188 c -0.0068,0.00284 -0.014703,0.00299 -0.021484,0.00586 a 5,5 0 0 0 -0.00195,0.00195 c -0.0054,0.00229 -0.010234,0.00551 -0.015625,0.00781 A 5,5 0 0 0 8.2421875,6.8339844 c -0.016279,0.010801 -0.034636,0.018311 -0.050781,0.029297 A 5,5 0 0 0 7.4980469,7.4375 c -0.014857,0.014605 -0.030247,0.02818 -0.044922,0.042969 a 5,5 0 0 0 -0.548828,0.6640622 c -0.023278,0.033308 -0.049785,0.063762 -0.072266,0.097656 a 5,5 0 0 0 -0.3964843,0.734375 c -0.019276,0.043372 -0.040527,0.084894 -0.058594,0.1289063 A 5,5 0 0 0 6.1230469,9.921875 c -0.011662,0.052934 -0.025187,0.104654 -0.035156,0.158203 a 5,5 0 0 0 -0.035156,0.228516 c -0.011864,0.08559 -0.023776,0.170899 -0.03125,0.257812 A 5,5 0 0 0 6,11 5,5 0 0 0 6.027344,11.511719 c 5.443e-4,0.0052 0.00139,0.0104 0.00195,0.01563 a 5,5 0 0 0 0.078125,0.49414 5,5 0 0 0 0.1308593,0.496094 A 5,5 0 0 0 6.4199219,13 h 1.1210937 c -0.0022,-0.0038 -0.00367,-0.0079 -0.00586,-0.01172 C 7.4496483,12.839928 7.3740571,12.686365 7.3085938,12.529297 7.2414546,12.368208 7.1841477,12.203269 7.1386719,12.035156 7.0978669,11.88431 7.067837,11.731016 7.0449219,11.576172 A 4,4 0 0 1 7.0292969,11.449219 C 7.012117,11.300355 7.0003336,11.150727 7,11 7,10.727896 7.028303,10.461926 7.080078,10.205078 a 4,4 0 0 1 0.00195,-0.0059 c 0.00163,-0.008 0.00418,-0.01544 0.00586,-0.02344 0.051647,-0.2464517 0.1259716,-0.4834507 0.2207032,-0.7109372 0.00317,-0.00762 0.00459,-0.015838 0.00781,-0.023438 a 4,4 0 0 1 0.00781,-0.015625 C 7.4189644,9.2049209 7.5347684,8.995113 7.6660156,8.796875 A 4,4 0 0 1 7.6933596,8.751953 C 7.8277405,8.5546723 7.9798867,8.3710114 8.1464844,8.2011719 a 4,4 0 0 1 0.039063,-0.039063 C 8.3507962,7.9982315 8.530975,7.8500168 8.7226562,7.7167969 a 4,4 0 0 1 0.066406,-0.046875 C 8.9770846,7.5448503 9.1781409,7.4379808 9.3867188,7.3457031 a 4,4 0 0 1 0.09375,-0.042969 C 9.6895199,7.2166995 9.9077392,7.1514374 10.132812,7.1015625 A 4,4 0 0 1 10.234375,7.078125 C 10.482416,7.0299963 10.73789,7 11,7 a 4,4 0 0 1 3.458984,2 4,4 0 0 1 0.0059,0.011719 c 0.08551,0.1483536 0.161099,0.301916 0.226562,0.4589843 0.06714,0.1610888 0.124446,0.3260274 0.169922,0.4941407 0.0408,0.150846 0.07083,0.30414 0.09375,0.458984 a 4,4 0 0 1 0.01563,0.126953 C 14.987883,10.699645 14.999666,10.849273 15,11 c 0,0.272104 -0.0283,0.538074 -0.08008,0.794922 -7.68e-4,0.0038 -0.0012,0.0079 -0.002,0.01172 a 4,4 0 0 1 -0.0059,0.01758 c -0.05165,0.246452 -0.125971,0.483451 -0.220703,0.710937 -0.0028,0.0068 -0.003,0.0147 -0.0059,0.02149 a 4,4 0 0 1 -0.0098,0.01758 c -0.09475,0.22086 -0.210549,0.430668 -0.341797,0.628906 a 4,4 0 0 1 -0.02734,0.04492 c -0.134381,0.197281 -0.286528,0.380942 -0.453125,0.550781 a 4,4 0 0 1 -0.03906,0.03906 c -0.165249,0.163878 -0.345428,0.312092 -0.537109,0.445312 a 4,4 0 0 1 -0.06641,0.04687 c -0.188025,0.125072 -0.389079,0.231941 -0.597657,0.324219 a 4,4 0 0 1 -0.09375,0.04297 C 12.353047,14.765782 12.176945,14.812534 12,14.857422 v 1.041016 c 0.01174,-0.0027 0.02331,-0.0053 0.03516,-0.0078 a 5,5 0 0 0 0.888672,-0.277344 5,5 0 0 0 0.02148,-0.0059 l 0.002,-0.002 a 5,5 0 0 0 0.01563,-0.0078 5,5 0 0 0 0.794921,-0.43164 c 0.01628,-0.0108 0.03464,-0.01831 0.05078,-0.0293 a 5,5 0 0 0 0.69331,-0.574154 c 0.01486,-0.0146 0.03025,-0.02818 0.04492,-0.04297 a 5,5 0 0 0 0.548828,-0.664062 c 0.02328,-0.03331 0.04979,-0.06376 0.07227,-0.09766 a 5,5 0 0 0 0.396484,-0.734374 c 0.01928,-0.04337 0.04053,-0.0849 0.05859,-0.128907 a 5,5 0 0 0 0.253906,-0.816406 c 0.01166,-0.05293 0.02519,-0.104654 0.03516,-0.158203 a 5,5 0 0 0 0.03516,-0.228516 c 0.01186,-0.08559 0.02378,-0.170899 0.03125,-0.257812 A 5,5 0 0 0 16,11 a 5,5 0 0 0 -0.02734,-0.511719 5,5 0 0 0 0,-0.002 c -4.79e-4,-0.0046 -0.0015,-0.0091 -0.002,-0.01367 A 5,5 0 0 0 15.892578,9.9785156 5,5 0 0 0 15.761719,9.4824219 5,5 0 0 0 15.580078,9 5,5 0 0 0 11,6 Z m 0,2 C 9.3431458,8 8,9.3431458 8,11 H 9 C 9,9.8954305 9.8954305,9 11,9 Z m -8,2.5 v 1 h 2 v -1 z m 14,0 v 1 h 2 v -1 z m -1.404297,4.388672 -0.707031,0.707031 1.414062,1.414063 0.707032,-0.707032 z"
       id="path4209"
       transform="translate(0,1030.3622)"
       inkscape:connector-curvature="0" />
    <path
       inkscape:connector-curvature="0"
       id="path4179"
       d="m 6.4999995,1044.3583 c -0.6366342,6e-4 -1.2035091,0.4031 -1.4140625,1.0039 -0.028614,0 -0.057267,0 -0.085937,0 -1.1045695,0 -2,0.8954 -2,2 0,1.1046 0.8954305,2 2,2 h 5 c 0.552285,0 1,-0.4477 1,-1 0,-0.5523 -0.447715,-1 -1,-1 H 9.91211 c 0.05749,-0.1605 0.08721,-0.3295 0.08789,-0.5 0,-0.8284 -0.6715729,-1.5 -1.5,-1.5 -0.1892484,0 -0.3767926,0.036 -0.5527344,0.1055 -0.1779372,-0.6566 -0.7707538,-1.1094 -1.4472661,-1.1094 z"
       style="opacity:1;fill:#424854;fill-opacity:1;stroke:none;stroke-width:3.56737041px;stroke-linecap:butt;stroke-linejoin:miter;stroke-miterlimit:4;stroke-dasharray:none;stroke-dashoffset:0;stroke-opacity:1" />
  </g>
</svg>
