<?xml version="1.0" encoding="UTF-8" standalone="no"?>
<!-- Created with Inkscape (http://www.inkscape.org/) -->

<svg
   xmlns:dc="http://purl.org/dc/elements/1.1/"
   xmlns:cc="http://creativecommons.org/ns#"
   xmlns:rdf="http://www.w3.org/1999/02/22-rdf-syntax-ns#"
   xmlns:svg="http://www.w3.org/2000/svg"
   xmlns="http://www.w3.org/2000/svg"
   xmlns:sodipodi="http://sodipodi.sourceforge.net/DTD/sodipodi-0.dtd"
   xmlns:inkscape="http://www.inkscape.org/namespaces/inkscape"
   width="22"
   height="22"
   id="svg2"
   version="1.1"
   inkscape:version="0.91+devel r"
   viewBox="0 0 22 22"
   sodipodi:docname="user-trash.svg">
  <defs
     id="defs4" />
  <sodipodi:namedview
     id="base"
     pagecolor="#ffffff"
     bordercolor="#666666"
     borderopacity="1.0"
     inkscape:pageopacity="0.0"
     inkscape:pageshadow="2"
     inkscape:zoom="37.465324"
     inkscape:cx="15.353805"
     inkscape:cy="10.88618"
     inkscape:document-units="px"
     inkscape:current-layer="layer1"
     showgrid="true"
     inkscape:showpageshadow="false"
     borderlayer="true"
     inkscape:window-width="2560"
     inkscape:window-height="957"
     inkscape:window-x="-4"
     inkscape:window-y="29"
     inkscape:window-maximized="1"
     units="px"
     showguides="true"
     fit-margin-top="0"
     fit-margin-left="0"
     fit-margin-right="0"
     fit-margin-bottom="0">
    <inkscape:grid
       type="xygrid"
       id="grid4101"
       originx="3"
       originy="2.9999826" />
    <sodipodi:guide
       position="0,22.000017"
       orientation="22,0"
       id="guide4156" />
    <sodipodi:guide
       position="0,1.7382813e-05"
       orientation="0,22"
       id="guide4158" />
    <sodipodi:guide
       position="22,1.7382813e-05"
       orientation="-22,0"
       id="guide4160" />
    <sodipodi:guide
       position="22,22.000017"
       orientation="0,-22"
       id="guide4162" />
    <sodipodi:guide
       position="3,19.000017"
       orientation="16,0"
       id="guide4164" />
    <sodipodi:guide
       position="3,3.0000174"
       orientation="0,16"
       id="guide4166" />
    <sodipodi:guide
       position="19,3.0000174"
       orientation="-16,0"
       id="guide4168" />
    <sodipodi:guide
       position="19,19.000017"
       orientation="0,-16"
       id="guide4170" />
  </sodipodi:namedview>
  <metadata
     id="metadata7">
    <rdf:RDF>
      <cc:Work
         rdf:about="">
        <dc:format>image/svg+xml</dc:format>
        <dc:type
           rdf:resource="http://purl.org/dc/dcmitype/StillImage" />
        <dc:title />
      </cc:Work>
    </rdf:RDF>
  </metadata>
  <g
     inkscape:label="Capa 1"
     inkscape:groupmode="layer"
     id="layer1"
     transform="translate(3,-1033.3622)">
    <path
       style="opacity:1;fill:#424854;fill-opacity:1;stroke:none;stroke-width:3.56737041px;stroke-linecap:butt;stroke-linejoin:miter;stroke-miterlimit:4;stroke-dasharray:none;stroke-dashoffset:0;stroke-opacity:1"
       d="M 11 3 A 4.0000172 4.0000172 0 0 0 7.1308594 6 L 4 6 L 4 7 L 5 7 L 5 18 L 5 19 L 17 19 L 17 18 L 17 7 L 18 7 L 18 6 L 14.867188 6 A 4.0000172 4.0000172 0 0 0 11 3 z M 11 4 A 3.0000172 3.0000172 0 0 1 13.826172 6 L 8.1757812 6 A 3.0000172 3.0000172 0 0 1 11 4 z M 6 7 L 7 7 L 8 7 L 14 7 L 15 7 L 16 7 L 16 18 L 11 18 L 11 14 L 10 14 L 10 18 L 8 18 L 8 9 L 7 9 L 7 18 L 6 18 L 6 7 z "
       transform="translate(-3,1033.3622)"
       id="rect4169" />
  </g>
</svg>
