<?xml version="1.0" encoding="UTF-8" standalone="no"?>
<!-- Created with Inkscape (http://www.inkscape.org/) -->

<svg
   xmlns:dc="http://purl.org/dc/elements/1.1/"
   xmlns:cc="http://creativecommons.org/ns#"
   xmlns:rdf="http://www.w3.org/1999/02/22-rdf-syntax-ns#"
   xmlns:svg="http://www.w3.org/2000/svg"
   xmlns="http://www.w3.org/2000/svg"
   xmlns:sodipodi="http://sodipodi.sourceforge.net/DTD/sodipodi-0.dtd"
   xmlns:inkscape="http://www.inkscape.org/namespaces/inkscape"
   width="24"
   height="24"
   id="svg4359"
   version="1.1"
   inkscape:version="0.91+devel r"
   sodipodi:docname="evernote.svg"
   viewBox="0 0 24 24">
  <defs
     id="defs4361" />
  <sodipodi:namedview
     id="base"
     pagecolor="#ffffff"
     bordercolor="#666666"
     borderopacity="1.0"
     inkscape:pageopacity="0.0"
     inkscape:pageshadow="2"
     inkscape:zoom="22.627417"
     inkscape:cx="11.599567"
     inkscape:cy="10.355319"
     inkscape:current-layer="layer1"
     showgrid="true"
     inkscape:grid-bbox="true"
     inkscape:document-units="px"
     inkscape:window-width="2560"
     inkscape:window-height="957"
     inkscape:window-x="-4"
     inkscape:window-y="29"
     inkscape:window-maximized="1"
     inkscape:showpageshadow="false"
     borderlayer="true"
     showguides="true"
     fit-margin-top="0"
     fit-margin-left="0"
     fit-margin-right="0"
     fit-margin-bottom="0">
    <inkscape:grid
       type="xygrid"
       id="grid4105"
       originx="1"
       originy="1" />
    <sodipodi:guide
       position="1,23"
       orientation="22,0"
       id="guide4111" />
    <sodipodi:guide
       position="1,1"
       orientation="0,22"
       id="guide4113" />
    <sodipodi:guide
       position="23,1"
       orientation="-22,0"
       id="guide4115" />
    <sodipodi:guide
       position="23,23"
       orientation="0,-22"
       id="guide4117" />
    <sodipodi:guide
       position="22,12"
       orientation="0,-20"
       id="guide4145" />
    <sodipodi:guide
       position="4,20"
       orientation="16,0"
       id="guide4130" />
    <sodipodi:guide
       position="4,4"
       orientation="0,16"
       id="guide4132" />
    <sodipodi:guide
       position="20,4"
       orientation="-16,0"
       id="guide4134" />
    <sodipodi:guide
       position="20,20"
       orientation="0,-16"
       id="guide4136" />
    <sodipodi:guide
       position="4,11.999989"
       orientation="8,0"
       id="guide4140" />
    <sodipodi:guide
       position="4,3.9999886"
       orientation="0,8"
       id="guide4142" />
    <sodipodi:guide
       position="12,3.9999886"
       orientation="-8,0"
       id="guide4144" />
    <sodipodi:guide
       position="4,23"
       orientation="19.000011,0"
       id="guide4152" />
    <sodipodi:guide
       position="4,3.9999886"
       orientation="0,4"
       id="guide4154" />
    <sodipodi:guide
       position="8,3.9999886"
       orientation="-19.000011,0"
       id="guide4156" />
    <sodipodi:guide
       position="8,23"
       orientation="0,-4"
       id="guide4158" />
    <sodipodi:guide
       position="16,23"
       orientation="19,0"
       id="guide4160" />
    <sodipodi:guide
       position="16,4"
       orientation="0,4.0000019"
       id="guide4162" />
    <sodipodi:guide
       position="20.000002,4"
       orientation="-19,0"
       id="guide4164" />
    <sodipodi:guide
       position="20.000002,23"
       orientation="0,-4.0000019"
       id="guide4166" />
    <sodipodi:guide
       position="6,4"
       orientation="0,14"
       id="guide4137" />
    <sodipodi:guide
       position="20,4"
       orientation="-14,0"
       id="guide4139" />
  </sodipodi:namedview>
  <metadata
     id="metadata4364">
    <rdf:RDF>
      <cc:Work
         rdf:about="">
        <dc:format>image/svg+xml</dc:format>
        <dc:type
           rdf:resource="http://purl.org/dc/dcmitype/StillImage" />
        <dc:title></dc:title>
      </cc:Work>
    </rdf:RDF>
  </metadata>
  <g
     id="layer1"
     inkscape:label="Layer 1"
     inkscape:groupmode="layer"
     transform="translate(1,-25)">
    <g
       id="g10"
       transform="matrix(1.2838189,0,0,-1.2417707,-0.29822568,47.928095)"
       style="fill:#424854;fill-opacity:1">
      <g
         id="g12"
         style="fill:#424854;fill-opacity:1">
        <path
           d="m 4.438,12.748 1.222,0 c 0.07,0 0.129,0.055 0.129,0.125 0,0 -0.016,1.036 -0.016,1.325 l 0,0.004 c 0,0.234 0.051,0.441 0.137,0.617 l 0.043,0.074 c -0.004,0 -0.012,0 -0.015,-0.004 L 3.562,12.557 C 3.559,12.553 3.555,12.549 3.555,12.541 c 0.047,0.028 0.113,0.059 0.125,0.063 0.207,0.094 0.457,0.144 0.758,0.144 z m 9.515,0.254 c -0.094,0.512 -0.406,0.766 -0.683,0.868 -0.301,0.105 -0.915,0.218 -1.684,0.308 -0.617,0.07 -1.344,0.067 -1.781,0.051 C 9.75,14.588 9.496,14.913 9.215,15.026 8.461,15.327 7.293,15.252 6.996,15.17 6.758,15.104 6.492,14.971 6.348,14.764 6.25,14.623 6.184,14.448 6.184,14.198 c 0,-0.141 0.004,-0.473 0.007,-0.766 0.004,-0.293 0.008,-0.559 0.008,-0.559 0,-0.261 -0.215,-0.476 -0.48,-0.476 l -1.223,0 C 4.234,12.397 4.035,12.354 3.883,12.284 3.73,12.217 3.621,12.123 3.539,12.014 3.375,11.799 3.348,11.53 3.348,11.256 c 0,0 0.004,-0.222 0.058,-0.656 C 3.449,10.268 3.816,7.932 4.164,7.221 4.301,6.948 4.391,6.83 4.656,6.709 5.246,6.459 6.598,6.182 7.23,6.1 7.859,6.022 8.258,5.854 8.492,6.342 c 0,0 0.047,0.121 0.113,0.301 0.204,0.613 0.231,1.156 0.231,1.551 0,0.043 0.062,0.043 0.062,0 0,-0.278 -0.054,-1.262 0.7,-1.528 0.297,-0.105 0.914,-0.195 1.539,-0.269 0.566,-0.063 0.976,-0.285 0.976,-1.723 0,-0.875 -0.183,-0.992 -1.156,-0.992 -0.785,0 -1.086,-0.019 -1.086,0.598 0,0.5 0.5,0.445 0.871,0.445 0.164,0 0.043,0.121 0.043,0.43 0,0.308 0.195,0.484 0.012,0.488 -1.281,0.035 -2.035,0.004 -2.035,-1.582 0,-1.438 0.558,-1.703 2.375,-1.703 1.425,0 1.929,0.047 2.515,1.851 0.118,0.356 0.399,1.446 0.571,3.27 0.109,1.156 -0.102,4.641 -0.27,5.523 z M 11.469,9.147 C 11.293,9.155 11.125,9.143 10.965,9.12 c 0.047,0.351 0.195,0.789 0.719,0.769 0.582,-0.019 0.664,-0.562 0.664,-0.93 -0.246,0.11 -0.547,0.176 -0.879,0.188 z"
           style="fill:#424854;fill-opacity:1;fill-rule:nonzero;stroke:none"
           id="path14"
           inkscape:connector-curvature="0" />
      </g>
    </g>
  </g>
</svg>
