<?xml version="1.0" encoding="UTF-8" standalone="no"?>
<!-- Created with Inkscape (http://www.inkscape.org/) -->

<svg
   xmlns:dc="http://purl.org/dc/elements/1.1/"
   xmlns:cc="http://creativecommons.org/ns#"
   xmlns:rdf="http://www.w3.org/1999/02/22-rdf-syntax-ns#"
   xmlns:svg="http://www.w3.org/2000/svg"
   xmlns="http://www.w3.org/2000/svg"
   xmlns:sodipodi="http://sodipodi.sourceforge.net/DTD/sodipodi-0.dtd"
   xmlns:inkscape="http://www.inkscape.org/namespaces/inkscape"
   width="24"
   height="24"
   id="svg4359"
   version="1.1"
   inkscape:version="0.91+devel r"
   sodipodi:docname="fluxgui.svg"
   viewBox="0 0 24 24">
  <defs
     id="defs4361" />
  <sodipodi:namedview
     id="base"
     pagecolor="#ffffff"
     bordercolor="#666666"
     borderopacity="1.0"
     inkscape:pageopacity="0.0"
     inkscape:pageshadow="2"
     inkscape:zoom="16"
     inkscape:cx="18.185897"
     inkscape:cy="11.241719"
     inkscape:current-layer="layer1"
     showgrid="true"
     inkscape:grid-bbox="true"
     inkscape:document-units="px"
     inkscape:window-width="2560"
     inkscape:window-height="1024"
     inkscape:window-x="-4"
     inkscape:window-y="29"
     inkscape:window-maximized="1"
     inkscape:showpageshadow="false"
     borderlayer="true"
     showguides="true"
     fit-margin-top="0"
     fit-margin-left="0"
     fit-margin-right="0"
     fit-margin-bottom="0">
    <inkscape:grid
       type="xygrid"
       id="grid4105"
       originx="1"
       originy="1" />
    <sodipodi:guide
       position="1,23"
       orientation="22,0"
       id="guide4111" />
    <sodipodi:guide
       position="1,1"
       orientation="0,22"
       id="guide4113" />
    <sodipodi:guide
       position="23,1"
       orientation="-22,0"
       id="guide4115" />
    <sodipodi:guide
       position="23,23"
       orientation="0,-22"
       id="guide4117" />
    <sodipodi:guide
       position="22,12"
       orientation="0,-20"
       id="guide4145" />
    <sodipodi:guide
       position="4,20"
       orientation="16,0"
       id="guide4130" />
    <sodipodi:guide
       position="4,4"
       orientation="0,16"
       id="guide4132" />
    <sodipodi:guide
       position="20,4"
       orientation="-16,0"
       id="guide4134" />
    <sodipodi:guide
       position="20,20"
       orientation="0,-16"
       id="guide4136" />
    <sodipodi:guide
       position="4,11.999989"
       orientation="8,0"
       id="guide4140" />
    <sodipodi:guide
       position="4,3.9999886"
       orientation="0,8"
       id="guide4142" />
    <sodipodi:guide
       position="12,3.9999886"
       orientation="-8,0"
       id="guide4144" />
    <sodipodi:guide
       position="4,23"
       orientation="19.000011,0"
       id="guide4152" />
    <sodipodi:guide
       position="4,3.9999886"
       orientation="0,4"
       id="guide4154" />
    <sodipodi:guide
       position="8,3.9999886"
       orientation="-19.000011,0"
       id="guide4156" />
    <sodipodi:guide
       position="8,23"
       orientation="0,-4"
       id="guide4158" />
    <sodipodi:guide
       position="16,23"
       orientation="19,0"
       id="guide4160" />
    <sodipodi:guide
       position="16,4"
       orientation="0,4.0000019"
       id="guide4162" />
    <sodipodi:guide
       position="20.000002,4"
       orientation="-19,0"
       id="guide4164" />
    <sodipodi:guide
       position="20.000002,23"
       orientation="0,-4.0000019"
       id="guide4166" />
    <sodipodi:guide
       position="6,4"
       orientation="0,14"
       id="guide4137" />
    <sodipodi:guide
       position="20,4"
       orientation="-14,0"
       id="guide4139" />
  </sodipodi:namedview>
  <metadata
     id="metadata4364">
    <rdf:RDF>
      <cc:Work
         rdf:about="">
        <dc:format>image/svg+xml</dc:format>
        <dc:type
           rdf:resource="http://purl.org/dc/dcmitype/StillImage" />
        <dc:title></dc:title>
      </cc:Work>
    </rdf:RDF>
  </metadata>
  <g
     id="layer1"
     inkscape:label="Layer 1"
     inkscape:groupmode="layer"
     transform="translate(1,-25)">
    <path
       style="opacity:1;fill:#424854;fill-opacity:1;stroke:none;stroke-width:3.56737041px;stroke-linecap:butt;stroke-linejoin:miter;stroke-miterlimit:4;stroke-dasharray:none;stroke-dashoffset:0;stroke-opacity:1"
       d="m 11,3 a 8.000001,8 0 0 0 -8,8 8.000001,8 0 0 0 8,8 8.000001,8 0 0 0 8,-8 8.000001,8 0 0 0 -8,-8 z m 0,1 a 7.000001,7 0 0 1 3.939453,1.2148438 7.000001,7 0 0 1 0.117188,0.085937 c 0.006,0.00442 0.01154,0.00934 0.01758,0.013672 a 7.000001,7 0 0 1 0.416015,0.3183594 7.000001,7 0 0 1 0.160157,0.1445313 c 0.0071,0.00653 0.01428,0.013062 0.02148,0.019531 a 7.000001,7 0 0 1 0.314453,0.2929688 7.000001,7 0 0 1 0.1875,0.2070312 7.000001,7 0 0 1 0.279297,0.3183594 7.000001,7 0 0 1 0.121094,0.1621094 c 0.0025,0.00334 0.0053,0.00644 0.0078,0.00977 a 7.000001,7 0 0 1 0.271485,0.3808594 7.000001,7 0 0 1 0.142578,0.2324218 c 2.86e-4,4.768e-4 -2.87e-4,0.00148 0,0.00195 a 7.000001,7 0 0 1 0.199218,0.3496093 7.000001,7 0 0 1 0.123047,0.2539063 c 9.97e-4,0.00211 0.0029,0.00375 0.0039,0.00586 a 7.000001,7 0 0 1 0.173828,0.3886718 7.000001,7 0 0 1 0.07617,0.2109375 7.000001,7 0 0 1 0.152343,0.4570313 7.000001,7 0 0 1 0.05273,0.2050781 c 0.0019,0.00782 0.0039,0.015627 0.0059,0.023437 a 7.000001,7 0 0 1 0.0918,0.4121094 7.000001,7 0 0 1 0.05273,0.3476568 7.000001,7 0 0 1 0.04102,0.33789 A 7.000001,7 0 0 1 18,11 a 7.000001,7 0 0 1 -0.03125,0.619141 7.000001,7 0 0 1 -0.05859,0.443359 7.000001,7 0 0 1 -0.01367,0.08984 7.000001,7 0 0 1 -0.375,1.36914 7,7 0 0 0 0.101563,-0.304687 C 14.69092,10.352044 11.553647,8.2164106 8.65625,8.25 6.988946,8.2693273 5.4074917,9.0280853 4.0136719,10.734375 a 7.000001,7 0 0 1 0.017578,-0.351563 7.000001,7 0 0 1 0.00977,-0.117187 c 2.531e-4,-0.0026 -2.725e-4,-0.0052 0,-0.0078 A 7.000001,7 0 0 1 4.1269531,9.6894531 7.000001,7 0 0 1 4.1464844,9.578125 c 6.399e-4,-0.00325 0.00128,-0.00653 0.00195,-0.00977 a 7.000001,7 0 0 1 0.1523437,-0.5898438 7.000001,7 0 0 1 0.019531,-0.066406 7.000001,7 0 0 1 3.4746094,-4.1347656 7,7 0 0 1 0.00977,-0.00391 7.000001,7 0 0 1 0.1523437,-0.070312 7.000001,7 0 0 1 0.4707032,-0.2109375 7.000001,7 0 0 1 0.125,-0.044922 c 0.00854,-0.00306 0.016886,-0.00663 0.025391,-0.00977 a 7.000001,7 0 0 1 0.5058594,-0.1679688 7,7 0 0 1 0.00586,-0.00195 7.000001,7 0 0 1 0.1875,-0.044922 A 7.000001,7 0 0 1 9.7246094,4.1210938 7.000001,7 0 0 1 10.042969,4.0742188 7.000001,7 0 0 1 11,4 Z m 6.623047,9.216797 c 0,0 0.002,0.002 0.002,0.002 0.0046,-0.01392 0.0071,-0.02901 0.01172,-0.04297 a 7,7 0 0 1 -0.01367,0.04102 z m 0.01367,-0.04102 a 7,7 0 0 0 0.259765,-1.023437 c -0.06198,0.350964 -0.151424,0.692452 -0.259765,1.023437 z M 4,11 A 7,7 0 0 0 4.0292969,11.599609 7.000001,7 0 0 1 4,11 Z m 0.072266,0.945312 A 7,7 0 0 0 4.123047,12.28125 7.000001,7 0 0 1 4.072266,11.945312 Z m 0.1347656,0.714844 a 7,7 0 0 0 0.078125,0.298828 7.000001,7 0 0 1 -0.078125,-0.298828 z m 0.1972657,0.66211 A 7,7 0 0 0 4.515625,13.623047 7.000001,7 0 0 1 4.4042969,13.322266 Z m 13.1132807,0.210937 a 7.000001,7 0 0 1 -0.271484,0.609375 7,7 0 0 0 0.271484,-0.609375 z M 4.6601562,13.947266 a 7,7 0 0 0 0.15625,0.324218 7.000001,7 0 0 1 -0.15625,-0.324218 z m 12.5683598,0.232422 a 7.000001,7 0 0 1 -0.330078,0.576171 7,7 0 0 0 0.330078,-0.576171 z M 4.9804688,14.558594 a 7,7 0 0 0 0.1855468,0.300781 7.000001,7 0 0 1 -0.1855468,-0.300781 z m 11.9003902,0.224609 a 7.000001,7 0 0 1 -0.371093,0.521485 7,7 0 0 0 0.371093,-0.521485 z M 5.3847656,15.166016 a 7,7 0 0 0 0.1972656,0.257812 7.000001,7 0 0 1 -0.1972656,-0.257812 z m 11.0800784,0.197265 a 7.000001,7 0 0 1 -0.404297,0.460938 7,7 0 0 0 0.404297,-0.460938 z M 5.8164062,15.693359 A 7,7 0 0 0 6.0527344,15.947266 7.000001,7 0 0 1 5.8164062,15.693359 Z M 16,15.888672 A 7.000001,7 0 0 1 15.582031,16.28125 7,7 0 0 0 16,15.888672 Z m -9.6933594,0.294922 a 7,7 0 0 0 0.2695313,0.234375 7.000001,7 0 0 1 -0.2695313,-0.234375 z m 9.1640624,0.193359 a 7.000001,7 0 0 1 -0.421875,0.322266 7,7 0 0 0 0.421875,-0.322266 z m -8.6367186,0.238281 a 7,7 0 0 0 0.3066406,0.21875 7.000001,7 0 0 1 -0.3066406,-0.21875 z m 8.0742186,0.185547 a 7.000001,7 0 0 1 -0.460937,0.28125 7,7 0 0 0 0.460937,-0.28125 z m -7.4667968,0.21875 a 7,7 0 0 0 0.2871094,0.164063 7.000001,7 0 0 1 -0.2871094,-0.164063 z m 6.8749998,0.138672 a 7.000001,7 0 0 1 -0.492187,0.236328 7,7 0 0 0 0.492187,-0.236328 z m -6.2636716,0.181641 a 7,7 0 0 0 0.3242187,0.144531 7.000001,7 0 0 1 -0.3242187,-0.144531 z m 5.6249996,0.121094 a 7.000001,7 0 0 1 -0.4375,0.160156 7,7 0 0 0 0.4375,-0.160156 z m -4.9999996,0.134765 a 7,7 0 0 0 0.3632812,0.119141 7.000001,7 0 0 1 -0.3632812,-0.119141 z m 4.3066406,0.111328 a 7.000001,7 0 0 1 -0.386719,0.09961 7,7 0 0 0 0.386719,-0.09961 z m -3.6445312,0.08594 a 7,7 0 0 0 0.3789062,0.08398 7.000001,7 0 0 1 -0.3789062,-0.08398 z m 2.9648442,0.08008 a 7.000001,7 0 0 1 -0.38086,0.05859 7,7 0 0 0 0.38086,-0.05859 z m -2.25,0.05469 a 7,7 0 0 0 0.345703,0.04297 7.000001,7 0 0 1 -0.345703,-0.04297 z m 1.544921,0.04297 A 7.000001,7 0 0 1 11,18 7,7 0 0 0 11.599609,17.9707 Z"
       id="path4164"
       transform="translate(0,26)"
       inkscape:connector-curvature="0" />
  </g>
</svg>
